<svg width="112" height="116" viewBox="0 0 112 116" fill="none" xmlns="http://www.w3.org/2000/svg">
<path d="M48.848 35.545C49.6466 35.545 50.294 34.5377 50.294 33.295C50.294 32.0524 49.6466 31.045 48.848 31.045C48.0494 31.045 47.402 32.0524 47.402 33.295C47.402 34.5377 48.0494 35.545 48.848 35.545Z" fill="black"/>
<path d="M63.152 35.545C63.9506 35.545 64.598 34.5377 64.598 33.295C64.598 32.0524 63.9506 31.045 63.152 31.045C62.3534 31.045 61.706 32.0524 61.706 33.295C61.706 34.5377 62.3534 35.545 63.152 35.545Z" fill="black"/>
<path d="M55.987 40.893C56.5847 40.8922 57.1577 40.6543 57.5803 40.2316C58.0029 39.8088 58.2405 39.2357 58.241 38.638C58.241 38.5054 58.1883 38.3782 58.0945 38.2844C58.0008 38.1907 57.8736 38.138 57.741 38.138C57.6084 38.138 57.4812 38.1907 57.3874 38.2844C57.2937 38.3782 57.241 38.5054 57.241 38.638C57.2457 38.8057 57.2168 38.9727 57.1559 39.129C57.095 39.2854 57.0033 39.4279 56.8863 39.5482C56.7694 39.6685 56.6295 39.7642 56.4749 39.8295C56.3204 39.8948 56.1543 39.9284 55.9865 39.9284C55.8187 39.9284 55.6526 39.8948 55.4981 39.8295C55.3435 39.7642 55.2036 39.6685 55.0866 39.5482C54.9697 39.4279 54.878 39.2854 54.8171 39.129C54.7562 38.9727 54.7273 38.8057 54.732 38.638C54.732 38.5054 54.6793 38.3782 54.5855 38.2844C54.4918 38.1907 54.3646 38.138 54.232 38.138C54.0994 38.138 53.9722 38.1907 53.8784 38.2844C53.7847 38.3782 53.732 38.5054 53.732 38.638C53.7328 39.2358 53.9706 39.8089 54.3933 40.2316C54.8161 40.6544 55.3892 40.8922 55.987 40.893Z" fill="black"/>
<path d="M62.154 42.344C62.0909 42.3255 62.0249 42.3195 61.9595 42.3265C61.8942 42.3335 61.8309 42.3533 61.7732 42.3848C61.7155 42.4163 61.6646 42.4588 61.6234 42.51C61.5822 42.5612 61.5515 42.62 61.533 42.683C60.696 45.537 58.833 46.983 55.987 46.983C53.141 46.983 51.277 45.537 50.44 42.683C50.4027 42.5557 50.3164 42.4484 50.2 42.3847C50.0837 42.3211 49.9468 42.3062 49.8195 42.3435C49.6922 42.3808 49.5849 42.4671 49.5212 42.5834C49.4576 42.6998 49.4427 42.8367 49.48 42.964C49.8575 44.4019 50.7007 45.6743 51.8779 46.5823C53.055 47.4903 54.4998 47.9828 55.9865 47.9828C57.4731 47.9828 58.9179 47.4903 60.0951 46.5823C61.2723 45.6743 62.1155 44.4019 62.493 42.964C62.5301 42.8368 62.5153 42.7001 62.4518 42.5839C62.3882 42.4676 62.2811 42.3814 62.154 42.344Z" fill="black"/>
<path d="M109.521 88.362C108.219 87.9281 107.058 87.1485 106.165 86.1065C105.271 85.0645 104.677 83.7993 104.446 82.446C104.423 82.3331 104.362 82.2316 104.272 82.1587C104.183 82.0858 104.071 82.046 103.956 82.046C103.841 82.046 103.729 82.0858 103.64 82.1587C103.55 82.2316 103.489 82.3331 103.466 82.446C103.227 83.7287 102.678 84.9335 101.866 85.955L97.666 48.377L97.584 47.866C93.851 24.193 82.121 14.166 72.725 9.911L73.482 8.633C73.5231 8.56347 73.5468 8.485 73.551 8.40431C73.5552 8.32362 73.5398 8.24311 73.5061 8.16968C73.4724 8.09626 73.4214 8.03209 73.3574 7.98269C73.2935 7.93328 73.2185 7.90011 73.139 7.886L68 6.977L66.49 2.906C66.4651 2.83897 66.4261 2.77806 66.3757 2.72738C66.3252 2.6767 66.2645 2.63743 66.1976 2.61222C66.1306 2.587 66.0591 2.57644 65.9878 2.58123C65.9164 2.58603 65.8469 2.60607 65.784 2.64L61.584 4.898L56.3 0.900003C56.2134 0.835092 56.1082 0.800003 56 0.800003C55.8918 0.800003 55.7865 0.835092 55.7 0.900003L50.416 4.9L46.216 2.642C46.153 2.60807 46.0836 2.58803 46.0122 2.58323C45.9409 2.57844 45.8693 2.58901 45.8024 2.61422C45.7355 2.63943 45.6748 2.6787 45.6243 2.72938C45.5739 2.78006 45.5349 2.84097 45.51 2.908L44 6.977L38.862 7.888C38.7824 7.90211 38.7075 7.93528 38.6435 7.98469C38.5796 8.03409 38.5286 8.09826 38.4949 8.17169C38.4612 8.24511 38.4457 8.32562 38.4499 8.40631C38.4541 8.487 38.4778 8.56547 38.519 8.635L39.276 9.913C29.876 14.163 18.15 24.195 14.417 47.868L14.332 48.404L6.92198 114.645C6.91422 114.715 6.92139 114.786 6.94301 114.853C6.96464 114.92 7.00024 114.982 7.04746 115.035C7.09469 115.087 7.15248 115.129 7.21703 115.157C7.28158 115.186 7.35142 115.2 7.42198 115.2H104.582C104.653 115.2 104.722 115.186 104.787 115.157C104.851 115.129 104.909 115.087 104.956 115.035C105.004 114.982 105.039 114.92 105.061 114.853C105.083 114.786 105.09 114.715 105.082 114.645L102.648 92.885C103.034 93.6173 103.314 94.4008 103.48 95.212C103.503 95.3249 103.564 95.4264 103.654 95.4993C103.743 95.5722 103.855 95.612 103.97 95.612C104.085 95.612 104.197 95.5722 104.286 95.4993C104.376 95.4264 104.437 95.3249 104.46 95.212C104.687 93.8589 105.279 92.5933 106.171 91.5513C107.064 90.5092 108.224 89.7302 109.526 89.298C109.621 89.262 109.703 89.198 109.76 89.1145C109.818 89.031 109.849 88.932 109.849 88.8305C109.849 88.729 109.818 88.63 109.76 88.5465C109.703 88.463 109.621 88.399 109.526 88.363L109.521 88.362ZM44.457 7.912C44.5429 7.8969 44.6233 7.85961 44.6903 7.80383C44.7573 7.74805 44.8086 7.67571 44.839 7.594L46.249 3.794L50.223 5.933C50.3074 5.9784 50.4031 5.99858 50.4986 5.99113C50.5942 5.98369 50.6856 5.94893 50.762 5.891L56 1.927L61.238 5.889C61.3143 5.94693 61.4058 5.98169 61.5013 5.98913C61.5969 5.99658 61.6926 5.9764 61.777 5.931L65.751 3.792L67.161 7.592C67.1913 7.67358 67.2424 7.74584 67.3092 7.80161C67.3761 7.85738 67.4563 7.89474 67.542 7.91L72.252 8.744L70.092 12.4C66.4776 10.1269 62.4213 8.64817 58.192 8.062C56.7407 7.824 55.2603 7.824 53.809 8.062C49.5796 8.64802 45.5233 10.1267 41.909 12.4L39.749 8.751L44.457 7.912ZM71.8 100.261C74.173 95.981 75.3 90.194 75.349 82.093C75.358 80.456 75.325 78.693 75.249 76.693C75.245 76.5864 75.2071 76.4839 75.1407 76.4004C75.0743 76.3169 74.9829 76.2569 74.88 76.229C67.433 74.215 61.255 74.715 56 77.76C50.745 74.715 44.565 74.214 37.12 76.227C37.0168 76.2547 36.9253 76.3147 36.8587 76.3982C36.7921 76.4817 36.754 76.5843 36.75 76.691C36.674 78.691 36.641 80.456 36.65 82.091C36.697 90.191 37.826 95.979 40.199 100.259C38.5242 102.749 37.235 105.478 36.375 108.353L23.886 101.836C24.861 97 25.849 91.138 26.5 84.8C28.16 68.568 34.855 68.1 40.827 67.678C46.446 67.286 51.46 66.013 51.209 55.148C54.3575 55.9213 57.6464 55.9213 60.795 55.148C60.545 66.011 65.559 67.284 71.243 67.681C77.149 68.096 83.843 68.566 85.504 84.798C86.116 90.775 87.03 96.317 87.949 100.986L75.617 108.319C74.7563 105.457 73.4695 102.74 71.8 100.261ZM70.845 99.905C66.2344 102.207 61.1518 103.405 55.9985 103.405C50.8452 103.405 45.7625 102.207 41.152 99.905C38.852 95.829 37.735 90.264 37.657 82.444C42.657 80.699 51.29 79.079 55.566 86.499C55.6099 86.575 55.673 86.6381 55.749 86.682C55.825 86.7259 55.9112 86.749 55.999 86.749C56.0867 86.749 56.173 86.7259 56.249 86.682C56.325 86.6381 56.3881 86.575 56.432 86.499C60.708 79.08 69.343 80.699 74.341 82.444C74.264 90.264 73.15 95.829 70.845 99.905ZM37.671 79.453C37.671 79.343 37.676 79.23 37.678 79.118C37.692 78.468 37.71 77.802 37.736 77.098C44.869 75.24 50.761 75.787 55.743 78.769C55.8206 78.8155 55.9095 78.8401 56 78.8401C56.0905 78.8401 56.1793 78.8155 56.257 78.769C61.238 75.787 67.13 75.238 74.264 77.098C74.29 77.798 74.308 78.468 74.322 79.118C74.322 79.23 74.322 79.343 74.329 79.453C74.341 80.062 74.348 80.648 74.35 81.219V81.386C69.176 79.641 60.65 78.214 56 85.296C53.321 81.218 49.361 79.962 45.494 79.962C42.8202 80.0165 40.1723 80.4972 37.65 81.386V81.219C37.652 80.648 37.659 80.062 37.671 79.453ZM61.208 54.03C61.1829 54.0348 61.1582 54.0411 61.134 54.049C57.7733 54.9577 54.2316 54.9577 50.871 54.049C50.8514 54.0425 50.8313 54.0374 50.811 54.034C46.05 52.746 42.773 49.634 40.898 44.544C40.8888 44.4729 40.8642 44.4046 40.826 44.344C39.624 40.659 39.0045 36.809 38.99 32.933C46.793 31.4 52.371 26.69 56 18.569C59.629 26.689 65.206 31.396 73.008 32.932C72.9926 36.8043 72.3735 40.6505 71.173 44.332C71.133 44.3953 71.1077 44.4667 71.099 44.541C69.228 49.634 65.958 52.741 61.208 54.03ZM34.432 34.65C34.7621 34.2152 35.2511 33.9289 35.7918 33.8539C36.3326 33.7789 36.881 33.9214 37.317 34.25C36.4454 37.059 36.2198 40.0286 36.657 42.937C35.7303 42.2644 34.9867 41.3706 34.494 40.337C33.512 38.3 33.485 35.847 34.432 34.65ZM38.102 35.227C38.2694 38.2199 38.8116 41.1801 39.716 44.038C39.069 43.9812 38.4339 43.8296 37.831 43.588C37.2788 40.8172 37.3708 37.9566 38.1 35.227H38.102ZM73.862 35.652C74.5028 38.2782 74.5534 41.0139 74.01 43.662C73.4536 43.8625 72.8733 43.9889 72.284 44.038C73.1467 41.3166 73.6765 38.5008 73.862 35.652ZM74.562 34.316C74.8796 34.0784 75.2521 33.9248 75.6449 33.8695C76.0377 33.8143 76.4381 33.8592 76.809 34C76.8454 34.0266 76.8855 34.0479 76.928 34.063C77.1769 34.215 77.3942 34.4137 77.568 34.648C78.515 35.848 78.488 38.293 77.506 40.341C76.9843 41.4356 76.18 42.3711 75.176 43.051C75.6355 40.1302 75.4242 37.1431 74.558 34.316H74.562ZM76.724 32.916C75.8736 32.7566 74.9943 32.915 74.253 33.361C74.162 33.105 74.083 32.897 74.015 32.731C74.015 32.661 74.023 32.598 74.024 32.531C74.0259 32.4125 73.9856 32.2971 73.9103 32.2055C73.835 32.1139 73.7296 32.0521 73.613 32.031C65.6 30.584 60 25.705 56.462 17.11C56.4182 17.0252 56.3519 16.9542 56.2704 16.9045C56.189 16.8549 56.0954 16.8287 56 16.8287C55.9046 16.8287 55.811 16.8549 55.7295 16.9045C55.648 16.9542 55.5818 17.0252 55.538 17.11C52 25.705 46.4 30.584 38.391 32.028C38.3767 32.0325 38.3626 32.0378 38.349 32.044C38.3222 32.0513 38.296 32.061 38.271 32.073C38.24 32.0868 38.2108 32.1043 38.184 32.125C38.1626 32.1407 38.1425 32.1581 38.124 32.177C38.0986 32.204 38.0764 32.2339 38.058 32.266C38.0468 32.2793 38.0364 32.2934 38.027 32.308C37.996 32.374 37.837 32.722 37.627 33.294C36.9141 32.8898 36.0797 32.7553 35.276 32.915C34.551 28.515 34.504 22.483 37.957 17.56C41.039 13.166 46.427 10.3 53.969 9.043C55.3121 8.82397 56.6819 8.82397 58.025 9.043C65.57 10.3 70.957 13.166 74.04 17.56C77.494 22.484 77.446 28.52 76.72 32.919L76.724 32.916ZM15.324 48.538L15.406 48.02C19.083 24.706 30.6 14.9 39.789 10.779L41.1 12.993C39.5758 14.1036 38.2395 15.4514 37.142 16.985C33.418 22.295 33.542 28.764 34.342 33.373C34.0796 33.5588 33.844 33.7799 33.642 34.03C32.455 35.53 32.432 38.367 33.586 40.775C34.2829 42.2755 35.4584 43.5021 36.928 44.262C37.319 45.8358 37.9504 47.3398 38.8 48.721C43.217 55.9 39.85 60.763 39.7 60.967C39.6614 61.0204 39.6337 61.081 39.6186 61.1452C39.6034 61.2093 39.6012 61.2759 39.6118 61.3409C39.6225 61.406 39.646 61.4683 39.6808 61.5243C39.7157 61.5802 39.7613 61.6287 39.815 61.667C39.8682 61.7058 39.9286 61.7336 39.9927 61.749C40.0568 61.7644 40.1232 61.7669 40.1883 61.7565C40.2533 61.7461 40.3157 61.7229 40.3717 61.6884C40.4278 61.6538 40.4765 61.6085 40.515 61.555C40.678 61.331 44.433 55.972 39.652 48.2C38.9956 47.1246 38.4832 45.9678 38.128 44.759C38.7612 44.946 39.4152 45.0535 40.075 45.079C42.043 50.216 45.398 53.479 50.189 54.897C50.505 65.142 46.104 66.311 40.683 66.689C34.695 67.11 27.243 67.634 25.496 84.702C24.4566 94.6735 22.5847 104.541 19.9 114.2H7.97898L15.324 48.538ZM23.676 102.853L36.089 109.33C35.651 110.83 35.259 112.446 34.913 114.197H20.936C21.37 112.679 22.5 108.551 23.676 102.856V102.853ZM35.927 114.2C37.068 108.493 38.685 104.254 40.972 100.92C45.648 103.219 50.789 104.414 55.9995 104.414C61.21 104.414 66.351 103.219 71.027 100.92C73.314 104.254 74.932 108.493 76.073 114.2H35.927ZM77.087 114.2C76.74 112.441 76.346 110.82 75.905 109.312L88.153 102.03C89.395 108.159 90.609 112.605 91.064 114.2H77.087ZM104.021 114.2H92.1C89.4134 104.54 87.5402 94.6724 86.5 84.7C84.753 67.632 77.3 67.108 71.247 66.682C65.892 66.309 61.492 65.141 61.807 54.897C66.597 53.476 69.953 50.217 71.922 45.077C72.5256 45.0552 73.1247 44.9649 73.708 44.808C73.354 45.9991 72.8471 47.1392 72.2 48.2C67.419 55.972 71.175 61.331 71.337 61.555C71.4159 61.6591 71.5325 61.7282 71.6617 61.7475C71.791 61.7667 71.9226 61.7346 72.0285 61.658C72.1343 61.5814 72.206 61.4664 72.2282 61.3377C72.2503 61.2089 72.2212 61.0766 72.147 60.969C72.111 60.92 68.618 55.933 73.052 48.724C73.8853 47.3673 74.5083 45.8923 74.9 44.349C76.4438 43.5969 77.6803 42.3343 78.4 40.775C79.554 38.367 79.531 35.53 78.344 34.029C78.1419 33.7798 77.9063 33.5597 77.644 33.375C78.444 28.766 78.57 22.295 74.844 16.985C73.7507 15.4524 72.4192 14.1047 70.9 12.993L72.211 10.779C81.4 14.9 92.917 24.706 96.594 48.023L100.964 86.88C100.201 87.5178 99.3335 88.0192 98.4 88.362C98.3051 88.398 98.2234 88.462 98.1658 88.5455C98.1082 88.629 98.0773 88.728 98.0773 88.8295C98.0773 88.931 98.1082 89.03 98.1658 89.1135C98.2234 89.197 98.3051 89.261 98.4 89.297C99.5493 89.7132 100.592 90.3792 101.453 91.247L104.021 114.2ZM103.963 93.341C103.575 92.3401 102.998 91.4234 102.263 90.641C102.252 90.6295 102.24 90.6189 102.227 90.609C101.532 89.8805 100.716 89.2774 99.816 88.826C101.72 87.903 103.2 86.2896 103.957 84.314C104.716 86.2899 106.197 87.9039 108.1 88.83C106.198 89.7534 104.719 91.3663 103.963 93.341Z" fill="black"/>
<path d="M7.34099 15.037C8.41113 15.3941 9.3642 16.0351 10.0985 16.8916C10.8327 17.7481 11.3206 18.7879 11.51 19.9C11.533 20.0128 11.5942 20.1142 11.6833 20.187C11.7724 20.2599 11.8839 20.2998 11.999 20.3C12.1141 20.2998 12.2256 20.2599 12.3147 20.187C12.4038 20.1142 12.465 20.0128 12.488 19.9C12.6753 18.7887 13.1617 17.7494 13.8949 16.8935C14.6282 16.0377 15.5806 15.3976 16.65 15.042C16.7449 15.006 16.8265 14.942 16.8842 14.8585C16.9418 14.775 16.9727 14.676 16.9727 14.5745C16.9727 14.473 16.9418 14.374 16.8842 14.2905C16.8265 14.207 16.7449 14.143 16.65 14.107C15.5802 13.7505 14.6273 13.1102 13.8931 12.2544C13.1588 11.3987 12.6707 10.3595 12.481 9.24801C12.4579 9.13507 12.3966 9.03357 12.3073 8.96068C12.218 8.88779 12.1063 8.84798 11.991 8.84801C11.8757 8.84798 11.764 8.88779 11.6747 8.96068C11.5854 9.03357 11.524 9.13507 11.501 9.24801C11.3135 10.3583 10.8273 11.3965 10.0944 12.2513C9.36146 13.1062 8.40962 13.7452 7.34099 14.1C7.24612 14.136 7.16445 14.2 7.10681 14.2835C7.04918 14.367 7.01831 14.466 7.01831 14.5675C7.01831 14.669 7.04918 14.768 7.10681 14.8515C7.16445 14.935 7.24612 14.999 7.34099 15.035V15.037ZM11.994 11.037C12.631 12.5636 13.7881 13.8152 15.26 14.57C13.7893 15.3231 12.6339 16.5741 12 18.1C11.3622 16.5749 10.2052 15.3248 8.73399 14.571C10.2047 13.8179 11.3601 12.5669 11.994 11.041V11.037Z" fill="black"/>
<path d="M3.84796 26.2H5.95996V28.311C5.95996 28.4436 6.01264 28.5708 6.10641 28.6646C6.20018 28.7583 6.32735 28.811 6.45996 28.811C6.59257 28.811 6.71975 28.7583 6.81352 28.6646C6.90728 28.5708 6.95996 28.4436 6.95996 28.311V26.2H9.07196C9.20457 26.2 9.33175 26.1473 9.42552 26.0536C9.51928 25.9598 9.57196 25.8326 9.57196 25.7C9.57196 25.5674 9.51928 25.4402 9.42552 25.3465C9.33175 25.2527 9.20457 25.2 9.07196 25.2H6.95996V23.089C6.95996 22.9564 6.90728 22.8292 6.81352 22.7355C6.71975 22.6417 6.59257 22.589 6.45996 22.589C6.32735 22.589 6.20018 22.6417 6.10641 22.7355C6.01264 22.8292 5.95996 22.9564 5.95996 23.089V25.2H3.84796C3.71535 25.2 3.58818 25.2527 3.49441 25.3465C3.40064 25.4402 3.34796 25.5674 3.34796 25.7C3.34796 25.8326 3.40064 25.9598 3.49441 26.0536C3.58818 26.1473 3.71535 26.2 3.84796 26.2Z" fill="black"/>
<path d="M103.3 33.17C103.433 33.17 103.56 33.1173 103.654 33.0236C103.747 32.9298 103.8 32.8026 103.8 32.67V31.464H105C105.133 31.464 105.26 31.4113 105.354 31.3176C105.447 31.2238 105.5 31.0966 105.5 30.964C105.5 30.8314 105.447 30.7042 105.354 30.6105C105.26 30.5167 105.133 30.464 105 30.464H103.8V29.264C103.8 29.1314 103.747 29.0042 103.654 28.9105C103.56 28.8167 103.433 28.764 103.3 28.764C103.167 28.764 103.04 28.8167 102.946 28.9105C102.853 29.0042 102.8 29.1314 102.8 29.264V30.464H101.594C101.461 30.464 101.334 30.5167 101.24 30.6105C101.147 30.7042 101.094 30.8314 101.094 30.964C101.094 31.0966 101.147 31.2238 101.24 31.3176C101.334 31.4113 101.461 31.464 101.594 31.464H102.8V32.67C102.8 32.8026 102.853 32.9298 102.946 33.0236C103.04 33.1173 103.167 33.17 103.3 33.17Z" fill="black"/>
<path d="M111.049 76.732H109.844V75.532C109.844 75.3994 109.791 75.2722 109.698 75.1784C109.604 75.0847 109.477 75.032 109.344 75.032C109.211 75.032 109.084 75.0847 108.99 75.1784C108.897 75.2722 108.844 75.3994 108.844 75.532V76.732H107.638C107.505 76.732 107.378 76.7847 107.284 76.8784C107.191 76.9722 107.138 77.0994 107.138 77.232C107.138 77.3646 107.191 77.4918 107.284 77.5855C107.378 77.6793 107.505 77.732 107.638 77.732H108.844V78.938C108.844 79.0706 108.897 79.1978 108.99 79.2915C109.084 79.3853 109.211 79.438 109.344 79.438C109.477 79.438 109.604 79.3853 109.698 79.2915C109.791 79.1978 109.844 79.0706 109.844 78.938V77.732H111.049C111.182 77.732 111.309 77.6793 111.403 77.5855C111.496 77.4918 111.549 77.3646 111.549 77.232C111.549 77.0994 111.496 76.9722 111.403 76.8784C111.309 76.7847 111.182 76.732 111.049 76.732Z" fill="black"/>
<path d="M6.95999 80.591H8.21399C8.3466 80.591 8.47378 80.5383 8.56755 80.4446C8.66131 80.3508 8.71399 80.2236 8.71399 80.091C8.71399 79.9584 8.66131 79.8312 8.56755 79.7374C8.47378 79.6437 8.3466 79.591 8.21399 79.591H6.95999V78.336C6.95999 78.2034 6.90732 78.0762 6.81355 77.9824C6.71978 77.8887 6.5926 77.836 6.45999 77.836C6.32739 77.836 6.20021 77.8887 6.10644 77.9824C6.01267 78.0762 5.95999 78.2034 5.95999 78.336V79.591H4.70599C4.57339 79.591 4.44621 79.6437 4.35244 79.7374C4.25867 79.8312 4.20599 79.9584 4.20599 80.091C4.20599 80.2236 4.25867 80.3508 4.35244 80.4446C4.44621 80.5383 4.57339 80.591 4.70599 80.591H5.95999V81.845C5.95999 81.9776 6.01267 82.1048 6.10644 82.1986C6.20021 82.2923 6.32739 82.345 6.45999 82.345C6.5926 82.345 6.71978 82.2923 6.81355 82.1986C6.90732 82.1048 6.95999 81.9776 6.95999 81.845V80.591Z" fill="black"/>
<path d="M102.461 21.027C102.494 21.0332 102.527 21.0362 102.561 21.036C102.595 21.0362 102.628 21.0331 102.661 21.027C104.052 20.7973 105.294 20.0251 106.116 18.88C106.4 18.4548 106.593 17.976 106.684 17.473C106.776 16.97 106.762 16.4537 106.646 15.956C106.562 15.5289 106.358 15.1349 106.056 14.8211C105.755 14.5072 105.369 14.2867 104.946 14.186C104.501 14.14 104.051 14.2041 103.636 14.3727C103.221 14.5413 102.854 14.8093 102.567 15.153C102.279 14.808 101.91 14.5395 101.493 14.3712C101.077 14.2029 100.625 14.1399 100.178 14.188C99.7496 14.2909 99.3602 14.5157 99.0568 14.8351C98.7533 15.1545 98.5488 15.5549 98.468 15.988C98.3578 16.4833 98.3495 16.9958 98.4437 17.4944C98.538 17.9929 98.7326 18.4671 99.016 18.888C99.4199 19.4549 99.9325 19.936 100.524 20.3032C101.115 20.6704 101.774 20.9164 102.461 21.027ZM99.427 16.237C99.554 15.804 99.816 15.267 100.346 15.171C100.403 15.1609 100.46 15.1559 100.518 15.156C100.853 15.2026 101.173 15.3225 101.457 15.5071C101.74 15.6917 101.979 15.9364 102.157 16.224C102.201 16.2883 102.261 16.3403 102.331 16.3752C102.401 16.4102 102.479 16.427 102.557 16.424C102.635 16.424 102.711 16.4059 102.781 16.3712C102.85 16.3365 102.91 16.2861 102.957 16.224C103.138 15.9056 103.399 15.6405 103.715 15.4558C104.032 15.271 104.391 15.1731 104.757 15.172C104.988 15.2445 105.196 15.3789 105.356 15.5606C105.517 15.7423 105.625 15.9644 105.669 16.203C105.75 16.5664 105.757 16.9426 105.688 17.3086C105.619 17.6746 105.477 18.0228 105.269 18.332C104.617 19.2285 103.643 19.8378 102.552 20.032C101.462 19.84 100.488 19.2345 99.834 18.342C99.628 18.0366 99.4858 17.6927 99.4159 17.331C99.3459 16.9693 99.3497 16.5972 99.427 16.237Z" fill="black"/>
<path d="M6.31398 64.474C6.53017 64.1489 6.67723 63.7829 6.74604 63.3986C6.81484 63.0143 6.80393 62.6199 6.71398 62.24C6.65102 61.9034 6.49007 61.5929 6.25134 61.3474C6.0126 61.1019 5.70669 60.9323 5.37198 60.86C5.05024 60.8215 4.72394 60.8596 4.41978 60.9714C4.11562 61.0831 3.84223 61.2653 3.62198 61.503C3.40023 61.2656 3.12573 61.0837 2.82069 60.972C2.51564 60.8603 2.1886 60.8219 1.86598 60.86C1.52646 60.9367 1.21717 61.112 0.976984 61.364C0.736794 61.6159 0.57641 61.9332 0.515982 62.276C0.432947 62.6518 0.427091 63.0406 0.49877 63.4188C0.57045 63.7969 0.718172 64.1566 0.932982 64.476C1.23649 64.9035 1.62225 65.2662 2.06766 65.5429C2.51307 65.8195 3.0092 66.0045 3.52698 66.087C3.55995 66.0932 3.59344 66.0962 3.62698 66.096C3.66052 66.0961 3.694 66.0931 3.72698 66.087C4.76843 65.9119 5.69839 65.3321 6.31398 64.474ZM5.47798 63.924C5.03141 64.5351 4.3675 64.9517 3.62298 65.088C2.87898 64.9523 2.215 64.5373 1.76698 63.928C1.62859 63.7241 1.53235 63.4946 1.48392 63.253C1.43549 63.0113 1.43585 62.7625 1.48498 62.521C1.56598 62.244 1.72898 61.902 2.04398 61.845C2.07698 61.839 2.11045 61.836 2.14398 61.836C2.365 61.8711 2.57583 61.9535 2.76205 62.0776C2.94828 62.2017 3.10551 62.3645 3.22298 62.555C3.26546 62.6213 3.32505 62.6748 3.39546 62.71C3.46587 62.7452 3.54448 62.7608 3.62298 62.755C3.70061 62.755 3.77716 62.7369 3.84659 62.7022C3.91602 62.6675 3.97641 62.6171 4.02298 62.555C4.14027 62.3456 4.30977 62.1702 4.51498 62.0458C4.72019 61.9214 4.95411 61.8522 5.19398 61.845C5.50898 61.902 5.67198 62.245 5.74498 62.487C5.80023 62.7321 5.80505 62.9859 5.75915 63.2329C5.71325 63.48 5.61759 63.7151 5.47798 63.924Z" fill="black"/>
</svg>
