<svg width="102" height="114" viewBox="0 0 102 114" fill="none" xmlns="http://www.w3.org/2000/svg">
<path d="M94.033 34.571C94.033 34.4694 94.0022 34.3702 93.9445 34.2866C93.8868 34.203 93.805 34.139 93.71 34.103C92.783 33.7943 91.9574 33.2395 91.3212 32.498C90.685 31.7565 90.2622 30.8561 90.098 29.893C90.0749 29.7801 90.0135 29.6786 89.9242 29.6057C89.835 29.5328 89.7232 29.493 89.608 29.493C89.4929 29.4932 89.3814 29.5331 89.2923 29.606C89.2032 29.6789 89.142 29.7802 89.119 29.893C88.9569 30.8561 88.5356 31.7568 87.9003 32.4985C87.265 33.2402 86.4397 33.7949 85.513 34.103C85.4184 34.1392 85.3371 34.2032 85.2797 34.2866C85.2223 34.37 85.1916 34.4688 85.1916 34.57C85.1916 34.6712 85.2223 34.7701 85.2797 34.8535C85.3371 34.9368 85.4184 35.0008 85.513 35.037C86.4398 35.3464 87.2654 35.9014 87.9017 36.643C88.5379 37.3846 88.9611 38.2849 89.126 39.248C89.149 39.3608 89.2102 39.4622 89.2993 39.535C89.3884 39.6079 89.4999 39.6478 89.615 39.648C89.73 39.6478 89.8415 39.6079 89.9306 39.535C90.0197 39.4622 90.0809 39.3608 90.104 39.248C90.2657 38.2849 90.6869 37.3842 91.3222 36.6426C91.9576 35.9009 92.7831 35.3466 93.71 35.039C93.805 35.0031 93.8868 34.939 93.9445 34.8554C94.0022 34.7718 94.033 34.6726 94.033 34.571ZM89.612 37.505C89.0545 36.2507 88.0945 35.2182 86.884 34.571C88.0943 33.9246 89.0536 32.8918 89.609 31.637C90.1671 32.8912 91.1274 33.9236 92.338 34.571C91.1273 35.2173 90.1677 36.2502 89.612 37.505Z" fill="black"/>
<path d="M11.8 52.118C10.5292 51.6949 9.39717 50.9346 8.52497 49.9181C7.65276 48.9016 7.07312 47.6673 6.84797 46.347C6.82492 46.2341 6.76355 46.1326 6.67426 46.0597C6.58497 45.9868 6.47324 45.947 6.35797 45.947C6.24288 45.9472 6.13138 45.9871 6.04229 46.06C5.95321 46.1329 5.89199 46.2342 5.86897 46.347C5.64693 47.6672 5.06934 48.902 4.19827 49.9186C3.32719 50.9352 2.19555 51.6952 0.924972 52.117C0.830106 52.153 0.748431 52.217 0.690797 52.3005C0.633162 52.384 0.602295 52.483 0.602295 52.5845C0.602295 52.686 0.633162 52.785 0.690797 52.8685C0.748431 52.952 0.830106 53.016 0.924972 53.052C2.19593 53.4754 3.32799 54.2361 4.20018 55.2529C5.07238 56.2697 5.65195 57.5044 5.87697 58.825C5.90003 58.9379 5.96139 59.0394 6.05068 59.1123C6.13997 59.1852 6.25171 59.225 6.36697 59.225C6.48207 59.2248 6.59356 59.1849 6.68265 59.112C6.77174 59.0391 6.83295 58.9378 6.85597 58.825C7.07809 57.5046 7.65568 56.2696 8.52672 55.2527C9.39776 54.2358 10.5293 53.4753 11.8 53.053C11.8948 53.017 11.9765 52.953 12.0341 52.8695C12.0918 52.786 12.1226 52.687 12.1226 52.5855C12.1226 52.484 12.0918 52.385 12.0341 52.3015C11.9765 52.218 11.8948 52.154 11.8 52.118ZM6.36397 56.963C5.62007 55.05 4.18304 53.4873 2.33897 52.586C4.18309 51.686 5.61925 50.1227 6.35997 48.209C7.10362 50.1221 8.54072 51.6849 10.385 52.586C8.54065 53.486 7.10519 55.0493 6.36397 56.963Z" fill="black"/>
<path d="M15.692 17.144C15.9753 16.7187 16.1684 16.2397 16.2594 15.7368C16.3504 15.2339 16.3373 14.7177 16.221 14.22C16.1376 13.7928 15.9329 13.3987 15.6315 13.0848C15.33 12.7709 14.9444 12.5505 14.521 12.45C14.0754 12.4038 13.6253 12.4678 13.2103 12.6364C12.7952 12.8051 12.428 13.0731 12.141 13.417C11.8523 13.0727 11.4835 12.8046 11.0669 12.6361C10.6504 12.4677 10.1988 12.4041 9.75196 12.451C9.32303 12.5547 8.93333 12.7804 8.63003 13.1009C8.32672 13.4215 8.12281 13.823 8.04296 14.257C7.93331 14.7514 7.92526 15.263 8.01929 15.7607C8.11332 16.2583 8.30747 16.7317 8.58996 17.152C8.99534 17.72 9.50968 18.2016 10.103 18.5688C10.6963 18.936 11.3568 19.1815 12.046 19.291C12.0789 19.2972 12.1124 19.3002 12.146 19.3C12.1795 19.3002 12.213 19.2972 12.246 19.291C13.6329 19.0581 14.8716 18.2864 15.692 17.144ZM12.139 18.29C11.0493 18.0979 10.0759 17.4925 9.42196 16.6C9.21589 16.2955 9.07314 15.9527 9.00219 15.5919C8.93124 15.2312 8.93354 14.8599 9.00896 14.5C9.13596 14.067 9.39796 13.53 9.92796 13.434C9.98503 13.4235 10.0429 13.4182 10.101 13.418C10.4358 13.4649 10.7561 13.5849 11.0393 13.7697C11.3224 13.9545 11.5613 14.1994 11.739 14.487C11.7855 14.5491 11.8459 14.5995 11.9154 14.6342C11.9848 14.6689 12.0613 14.687 12.139 14.687C12.2166 14.687 12.2931 14.6689 12.3626 14.6342C12.432 14.5995 12.4924 14.5491 12.539 14.487C12.7198 14.1688 12.9816 13.9041 13.2977 13.7195C13.6137 13.5349 13.9729 13.4371 14.339 13.436C14.5703 13.5087 14.7773 13.6431 14.9379 13.8248C15.0984 14.0065 15.2063 14.2285 15.25 14.467C15.3316 14.8303 15.3383 15.2064 15.2695 15.5723C15.2007 15.9382 15.058 16.2862 14.85 16.595C14.1987 17.4885 13.2274 18.0957 12.139 18.29Z" fill="black"/>
<path d="M101.3 84.452C101.217 84.0247 101.012 83.6305 100.711 83.3167C100.409 83.0029 100.024 82.7829 99.6 82.683C99.1545 82.6356 98.7043 82.699 98.2893 82.8675C97.8742 83.036 97.5073 83.3045 97.221 83.649C96.9326 83.304 96.5637 83.0354 96.1469 82.8669C95.73 82.6984 95.278 82.6352 94.831 82.683C94.403 82.7865 94.0139 83.0114 93.7108 83.3307C93.4076 83.6501 93.2031 84.0502 93.122 84.483C93.0118 84.9783 93.0036 85.4908 93.0978 85.9893C93.192 86.4879 93.3867 86.9621 93.67 87.383C94.075 87.9513 94.5892 88.4332 95.1826 88.8004C95.776 89.1677 96.4367 89.413 97.126 89.522C97.1589 89.5283 97.1924 89.5314 97.226 89.531C97.2595 89.5312 97.293 89.5282 97.326 89.522C98.7164 89.2926 99.9591 88.5208 100.781 87.376C101.063 86.95 101.254 86.4707 101.343 85.9678C101.433 85.4648 101.418 84.949 101.3 84.452ZM99.934 86.827C99.2825 87.7219 98.3092 88.3292 97.219 88.521C96.129 88.3303 95.1551 87.7254 94.501 86.833C94.2948 86.5285 94.1521 86.1857 94.0811 85.825C94.0102 85.4642 94.0125 85.0928 94.088 84.733C94.216 84.3 94.477 83.763 95.007 83.667C95.0641 83.6569 95.122 83.6519 95.18 83.652C95.5149 83.6986 95.8354 83.8185 96.1187 84.0031C96.402 84.1877 96.6411 84.4324 96.819 84.72C96.8655 84.7821 96.9259 84.8325 96.9954 84.8672C97.0648 84.9019 97.1413 84.92 97.219 84.92C97.2966 84.92 97.3731 84.9019 97.4426 84.8672C97.512 84.8325 97.5724 84.7821 97.619 84.72C97.8004 84.4022 98.0622 84.1376 98.3781 83.953C98.6941 83.7683 99.053 83.67 99.419 83.668C99.6503 83.7408 99.8574 83.8752 100.018 84.0569C100.179 84.2385 100.287 84.4605 100.331 84.699C100.413 85.062 100.42 85.4379 100.352 85.8037C100.284 86.1696 100.141 86.5177 99.934 86.827Z" fill="black"/>
<path d="M6.36095 84.358H5.15595V83.152C5.15595 83.0194 5.10327 82.8922 5.00951 82.7985C4.91574 82.7047 4.78856 82.652 4.65595 82.652C4.52334 82.652 4.39617 82.7047 4.3024 82.7985C4.20863 82.8922 4.15595 83.0194 4.15595 83.152V84.358H2.94995C2.81734 84.358 2.69017 84.4107 2.5964 84.5045C2.50263 84.5982 2.44995 84.7254 2.44995 84.858C2.44995 84.9906 2.50263 85.1178 2.5964 85.2116C2.69017 85.3053 2.81734 85.358 2.94995 85.358H4.15595V86.564C4.15595 86.6966 4.20863 86.8238 4.3024 86.9176C4.39617 87.0113 4.52334 87.064 4.65595 87.064C4.78856 87.064 4.91574 87.0113 5.00951 86.9176C5.10327 86.8238 5.15595 86.6966 5.15595 86.564V85.358H6.36095C6.49356 85.358 6.62074 85.3053 6.71451 85.2116C6.80827 85.1178 6.86095 84.9906 6.86095 84.858C6.86095 84.7254 6.80827 84.5982 6.71451 84.5045C6.62074 84.4107 6.49356 84.358 6.36095 84.358Z" fill="black"/>
<path d="M75.519 51.777H76.725V52.983C76.725 53.1156 76.7777 53.2428 76.8714 53.3365C76.9652 53.4303 77.0924 53.483 77.225 53.483C77.3576 53.483 77.4848 53.4303 77.5785 53.3365C77.6723 53.2428 77.725 53.1156 77.725 52.983V51.777H78.93C79.0626 51.777 79.1898 51.7243 79.2835 51.6305C79.3773 51.5368 79.43 51.4096 79.43 51.277C79.43 51.1444 79.3773 51.0172 79.2835 50.9234C79.1898 50.8297 79.0626 50.777 78.93 50.777H77.725V49.571C77.725 49.4384 77.6723 49.3112 77.5785 49.2174C77.4848 49.1237 77.3576 49.071 77.225 49.071C77.0924 49.071 76.9652 49.1237 76.8714 49.2174C76.7777 49.3112 76.725 49.4384 76.725 49.571V50.777H75.519C75.3864 50.777 75.2592 50.8297 75.1654 50.9234C75.0717 51.0172 75.019 51.1444 75.019 51.277C75.019 51.4096 75.0717 51.5368 75.1654 51.6305C75.2592 51.7243 75.3864 51.777 75.519 51.777Z" fill="black"/>
<path d="M83.983 19.3H85.189V20.5C85.189 20.6326 85.2417 20.7598 85.3354 20.8535C85.4292 20.9473 85.5564 21 85.689 21C85.8216 21 85.9488 20.9473 86.0425 20.8535C86.1363 20.7598 86.189 20.6326 86.189 20.5V19.3H87.394C87.5266 19.3 87.6538 19.2473 87.7475 19.1535C87.8413 19.0598 87.894 18.9326 87.894 18.8C87.894 18.6674 87.8413 18.5402 87.7475 18.4464C87.6538 18.3527 87.5266 18.3 87.394 18.3H86.189V17.094C86.189 16.9614 86.1363 16.8342 86.0425 16.7404C85.9488 16.6467 85.8216 16.594 85.689 16.594C85.5564 16.594 85.4292 16.6467 85.3354 16.7404C85.2417 16.8342 85.189 16.9614 85.189 17.094V18.3H83.983C83.8504 18.3 83.7232 18.3527 83.6294 18.4464C83.5356 18.5402 83.483 18.6674 83.483 18.8C83.483 18.9326 83.5356 19.0598 83.6294 19.1535C83.7232 19.2473 83.8504 19.3 83.983 19.3Z" fill="black"/>
<path d="M15.943 39.147C15.943 39.2796 15.9957 39.4068 16.0894 39.5006C16.1832 39.5943 16.3104 39.647 16.443 39.647H17.649V40.847C17.649 40.9796 17.7017 41.1068 17.7954 41.2006C17.8892 41.2943 18.0164 41.347 18.149 41.347C18.2816 41.347 18.4088 41.2943 18.5025 41.2006C18.5963 41.1068 18.649 40.9796 18.649 40.847V39.647H19.849C19.9816 39.647 20.1088 39.5943 20.2025 39.5006C20.2963 39.4068 20.349 39.2796 20.349 39.147C20.349 39.0144 20.2963 38.8872 20.2025 38.7935C20.1088 38.6997 19.9816 38.647 19.849 38.647H18.649V37.441C18.649 37.3084 18.5963 37.1812 18.5025 37.0875C18.4088 36.9937 18.2816 36.941 18.149 36.941C18.0164 36.941 17.8892 36.9937 17.7954 37.0875C17.7017 37.1812 17.649 37.3084 17.649 37.441V38.647H16.443C16.3104 38.647 16.1832 38.6997 16.0894 38.7935C15.9957 38.8872 15.943 39.0144 15.943 39.147Z" fill="black"/>
<path d="M82.018 63.082C79.8608 61.7146 77.4345 60.8278 74.904 60.482C71.304 59.86 66.333 58.964 61.869 58.152C61.8381 58.0696 61.786 57.9968 61.718 57.941C60.7132 57.1673 59.5378 56.6454 58.29 56.419V52.069C62.307 50.786 66.741 48.569 68.323 44.828C68.734 43.6777 69.0504 42.4958 69.269 41.294C70.3816 40.8672 71.3789 40.1857 72.1806 39.304C72.9824 38.4223 73.5665 37.3651 73.886 36.217C74.533 34.092 74.324 31.926 73.352 30.7C73.345 30.692 73.338 30.686 73.332 30.678C74.0945 27.6061 74.4075 24.4398 74.261 21.278C74.1496 16.8973 72.7641 12.6439 70.274 9.038C66.174 3.131 59.679 0.138 50.98 0.138C29.48 0.138 23.76 16.774 23.705 16.938C23.6803 17.0131 23.6738 17.093 23.686 17.171C23.6982 17.2491 23.7287 17.3232 23.775 17.3872C23.8214 17.4513 23.8822 17.5034 23.9526 17.5393C24.023 17.5753 24.1009 17.594 24.18 17.594H25.461C24.8279 20.0865 24.7186 22.6832 25.14 25.2201C25.5613 27.757 26.5042 30.1789 27.909 32.333C27.5586 34.1467 27.8424 36.0258 28.7129 37.6551C29.5834 39.2844 30.9875 40.565 32.69 41.282C32.9097 42.4968 33.2288 43.6914 33.644 44.854C35.226 48.593 39.683 50.806 43.71 52.086V56C42.5312 56.1182 41.4194 56.6041 40.532 57.389C40.302 57.5864 40.1452 57.8555 40.087 58.153C35.629 58.964 30.676 59.853 27.093 60.48C24.5622 60.828 22.136 61.7165 19.979 63.085C19.2822 63.5946 18.7049 64.25 18.2875 65.0057C17.87 65.7613 17.6224 66.5989 17.562 67.46L13.712 113.33C13.7061 113.399 13.7148 113.469 13.7373 113.534C13.7598 113.6 13.7957 113.66 13.8427 113.711C13.8897 113.762 13.9468 113.803 14.0104 113.83C14.074 113.858 14.1426 113.872 14.212 113.872H87.792C87.8613 113.872 87.93 113.858 87.9935 113.83C88.0571 113.803 88.1142 113.762 88.1612 113.711C88.2083 113.66 88.2442 113.6 88.2667 113.534C88.2892 113.469 88.2978 113.399 88.292 113.33L84.442 67.461C84.3813 66.5986 84.1329 65.7598 83.7142 65.0034C83.2955 64.247 82.7166 63.5913 82.018 63.082ZM43.307 67.768L44.742 73.173V73.183L50.5 94.865V99.6C50.3394 99.8947 50.1062 100.144 49.8226 100.323C49.5389 100.502 49.2141 100.606 48.879 100.625C42.7387 94.9944 37.742 88.2322 34.163 80.709C32.8577 77.9434 32.6616 74.7828 33.615 71.877C35.358 66.577 37.58 62.784 40.215 60.533C40.6556 63.1562 41.7156 65.6366 43.307 67.768ZM47.441 64.842C47.459 64.976 47.473 65.11 47.499 65.242C47.5164 65.333 47.5587 65.4173 47.6212 65.4856C47.6837 65.554 47.7639 65.6036 47.853 65.629C47.871 65.629 47.889 65.635 47.907 65.64L45.33 71.488L44.33 67.732C45.462 66.757 46.5 65.789 47.441 64.842ZM52.635 60.19C53.2178 61.236 53.5482 62.4037 53.6 63.6C53.6 63.618 53.6 63.634 53.6 63.652C53.6094 64.0198 53.5876 64.3878 53.535 64.752C51.8629 65.1878 50.107 65.1878 48.435 64.752C48.2281 63.1742 48.5442 61.572 49.335 60.191L52.635 60.19ZM57.667 67.732L56.653 71.552L54.053 65.642C54.072 65.642 54.092 65.635 54.111 65.63C54.1993 65.6042 54.2789 65.5545 54.3408 65.4864C54.4027 65.4183 54.4447 65.3344 54.462 65.244C54.49 65.1 54.505 64.956 54.524 64.811C55.445 65.745 56.485 66.71 57.667 67.732ZM45.74 73.032L48.905 65.853C49.5925 65.9923 50.2915 66.0669 50.993 66.076C51.6857 66.0675 52.3761 65.9938 53.055 65.856L56.241 73.1L51 92.85L45.74 73.032ZM51.5 94.862L58.7 67.749C60.1425 65.522 61.1597 63.0468 61.7 60.449C64.387 62.707 66.639 66.53 68.393 71.873C69.3465 74.7784 69.1504 77.9388 67.845 80.704C64.2661 88.2273 59.2694 94.9895 53.129 100.62C52.793 100.603 52.4669 100.501 52.1817 100.322C51.8966 100.143 51.6619 99.8949 51.5 99.6V94.862ZM58.107 66.79C56.746 65.605 55.591 64.501 54.583 63.429C54.5015 62.0207 54.0834 60.6524 53.364 59.439C53.3203 59.3625 53.2571 59.2989 53.1809 59.2546C53.1047 59.2104 53.0181 59.187 52.93 59.187H52.519C53.7234 58.3296 55.054 57.6649 56.463 57.217C58.0496 57.1815 59.6058 57.6557 60.903 58.57C60.6509 61.497 59.6913 64.319 58.107 66.793V66.79ZM72.929 35.925C72.677 36.8285 72.2393 37.6695 71.6439 38.3942C71.0485 39.119 70.3084 39.7115 69.471 40.134C69.9149 37.0236 70.1182 33.8836 70.079 30.742C70.493 30.5176 70.9748 30.4525 71.4335 30.559C71.8922 30.6655 72.2961 30.9362 72.569 31.32C73.33 32.283 73.476 34.133 72.929 35.925ZM26.529 17.462L28.421 16.706C28.5442 16.6567 28.6427 16.5604 28.6949 16.4384C28.7472 16.3164 28.7488 16.1787 28.6995 16.0555C28.6501 15.9323 28.5539 15.8338 28.4319 15.7815C28.3099 15.7293 28.1722 15.7277 28.049 15.777L26.018 16.59H24.913C26.2 13.565 32.629 1.13 50.98 1.13C58.507 1.13 64.322 3.464 68.267 8.068C71.3331 11.741 73.0993 16.3243 73.291 21.105C73.2665 21.1711 73.2563 21.2417 73.261 21.312C73.3869 24.2039 73.129 27.0998 72.494 29.924C72.1315 29.7082 71.7258 29.5751 71.3059 29.5343C70.886 29.4935 70.4622 29.546 70.065 29.688C70.044 28.651 70.008 27.98 70.002 27.876C69.997 27.787 69.9683 27.7009 69.9189 27.6267C69.8695 27.5525 69.8012 27.4929 69.721 27.454C67.2453 26.1976 65.1058 24.3675 63.4809 22.1164C61.8561 19.8653 60.7929 17.2584 60.38 14.513C60.365 14.4127 60.32 14.3194 60.2508 14.2453C60.1815 14.1712 60.0914 14.1199 59.9924 14.0982C59.8934 14.0766 59.7901 14.0855 59.6963 14.1238C59.6024 14.1622 59.5225 14.2282 59.467 14.313C54.373 22.152 44.267 27.045 32.442 27.4C32.3574 27.4051 32.2755 27.4316 32.204 27.477C31.3962 27.6463 30.564 27.6636 29.75 27.528C29.6215 27.4972 29.4861 27.5185 29.3733 27.5872C29.2605 27.6559 29.1795 27.7665 29.148 27.8947C29.1164 28.023 29.1368 28.1585 29.2049 28.2717C29.2729 28.3849 29.3829 28.4666 29.511 28.499C29.9173 28.5839 30.332 28.6224 30.747 28.614C31.1422 28.6086 31.5367 28.5779 31.928 28.522C31.917 28.822 31.905 29.205 31.895 29.665C31.3145 29.4642 30.6847 29.4565 30.0995 29.643C29.5143 29.8295 29.0051 30.2003 28.648 30.7C28.5389 30.841 28.4412 30.9904 28.356 31.147C27.1454 29.1066 26.3599 26.8424 26.0466 24.4907C25.7333 22.139 25.8988 19.7482 26.533 17.462H26.529ZM29.068 35.91C28.528 34.123 28.674 32.278 29.432 31.319C29.6976 30.9386 30.0927 30.6679 30.5434 30.5575C30.9941 30.4471 31.4695 30.5045 31.881 30.719C31.8419 33.8602 32.0445 36.9998 32.487 40.11C31.658 39.6839 30.9263 39.0907 30.3379 38.3679C29.7494 37.645 29.3171 36.8082 29.068 35.91ZM34.573 44.481C34.1596 43.3097 33.8465 42.1053 33.637 40.881C33.6375 40.872 33.6375 40.863 33.637 40.854C33.0842 37.4186 32.8355 33.9411 32.894 30.462C32.8975 30.4288 32.8975 30.3952 32.894 30.362C32.902 29.493 32.923 28.801 32.939 28.383C44.39 27.925 54.239 23.283 59.621 15.858C60.1923 18.4787 61.3297 20.9427 62.9534 23.0776C64.5772 25.2125 66.648 26.9666 69.021 28.217C69.094 29.957 69.374 39.117 67.397 44.456C65.916 47.956 61.535 50.035 57.634 51.228C57.619 51.234 57.602 51.236 57.587 51.243C56.187 51.668 54.855 51.983 53.741 52.205C51.9203 52.572 50.0447 52.572 48.224 52.205C47.124 51.986 45.807 51.676 44.424 51.259C44.3969 51.2473 44.3688 51.2383 44.34 51.232C40.437 50.045 36.05 47.972 34.573 44.481ZM48.025 53.19C49.9751 53.582 51.9838 53.582 53.934 53.19C54.919 52.99 56.073 52.723 57.29 52.373V56.282C57.009 56.258 56.736 56.22 56.444 56.22C56.3766 56.2172 56.3093 56.2243 56.244 56.241C54.3357 56.8507 52.5574 57.81 51 59.07C49.4555 57.8188 47.6924 56.865 45.8 56.257C45.4505 56.1205 45.0836 56.034 44.71 56V52.385C45.912 52.729 47.051 53 48.025 53.19ZM42.378 57.373C43.3467 56.9161 44.4553 56.8541 45.469 57.2C46.9027 57.6465 48.2563 58.3183 49.479 59.19H49.04C48.9522 59.19 48.866 59.2131 48.79 59.257C48.714 59.3009 48.6509 59.364 48.607 59.44C47.8734 60.6637 47.4505 62.0483 47.375 63.473C46.345 64.561 45.169 65.684 43.864 66.818C42.0351 64.3754 41.0604 61.3992 41.09 58.348C41.092 58.3224 41.092 58.2966 41.09 58.271C41.4381 57.8694 41.8807 57.5607 42.378 57.373ZM74.261 112.873V81.706C74.261 81.5734 74.2083 81.4462 74.1145 81.3524C74.0208 81.2587 73.8936 81.206 73.761 81.206C73.6284 81.206 73.5012 81.2587 73.4074 81.3524C73.3137 81.4462 73.261 81.5734 73.261 81.706V112.87H28.739V81.706C28.739 81.5734 28.6863 81.4462 28.5925 81.3524C28.4988 81.2587 28.3716 81.206 28.239 81.206C28.1064 81.206 27.9792 81.2587 27.8854 81.3524C27.7917 81.4462 27.739 81.5734 27.739 81.706V112.87H14.754L18.554 67.541C18.6024 66.825 18.8065 66.1282 19.1519 65.4992C19.4973 64.8702 19.9758 64.3241 20.554 63.899C22.5899 62.6172 24.8769 61.7865 27.261 61.463C30.801 60.849 35.68 59.969 40.097 59.163C40.097 59.218 40.097 59.273 40.097 59.328C37.078 61.638 34.573 65.743 32.658 71.561C31.6242 74.709 31.836 78.1334 33.25 81.13C36.9203 88.8419 42.0556 95.7661 48.37 101.517C48.4625 101.603 48.5839 101.65 48.71 101.65H48.761C49.6119 101.609 50.4142 101.241 51 100.623C51.5865 101.24 52.3885 101.607 53.239 101.648H53.29C53.416 101.648 53.5375 101.601 53.63 101.515C59.9419 95.7648 65.075 88.8415 68.743 81.131C70.1561 78.1353 70.3676 74.7119 69.334 71.565C67.42 65.732 64.9 61.614 61.85 59.29C61.85 59.247 61.855 59.204 61.858 59.161C66.283 59.961 71.18 60.848 74.733 61.461C77.1168 61.7857 79.4035 62.6174 81.439 63.9C82.0173 64.3257 82.4958 64.8723 82.8412 65.5018C83.1866 66.1313 83.3906 66.8286 83.439 67.545L87.239 112.873H74.261Z" fill="black"/>
<path d="M44.8 39.362C44.6729 39.3993 44.5658 39.4856 44.5022 39.6018C44.4387 39.7181 44.4238 39.8548 44.461 39.982C44.8385 41.4199 45.6817 42.6923 46.8589 43.6003C48.036 44.5083 49.4808 45.0008 50.9675 45.0008C52.4542 45.0008 53.899 44.5083 55.0761 43.6003C56.2533 42.6923 57.0965 41.4199 57.474 39.982C57.5058 39.8565 57.4877 39.7236 57.4235 39.6113C57.3594 39.4989 57.2541 39.4157 57.1299 39.3793C57.0057 39.343 56.8723 39.3561 56.7576 39.4161C56.6429 39.4761 56.5559 39.5782 56.515 39.701C56.2495 40.9587 55.546 42.0812 54.5299 42.8686C53.5138 43.6559 52.2512 44.0569 50.967 44C48.123 44 46.257 42.553 45.42 39.7C45.3824 39.5731 45.2961 39.4662 45.1799 39.4028C45.0636 39.3395 44.927 39.3248 44.8 39.362Z" fill="black"/>
<path d="M45.039 30.307C45.039 29.017 44.367 27.971 43.539 27.971C42.711 27.971 42.039 29.017 42.039 30.307C42.039 31.597 42.712 32.642 43.539 32.642C44.366 32.642 45.039 31.6 45.039 30.307Z" fill="black"/>
<path d="M58.3849 32.642C59.2139 32.642 59.8849 31.597 59.8849 30.307C59.8849 29.017 59.2129 27.971 58.3849 27.971C57.5569 27.971 56.8849 29.017 56.8849 30.307C56.8849 31.597 57.5559 32.642 58.3849 32.642Z" fill="black"/>
<path d="M50.967 37.911C51.5647 37.9102 52.1377 37.6723 52.5603 37.2496C52.9828 36.8268 53.2204 36.2537 53.221 35.656C53.221 35.5234 53.1683 35.3962 53.0745 35.3025C52.9808 35.2087 52.8536 35.156 52.721 35.156C52.5884 35.156 52.4612 35.2087 52.3674 35.3025C52.2737 35.3962 52.221 35.5234 52.221 35.656C52.2257 35.8237 52.1968 35.9907 52.1359 36.147C52.0749 36.3034 51.9833 36.4459 51.8663 36.5662C51.7494 36.6865 51.6095 36.7822 51.4549 36.8475C51.3004 36.9128 51.1343 36.9464 50.9665 36.9464C50.7987 36.9464 50.6326 36.9128 50.478 36.8475C50.3235 36.7822 50.1836 36.6865 50.0666 36.5662C49.9497 36.4459 49.858 36.3034 49.7971 36.147C49.7362 35.9907 49.7072 35.8237 49.712 35.656C49.712 35.5234 49.6593 35.3962 49.5655 35.3025C49.4718 35.2087 49.3446 35.156 49.212 35.156C49.0794 35.156 48.9522 35.2087 48.8584 35.3025C48.7647 35.3962 48.712 35.5234 48.712 35.656C48.7125 36.2539 48.9503 36.8272 49.373 37.25C49.7958 37.6727 50.3691 37.9105 50.967 37.911Z" fill="black"/>
</svg>
