<svg width="128" height="128" viewBox="0 0 128 128" fill="none" xmlns="http://www.w3.org/2000/svg">
<path d="M47.0269 51.298C47.2829 50.5198 47.7801 49.8454 48.4452 49.3744C49.1102 48.9035 49.9078 48.6609 50.7199 48.6827H50.8134C51.9248 48.7338 52.9923 49.1353 53.8658 49.8306C54.7393 50.526 55.3747 51.4802 55.6827 52.5591C55.7044 52.6277 55.7471 52.6877 55.8047 52.7302C55.8623 52.7727 55.9318 52.7956 56.0032 52.7956C56.0746 52.7956 56.1441 52.7727 56.2017 52.7302C56.2594 52.6877 56.3021 52.6277 56.3237 52.5591C56.6329 51.4792 57.2698 50.5243 58.1449 49.8288C59.0199 49.1334 60.089 48.7323 61.2018 48.6821H61.2899C62.0993 48.6596 62.8945 48.9004 63.558 49.3688C64.2215 49.8373 64.7182 50.5086 64.9748 51.2837C66.484 56.13 62.8717 58.5375 59.0469 61.0862C58.0246 61.765 56.97 62.4702 56.0036 63.2283C55.0367 62.4704 53.9831 61.7681 52.9611 61.0868L52.9602 61.0862C49.1354 58.5389 45.5224 56.1307 47.0269 51.298Z" fill="#F66867"/>
<path d="M15.253 84.265C15.9878 84.2652 16.7062 84.0475 17.3173 83.6393C17.9284 83.2312 18.4047 82.651 18.686 81.9721C18.9673 81.2933 19.041 80.5462 18.8977 79.8255C18.7544 79.1047 18.4005 78.4427 17.8809 77.9231C17.3613 77.4035 16.6993 77.0496 15.9785 76.9063C15.2578 76.763 14.5107 76.8367 13.8319 77.118C13.153 77.3993 12.5728 77.8756 12.1647 78.4867C11.7565 79.0978 11.5388 79.8162 11.539 80.551C11.5401 81.5357 11.9317 82.4797 12.628 83.176C13.3243 83.8723 14.2683 84.2639 15.253 84.265ZM15.253 77.836C15.79 77.8358 16.315 77.9949 16.7616 78.2931C17.2083 78.5913 17.5564 79.0152 17.762 79.5113C17.9677 80.0074 18.0216 80.5533 17.917 81.08C17.8123 81.6068 17.5538 82.0906 17.1742 82.4704C16.7945 82.8502 16.3107 83.1089 15.784 83.2138C15.2574 83.3186 14.7114 83.2649 14.2152 83.0594C13.7191 82.854 13.295 82.506 12.9966 82.0595C12.6983 81.613 12.539 81.088 12.539 80.551C12.5398 79.8313 12.826 79.1414 13.3347 78.6324C13.8435 78.1235 14.5334 77.837 15.253 77.836Z" fill="black"/>
<mask id="path-3-outside-1_39_12" maskUnits="userSpaceOnUse" x="5.79993" y="11.3526" width="116" height="105" fill="black">
<rect fill="white" x="5.79993" y="11.3526" width="116" height="105"/>
<path d="M111.811 47.739C111.801 47.674 111.778 47.6117 111.744 47.5556C111.709 47.4995 111.664 47.4507 111.611 47.412C111.504 47.3338 111.371 47.301 111.24 47.321L95.14 49.826V43.833C95.1525 41.2975 94.5684 38.7947 93.4349 36.5266C92.3014 34.2586 90.6503 32.289 88.615 30.777L89.405 24.798C89.6634 22.8277 89.1292 20.8354 87.9199 19.2586C86.7106 17.6818 84.9249 16.6493 82.955 16.388L52.846 12.418C51.8707 12.2882 50.8795 12.3519 49.9289 12.6053C48.9782 12.8588 48.0869 13.297 47.3057 13.8951C46.5245 14.4932 45.8688 15.2393 45.376 16.0908C44.8833 16.9424 44.5632 17.8827 44.434 18.858L44.097 21.388C40.7832 21.6258 37.4864 22.0599 34.224 22.688C33.5602 20.9525 32.305 19.507 30.6798 18.6064C29.0545 17.7057 27.1635 17.4078 25.34 17.765C23.0537 18.2242 20.8119 18.882 18.64 19.731C16.7937 20.4828 15.2946 21.8967 14.4364 23.696C13.5781 25.4952 13.4225 27.55 14 29.458L14.254 30.299C14.142 30.374 14.017 30.442 13.906 30.517C13.3123 30.9202 12.7463 31.3629 12.212 31.842C10.5039 33.3689 9.13848 35.2403 8.20568 37.3329C7.27287 39.4255 6.7938 41.6919 6.79999 43.983V81.574C6.8029 84.0503 7.78804 86.4243 9.53924 88.1752C11.2904 89.926 13.6647 90.9106 16.141 90.913H71.141L74.924 115.225C74.9424 115.343 75.0022 115.45 75.0928 115.528C75.1834 115.605 75.2987 115.648 75.418 115.648C75.4438 115.648 75.4695 115.646 75.495 115.642L120.772 108.597C120.837 108.587 120.899 108.564 120.955 108.53C121.012 108.496 121.061 108.451 121.099 108.398C121.138 108.345 121.166 108.285 121.182 108.221C121.197 108.157 121.2 108.091 121.19 108.026L111.811 47.739ZM45.427 18.989C45.6536 17.2825 46.5489 15.7358 47.9158 14.6894C49.2828 13.6429 51.0094 13.1824 52.716 13.409L82.827 17.379C84.5341 17.6057 86.0815 18.5006 87.1294 19.8673C88.1773 21.2339 88.64 22.9605 88.416 24.668L87.692 30.143C77.4 23.458 60.9 20.333 45.118 21.314L45.427 18.989ZM14.959 29.167C14.4515 27.5003 14.5845 25.7042 15.332 24.1305C16.0794 22.5567 17.3875 21.3188 19 20.659C21.1191 19.8312 23.3064 19.1901 25.537 18.743C27.1014 18.4379 28.7233 18.6846 30.1262 19.4411C31.5291 20.1977 32.6264 21.4172 33.231 22.892C30.2407 23.5047 27.2958 24.3213 24.417 25.336C24.417 25.336 24.407 25.336 24.402 25.336C21.1619 26.4681 18.0539 27.9474 15.132 29.748L14.959 29.167ZM14.472 31.347C15.192 30.859 15.9453 30.388 16.732 29.934C16.832 29.874 16.947 29.82 17.051 29.761C17.731 29.376 18.427 28.999 19.151 28.639C19.351 28.539 19.565 28.449 19.769 28.351C20.415 28.042 21.069 27.738 21.749 27.451C22.006 27.342 22.275 27.242 22.537 27.136C23.0403 26.932 23.5517 26.7343 24.071 26.543V89.909H16.141C13.9298 89.9066 11.8099 89.0272 10.2463 87.4636C8.68281 85.9001 7.80337 83.7802 7.80099 81.569V43.984C7.79644 41.8391 8.2443 39.7174 9.11533 37.7574C9.98637 35.7973 11.261 34.043 12.856 32.609C13.3652 32.1519 13.9052 31.7303 14.472 31.347ZM25.072 89.913V26.171C28.0027 25.154 31.0006 24.342 34.044 23.741C34.052 23.741 34.059 23.741 34.067 23.741H34.073C52.632 20.029 74.864 22.841 87.414 31.156C87.552 31.248 87.684 31.347 87.814 31.443L87.826 31.452C89.7895 32.8637 91.3868 34.7247 92.4845 36.8796C93.5822 39.0345 94.1485 41.4207 94.136 43.839V49.988L77.6 52.556C76.8912 48.4345 75.0197 44.6014 72.2057 41.5078C69.3918 38.4141 65.7526 36.1888 61.7166 35.0938C57.6805 33.9987 53.4156 34.0796 49.424 35.3268C45.4323 36.5739 41.8801 38.9356 39.1854 42.1336C36.4907 45.3316 34.7658 49.233 34.2137 53.3783C33.6615 57.5236 34.3052 61.7404 36.0689 65.5323C37.8326 69.3242 40.6429 72.5332 44.1689 74.7817C47.695 77.0302 51.79 78.2245 55.972 78.224C60.4769 78.2324 64.8727 76.8378 68.549 74.234L70.988 89.913H25.072ZM72.66 53.325C72.0153 49.5847 70.1383 46.1675 67.3276 43.6169C64.517 41.0663 60.9341 39.5288 57.149 39.2491C53.3639 38.9694 49.5939 39.9635 46.4389 42.0732C43.2838 44.183 40.9249 47.2872 39.7374 50.8921C38.5498 54.4969 38.6019 58.3954 39.8853 61.9673C41.1687 65.5391 43.6097 68.5792 46.8199 70.604C50.0302 72.6287 53.8253 73.5217 57.6016 73.141C61.3779 72.7603 64.9185 71.1278 67.66 68.503L68.38 73.134C64.7961 75.7994 60.4463 77.2341 55.98 77.224C51.9866 77.2278 48.0752 76.0904 44.7065 73.9459C41.3378 71.8013 38.6519 68.7389 36.9652 65.1192C35.2785 61.4995 34.6612 57.4732 35.1859 53.5144C35.7107 49.5556 37.3556 45.8292 39.9271 42.7738C42.4986 39.7185 45.8895 37.4616 49.7006 36.2687C53.5117 35.0759 57.5843 34.9968 61.4388 36.0408C65.2933 37.0848 68.7693 39.2084 71.4575 42.1616C74.1456 45.1148 75.934 48.7746 76.612 52.71L72.66 53.325ZM65.5 51.441C65.1806 50.5177 64.5737 49.7212 63.7682 49.1682C62.9628 48.6153 62.0013 48.3352 61.025 48.369C59.9773 48.4085 58.9586 48.7239 58.0718 49.2833C57.1851 49.8428 56.4618 50.6264 55.975 51.555C55.4893 50.6273 54.7673 49.8442 53.882 49.2849C52.9967 48.7257 51.9794 48.4101 50.933 48.37H50.828C49.8633 48.3538 48.9184 48.6447 48.1298 49.2007C47.3412 49.7566 46.7498 50.5489 46.441 51.463C44.783 56.738 48.732 59.346 52.552 61.868C53.605 62.568 54.694 63.283 55.663 64.053C55.7515 64.1235 55.8613 64.1619 55.9745 64.1619C56.0876 64.1619 56.1975 64.1235 56.286 64.053C57.253 63.283 58.343 62.563 59.396 61.868C62.078 60.097 64.817 58.279 65.637 55.522L67.469 67.3C64.988 69.883 61.7094 71.555 58.1618 72.0465C54.6142 72.538 51.0045 71.8204 47.9147 70.0092C44.8249 68.1981 42.4352 65.399 41.1309 62.0635C39.8266 58.728 39.6838 55.0504 40.7255 51.6237C41.7672 48.1971 43.9327 45.2212 46.8727 43.1759C49.8127 41.1306 53.3559 40.1351 56.9309 40.3501C60.5059 40.565 63.9044 41.9778 66.5782 44.3605C69.252 46.7433 71.0453 49.9572 71.669 53.484L65.959 54.372C65.9196 54.3809 65.8816 54.395 65.846 54.414C65.9347 53.4098 65.817 52.398 65.5 51.441ZM58.845 61.032C57.883 61.666 56.892 62.321 55.974 63.026C55.056 62.321 54.065 61.666 53.103 61.032C49.272 58.502 45.963 56.317 47.388 51.781C47.6263 51.0632 48.0892 50.441 48.7083 50.0065C49.3274 49.572 50.0699 49.3481 50.826 49.368H50.913C51.9605 49.4167 52.9663 49.7925 53.7891 50.4425C54.6119 51.0926 55.2103 51.9842 55.5 52.992C55.5319 53.0933 55.5952 53.1819 55.6808 53.2448C55.7663 53.3078 55.8698 53.3418 55.976 53.342C56.0823 53.3421 56.1858 53.3083 56.2716 53.2455C56.3573 53.1828 56.4209 53.0943 56.453 52.993C56.7433 51.9844 57.3426 51.0923 58.1665 50.4422C58.9905 49.7921 59.9975 49.4167 61.046 49.369C61.8112 49.3333 62.5672 49.5473 63.2001 49.9787C63.8331 50.4102 64.3086 51.0357 64.555 51.761C65.983 56.317 62.676 58.5 58.845 61.032ZM75.839 114.578L69.406 73.24L66.606 55.279L72.327 54.389L110.891 48.389L120.119 107.689L75.839 114.578Z"/>
</mask>
<path d="M111.811 47.739C111.801 47.674 111.778 47.6117 111.744 47.5556C111.709 47.4995 111.664 47.4507 111.611 47.412C111.504 47.3338 111.371 47.301 111.24 47.321L95.14 49.826V43.833C95.1525 41.2975 94.5684 38.7947 93.4349 36.5266C92.3014 34.2586 90.6503 32.289 88.615 30.777L89.405 24.798C89.6634 22.8277 89.1292 20.8354 87.9199 19.2586C86.7106 17.6818 84.9249 16.6493 82.955 16.388L52.846 12.418C51.8707 12.2882 50.8795 12.3519 49.9289 12.6053C48.9782 12.8588 48.0869 13.297 47.3057 13.8951C46.5245 14.4932 45.8688 15.2393 45.376 16.0908C44.8833 16.9424 44.5632 17.8827 44.434 18.858L44.097 21.388C40.7832 21.6258 37.4864 22.0599 34.224 22.688C33.5602 20.9525 32.305 19.507 30.6798 18.6064C29.0545 17.7057 27.1635 17.4078 25.34 17.765C23.0537 18.2242 20.8119 18.882 18.64 19.731C16.7937 20.4828 15.2946 21.8967 14.4364 23.696C13.5781 25.4952 13.4225 27.55 14 29.458L14.254 30.299C14.142 30.374 14.017 30.442 13.906 30.517C13.3123 30.9202 12.7463 31.3629 12.212 31.842C10.5039 33.3689 9.13848 35.2403 8.20568 37.3329C7.27287 39.4255 6.7938 41.6919 6.79999 43.983V81.574C6.8029 84.0503 7.78804 86.4243 9.53924 88.1752C11.2904 89.926 13.6647 90.9106 16.141 90.913H71.141L74.924 115.225C74.9424 115.343 75.0022 115.45 75.0928 115.528C75.1834 115.605 75.2987 115.648 75.418 115.648C75.4438 115.648 75.4695 115.646 75.495 115.642L120.772 108.597C120.837 108.587 120.899 108.564 120.955 108.53C121.012 108.496 121.061 108.451 121.099 108.398C121.138 108.345 121.166 108.285 121.182 108.221C121.197 108.157 121.2 108.091 121.19 108.026L111.811 47.739ZM45.427 18.989C45.6536 17.2825 46.5489 15.7358 47.9158 14.6894C49.2828 13.6429 51.0094 13.1824 52.716 13.409L82.827 17.379C84.5341 17.6057 86.0815 18.5006 87.1294 19.8673C88.1773 21.2339 88.64 22.9605 88.416 24.668L87.692 30.143C77.4 23.458 60.9 20.333 45.118 21.314L45.427 18.989ZM14.959 29.167C14.4515 27.5003 14.5845 25.7042 15.332 24.1305C16.0794 22.5567 17.3875 21.3188 19 20.659C21.1191 19.8312 23.3064 19.1901 25.537 18.743C27.1014 18.4379 28.7233 18.6846 30.1262 19.4411C31.5291 20.1977 32.6264 21.4172 33.231 22.892C30.2407 23.5047 27.2958 24.3213 24.417 25.336C24.417 25.336 24.407 25.336 24.402 25.336C21.1619 26.4681 18.0539 27.9474 15.132 29.748L14.959 29.167ZM14.472 31.347C15.192 30.859 15.9453 30.388 16.732 29.934C16.832 29.874 16.947 29.82 17.051 29.761C17.731 29.376 18.427 28.999 19.151 28.639C19.351 28.539 19.565 28.449 19.769 28.351C20.415 28.042 21.069 27.738 21.749 27.451C22.006 27.342 22.275 27.242 22.537 27.136C23.0403 26.932 23.5517 26.7343 24.071 26.543V89.909H16.141C13.9298 89.9066 11.8099 89.0272 10.2463 87.4636C8.68281 85.9001 7.80337 83.7802 7.80099 81.569V43.984C7.79644 41.8391 8.2443 39.7174 9.11533 37.7574C9.98637 35.7973 11.261 34.043 12.856 32.609C13.3652 32.1519 13.9052 31.7303 14.472 31.347ZM25.072 89.913V26.171C28.0027 25.154 31.0006 24.342 34.044 23.741C34.052 23.741 34.059 23.741 34.067 23.741H34.073C52.632 20.029 74.864 22.841 87.414 31.156C87.552 31.248 87.684 31.347 87.814 31.443L87.826 31.452C89.7895 32.8637 91.3868 34.7247 92.4845 36.8796C93.5822 39.0345 94.1485 41.4207 94.136 43.839V49.988L77.6 52.556C76.8912 48.4345 75.0197 44.6014 72.2057 41.5078C69.3918 38.4141 65.7526 36.1888 61.7166 35.0938C57.6805 33.9987 53.4156 34.0796 49.424 35.3268C45.4323 36.5739 41.8801 38.9356 39.1854 42.1336C36.4907 45.3316 34.7658 49.233 34.2137 53.3783C33.6615 57.5236 34.3052 61.7404 36.0689 65.5323C37.8326 69.3242 40.6429 72.5332 44.1689 74.7817C47.695 77.0302 51.79 78.2245 55.972 78.224C60.4769 78.2324 64.8727 76.8378 68.549 74.234L70.988 89.913H25.072ZM72.66 53.325C72.0153 49.5847 70.1383 46.1675 67.3276 43.6169C64.517 41.0663 60.9341 39.5288 57.149 39.2491C53.3639 38.9694 49.5939 39.9635 46.4389 42.0732C43.2838 44.183 40.9249 47.2872 39.7374 50.8921C38.5498 54.4969 38.6019 58.3954 39.8853 61.9673C41.1687 65.5391 43.6097 68.5792 46.8199 70.604C50.0302 72.6287 53.8253 73.5217 57.6016 73.141C61.3779 72.7603 64.9185 71.1278 67.66 68.503L68.38 73.134C64.7961 75.7994 60.4463 77.2341 55.98 77.224C51.9866 77.2278 48.0752 76.0904 44.7065 73.9459C41.3378 71.8013 38.6519 68.7389 36.9652 65.1192C35.2785 61.4995 34.6612 57.4732 35.1859 53.5144C35.7107 49.5556 37.3556 45.8292 39.9271 42.7738C42.4986 39.7185 45.8895 37.4616 49.7006 36.2687C53.5117 35.0759 57.5843 34.9968 61.4388 36.0408C65.2933 37.0848 68.7693 39.2084 71.4575 42.1616C74.1456 45.1148 75.934 48.7746 76.612 52.71L72.66 53.325ZM65.5 51.441C65.1806 50.5177 64.5737 49.7212 63.7682 49.1682C62.9628 48.6153 62.0013 48.3352 61.025 48.369C59.9773 48.4085 58.9586 48.7239 58.0718 49.2833C57.1851 49.8428 56.4618 50.6264 55.975 51.555C55.4893 50.6273 54.7673 49.8442 53.882 49.2849C52.9967 48.7257 51.9794 48.4101 50.933 48.37H50.828C49.8633 48.3538 48.9184 48.6447 48.1298 49.2007C47.3412 49.7566 46.7498 50.5489 46.441 51.463C44.783 56.738 48.732 59.346 52.552 61.868C53.605 62.568 54.694 63.283 55.663 64.053C55.7515 64.1235 55.8613 64.1619 55.9745 64.1619C56.0876 64.1619 56.1975 64.1235 56.286 64.053C57.253 63.283 58.343 62.563 59.396 61.868C62.078 60.097 64.817 58.279 65.637 55.522L67.469 67.3C64.988 69.883 61.7094 71.555 58.1618 72.0465C54.6142 72.538 51.0045 71.8204 47.9147 70.0092C44.8249 68.1981 42.4352 65.399 41.1309 62.0635C39.8266 58.728 39.6838 55.0504 40.7255 51.6237C41.7672 48.1971 43.9327 45.2212 46.8727 43.1759C49.8127 41.1306 53.3559 40.1351 56.9309 40.3501C60.5059 40.565 63.9044 41.9778 66.5782 44.3605C69.252 46.7433 71.0453 49.9572 71.669 53.484L65.959 54.372C65.9196 54.3809 65.8816 54.395 65.846 54.414C65.9347 53.4098 65.817 52.398 65.5 51.441ZM58.845 61.032C57.883 61.666 56.892 62.321 55.974 63.026C55.056 62.321 54.065 61.666 53.103 61.032C49.272 58.502 45.963 56.317 47.388 51.781C47.6263 51.0632 48.0892 50.441 48.7083 50.0065C49.3274 49.572 50.0699 49.3481 50.826 49.368H50.913C51.9605 49.4167 52.9663 49.7925 53.7891 50.4425C54.6119 51.0926 55.2103 51.9842 55.5 52.992C55.5319 53.0933 55.5952 53.1819 55.6808 53.2448C55.7663 53.3078 55.8698 53.3418 55.976 53.342C56.0823 53.3421 56.1858 53.3083 56.2716 53.2455C56.3573 53.1828 56.4209 53.0943 56.453 52.993C56.7433 51.9844 57.3426 51.0923 58.1665 50.4422C58.9905 49.7921 59.9975 49.4167 61.046 49.369C61.8112 49.3333 62.5672 49.5473 63.2001 49.9787C63.8331 50.4102 64.3086 51.0357 64.555 51.761C65.983 56.317 62.676 58.5 58.845 61.032ZM75.839 114.578L69.406 73.24L66.606 55.279L72.327 54.389L110.891 48.389L120.119 107.689L75.839 114.578Z" fill="black"/>
<path d="M111.811 47.739C111.801 47.674 111.778 47.6117 111.744 47.5556C111.709 47.4995 111.664 47.4507 111.611 47.412C111.504 47.3338 111.371 47.301 111.24 47.321L95.14 49.826V43.833C95.1525 41.2975 94.5684 38.7947 93.4349 36.5266C92.3014 34.2586 90.6503 32.289 88.615 30.777L89.405 24.798C89.6634 22.8277 89.1292 20.8354 87.9199 19.2586C86.7106 17.6818 84.9249 16.6493 82.955 16.388L52.846 12.418C51.8707 12.2882 50.8795 12.3519 49.9289 12.6053C48.9782 12.8588 48.0869 13.297 47.3057 13.8951C46.5245 14.4932 45.8688 15.2393 45.376 16.0908C44.8833 16.9424 44.5632 17.8827 44.434 18.858L44.097 21.388C40.7832 21.6258 37.4864 22.0599 34.224 22.688C33.5602 20.9525 32.305 19.507 30.6798 18.6064C29.0545 17.7057 27.1635 17.4078 25.34 17.765C23.0537 18.2242 20.8119 18.882 18.64 19.731C16.7937 20.4828 15.2946 21.8967 14.4364 23.696C13.5781 25.4952 13.4225 27.55 14 29.458L14.254 30.299C14.142 30.374 14.017 30.442 13.906 30.517C13.3123 30.9202 12.7463 31.3629 12.212 31.842C10.5039 33.3689 9.13848 35.2403 8.20568 37.3329C7.27287 39.4255 6.7938 41.6919 6.79999 43.983V81.574C6.8029 84.0503 7.78804 86.4243 9.53924 88.1752C11.2904 89.926 13.6647 90.9106 16.141 90.913H71.141L74.924 115.225C74.9424 115.343 75.0022 115.45 75.0928 115.528C75.1834 115.605 75.2987 115.648 75.418 115.648C75.4438 115.648 75.4695 115.646 75.495 115.642L120.772 108.597C120.837 108.587 120.899 108.564 120.955 108.53C121.012 108.496 121.061 108.451 121.099 108.398C121.138 108.345 121.166 108.285 121.182 108.221C121.197 108.157 121.2 108.091 121.19 108.026L111.811 47.739ZM45.427 18.989C45.6536 17.2825 46.5489 15.7358 47.9158 14.6894C49.2828 13.6429 51.0094 13.1824 52.716 13.409L82.827 17.379C84.5341 17.6057 86.0815 18.5006 87.1294 19.8673C88.1773 21.2339 88.64 22.9605 88.416 24.668L87.692 30.143C77.4 23.458 60.9 20.333 45.118 21.314L45.427 18.989ZM14.959 29.167C14.4515 27.5003 14.5845 25.7042 15.332 24.1305C16.0794 22.5567 17.3875 21.3188 19 20.659C21.1191 19.8312 23.3064 19.1901 25.537 18.743C27.1014 18.4379 28.7233 18.6846 30.1262 19.4411C31.5291 20.1977 32.6264 21.4172 33.231 22.892C30.2407 23.5047 27.2958 24.3213 24.417 25.336C24.417 25.336 24.407 25.336 24.402 25.336C21.1619 26.4681 18.0539 27.9474 15.132 29.748L14.959 29.167ZM14.472 31.347C15.192 30.859 15.9453 30.388 16.732 29.934C16.832 29.874 16.947 29.82 17.051 29.761C17.731 29.376 18.427 28.999 19.151 28.639C19.351 28.539 19.565 28.449 19.769 28.351C20.415 28.042 21.069 27.738 21.749 27.451C22.006 27.342 22.275 27.242 22.537 27.136C23.0403 26.932 23.5517 26.7343 24.071 26.543V89.909H16.141C13.9298 89.9066 11.8099 89.0272 10.2463 87.4636C8.68281 85.9001 7.80337 83.7802 7.80099 81.569V43.984C7.79644 41.8391 8.2443 39.7174 9.11533 37.7574C9.98637 35.7973 11.261 34.043 12.856 32.609C13.3652 32.1519 13.9052 31.7303 14.472 31.347ZM25.072 89.913V26.171C28.0027 25.154 31.0006 24.342 34.044 23.741C34.052 23.741 34.059 23.741 34.067 23.741H34.073C52.632 20.029 74.864 22.841 87.414 31.156C87.552 31.248 87.684 31.347 87.814 31.443L87.826 31.452C89.7895 32.8637 91.3868 34.7247 92.4845 36.8796C93.5822 39.0345 94.1485 41.4207 94.136 43.839V49.988L77.6 52.556C76.8912 48.4345 75.0197 44.6014 72.2057 41.5078C69.3918 38.4141 65.7526 36.1888 61.7166 35.0938C57.6805 33.9987 53.4156 34.0796 49.424 35.3268C45.4323 36.5739 41.8801 38.9356 39.1854 42.1336C36.4907 45.3316 34.7658 49.233 34.2137 53.3783C33.6615 57.5236 34.3052 61.7404 36.0689 65.5323C37.8326 69.3242 40.6429 72.5332 44.1689 74.7817C47.695 77.0302 51.79 78.2245 55.972 78.224C60.4769 78.2324 64.8727 76.8378 68.549 74.234L70.988 89.913H25.072ZM72.66 53.325C72.0153 49.5847 70.1383 46.1675 67.3276 43.6169C64.517 41.0663 60.9341 39.5288 57.149 39.2491C53.3639 38.9694 49.5939 39.9635 46.4389 42.0732C43.2838 44.183 40.9249 47.2872 39.7374 50.8921C38.5498 54.4969 38.6019 58.3954 39.8853 61.9673C41.1687 65.5391 43.6097 68.5792 46.8199 70.604C50.0302 72.6287 53.8253 73.5217 57.6016 73.141C61.3779 72.7603 64.9185 71.1278 67.66 68.503L68.38 73.134C64.7961 75.7994 60.4463 77.2341 55.98 77.224C51.9866 77.2278 48.0752 76.0904 44.7065 73.9459C41.3378 71.8013 38.6519 68.7389 36.9652 65.1192C35.2785 61.4995 34.6612 57.4732 35.1859 53.5144C35.7107 49.5556 37.3556 45.8292 39.9271 42.7738C42.4986 39.7185 45.8895 37.4616 49.7006 36.2687C53.5117 35.0759 57.5843 34.9968 61.4388 36.0408C65.2933 37.0848 68.7693 39.2084 71.4575 42.1616C74.1456 45.1148 75.934 48.7746 76.612 52.71L72.66 53.325ZM65.5 51.441C65.1806 50.5177 64.5737 49.7212 63.7682 49.1682C62.9628 48.6153 62.0013 48.3352 61.025 48.369C59.9773 48.4085 58.9586 48.7239 58.0718 49.2833C57.1851 49.8428 56.4618 50.6264 55.975 51.555C55.4893 50.6273 54.7673 49.8442 53.882 49.2849C52.9967 48.7257 51.9794 48.4101 50.933 48.37H50.828C49.8633 48.3538 48.9184 48.6447 48.1298 49.2007C47.3412 49.7566 46.7498 50.5489 46.441 51.463C44.783 56.738 48.732 59.346 52.552 61.868C53.605 62.568 54.694 63.283 55.663 64.053C55.7515 64.1235 55.8613 64.1619 55.9745 64.1619C56.0876 64.1619 56.1975 64.1235 56.286 64.053C57.253 63.283 58.343 62.563 59.396 61.868C62.078 60.097 64.817 58.279 65.637 55.522L67.469 67.3C64.988 69.883 61.7094 71.555 58.1618 72.0465C54.6142 72.538 51.0045 71.8204 47.9147 70.0092C44.8249 68.1981 42.4352 65.399 41.1309 62.0635C39.8266 58.728 39.6838 55.0504 40.7255 51.6237C41.7672 48.1971 43.9327 45.2212 46.8727 43.1759C49.8127 41.1306 53.3559 40.1351 56.9309 40.3501C60.5059 40.565 63.9044 41.9778 66.5782 44.3605C69.252 46.7433 71.0453 49.9572 71.669 53.484L65.959 54.372C65.9196 54.3809 65.8816 54.395 65.846 54.414C65.9347 53.4098 65.817 52.398 65.5 51.441ZM58.845 61.032C57.883 61.666 56.892 62.321 55.974 63.026C55.056 62.321 54.065 61.666 53.103 61.032C49.272 58.502 45.963 56.317 47.388 51.781C47.6263 51.0632 48.0892 50.441 48.7083 50.0065C49.3274 49.572 50.0699 49.3481 50.826 49.368H50.913C51.9605 49.4167 52.9663 49.7925 53.7891 50.4425C54.6119 51.0926 55.2103 51.9842 55.5 52.992C55.5319 53.0933 55.5952 53.1819 55.6808 53.2448C55.7663 53.3078 55.8698 53.3418 55.976 53.342C56.0823 53.3421 56.1858 53.3083 56.2716 53.2455C56.3573 53.1828 56.4209 53.0943 56.453 52.993C56.7433 51.9844 57.3426 51.0923 58.1665 50.4422C58.9905 49.7921 59.9975 49.4167 61.046 49.369C61.8112 49.3333 62.5672 49.5473 63.2001 49.9787C63.8331 50.4102 64.3086 51.0357 64.555 51.761C65.983 56.317 62.676 58.5 58.845 61.032ZM75.839 114.578L69.406 73.24L66.606 55.279L72.327 54.389L110.891 48.389L120.119 107.689L75.839 114.578Z" stroke="black" stroke-width="0.6" mask="url(#path-3-outside-1_39_12)"/>
<path d="M109.109 50.837C109.056 50.7983 108.996 50.7704 108.932 50.755C108.868 50.7395 108.802 50.7368 108.737 50.747L69.389 56.87C69.258 56.8904 69.1404 56.9621 69.0622 57.0691C68.984 57.1762 68.9516 57.31 68.972 57.441L76.1 103.224C76.1183 103.342 76.1782 103.449 76.2688 103.527C76.3594 103.604 76.4747 103.647 76.594 103.647C76.6194 103.647 76.6448 103.645 76.67 103.641L116.019 97.518C116.15 97.4976 116.268 97.4259 116.346 97.3188C116.424 97.2118 116.456 97.078 116.436 96.947L109.312 51.164C109.301 51.0988 109.278 51.0363 109.243 50.9802C109.208 50.924 109.163 50.8754 109.109 50.837ZM77.009 102.576L70.039 57.781L108.399 51.812L115.369 96.612L77.009 102.576Z" fill="black"/>
<path d="M104.469 18.292H105.675V19.492C105.675 19.6246 105.728 19.7518 105.821 19.8456C105.915 19.9393 106.042 19.992 106.175 19.992C106.308 19.992 106.435 19.9393 106.529 19.8456C106.622 19.7518 106.675 19.6246 106.675 19.492V18.292H107.881C108.014 18.292 108.141 18.2393 108.235 18.1456C108.328 18.0518 108.381 17.9246 108.381 17.792C108.381 17.6594 108.328 17.5322 108.235 17.4384C108.141 17.3447 108.014 17.292 107.881 17.292H106.675V16.086C106.675 15.9534 106.622 15.8262 106.529 15.7324C106.435 15.6387 106.308 15.586 106.175 15.586C106.042 15.586 105.915 15.6387 105.821 15.7324C105.728 15.8262 105.675 15.9534 105.675 16.086V17.292H104.469C104.336 17.292 104.209 17.3447 104.115 17.4384C104.022 17.5322 103.969 17.6594 103.969 17.792C103.969 17.9246 104.022 18.0518 104.115 18.1456C104.209 18.2393 104.336 18.292 104.469 18.292Z" fill="black"/>
<path d="M101.235 28.408C101.62 28.408 101.997 28.2937 102.318 28.0795C102.638 27.8654 102.888 27.561 103.036 27.2048C103.183 26.8487 103.222 26.4568 103.147 26.0788C103.071 25.7007 102.886 25.3534 102.613 25.0808C102.341 24.8083 101.993 24.6226 101.615 24.5474C101.237 24.4722 100.845 24.5108 100.489 24.6584C100.133 24.8059 99.8286 25.0557 99.6145 25.3762C99.4003 25.6967 99.286 26.0735 99.286 26.459C99.2865 26.9757 99.4921 27.4712 99.8574 27.8366C100.223 28.202 100.718 28.4075 101.235 28.408ZM101.235 25.508C101.423 25.508 101.606 25.5637 101.762 25.6679C101.918 25.7722 102.04 25.9204 102.112 26.0938C102.184 26.2672 102.202 26.458 102.166 26.6421C102.129 26.8262 102.039 26.9953 101.906 27.128C101.773 27.2608 101.604 27.3511 101.42 27.3878C101.236 27.4244 101.045 27.4056 100.872 27.3338C100.698 27.2619 100.55 27.1403 100.446 26.9842C100.342 26.8282 100.286 26.6447 100.286 26.457C100.287 26.2057 100.387 25.965 100.565 25.7875C100.743 25.6101 100.984 25.5103 101.235 25.51V25.508Z" fill="black"/>
<path d="M21.077 100.079H19.872V98.873C19.872 98.7404 19.8193 98.6132 19.7256 98.5194C19.6318 98.4257 19.5046 98.373 19.372 98.373C19.2394 98.373 19.1122 98.4257 19.0185 98.5194C18.9247 98.6132 18.872 98.7404 18.872 98.873V100.079H17.666C17.5334 100.079 17.4062 100.132 17.3125 100.225C17.2187 100.319 17.166 100.446 17.166 100.579C17.166 100.712 17.2187 100.839 17.3125 100.933C17.4062 101.026 17.5334 101.079 17.666 101.079H18.872V102.285C18.872 102.418 18.9247 102.545 19.0185 102.639C19.1122 102.732 19.2394 102.785 19.372 102.785C19.5046 102.785 19.6318 102.732 19.7256 102.639C19.8193 102.545 19.872 102.418 19.872 102.285V101.079H21.077C21.2096 101.079 21.3368 101.026 21.4306 100.933C21.5243 100.839 21.577 100.712 21.577 100.579C21.577 100.446 21.5243 100.319 21.4306 100.225C21.3368 100.132 21.2096 100.079 21.077 100.079Z" fill="black"/>
<path d="M26.587 106.566C26.2015 106.566 25.8247 106.68 25.5042 106.894C25.1837 107.109 24.9339 107.413 24.7864 107.769C24.6388 108.125 24.6002 108.517 24.6755 108.895C24.7507 109.273 24.9363 109.621 25.2089 109.893C25.4814 110.166 25.8287 110.351 26.2068 110.427C26.5848 110.502 26.9767 110.463 27.3329 110.316C27.689 110.168 27.9934 109.918 28.2075 109.598C28.4217 109.277 28.536 108.9 28.536 108.515C28.5355 107.998 28.33 107.503 27.9646 107.137C27.5992 106.772 27.1037 106.567 26.587 106.566ZM26.587 109.466C26.3993 109.466 26.2158 109.41 26.0598 109.306C25.9037 109.202 25.7821 109.054 25.7102 108.88C25.6384 108.707 25.6196 108.516 25.6562 108.332C25.6929 108.148 25.7832 107.979 25.916 107.846C26.0487 107.713 26.2178 107.623 26.4019 107.586C26.5859 107.55 26.7768 107.568 26.9502 107.64C27.1236 107.712 27.2718 107.834 27.3761 107.99C27.4803 108.146 27.536 108.329 27.536 108.517C27.5352 108.768 27.4349 109.009 27.257 109.186C27.0792 109.364 26.8383 109.464 26.587 109.464V109.466Z" fill="black"/>
<path d="M77.1675 72.489C77.3633 71.2761 77.9382 70.1614 78.8073 69.3098C79.6764 68.4581 80.7935 67.9147 81.9935 67.7599L82.1311 67.7383C83.7781 67.5579 85.442 67.9072 86.8886 68.737C88.3353 69.5669 89.4919 70.8354 90.1957 72.3643C90.2434 72.4611 90.3202 72.5401 90.4148 72.5899C90.5095 72.6397 90.6171 72.6577 90.7221 72.6412C90.8271 72.6248 90.9241 72.5747 90.999 72.4984C91.0739 72.4221 91.1228 72.3234 91.1387 72.2166C91.3428 70.5439 92.0581 68.9812 93.184 67.7482C94.3099 66.5152 95.7897 65.6741 97.4152 65.3432L97.5448 65.3229C98.7306 65.103 99.9564 65.2768 101.041 65.8185C102.126 66.3603 103.013 67.2413 103.571 68.3316C106.917 75.1702 102.161 79.5728 97.126 84.2338C95.7796 85.4759 94.3918 86.7647 93.1459 88.1117C91.5473 87.2105 89.834 86.4119 88.1721 85.6371L88.1707 85.6365C81.9516 82.7406 76.0764 80.0021 77.1675 72.489Z" fill="#F66867"/>
<path d="M76.9213 72.6297L76.9213 72.6297L76.9211 72.6311C76.3289 76.5497 77.5906 79.2296 79.7538 81.2687C81.9061 83.2976 84.9509 84.6916 87.9256 86.0536L87.9373 86.0589L87.9374 86.059L87.9758 86.0765C89.6347 86.8354 91.346 87.6183 92.8964 88.5029C93.0142 88.5701 93.1513 88.5954 93.2853 88.5747C93.4193 88.554 93.5424 88.4885 93.6344 88.3889L93.6345 88.3888C94.855 87.0636 96.2566 85.7886 97.6162 84.552C97.6163 84.552 97.6163 84.552 97.6163 84.552L97.6215 84.5473C100.044 82.3452 102.523 80.0911 103.957 77.5002C105.397 74.8979 105.782 71.9565 104.023 68.3937L104.022 68.3923C103.383 67.1496 102.356 66.15 101.096 65.5462C99.8357 64.9424 98.4129 64.7674 97.0443 65.048C95.4983 65.3504 94.0662 66.0748 92.9064 67.1409C91.7984 68.1592 90.9803 69.4515 90.5333 70.8858C89.6738 69.6559 88.504 68.6735 87.1412 68.0396C85.7145 67.376 84.132 67.1202 82.569 67.3006C81.1744 67.449 79.867 68.0505 78.8469 69.0129C77.8267 69.9754 77.1503 71.2459 76.9213 72.6297ZM96.8087 83.664L96.8086 83.6641L96.7826 83.6878C95.5343 84.8246 94.2427 86.0007 93.0804 87.2281C91.5943 86.4118 90.0083 85.685 88.4732 84.9816L88.4416 84.9671L88.4416 84.9671C85.4938 83.6181 82.6483 82.3148 80.6686 80.4796C79.6807 79.5637 78.9111 78.5176 78.4531 77.2699C77.9952 76.0226 77.8465 74.568 78.1087 72.8318C78.2991 71.703 78.8538 70.6676 79.688 69.8837C80.5225 69.0995 81.5907 68.6102 82.7294 68.4905L82.7294 68.4905L82.7322 68.4901C83.0143 68.4524 83.2986 68.4336 83.5832 68.434C84.985 68.4524 86.3533 68.8651 87.5314 69.6248C88.7098 70.3847 89.6503 71.4609 90.2454 72.7305L90.2454 72.7305L90.2464 72.7325C90.3031 72.8466 90.3946 72.9398 90.5078 72.9984C90.6209 73.0571 90.7498 73.0781 90.8757 73.0586C91.0017 73.0391 91.1181 72.98 91.2082 72.8898C91.2983 72.7997 91.3574 72.6832 91.3768 72.5573L91.3768 72.5573L91.3772 72.5547C91.5732 71.0173 92.2464 69.5801 93.302 68.4453C94.3576 67.3106 95.7425 66.5355 97.2617 66.229L97.2622 66.2289C98.3785 65.998 99.5396 66.1386 100.569 66.6291C101.597 67.1196 102.437 67.9329 102.961 68.9451C103.739 70.524 104.041 71.9582 103.984 73.2881C103.928 74.6185 103.513 75.8506 102.85 77.0244C101.522 79.3765 99.2072 81.4829 96.8087 83.664Z" fill="black" stroke="black" stroke-width="0.2"/>
</svg>
