<svg width="128" height="128" viewBox="0 0 128 128" fill="none" xmlns="http://www.w3.org/2000/svg">
<path d="M110.205 124.039H7.89301V22.657L10.533 20.465V20.868C10.533 21.962 11.42 22.848 12.513 22.848C13.606 22.848 14.493 21.962 14.493 20.868V16.247C14.493 16.216 14.485 16.188 14.484 16.157C14.481 16.085 14.474 16.013 14.462 15.942C14.453 15.882 14.442 15.824 14.427 15.767C14.411 15.701 14.39 15.638 14.367 15.573C14.346 15.514 14.322 15.456 14.295 15.399C14.267 15.341 14.236 15.285 14.203 15.229C14.168 15.171 14.131 15.116 14.091 15.062C14.071 15.036 14.058 15.007 14.036 14.981C14.016 14.957 13.992 14.94 13.971 14.917C13.925 14.867 13.877 14.821 13.827 14.775C13.779 14.733 13.732 14.692 13.681 14.655C13.629 14.617 13.575 14.583 13.52 14.55C13.464 14.517 13.409 14.485 13.351 14.458C13.294 14.431 13.236 14.409 13.176 14.388C13.114 14.366 13.052 14.346 12.988 14.33C12.929 14.315 12.869 14.305 12.809 14.296C12.738 14.285 12.668 14.278 12.597 14.275C12.568 14.274 12.542 14.266 12.513 14.266C12.482 14.266 12.454 14.274 12.423 14.275C12.351 14.278 12.28 14.286 12.208 14.297C12.148 14.306 12.09 14.318 12.032 14.332C11.968 14.348 11.905 14.368 11.842 14.391C11.781 14.413 11.721 14.437 11.663 14.465C11.608 14.491 11.555 14.521 11.502 14.553C11.44 14.59 11.381 14.63 11.324 14.673C11.3 14.691 11.273 14.704 11.249 14.723L4.64801 20.204C4.62601 20.222 4.61001 20.245 4.58901 20.264C4.53601 20.312 4.48701 20.363 4.43901 20.416C4.39801 20.462 4.35801 20.508 4.32201 20.557C4.28401 20.609 4.25001 20.664 4.21601 20.719C4.18301 20.775 4.15201 20.83 4.12401 20.888C4.09701 20.945 4.07501 21.003 4.05401 21.063C4.03201 21.126 4.01101 21.188 3.99601 21.252C3.98101 21.311 3.97101 21.37 3.96201 21.43C3.95101 21.501 3.94401 21.571 3.94101 21.643C3.94001 21.672 3.93201 21.698 3.93201 21.727V126.02C3.93201 127.114 4.81901 128 5.91201 128H110.205C111.298 128 112.185 127.114 112.185 126.02C112.185 124.926 111.298 124.039 110.205 124.039Z" fill="black"/>
<path d="M122.086 7.866H104.052C103.111 3.38 99.125 0 94.363 0C89.601 0 85.615 3.38 84.674 7.866H71.708C70.767 3.38 66.781 0 62.019 0C57.257 0 53.271 3.38 52.33 7.866H40.685C39.744 3.38 35.758 0 30.996 0C26.234 0 22.248 3.38 21.307 7.866H19.114C18.021 7.866 17.134 8.752 17.134 9.846V112.818C17.134 113.912 18.021 114.798 19.114 114.798H117.306L114.666 117.438H110.835C109.742 117.438 108.855 118.324 108.855 119.418C108.855 120.512 109.742 121.398 110.835 121.398H115.392C115.419 121.399 115.444 121.414 115.471 121.414C115.533 121.414 115.591 121.384 115.652 121.379C115.778 121.366 115.9 121.343 116.018 121.308C116.146 121.271 116.264 121.221 116.384 121.158C116.495 121.098 116.599 121.029 116.697 120.95C116.752 120.905 116.82 120.886 116.871 120.834L123.486 114.219C123.67 114.035 123.817 113.815 123.918 113.57C123.922 113.56 123.923 113.55 123.927 113.54C124.015 113.316 124.068 113.073 124.068 112.818V9.846C124.067 8.753 123.18 7.866 122.086 7.866ZM94.363 3.961C96.921 3.961 99.087 5.595 99.922 7.867H88.804C89.639 5.594 91.805 3.961 94.363 3.961ZM62.02 3.961C64.578 3.961 66.744 5.595 67.579 7.867H56.462C57.296 5.594 59.461 3.961 62.02 3.961ZM30.996 3.961C33.554 3.961 35.72 5.595 36.555 7.867H25.438C26.272 5.594 28.438 3.961 30.996 3.961ZM120.106 110.838H21.095V11.827H22.629C22.773 11.86 22.921 11.882 23.075 11.882C23.229 11.882 23.377 11.861 23.521 11.827H36.937V23.873C36.937 24.967 37.824 25.853 38.917 25.853C40.01 25.853 40.897 24.967 40.897 23.873V11.827H53.653C53.797 11.86 53.945 11.882 54.099 11.882C54.253 11.882 54.401 11.861 54.545 11.827H67.961V23.873C67.961 24.967 68.848 25.853 69.941 25.853C71.034 25.853 71.921 24.967 71.921 23.873V11.827H85.997C86.141 11.86 86.289 11.882 86.443 11.882C86.597 11.882 86.745 11.861 86.889 11.827H100.305V23.873C100.305 24.967 101.192 25.853 102.285 25.853C103.378 25.853 104.265 24.967 104.265 23.873V11.827H120.107L120.106 110.838Z" fill="black"/>
<path d="M102.316 121.399C103.409 121.399 104.296 120.513 104.296 119.419C104.296 118.325 103.409 117.439 102.316 117.439H93.798C92.705 117.439 91.818 118.325 91.818 119.419C91.818 120.513 92.705 121.399 93.798 121.399H102.316Z" fill="black"/>
<path d="M34.171 121.399C35.264 121.399 36.151 120.513 36.151 119.419C36.151 118.325 35.264 117.439 34.171 117.439H25.653C24.56 117.439 23.673 118.325 23.673 119.419C23.673 120.513 24.56 121.399 25.653 121.399H34.171Z" fill="black"/>
<path d="M68.244 121.399C69.337 121.399 70.224 120.513 70.224 119.419C70.224 118.325 69.337 117.439 68.244 117.439H59.726C58.633 117.439 57.746 118.325 57.746 119.419C57.746 120.513 58.633 121.399 59.726 121.399H68.244Z" fill="black"/>
<path d="M51.207 121.399C52.3 121.399 53.187 120.513 53.187 119.419C53.187 118.325 52.3 117.439 51.207 117.439H42.689C41.596 117.439 40.709 118.325 40.709 119.419C40.709 120.513 41.596 121.399 42.689 121.399H51.207Z" fill="black"/>
<path d="M85.279 121.399C86.372 121.399 87.259 120.513 87.259 119.419C87.259 118.325 86.372 117.439 85.279 117.439H76.761C75.668 117.439 74.781 118.325 74.781 119.419C74.781 120.513 75.668 121.399 76.761 121.399H85.279Z" fill="black"/>
<path d="M10.533 119.419C10.533 120.513 11.42 121.399 12.513 121.399H17.134C18.227 121.399 19.114 120.513 19.114 119.419C19.114 118.325 18.227 117.439 17.134 117.439H14.494V114.799C14.494 113.705 13.607 112.819 12.514 112.819C11.421 112.819 10.534 113.705 10.534 114.799L10.533 119.419Z" fill="black"/>
<path d="M10.533 55.024C10.533 56.118 11.42 57.004 12.513 57.004C13.606 57.004 14.493 56.118 14.493 55.024V46.485C14.493 45.391 13.606 44.505 12.513 44.505C11.42 44.505 10.533 45.391 10.533 46.485V55.024Z" fill="black"/>
<path d="M12.5141 39.926C13.6071 39.926 14.4941 39.04 14.4941 37.946V29.407C14.4941 28.313 13.6071 27.427 12.5141 27.427C11.4211 27.427 10.5341 28.313 10.5341 29.407V37.946C10.5331 39.039 11.4211 39.926 12.5141 39.926Z" fill="black"/>
<path d="M10.533 72.102C10.533 73.196 11.42 74.082 12.513 74.082C13.606 74.082 14.493 73.196 14.493 72.102V63.563C14.493 62.469 13.606 61.583 12.513 61.583C11.42 61.583 10.533 62.469 10.533 63.563V72.102Z" fill="black"/>
<path d="M10.533 106.259C10.533 107.353 11.42 108.239 12.513 108.239C13.606 108.239 14.493 107.353 14.493 106.259V97.72C14.493 96.626 13.606 95.74 12.513 95.74C11.42 95.74 10.533 96.626 10.533 97.72V106.259Z" fill="black"/>
<path d="M10.533 89.181C10.533 90.275 11.42 91.161 12.513 91.161C13.606 91.161 14.493 90.275 14.493 89.181V80.641C14.493 79.547 13.606 78.661 12.513 78.661C11.42 78.661 10.533 79.547 10.533 80.641V89.181Z" fill="black"/>
<path d="M43.117 16.047C42.343 16.82 42.343 18.074 43.117 18.847C44.24 19.969 44.857 21.461 44.857 23.048C44.857 24.635 44.24 26.127 43.117 27.249C41.995 28.371 40.504 28.989 38.917 28.989C37.33 28.989 35.838 28.371 34.717 27.249C33.594 26.127 32.977 24.635 32.977 23.048C32.977 21.461 33.594 19.969 34.717 18.847C35.49 18.074 35.49 16.82 34.717 16.047C33.943 15.274 32.69 15.274 31.917 16.047C30.046 17.917 29.016 20.403 29.016 23.048C29.016 25.693 30.046 28.179 31.917 30.049C33.786 31.919 36.273 32.949 38.917 32.949C41.561 32.949 44.048 31.919 45.917 30.049C47.788 28.179 48.818 25.693 48.818 23.048C48.818 20.403 47.788 17.917 45.917 16.047C45.144 15.273 43.891 15.273 43.117 16.047Z" fill="black"/>
<path d="M108.225 23.048C108.225 24.635 107.608 26.127 106.485 27.249C105.363 28.371 103.872 28.989 102.285 28.989C100.698 28.989 99.206 28.371 98.085 27.249C96.962 26.127 96.345 24.635 96.345 23.048C96.345 21.461 96.963 19.969 98.085 18.847C98.858 18.074 98.858 16.82 98.085 16.047C97.311 15.274 96.058 15.274 95.285 16.047C93.414 17.917 92.384 20.403 92.384 23.048C92.384 25.693 93.414 28.179 95.285 30.049C97.154 31.919 99.641 32.949 102.285 32.949C104.929 32.949 107.416 31.919 109.285 30.049C111.156 28.179 112.186 25.693 112.186 23.048C112.186 20.403 111.156 17.917 109.285 16.047C108.512 15.274 107.258 15.274 106.485 16.047C105.711 16.82 105.711 18.074 106.485 18.847C107.607 19.969 108.225 21.461 108.225 23.048Z" fill="black"/>
<path d="M74.141 16.047C73.368 16.82 73.368 18.074 74.141 18.847C75.264 19.969 75.881 21.461 75.881 23.048C75.881 24.635 75.263 26.127 74.141 27.249C73.019 28.371 71.528 28.989 69.941 28.989C68.354 28.989 66.862 28.371 65.741 27.249C64.618 26.127 64.001 24.635 64.001 23.048C64.001 21.461 64.618 19.969 65.741 18.847C66.515 18.074 66.515 16.82 65.741 16.047C64.968 15.274 63.714 15.274 62.941 16.047C61.07 17.917 60.04 20.403 60.04 23.048C60.04 25.693 61.07 28.179 62.941 30.049C64.81 31.919 67.297 32.949 69.941 32.949C72.585 32.949 75.072 31.919 76.941 30.049C78.812 28.179 79.842 25.693 79.842 23.048C79.842 20.403 78.812 17.917 76.941 16.047C76.167 15.273 74.914 15.273 74.141 16.047Z" fill="black"/>
<path d="M69.94 46.15C71.0335 46.15 71.92 45.2635 71.92 44.17C71.92 43.0765 71.0335 42.19 69.94 42.19C68.8464 42.19 67.96 43.0765 67.96 44.17C67.96 45.2635 68.8464 46.15 69.94 46.15Z" fill="black"/>
<path d="M44.8581 46.15C45.9516 46.15 46.8381 45.2635 46.8381 44.17C46.8381 43.0765 45.9516 42.19 44.8581 42.19C43.7645 42.19 42.8781 43.0765 42.8781 44.17C42.8781 45.2635 43.7645 46.15 44.8581 46.15Z" fill="black"/>
<path d="M32.3161 46.15C33.4096 46.15 34.2961 45.2635 34.2961 44.17C34.2961 43.0765 33.4096 42.19 32.3161 42.19C31.2225 42.19 30.3361 43.0765 30.3361 44.17C30.3361 45.2635 31.2225 46.15 32.3161 46.15Z" fill="black"/>
<path d="M57.3989 46.15C58.4925 46.15 59.3789 45.2635 59.3789 44.17C59.3789 43.0765 58.4925 42.19 57.3989 42.19C56.3054 42.19 55.4189 43.0765 55.4189 44.17C55.4189 45.2635 56.3054 46.15 57.3989 46.15Z" fill="black"/>
<path d="M107.565 46.15C108.659 46.15 109.545 45.2635 109.545 44.17C109.545 43.0765 108.659 42.19 107.565 42.19C106.472 42.19 105.585 43.0765 105.585 44.17C105.585 45.2635 106.472 46.15 107.565 46.15Z" fill="black"/>
<path d="M95.023 46.15C96.1166 46.15 97.003 45.2635 97.003 44.17C97.003 43.0765 96.1166 42.19 95.023 42.19C93.9295 42.19 93.043 43.0765 93.043 44.17C93.043 45.2635 93.9295 46.15 95.023 46.15Z" fill="black"/>
<path d="M82.482 46.15C83.5755 46.15 84.462 45.2635 84.462 44.17C84.462 43.0765 83.5755 42.19 82.482 42.19C81.3885 42.19 80.502 43.0765 80.502 44.17C80.502 45.2635 81.3885 46.15 82.482 46.15Z" fill="black"/>
<path d="M32.3161 59.352C33.4096 59.352 34.2961 58.4655 34.2961 57.372C34.2961 56.2785 33.4096 55.392 32.3161 55.392C31.2225 55.392 30.3361 56.2785 30.3361 57.372C30.3361 58.4655 31.2225 59.352 32.3161 59.352Z" fill="black"/>
<path d="M44.8581 59.352C45.9516 59.352 46.8381 58.4655 46.8381 57.372C46.8381 56.2785 45.9516 55.392 44.8581 55.392C43.7645 55.392 42.8781 56.2785 42.8781 57.372C42.8781 58.4655 43.7645 59.352 44.8581 59.352Z" fill="black"/>
<path d="M57.3989 59.352C58.4925 59.352 59.3789 58.4655 59.3789 57.372C59.3789 56.2785 58.4925 55.392 57.3989 55.392C56.3054 55.392 55.4189 56.2785 55.4189 57.372C55.4189 58.4655 56.3054 59.352 57.3989 59.352Z" fill="black"/>
<path d="M69.94 59.352C71.0335 59.352 71.92 58.4655 71.92 57.372C71.92 56.2785 71.0335 55.392 69.94 55.392C68.8464 55.392 67.96 56.2785 67.96 57.372C67.96 58.4655 68.8464 59.352 69.94 59.352Z" fill="black"/>
<path d="M82.482 59.352C83.5755 59.352 84.462 58.4655 84.462 57.372C84.462 56.2785 83.5755 55.392 82.482 55.392C81.3885 55.392 80.502 56.2785 80.502 57.372C80.502 58.4655 81.3885 59.352 82.482 59.352Z" fill="black"/>
<path d="M44.8581 72.553C45.9516 72.553 46.8381 71.6665 46.8381 70.573C46.8381 69.4795 45.9516 68.593 44.8581 68.593C43.7645 68.593 42.8781 69.4795 42.8781 70.573C42.8781 71.6665 43.7645 72.553 44.8581 72.553Z" fill="black"/>
<path d="M57.3989 72.553C58.4925 72.553 59.3789 71.6665 59.3789 70.573C59.3789 69.4795 58.4925 68.593 57.3989 68.593C56.3054 68.593 55.4189 69.4795 55.4189 70.573C55.4189 71.6665 56.3054 72.553 57.3989 72.553Z" fill="black"/>
<path d="M32.3161 72.553C33.4096 72.553 34.2961 71.6665 34.2961 70.573C34.2961 69.4795 33.4096 68.593 32.3161 68.593C31.2225 68.593 30.3361 69.4795 30.3361 70.573C30.3361 71.6665 31.2225 72.553 32.3161 72.553Z" fill="black"/>
<path d="M82.482 72.553C83.5755 72.553 84.462 71.6665 84.462 70.573C84.462 69.4795 83.5755 68.593 82.482 68.593C81.3885 68.593 80.502 69.4795 80.502 70.573C80.502 71.6665 81.3885 72.553 82.482 72.553Z" fill="black"/>
<path d="M69.94 72.553C71.0335 72.553 71.92 71.6665 71.92 70.573C71.92 69.4795 71.0335 68.593 69.94 68.593C68.8464 68.593 67.96 69.4795 67.96 70.573C67.96 71.6665 68.8464 72.553 69.94 72.553Z" fill="black"/>
<path d="M69.94 85.755C71.0335 85.755 71.92 84.8685 71.92 83.775C71.92 82.6815 71.0335 81.795 69.94 81.795C68.8464 81.795 67.96 82.6815 67.96 83.775C67.96 84.8685 68.8464 85.755 69.94 85.755Z" fill="black"/>
<path d="M95.023 85.755C96.1166 85.755 97.003 84.8685 97.003 83.775C97.003 82.6815 96.1166 81.795 95.023 81.795C93.9295 81.795 93.043 82.6815 93.043 83.775C93.043 84.8685 93.9295 85.755 95.023 85.755Z" fill="black"/>
<path d="M32.3161 85.755C33.4096 85.755 34.2961 84.8685 34.2961 83.775C34.2961 82.6815 33.4096 81.795 32.3161 81.795C31.2225 81.795 30.3361 82.6815 30.3361 83.775C30.3361 84.8685 31.2225 85.755 32.3161 85.755Z" fill="black"/>
<path d="M82.482 85.755C83.5755 85.755 84.462 84.8685 84.462 83.775C84.462 82.6815 83.5755 81.795 82.482 81.795C81.3885 81.795 80.502 82.6815 80.502 83.775C80.502 84.8685 81.3885 85.755 82.482 85.755Z" fill="black"/>
<path d="M44.8581 85.755C45.9516 85.755 46.8381 84.8685 46.8381 83.775C46.8381 82.6815 45.9516 81.795 44.8581 81.795C43.7645 81.795 42.8781 82.6815 42.8781 83.775C42.8781 84.8685 43.7645 85.755 44.8581 85.755Z" fill="black"/>
<path d="M107.565 85.755C108.659 85.755 109.545 84.8685 109.545 83.775C109.545 82.6815 108.659 81.795 107.565 81.795C106.472 81.795 105.585 82.6815 105.585 83.775C105.585 84.8685 106.472 85.755 107.565 85.755Z" fill="black"/>
<path d="M57.3989 85.755C58.4925 85.755 59.3789 84.8685 59.3789 83.775C59.3789 82.6815 58.4925 81.795 57.3989 81.795C56.3054 81.795 55.4189 82.6815 55.4189 83.775C55.4189 84.8685 56.3054 85.755 57.3989 85.755Z" fill="black"/>
<path d="M44.8581 98.956C45.9516 98.956 46.8381 98.0695 46.8381 96.976C46.8381 95.8825 45.9516 94.996 44.8581 94.996C43.7645 94.996 42.8781 95.8825 42.8781 96.976C42.8781 98.0695 43.7645 98.956 44.8581 98.956Z" fill="black"/>
<path d="M32.3161 98.956C33.4096 98.956 34.2961 98.0695 34.2961 96.976C34.2961 95.8825 33.4096 94.996 32.3161 94.996C31.2225 94.996 30.3361 95.8825 30.3361 96.976C30.3361 98.0695 31.2225 98.956 32.3161 98.956Z" fill="black"/>
<path d="M57.3989 98.956C58.4925 98.956 59.3789 98.0695 59.3789 96.976C59.3789 95.8825 58.4925 94.996 57.3989 94.996C56.3054 94.996 55.4189 95.8825 55.4189 96.976C55.4189 98.0695 56.3054 98.956 57.3989 98.956Z" fill="black"/>
<path d="M101.773 71.9122C101.839 71.9691 101.92 72 102.004 72C102.087 72 102.169 71.9691 102.234 71.9122C103.333 70.9579 104.567 70.0713 105.759 69.2129C110.01 66.1549 114.403 62.9921 112.574 56.6431C112.236 55.5427 111.579 54.5921 110.701 53.9357C109.823 53.2792 108.772 52.9527 107.709 53.0055C106.495 53.0573 105.319 53.476 104.311 54.2148C103.304 54.9536 102.505 55.9834 102.005 57.1888C101.504 55.9849 100.707 54.9564 99.7007 54.2183C98.6947 53.4801 97.52 53.0613 96.3081 53.0088C95.2393 52.9505 94.1825 53.2765 93.3003 53.9365C92.418 54.5965 91.7593 55.5539 91.4253 56.6616C89.598 62.9969 93.9932 66.1589 98.2442 69.2169C99.4412 70.0713 100.674 70.9587 101.773 71.9122ZM92.1296 56.9163C92.4112 55.9922 92.9581 55.1914 93.6897 54.6321C94.4212 54.0729 95.2986 53.7849 96.1919 53.8108H96.2948C97.5173 53.8714 98.6915 54.3481 99.6524 55.1739C100.613 55.9996 101.312 57.1328 101.651 58.4139C101.675 58.4954 101.722 58.5666 101.785 58.6171C101.849 58.6676 101.925 58.6948 102.004 58.6948C102.082 58.6948 102.159 58.6676 102.222 58.6171C102.285 58.5666 102.332 58.4954 102.356 58.4139C102.696 57.1315 103.397 55.9976 104.359 55.1717C105.322 54.3459 106.498 53.8696 107.722 53.8099H107.819C108.709 53.7833 109.584 54.0692 110.314 54.6255C111.044 55.1818 111.59 55.979 111.872 56.8994C113.532 62.6543 109.559 65.5133 105.352 68.5399C104.227 69.3459 103.067 70.1833 102.004 71.0836C100.94 70.1836 99.7814 69.3496 98.6572 68.5405L98.6563 68.5399C94.4489 65.5149 90.4746 62.6552 92.1296 56.9163Z" fill="#F66867"/>
<path d="M92.1296 56.9163C92.4112 55.9922 92.9581 55.1914 93.6897 54.6321C94.4212 54.0729 95.2986 53.7849 96.1919 53.8108H96.2948C97.5173 53.8714 98.6915 54.3481 99.6524 55.1739C100.613 55.9996 101.312 57.1328 101.651 58.4139C101.675 58.4954 101.722 58.5666 101.785 58.6171C101.849 58.6676 101.925 58.6948 102.004 58.6948C102.082 58.6948 102.159 58.6676 102.222 58.6171C102.285 58.5666 102.332 58.4954 102.356 58.4139C102.696 57.1315 103.397 55.9976 104.359 55.1717C105.322 54.3459 106.498 53.8696 107.722 53.8099H107.819C108.709 53.7833 109.584 54.0692 110.314 54.6255C111.044 55.1818 111.59 55.979 111.872 56.8994C113.532 62.6543 109.559 65.5133 105.352 68.5399C104.227 69.3459 103.067 70.1833 102.004 71.0836C100.94 70.1836 99.7814 69.3496 98.6572 68.5405L98.6563 68.5399C94.4489 65.5149 90.4746 62.6552 92.1296 56.9163Z" fill="#F66867"/>
<path d="M102.949 52.475C101.639 51.291 99.885 50.451 97.701 50.451C92.411 50.451 88.871 53.89 88.464 59.406C88.434 59.767 88.423 60.149 88.423 60.531C88.423 65.262 91.837 67.25 94.58 68.846C95.7 69.498 96.759 70.114 97.486 70.837C99.705 73.041 100.634 75.062 100.74 75.596C100.741 75.622 100.743 75.645 100.744 75.655C100.817 76.695 101.684 77.495 102.718 77.495C102.741 77.495 102.766 77.494 102.789 77.494C103.855 77.456 104.7 76.581 104.7 75.515C104.7 75.481 104.697 75.413 104.695 75.353C104.673 74.607 104.772 70.936 108.605 69.029C113.13 66.772 115.944 63.275 116.133 59.695C116.271 57.485 115.389 55.363 113.584 53.559C111.85 51.825 109.805 50.908 107.67 50.908C105.898 50.907 104.19 51.57 102.949 52.475ZM112.178 59.467C112.068 61.559 109.971 63.921 106.838 65.484C104.563 66.616 103.031 68.272 102.07 70.038C101.552 69.377 100.954 68.7 100.277 68.027C99.19 66.947 97.859 66.173 96.572 65.424C93.897 63.867 92.383 62.871 92.383 60.531C92.383 60.262 92.389 59.992 92.413 59.717C92.668 56.246 94.498 54.412 97.701 54.412C100.208 54.412 101.308 56.596 101.585 57.265C101.995 58.259 103.12 58.739 104.126 58.356C105.128 57.97 105.641 56.855 105.28 55.843L105.23 55.701C105.735 55.328 106.615 54.869 107.669 54.869C108.745 54.869 109.794 55.371 110.782 56.36C111.775 57.35 112.245 58.389 112.178 59.467Z" fill="black"/>
</svg>
