<svg width="128" height="128" viewBox="0 0 128 128" fill="none" xmlns="http://www.w3.org/2000/svg">
<path d="M35.2668 61.251C38.4357 70.1956 46.7533 82.9615 53.3987 93.1608L53.428 93.2058L53.4281 93.2059L53.6093 93.4843C54.2922 94.5333 54.9603 95.5594 55.6075 96.5573C46.04 96.9492 36.5394 98.0622 29.3481 99.801C25.6465 100.696 22.5264 101.764 20.3201 103.002C18.1497 104.219 16.69 105.703 16.69 107.49C16.69 108.483 17.1389 109.389 17.8959 110.197C18.649 111.001 19.7282 111.733 21.0557 112.401C23.7117 113.737 27.4663 114.867 31.9095 115.783C40.8044 117.615 52.5774 118.61 64.14 118.61C75.7026 118.61 87.4756 117.615 96.3705 115.783C100.814 114.867 104.568 113.737 107.224 112.401C108.552 111.733 109.631 111.001 110.384 110.197C111.141 109.389 111.59 108.483 111.59 107.49C111.59 105.702 110.13 104.219 107.96 103.001C105.753 101.763 102.633 100.695 98.9314 99.8002C91.7398 98.0617 82.2388 96.9491 72.6712 96.5573C73.3757 95.4703 74.1052 94.3498 74.8528 93.2031L74.8529 93.2029L74.8733 93.1717C81.52 82.9712 89.8405 70.2022 93.009 61.2545C93.1056 60.9947 94.5103 57.1295 95.1866 51.774C95.866 46.393 95.8169 39.4542 92.9131 33.1527L92.4813 33.3517L92.9131 33.1527C89.9131 26.6427 84.4408 21.942 76.7049 19.1654L76.7045 19.1652C68.5798 16.2578 59.6982 16.2578 51.5735 19.1652L51.5731 19.1654C43.8372 21.942 38.3649 26.6427 35.3649 33.1527C32.4367 39.5071 32.4113 46.5091 33.1082 51.9077C33.8003 57.2688 35.2117 61.1019 35.2668 61.251ZM35.2668 61.251C35.2664 61.25 35.2661 61.2489 35.2657 61.2479L35.737 61.081L35.2679 61.254L35.2673 61.2523C35.2671 61.2519 35.267 61.2515 35.2668 61.251ZM91.1303 60.5688L91.099 60.6531V60.6668C87.9948 69.3689 79.8088 81.9402 73.1801 92.117C73.1801 92.117 73.18 92.1171 73.18 92.1171L72.9062 92.5373C71.9457 94.0113 71.0126 95.4432 70.1302 96.8137C70.0648 96.8881 70.0109 96.9718 69.97 97.062C67.8414 100.208 65.8958 103.474 64.1428 106.844C62.3858 103.468 60.4361 100.197 58.3033 97.0451C58.2782 96.9968 58.249 96.9507 58.2161 96.9073C57.2309 95.3777 56.1864 93.7731 55.1069 92.1161L55.1069 92.116C48.4517 81.9037 40.2335 69.286 37.1483 60.5701L37.0304 60.237H37.0273C36.9934 60.1382 36.9529 60.0177 36.9068 59.8767C36.7652 59.4436 36.5713 58.8173 36.357 58.0313C35.9284 56.4588 35.4193 54.2501 35.0843 51.6728C34.4131 46.5081 34.448 39.914 37.1781 33.9903C39.9318 28.016 44.9809 23.6553 52.2456 21.0517C59.9334 18.2988 68.3382 18.2987 76.0261 21.0516C83.2881 23.6583 88.3373 28.016 91.0919 33.9903C93.8215 39.9095 93.8569 46.5051 93.1864 51.6725C92.5168 56.833 91.1506 60.5142 91.1303 60.5688ZM63.19 109.596L63.1905 109.598C63.2567 109.797 63.3841 109.97 63.5544 110.093C63.7247 110.216 63.9294 110.282 64.1395 110.282C64.3496 110.282 64.5543 110.216 64.7246 110.093C64.895 109.97 65.0223 109.797 65.0885 109.598L65.0889 109.596C65.4334 108.551 66.2256 106.999 67.3594 105.047C68.4519 103.167 69.8426 100.949 71.41 98.5092C83.4452 98.9201 93.0432 100.271 99.6328 102.012C102.957 102.89 105.491 103.861 107.182 104.846C108.028 105.338 108.641 105.822 109.038 106.281C109.434 106.739 109.59 107.142 109.59 107.49C109.59 107.896 109.389 108.364 108.883 108.891C108.376 109.417 107.6 109.963 106.545 110.509C104.439 111.601 101.319 112.647 97.3118 113.555C89.3056 115.368 77.8569 116.61 64.14 116.61C50.4231 116.61 38.9743 115.368 30.9682 113.555C26.9614 112.647 23.8411 111.601 21.7345 110.509C20.6803 109.963 19.9039 109.417 19.3974 108.891C18.8906 108.364 18.69 107.896 18.69 107.49C18.69 107.142 18.8455 106.739 19.2415 106.281C19.6384 105.822 20.2519 105.339 21.0978 104.846C22.7888 103.862 25.3225 102.892 28.6465 102.014C35.2358 100.274 44.8333 98.9231 56.868 98.5102C58.4355 100.949 59.8265 103.167 60.9191 105.046C62.0532 106.997 62.8456 108.549 63.19 109.596Z" fill="black" stroke="black"/>
<path d="M7.19355 16.6628L7.19348 16.663L7.20172 16.6657C8.32393 17.04 9.32349 17.712 10.0938 18.6098C10.8642 19.5076 11.3764 20.5976 11.5759 21.7637L11.5758 21.7637L11.577 21.77C11.6093 21.9281 11.6952 22.0702 11.8202 22.1722C11.9452 22.2743 12.1017 22.33 12.263 22.33H12.2634C12.4245 22.3297 12.5806 22.2738 12.7053 22.1718C12.83 22.0698 12.9157 21.9279 12.948 21.77L12.9481 21.77L12.9492 21.7632C13.1454 20.5972 13.6554 19.5068 14.4246 18.6089C15.1938 17.711 16.1931 17.0396 17.3151 16.6668L17.3151 16.6669L17.3229 16.664C17.4557 16.6136 17.5701 16.524 17.6508 16.4071C17.7315 16.2902 17.7747 16.1515 17.7747 16.0095C17.7747 15.8674 17.7315 15.7287 17.6508 15.6118C17.5701 15.4949 17.4557 15.4054 17.3229 15.355L17.323 15.3548L17.3152 15.3522C16.1929 14.9783 15.1933 14.3067 14.4229 13.409C13.6525 12.5113 13.1404 11.4213 12.9411 10.2553L12.9412 10.2553L12.94 10.249C12.9077 10.0911 12.822 9.94918 12.6973 9.84716C12.5726 9.74514 12.4165 9.68927 12.2554 9.68898L12.2546 9.68898C12.0935 9.68927 11.9374 9.74514 11.8127 9.84716C11.688 9.94918 11.6023 10.0911 11.57 10.249L11.5699 10.249L11.5688 10.2558C11.3726 11.4217 10.8626 12.5122 10.0934 13.4101C9.32421 14.308 8.32495 14.9794 7.20294 15.3522L7.20288 15.352L7.19455 15.3552C7.06219 15.4058 6.94832 15.4954 6.86799 15.6122C6.78765 15.7289 6.74464 15.8673 6.74464 16.009C6.74464 16.1507 6.78765 16.2891 6.86799 16.4058C6.94783 16.5218 7.06039 16.6118 7.19355 16.6628ZM12.2572 12.6119C12.9381 14.0423 14.0441 15.229 15.4245 16.0088C14.0446 16.787 12.9396 17.9731 12.2607 19.403C11.5794 17.9725 10.4732 16.7859 9.09252 16.0061C10.4725 15.2277 11.5777 14.0417 12.2572 12.6119Z" fill="black" stroke="black" stroke-width="0.4"/>
<path d="M108.78 73C108.895 73 109.007 73.0398 109.096 73.1127C109.185 73.1856 109.247 73.2871 109.27 73.4L108.78 73ZM108.78 73C108.665 73.0002 108.553 73.0401 108.464 73.113M108.78 73L108.464 73.113M108.464 73.113C108.375 73.1859 108.314 73.2872 108.291 73.4L108.464 73.113ZM115.355 80.0885L115.355 80.0883L115.344 80.0844C113.861 79.59 112.54 78.7024 111.523 77.5163C110.505 76.3302 109.829 74.89 109.565 73.3495L109.566 73.3494L109.564 73.34C109.527 73.1593 109.429 72.9969 109.286 72.8803C109.143 72.7636 108.964 72.7 108.78 72.7L108.779 72.7C108.595 72.7003 108.417 72.7642 108.274 72.8808C108.132 72.9974 108.034 73.1596 107.997 73.34L107.997 73.34L107.995 73.3503C107.736 74.8905 107.063 76.3311 106.047 77.5173C105.03 78.7034 103.71 79.5902 102.228 80.0823L102.228 80.082L102.216 80.0865C102.064 80.1441 101.934 80.2465 101.842 80.3801C101.749 80.5137 101.7 80.6722 101.7 80.8345C101.7 80.9968 101.749 81.1553 101.842 81.2889C101.934 81.4225 102.064 81.5249 102.216 81.5825L102.216 81.5827L102.228 81.5866C103.711 82.0806 105.031 82.9679 106.049 84.1539C107.067 85.3399 107.744 86.78 108.007 88.3205L108.007 88.3206L108.009 88.33C108.046 88.5104 108.144 88.6726 108.286 88.7892C108.429 88.9058 108.607 88.9697 108.791 88.97L108.792 88.97C108.976 88.9697 109.155 88.9058 109.297 88.7892C109.44 88.6726 109.538 88.5104 109.575 88.33L109.575 88.33L109.577 88.3199C109.836 86.78 110.51 85.34 111.526 84.1541C112.542 82.9682 113.862 82.0814 115.343 81.5887L115.343 81.5889L115.355 81.5845C115.507 81.5269 115.638 81.4245 115.73 81.2909C115.822 81.1573 115.871 80.9988 115.871 80.8365C115.871 80.6742 115.822 80.5157 115.73 80.3821C115.638 80.2484 115.507 80.1461 115.355 80.0885ZM110.528 82.8844C109.809 83.6717 109.222 84.568 108.788 85.5384C108.353 84.5683 107.765 83.6724 107.045 82.8853C106.291 82.0614 105.406 81.3705 104.427 80.8401C105.406 80.3104 106.291 79.6196 107.043 78.7955C107.762 78.0082 108.349 77.112 108.782 76.1416C109.218 77.1118 109.806 78.0078 110.526 78.7949C111.279 79.6188 112.165 80.3096 113.144 80.8399C112.165 81.3696 111.28 82.0603 110.528 82.8844Z" fill="black" stroke="black" stroke-width="0.6"/>
<path d="M12.1443 87.937C12.1865 87.9372 12.2285 87.9334 12.2699 87.9258C14.0755 87.6285 15.6895 86.6273 16.7578 85.1416L16.7579 85.1416L16.7609 85.1371C17.1277 84.5857 17.3778 83.9651 17.4956 83.3134C17.6133 82.6627 17.5967 81.9947 17.4467 81.3507C17.3386 80.7949 17.0729 80.2819 16.6811 79.873C16.2887 79.4634 15.7865 79.1756 15.2348 79.0441L15.2245 79.0416L15.214 79.0407C14.6081 78.9839 13.9978 79.0809 13.4394 79.3228C12.9384 79.5397 12.4938 79.8669 12.1382 80.279C11.7816 79.8643 11.3348 79.5356 10.831 79.3185C10.2698 79.0767 9.65632 78.9814 9.04819 79.0417L9.03757 79.0428L9.02721 79.0453C8.47166 79.1818 7.96738 79.4759 7.57501 79.8922C7.18327 80.3078 6.91974 80.8276 6.81597 81.3891C6.67367 82.0307 6.66322 82.6945 6.78528 83.3402C6.90751 83.9868 7.16006 84.6019 7.52756 85.1478L7.52751 85.1478L7.52991 85.1512C8.05656 85.8888 8.72494 86.5142 9.49599 86.9906C10.2664 87.4667 11.1238 87.7846 12.0183 87.9258C12.0598 87.9336 12.102 87.9374 12.1443 87.937ZM12.1443 87.937C12.1439 87.937 12.1435 87.937 12.143 87.937L12.144 87.787L12.1456 87.937C12.1452 87.937 12.1448 87.937 12.1443 87.937ZM8.08572 81.6952L8.08583 81.6952L8.08681 81.6895C8.14159 81.3717 8.28341 81.0753 8.49652 80.8332C8.70768 80.5934 8.98063 80.4163 9.28552 80.321C9.35213 80.3094 9.41961 80.3033 9.48722 80.303C9.92066 80.3607 10.3361 80.5132 10.704 80.7497C11.0746 80.988 11.3877 81.3055 11.6207 81.6793L11.6202 81.6796L11.628 81.69C11.6885 81.7707 11.767 81.8363 11.8573 81.8814C11.9476 81.9265 12.0471 81.95 12.148 81.95C12.2489 81.95 12.3484 81.9265 12.4387 81.8814C12.5289 81.8363 12.6074 81.7707 12.668 81.69L12.6734 81.6828L12.6779 81.6751C12.9161 81.2627 13.2593 80.9207 13.6724 80.6838C14.0791 80.4505 14.5395 80.3273 15.0082 80.326C15.3028 80.4195 15.567 80.5904 15.7732 80.8211C15.9841 81.0572 16.1261 81.3468 16.1835 81.6582L16.1834 81.6582L16.1847 81.6642C16.2915 82.1344 16.3014 82.6213 16.2138 83.0954C16.1264 83.5685 15.9437 84.0189 15.6769 84.4192C14.829 85.5827 13.5639 86.3729 12.1469 86.6247C10.7313 86.3742 9.4666 85.587 8.61672 84.4267C8.34971 84.0307 8.16504 83.5851 8.07372 83.1163C7.98221 82.6466 7.9863 82.1633 8.08572 81.6952Z" fill="black" stroke="black" stroke-width="0.3"/>
<path d="M19.129 91.267H20.74V92.878C20.74 93.0769 20.819 93.2677 20.9596 93.4083C21.1003 93.549 21.2911 93.628 21.49 93.628C21.6889 93.628 21.8796 93.549 22.0203 93.4083C22.161 93.2677 22.24 93.0769 22.24 92.878V91.267H23.852C24.0509 91.267 24.2416 91.188 24.3823 91.0473C24.523 90.9067 24.602 90.7159 24.602 90.517C24.602 90.3181 24.523 90.1273 24.3823 89.9867C24.2416 89.846 24.0509 89.767 23.852 89.767H22.24V88.156C22.24 87.9571 22.161 87.7663 22.0203 87.6257C21.8796 87.485 21.6889 87.406 21.49 87.406C21.2911 87.406 21.1003 87.485 20.9596 87.6257C20.819 87.7663 20.74 87.9571 20.74 88.156V89.767H19.129C18.9301 89.767 18.7393 89.846 18.5986 89.9867C18.458 90.1273 18.379 90.3181 18.379 90.517C18.379 90.7159 18.458 90.9067 18.5986 91.0473C18.7393 91.188 18.9301 91.267 19.129 91.267Z" fill="black" stroke="black" stroke-width="0.5"/>
<path d="M21.49 24.74H23.102V26.351C23.102 26.5499 23.181 26.7407 23.3217 26.8813C23.4623 27.022 23.6531 27.101 23.852 27.101C24.0509 27.101 24.2417 27.022 24.3823 26.8813C24.523 26.7407 24.602 26.5499 24.602 26.351V24.74H26.213C26.4119 24.74 26.6027 24.661 26.7433 24.5203C26.884 24.3797 26.963 24.1889 26.963 23.99C26.963 23.7911 26.884 23.6003 26.7433 23.4597C26.6027 23.319 26.4119 23.24 26.213 23.24H24.602V21.628C24.602 21.4291 24.523 21.2383 24.3823 21.0977C24.2417 20.957 24.0509 20.878 23.852 20.878C23.6531 20.878 23.4623 20.957 23.3217 21.0977C23.181 21.2383 23.102 21.4291 23.102 21.628V23.24H21.49C21.2911 23.24 21.1003 23.319 20.9597 23.4597C20.819 23.6003 20.74 23.7911 20.74 23.99C20.74 24.1889 20.819 24.3797 20.9597 24.5203C21.1003 24.661 21.2911 24.74 21.49 24.74Z" fill="black" stroke="black" stroke-width="0.5"/>
<path d="M100.282 29.25H101.894V30.861C101.894 31.0599 101.973 31.2506 102.114 31.3913C102.254 31.5319 102.445 31.611 102.644 31.611C102.843 31.611 103.034 31.5319 103.174 31.3913C103.315 31.2506 103.394 31.0599 103.394 30.861V29.25H105.005C105.204 29.25 105.395 29.1709 105.535 29.0303C105.676 28.8896 105.755 28.6989 105.755 28.5C105.755 28.3011 105.676 28.1103 105.535 27.9696C105.395 27.829 105.204 27.75 105.005 27.75H103.394V26.137C103.394 25.9381 103.315 25.7473 103.174 25.6066C103.034 25.466 102.843 25.387 102.644 25.387C102.445 25.387 102.254 25.466 102.114 25.6066C101.973 25.7473 101.894 25.9381 101.894 26.137V27.75H100.282C100.083 27.75 99.8923 27.829 99.7517 27.9696C99.611 28.1103 99.532 28.3011 99.532 28.5C99.532 28.6989 99.611 28.8896 99.7517 29.0303C99.8923 29.1709 100.083 29.25 100.282 29.25Z" fill="black" stroke="black" stroke-width="0.5"/>
<path d="M94.565 72.315C94.5649 72.315 94.5648 72.315 94.5646 72.315C94.3659 72.3151 94.1752 72.3941 94.0347 72.5346C93.894 72.6753 93.815 72.866 93.815 73.065C93.815 73.2639 93.894 73.4546 94.0347 73.5953C94.1753 73.7359 94.3661 73.815 94.565 73.815H96.177V75.427C96.177 75.6259 96.256 75.8166 96.3967 75.9573C96.5373 76.0979 96.7281 76.177 96.927 76.177C97.1259 76.177 97.3167 76.0979 97.4573 75.9573C97.598 75.8166 97.677 75.6259 97.677 75.427V73.815H99.288C99.4869 73.815 99.6777 73.7359 99.8183 73.5953C99.959 73.4546 100.038 73.2639 100.038 73.065C100.038 72.866 99.959 72.6753 99.8183 72.5346C99.6777 72.394 99.4869 72.315 99.288 72.315H97.677V70.7C97.677 70.501 97.598 70.3103 97.4573 70.1696C97.3167 70.029 97.1259 69.95 96.927 69.95C96.7281 69.95 96.5373 70.029 96.3967 70.1696C96.256 70.3103 96.177 70.501 96.177 70.7V72.3115L94.565 72.315Z" fill="black" stroke="black" stroke-width="0.5"/>
<path d="M112.293 23.7629C112.336 23.7631 112.378 23.7593 112.419 23.7516C114.225 23.4544 115.839 22.4531 116.907 20.9674L116.907 20.9675L116.91 20.963C117.277 20.4116 117.527 19.791 117.645 19.1393C117.762 18.4885 117.746 17.8206 117.596 17.1765C117.488 16.6207 117.222 16.1077 116.83 15.6988C116.438 15.2892 115.936 15.0014 115.384 14.87L115.374 14.8675L115.363 14.8665C114.757 14.8098 114.147 14.9068 113.588 15.1486C113.088 15.3656 112.643 15.6928 112.287 16.1049C111.931 15.6902 111.484 15.3614 110.98 15.1444C110.419 14.9025 109.805 14.8073 109.197 14.8676L109.187 14.8687L109.176 14.8712C108.621 15.0077 108.116 15.3018 107.724 15.718C107.332 16.1337 107.069 16.6534 106.965 17.215C106.823 17.8566 106.812 18.5203 106.934 19.1661C107.057 19.8127 107.309 20.4277 107.677 20.9736L107.677 20.9737L107.679 20.977C108.206 21.7147 108.874 22.34 109.645 22.8165C110.415 23.2926 111.273 23.6105 112.167 23.7517C112.209 23.7595 112.251 23.7633 112.293 23.7629ZM112.293 23.7629C112.293 23.7629 112.293 23.7629 112.292 23.7629L112.293 23.6129L112.295 23.7629C112.294 23.7629 112.294 23.7629 112.293 23.7629ZM108.235 17.521L108.235 17.5211L108.236 17.5154C108.291 17.1975 108.433 16.9012 108.646 16.6591C108.857 16.4193 109.13 16.2421 109.435 16.1469C109.501 16.1352 109.569 16.1292 109.636 16.1289C110.07 16.1866 110.485 16.3391 110.853 16.5756C111.224 16.8138 111.537 17.1313 111.77 17.5052L111.769 17.5055L111.777 17.5159C111.838 17.5966 111.916 17.6621 112.006 17.7072C112.097 17.7524 112.196 17.7759 112.297 17.7759C112.398 17.7759 112.498 17.7524 112.588 17.7072C112.678 17.6621 112.757 17.5966 112.817 17.5159L112.822 17.5087L112.827 17.5009C113.065 17.0886 113.408 16.7466 113.821 16.5097C114.228 16.2764 114.689 16.1531 115.157 16.1518C115.452 16.2453 115.716 16.4163 115.922 16.647C116.133 16.8831 116.275 17.1727 116.333 17.4841L116.332 17.4841L116.334 17.4901C116.441 17.9602 116.45 18.4472 116.363 18.9213C116.275 19.3944 116.093 19.8447 115.826 20.245C114.978 21.4086 113.713 22.1988 112.296 22.4506C110.88 22.2 109.616 21.4128 108.766 20.2526C108.499 19.8566 108.314 19.411 108.223 18.9422C108.131 18.4725 108.135 17.9891 108.235 17.521Z" fill="black" stroke="black" stroke-width="0.3"/>
<path d="M63.6906 63.8799C63.7799 63.9577 63.8907 64 64.0048 64C64.119 64 64.2298 63.9577 64.3191 63.8799C65.8182 62.574 67.4999 61.3607 69.1262 60.1861C74.923 56.0014 80.9134 51.6734 78.4186 42.9853C77.9587 41.4795 77.0621 40.1787 75.8649 39.2804C74.6676 38.3821 73.235 37.9352 71.7845 38.0076C70.1298 38.0784 68.5257 38.6513 67.152 39.6623C65.7782 40.6734 64.689 42.0825 64.0063 43.732C63.3242 42.0847 62.2364 40.6772 60.8646 39.6671C59.4927 38.6569 57.8909 38.0839 56.2383 38.012C54.7808 37.9323 53.3397 38.3783 52.1367 39.2815C50.9337 40.1846 50.0354 41.4949 49.58 43.0106C47.0881 51.68 53.0816 56.0069 58.8784 60.1916C60.5107 61.3607 62.1914 62.5751 63.6906 63.8799ZM50.5404 43.3592C50.9243 42.0947 51.6702 40.9987 52.6678 40.2334C53.6653 39.4681 54.8617 39.074 56.0799 39.1094H56.2201C57.8872 39.1925 59.4885 39.8448 60.7987 40.9748C62.1089 42.1047 63.0621 43.6553 63.5241 45.4085C63.5566 45.5201 63.6206 45.6174 63.707 45.6865C63.7935 45.7557 63.8978 45.7929 64.0048 45.7929C64.1119 45.7929 64.2162 45.7557 64.3026 45.6865C64.389 45.6174 64.4531 45.5201 64.4855 45.4085C64.9493 43.6537 65.9048 42.102 67.2173 40.9718C68.5299 39.8417 70.1336 39.19 71.8026 39.1083H71.9348C73.149 39.0719 74.3417 39.4631 75.337 40.2243C76.3323 40.9856 77.0773 42.0765 77.4622 43.336C79.726 51.2112 74.3076 55.1234 68.5703 59.2651C67.0369 60.368 65.455 61.514 64.0053 62.746C62.555 61.5144 60.9746 60.3731 59.4416 59.266L59.4403 59.2651C53.7031 55.1256 48.2836 51.2123 50.5404 43.3592Z" fill="#F66867"/>
<path d="M50.5404 43.3592C50.9243 42.0947 51.6702 40.9987 52.6678 40.2334C53.6653 39.4681 54.8617 39.074 56.0799 39.1094H56.2201C57.8872 39.1925 59.4885 39.8448 60.7987 40.9748C62.1089 42.1047 63.0621 43.6553 63.5241 45.4085C63.5566 45.5201 63.6206 45.6174 63.707 45.6865C63.7935 45.7557 63.8978 45.7929 64.0048 45.7929C64.1119 45.7929 64.2162 45.7557 64.3026 45.6865C64.389 45.6174 64.4531 45.5201 64.4855 45.4085C64.9493 43.6537 65.9048 42.102 67.2173 40.9718C68.5299 39.8417 70.1336 39.19 71.8026 39.1083H71.9348C73.149 39.0719 74.3417 39.4631 75.337 40.2243C76.3323 40.9856 77.0773 42.0765 77.4622 43.336C79.726 51.2112 74.3076 55.1234 68.5703 59.2651C67.0369 60.368 65.455 61.514 64.0053 62.746C62.555 61.5144 60.9746 60.3731 59.4416 59.266L59.4403 59.2651C53.7031 55.1256 48.2836 51.2123 50.5404 43.3592Z" fill="#F66867"/>
</svg>
