<svg width="20" height="20" viewBox="0 0 20 20" fill="none" xmlns="http://www.w3.org/2000/svg">
<g clip-path="url(#clip0_28_64)">
<path d="M18.3949 20H1.60462C0.717956 20 0 19.2809 0 18.3949V1.60517C0 0.719125 0.717956 1.52588e-05 1.60462 1.52588e-05H18.3948C19.281 1.52588e-05 20.0001 0.719125 20.0001 1.60517V18.3949C20.0001 19.281 19.281 20 18.3949 20Z" fill="#F9E000"/>
<path d="M14.7414 9.21893L11.0731 11.4056C10.999 11.4496 10.9391 11.4149 10.9391 11.3297V9.84151H8.90292C8.81714 9.84151 8.74656 9.91156 8.74656 9.99796V13.0177C8.74656 13.1048 8.68656 13.1382 8.6119 13.0941L7.31608 12.3316C7.24194 12.2875 7.18141 12.1822 7.18141 12.0958V8.7456C7.18141 8.48693 7.3919 8.2752 7.65119 8.2752H10.9391V6.7536C10.9391 6.68605 10.9861 6.65956 11.0443 6.6936L14.7414 8.89787C14.8907 8.9872 14.8896 9.13076 14.7414 9.21893ZM16.1031 5.87991L10.5404 2.63085C10.2418 2.45618 9.75732 2.45618 9.45865 2.63085L3.89599 5.87991C3.63483 6.03218 3.42319 6.4008 3.42319 6.70365V13.2911C3.42319 13.5933 3.63483 13.962 3.8959 14.1148L9.45856 17.3639C9.75723 17.5385 10.2417 17.5385 10.5403 17.3639L16.1031 14.1148C16.3642 13.962 16.5758 13.5933 16.5758 13.2911V6.70356C16.5758 6.4008 16.3653 6.03218 16.1031 5.87991Z" fill="#1977D1"/>
</g>
<defs>
<clipPath id="clip0_28_64">
<rect width="20" height="20" fill="white"/>
</clipPath>
</defs>
</svg>
