<svg width="24" height="24" viewBox="0 0 24 24" fill="none" xmlns="http://www.w3.org/2000/svg">
<path d="M10.9 14.9L9.275 22.2C9.225 22.4333 9.104 22.625 8.912 22.775C8.72 22.925 8.49933 23 8.25 23C7.91667 23 7.65 22.875 7.45 22.625C7.25 22.375 7.18333 22.0917 7.25 21.775L9.8 8.90001L8 9.60001V12C8 12.2833 7.904 12.521 7.712 12.713C7.52 12.905 7.28267 13.0007 7 13C6.71733 12.9993 6.48 12.9033 6.288 12.712C6.096 12.5207 6 12.2833 6 12V8.95001C6 8.75001 6.05433 8.57101 6.163 8.41301C6.27167 8.25501 6.41733 8.13401 6.6 8.05001L11.05 6.15001C11.2833 6.05001 11.5293 5.99167 11.788 5.97501C12.0467 5.95834 12.2923 5.99167 12.525 6.07501C12.7577 6.15834 12.9787 6.27501 13.188 6.42501C13.3973 6.57501 13.568 6.76667 13.7 7.00001L14.7 8.60001C14.9167 8.93334 15.171 9.25001 15.463 9.55001C15.755 9.85001 16.084 10.1083 16.45 10.325C16.6833 10.4583 16.9417 10.5793 17.225 10.688C17.5083 10.7967 17.7917 10.8757 18.075 10.925C18.3417 10.975 18.5627 11.096 18.738 11.288C18.9133 11.48 19.0007 11.7173 19 12C18.9993 12.2827 18.8993 12.516 18.7 12.7C18.5007 12.884 18.259 12.959 17.975 12.925C17.0417 12.7917 16.204 12.5 15.462 12.05C14.72 11.6 14.0743 11.0583 13.525 10.425L12.9 13.5L14.7 15.2C14.8 15.3 14.875 15.4127 14.925 15.538C14.975 15.6633 15 15.7923 15 15.925V22C15 22.2833 14.904 22.521 14.712 22.713C14.52 22.905 14.2827 23.0007 14 23C13.7173 22.9993 13.48 22.9033 13.288 22.712C13.096 22.5207 13 22.2833 13 22V16.5L10.9 14.9ZM13.5 5.50001C12.95 5.50001 12.4793 5.30434 12.088 4.91301C11.6967 4.52167 11.5007 4.05067 11.5 3.50001C11.4993 2.94934 11.6953 2.47867 12.088 2.08801C12.4807 1.69734 12.9513 1.50134 13.5 1.50001C14.0487 1.49867 14.5197 1.69467 14.913 2.08801C15.3063 2.48134 15.502 2.95201 15.5 3.50001C15.498 4.04801 15.3023 4.51901 14.913 4.91301C14.5237 5.30701 14.0527 5.50267 13.5 5.50001Z" fill="#2E2E2E"/>
</svg>
