<svg width="128" height="128" viewBox="0 0 128 128" fill="none" xmlns="http://www.w3.org/2000/svg">
<path d="M35.4037 93.9292C33.6021 93.8437 32.1066 95.0193 32.0651 96.8845L32.0651 98.3789L30.5 98C28.7098 97.7409 27.3702 98.6637 27 100.429C26.5771 102.454 28.3407 104.157 31 104.5L36.243 104.145C36.7097 104.145 36.95 103.947 37 103.5L37.5 101.5L37.9187 98.9007C38.0414 96.1403 37.4324 94.4884 35.4037 93.9292Z" fill="#F66867"/>
<mask id="path-2-outside-1_38_112" maskUnits="userSpaceOnUse" x="8.21829" y="12.5947" width="108" height="110" fill="black">
<rect fill="white" x="8.21829" y="12.5947" width="108" height="110"/>
<path d="M56.456 96.336C56.4728 96.2046 56.4369 96.0719 56.356 95.967L41.717 77.285C41.6922 77.2591 41.6647 77.236 41.635 77.216C41.626 77.208 41.624 77.194 41.614 77.187C41.604 77.18 41.601 77.187 41.595 77.181C41.5169 77.1302 41.4261 77.1025 41.333 77.101C41.317 77.101 41.303 77.101 41.288 77.101C41.1889 77.1057 41.0936 77.1406 41.015 77.201L29.864 85.936C29.876 85.8481 29.8639 85.7586 29.829 85.677C28.158 82.063 25.448 80.995 21.78 82.477C20.912 79.932 20.004 77.028 19.208 73.977C19.7036 74.5396 20.3118 74.9919 20.9933 75.3045C21.6748 75.6172 22.4143 75.7832 23.164 75.792C24.2446 75.7657 25.3065 75.5043 26.276 75.026C26.3356 74.9985 26.3892 74.9594 26.4338 74.9112C26.4783 74.8629 26.5129 74.8063 26.5356 74.7446C26.5582 74.6829 26.5685 74.6174 26.5658 74.5518C26.5632 74.4861 26.5476 74.4217 26.52 74.362C24.855 70.762 22.163 69.684 18.52 71.141C17.5365 67.0978 16.9933 62.9601 16.9 58.8C17.3327 59.8835 18.0988 60.8013 19.0875 61.4208C20.0762 62.0403 21.2362 62.3293 22.4 62.246C22.629 62.246 22.863 62.237 23.1 62.22C23.2322 62.2108 23.3553 62.1495 23.4423 62.0496C23.5293 61.9496 23.573 61.8192 23.564 61.687C23.281 57.668 21.085 55.724 17.024 55.852C17.1574 52.9056 18.1846 50.0696 19.969 47.721C19.969 47.716 19.969 47.709 19.979 47.703C20.754 47.526 21.715 47.28 22.898 46.948C22.9312 46.9512 22.9647 46.9512 22.998 46.948C26.23 46.354 28.791 49.092 30.654 52.377C27.085 54.027 26.083 56.809 27.69 60.656C27.7168 60.7205 27.7568 60.7786 27.8074 60.8267C27.8581 60.8747 27.9182 60.9116 27.984 60.935C28.0493 60.9573 28.1184 60.966 28.1872 60.9607C28.2559 60.9554 28.3229 60.9361 28.384 60.904C30.878 59.561 32.174 57.825 32.269 55.723C33.0976 57.7166 33.7817 59.7673 34.316 61.859C34.3417 61.9687 34.4036 62.0665 34.4918 62.1366C34.58 62.2066 34.6893 62.2448 34.802 62.245C34.841 62.2446 34.8798 62.2403 34.918 62.232C35.0466 62.2014 35.1578 62.1211 35.2273 62.0086C35.2968 61.8962 35.319 61.7608 35.289 61.632C34.7022 59.2792 33.9232 56.9784 32.96 54.753C33.8054 55.2652 34.7717 55.5436 35.76 55.56C37.2918 55.4973 38.7521 54.8952 39.883 53.86C39.984 53.7757 40.0478 53.6549 40.0603 53.5238C40.0729 53.3928 40.0332 53.262 39.95 53.16C37.471 50.16 34.65 49.753 31.566 51.945C30.066 49.292 28.099 46.932 25.646 46.145C26.808 45.791 28.1316 45.3724 29.617 44.889C30.7714 46.1277 32.2265 47.0468 33.841 47.557C33.8914 47.5847 33.9468 47.6024 34.004 47.609L34.036 47.618H34.045C34.5835 47.7809 35.1348 47.898 35.693 47.968C41.702 49.587 45.571 54.973 49.668 60.675C54.263 67.075 59.021 73.666 67.241 75.588C72.942 79.5 77.213 85.1 80.333 89.2C81.604 90.9872 83.008 92.676 84.533 94.252C88.501 97.926 93.698 95.826 95.015 95.198C96.5519 96.5297 98.5096 97.2762 100.543 97.306C104.32 97.306 107.318 94.635 108.102 93.866C110.36 94.266 112.088 93.972 113.236 92.982C113.684 92.5686 114.038 92.065 114.277 91.5045C114.516 90.944 114.634 90.3392 114.622 89.73C114.618 89.6536 114.597 89.5791 114.56 89.5121C114.523 89.4452 114.471 89.3877 114.408 89.344C106.358 83.6108 99.4557 76.4172 94.06 68.137C98.226 64.678 101.471 60.2413 103.505 55.223C106.717 46.508 104.676 43.656 103.677 42.842C106.97 35.873 105.33 32.433 104.723 31.512C105.253 30.032 107.209 23.982 104.415 22.338C102.923 21.463 99.885 23.381 94.845 26.555C93.176 27.606 91.31 28.774 89.3 29.973C89.4488 29.1556 89.5078 28.3243 89.476 27.494C89.5045 26.3896 89.3025 25.2913 88.8829 24.2693C88.4633 23.2472 87.8353 22.3239 87.039 21.558C85.7694 20.5059 84.1739 19.9272 82.525 19.921C82.4099 18.3976 81.7979 16.9541 80.783 15.8122C79.7681 14.6703 78.4064 13.8931 76.907 13.6C76.7929 13.5833 76.6765 13.6065 76.5775 13.6657C76.4786 13.7249 76.4031 13.8166 76.364 13.925C71.776 26.669 60.164 34.837 53.481 38.645C50.2937 37.5996 47.3716 35.8741 44.917 33.588C44.2479 33.0013 43.5141 32.4927 42.73 32.072C41.0547 31.0273 39.1183 30.4775 37.144 30.486C31.785 30.486 27.425 34.386 27.379 39.205C16.221 45.865 16.215 46.936 16.215 47.405C16.2162 47.5111 16.2427 47.6153 16.2923 47.709C16.3418 47.8027 16.413 47.8833 16.5 47.944C16.7246 48.098 16.9977 48.1645 17.268 48.131C17.6865 48.1206 18.1035 48.0768 18.515 48C17.078 50.2848 16.2249 52.8879 16.031 55.58C12.408 55.049 10.131 56.759 9.23097 60.674C9.21533 60.7422 9.21415 60.8128 9.2275 60.8814C9.24085 60.9501 9.26844 61.0151 9.30849 61.0724C9.34853 61.1297 9.40015 61.1779 9.46 61.2141C9.51986 61.2502 9.58662 61.2733 9.65597 61.282C10.1249 61.3427 10.5971 61.3741 11.07 61.376C11.9849 61.4359 12.9006 61.2725 13.7384 60.8999C14.5761 60.5273 15.3107 59.9566 15.879 59.237C15.9961 63.3062 16.5353 67.3522 17.488 71.31C13.801 72.06 12.188 74.462 12.755 78.499C12.7716 78.6185 12.8309 78.7279 12.9219 78.8071C13.0128 78.8863 13.1294 78.93 13.25 78.93C13.2894 78.9303 13.3287 78.9256 13.367 78.916C16.085 78.261 17.749 76.923 18.395 74.956C19.129 77.681 19.95 80.288 20.757 82.64C17.1 83.4 15.5 85.8 16.064 89.82C16.0805 89.9405 16.1404 90.0509 16.2324 90.1304C16.3245 90.2099 16.4423 90.2532 16.564 90.252C16.6034 90.252 16.6428 90.2469 16.681 90.237C19.64 89.524 21.365 88.011 21.866 85.745C22.6 87.731 23.273 89.417 23.8 90.688L9.97697 101.511C9.96997 101.516 9.96997 101.525 9.96297 101.531C9.89951 101.587 9.85191 101.659 9.82497 101.739C9.81648 101.76 9.80946 101.781 9.80397 101.802C9.80397 101.818 9.79097 101.832 9.78897 101.849C9.78092 101.925 9.79086 102.001 9.81797 102.072C9.81797 102.072 9.81797 102.08 9.81797 102.084C9.81797 102.088 9.83097 102.096 9.83397 102.105C9.84842 102.145 9.86792 102.183 9.89197 102.218L24.528 120.9C24.6097 121.004 24.7293 121.071 24.8604 121.087C24.9916 121.103 25.1237 121.066 25.228 120.985L56.269 96.669C56.3729 96.5872 56.4402 96.4674 56.456 96.336ZM25.386 74.315C22.695 75.385 20.628 74.654 18.945 72.034C21.894 70.872 23.961 71.6 25.386 74.315ZM28.413 59.741C27.337 56.757 28.129 54.714 30.88 53.37C31.871 56.091 31.08 58.135 28.413 59.741ZM38.848 53.4C36.527 55.112 34.348 54.936 32.071 52.857L32.053 52.823C34.607 50.955 36.786 51.14 38.848 53.4ZM113.618 90.014C113.574 90.862 113.2 91.6593 112.577 92.236C111.639 93.036 110.13 93.242 108.1 92.85C102.133 90.185 95.8 80.514 95.74 80.416C95.7051 80.3591 95.6591 80.3097 95.6048 80.2708C95.5505 80.2319 95.489 80.2042 95.4238 80.1895C95.3587 80.1748 95.2912 80.1733 95.2255 80.185C95.1597 80.1968 95.097 80.2216 95.041 80.258C94.985 80.2945 94.9369 80.3417 94.8995 80.3971C94.862 80.4524 94.8361 80.5147 94.8231 80.5802C94.8101 80.6457 94.8105 80.7132 94.824 80.7786C94.8375 80.844 94.8641 80.906 94.902 80.961C95.159 81.361 101.06 90.361 107.096 93.461C105.575 94.876 100.627 98.693 95.41 94.23C95.401 94.222 95.389 94.223 95.379 94.217C95.369 94.211 95.372 94.207 95.366 94.203C91.447 91.489 86.616 84.748 86.566 84.68C86.4889 84.5721 86.3722 84.4992 86.2414 84.4773C86.1105 84.4555 85.9764 84.4865 85.8685 84.5635C85.7605 84.6406 85.6876 84.7574 85.6658 84.8882C85.6439 85.019 85.6749 85.1531 85.752 85.261C85.942 85.528 90.211 91.482 94.106 94.515C92.468 95.202 88.378 96.455 85.213 93.523C83.731 91.9851 82.3653 90.3392 81.127 88.599C78.28 84.859 74.476 79.888 69.491 76.01C70.7657 76.1865 72.0511 76.2754 73.338 76.276C80.6488 76.1384 87.6908 73.4946 93.286 68.787C98.6944 77.0564 105.588 84.2522 113.618 90.01V90.014ZM77.154 14.676C78.4278 15.0133 79.5531 15.7653 80.352 16.8132C81.151 17.8611 81.5781 19.1453 81.566 20.463C81.566 20.472 81.572 20.48 81.573 20.489C81.5715 20.5103 81.5715 20.5317 81.573 20.553C82.165 23.083 80.061 26.234 80.04 26.266C79.9658 26.3759 79.9382 26.5106 79.9633 26.6408C79.9885 26.7709 80.0642 26.8857 80.174 26.96C80.2564 27.0165 80.3541 27.0465 80.454 27.046C80.5356 27.0461 80.616 27.0262 80.6882 26.988C80.7604 26.9498 80.8221 26.8946 80.868 26.827C80.958 26.693 82.939 23.727 82.647 20.927C84.0151 20.9566 85.3333 21.4463 86.389 22.317C87.0776 22.9951 87.6184 23.8084 87.9772 24.7058C88.3361 25.6032 88.5052 26.5651 88.474 27.531C88.5203 28.5902 88.3984 29.65 88.113 30.671C82.9184 33.7888 77.4189 36.3675 71.7 38.367C66.2633 40.3336 60.352 40.5732 54.774 39.053C61.591 35.042 72.543 26.994 77.154 14.676ZM37.144 31.486C38.9426 31.4788 40.7063 31.9823 42.23 32.938C42.9455 33.3193 43.6163 33.7791 44.23 34.309C46.8014 36.7083 49.8658 38.5171 53.209 39.609C53.2914 39.6747 53.3927 39.7122 53.498 39.716H53.508C59.5542 41.6254 66.0618 41.4848 72.02 39.316C77.8585 37.275 83.4714 34.6384 88.77 31.448L88.788 31.438C91.205 30.02 93.423 28.638 95.378 27.401C99.439 24.843 102.95 22.636 103.907 23.201C105.846 24.341 104.415 29.501 103.697 31.401C96.71 48.481 72.935 52.162 72.697 52.201C72.6313 52.2058 72.5672 52.2234 72.5084 52.2529C72.4495 52.2824 72.397 52.3232 72.354 52.3729C72.2669 52.4735 72.2234 52.6044 72.233 52.737C72.2377 52.8027 72.2553 52.8668 72.2848 52.9256C72.3143 52.9845 72.3551 53.037 72.4049 53.08C72.4546 53.1231 72.5124 53.156 72.5749 53.1768C72.6374 53.1975 72.7033 53.2058 72.769 53.201C72.7934 53.201 72.8178 53.199 72.842 53.195C73.083 53.16 96.555 49.522 104.214 32.695C104.763 34.021 105.35 37.161 102.591 42.795C92.965 59.76 79.71 61.232 79.577 61.245C79.4444 61.2513 79.3197 61.3099 79.2303 61.4081C79.1409 61.5063 79.0942 61.6359 79.1005 61.7685C79.1067 61.9011 79.1654 62.0258 79.2635 62.1152C79.3617 62.2046 79.4914 62.2513 79.624 62.245C79.64 62.2461 79.656 62.2461 79.672 62.245C79.808 62.233 93.309 60.756 103.184 43.757C103.933 44.508 105.429 47.114 102.567 54.882C100.555 59.8389 97.3297 64.2105 93.187 67.595C93.1659 67.602 93.1452 67.61 93.125 67.619C93.0666 67.6573 93.0168 67.7074 92.979 67.766C86.579 73.078 77.825 76.614 68.254 74.796C59.911 73.212 55.12 66.542 50.486 60.096C46.573 54.649 42.861 49.488 37.186 47.409C38.6358 46.9537 39.8618 45.9705 40.621 44.654C40.657 44.5979 40.6814 44.535 40.6928 44.4693C40.7041 44.4035 40.7022 44.3362 40.6872 44.2711C40.6721 44.2061 40.6441 44.1448 40.605 44.0908C40.5658 44.0367 40.5162 43.9911 40.4592 43.9565C40.4021 43.9219 40.3387 43.8991 40.2726 43.8894C40.2066 43.8797 40.1393 43.8834 40.0747 43.9001C40.0101 43.9168 39.9495 43.9463 39.8965 43.9868C39.8435 44.0274 39.7991 44.0781 39.766 44.136C39.2216 45.07 38.4017 45.8128 37.4187 46.2625C36.4356 46.7122 35.3376 46.8469 34.275 46.648L34.242 46.636C32.607 46.1992 31.1549 45.2502 30.0985 43.9281C29.0421 42.6059 28.4371 40.9801 28.372 39.289C28.375 34.982 32.309 31.486 37.144 31.486ZM27.452 40.327C27.6368 41.6726 28.1522 42.9513 28.952 44.049C22.089 46.27 18.578 47.088 17.421 47.136C18.2 46.266 21.154 44.105 27.452 40.327ZM17.44 56.824C20.531 56.824 22.163 58.243 22.525 61.242C19.672 61.308 17.958 59.87 17.314 56.824H17.44ZM10.347 60.345C11.195 57.327 12.995 56.123 15.952 56.582C15.942 56.715 15.928 56.844 15.921 56.982C15.085 59.48 13.3 60.569 10.347 60.345ZM13.681 77.8C13.398 74.641 14.681 72.866 17.681 72.266C17.953 75.148 16.668 76.924 13.681 77.8ZM16.99 89.12C16.708 85.96 17.99 84.185 20.995 83.585C21.263 86.469 19.977 88.245 16.99 89.12ZM40.31 79.025L35.427 93.365C34.9838 93.2939 34.5306 93.3188 34.0979 93.438C33.6652 93.5572 33.2632 93.768 32.919 94.056C32.4145 94.4814 32.0222 95.024 31.7763 95.6363C31.5305 96.2487 31.4387 96.912 31.509 97.568C30.8897 97.3428 30.2245 97.2729 29.5719 97.3646C28.9193 97.4563 28.2992 97.7068 27.766 98.094C27.4173 98.3479 27.1248 98.671 26.9069 99.0433C26.6891 99.4155 26.5505 99.8287 26.5 100.257L11.887 101.29L24.751 91.212L24.764 91.202L31.405 86L40.31 79.025ZM28.367 98.893C28.8758 98.5211 29.4907 98.3227 30.121 98.327C30.7784 98.3313 31.419 98.5361 31.957 98.914C32.0447 98.9742 32.1493 99.0049 32.2556 99.0015C32.3619 98.9982 32.4644 98.961 32.5481 98.8955C32.6319 98.8299 32.6925 98.7393 32.7213 98.6369C32.75 98.5345 32.7454 98.4256 32.708 98.326C32.465 97.7287 32.4157 97.0702 32.567 96.4433C32.7182 95.8165 33.0624 95.2529 33.551 94.832C33.8978 94.5303 34.3335 94.35 34.7921 94.3184C35.2507 94.2868 35.7071 94.4057 36.092 94.657C38.539 96.338 37.742 98.722 36.819 101.482C36.596 102.152 36.365 102.842 36.182 103.533C35.467 103.545 34.742 103.605 34.038 103.662C31.138 103.896 28.632 104.101 27.592 101.341C27.4359 100.904 27.4272 100.429 27.5672 99.9865C27.7071 99.5444 27.9881 99.1603 28.367 98.893ZM28.694 85.636C26 86.705 23.937 85.974 22.255 83.355C25.206 82.192 27.271 82.926 28.694 85.636ZM22.922 85.696C23.8838 86.5992 25.1526 87.1035 26.472 87.107C27.3699 87.0873 28.2559 86.8973 29.083 86.547L24.612 90.047C24.191 89.021 23.6 87.524 22.922 85.7V85.696ZM25.007 119.89L11.256 102.337L26.545 101.256C26.5699 101.397 26.6033 101.537 26.645 101.674C27.618 104.258 29.592 104.786 31.781 104.786C32.544 104.786 33.333 104.722 34.114 104.658C34.895 104.594 35.698 104.53 36.464 104.53C36.498 104.53 36.546 104.53 36.564 104.53C36.6765 104.53 36.7858 104.492 36.8742 104.423C36.9626 104.353 37.0249 104.256 37.051 104.146C37.235 103.373 37.503 102.573 37.761 101.799C38.723 98.919 39.72 95.94 36.634 93.822C36.547 93.768 36.458 93.727 36.369 93.682L41.5 78.631L55.258 96.19L25.007 119.89Z"/>
</mask>
<path d="M56.456 96.336C56.4728 96.2046 56.4369 96.0719 56.356 95.967L41.717 77.285C41.6922 77.2591 41.6647 77.236 41.635 77.216C41.626 77.208 41.624 77.194 41.614 77.187C41.604 77.18 41.601 77.187 41.595 77.181C41.5169 77.1302 41.4261 77.1025 41.333 77.101C41.317 77.101 41.303 77.101 41.288 77.101C41.1889 77.1057 41.0936 77.1406 41.015 77.201L29.864 85.936C29.876 85.8481 29.8639 85.7586 29.829 85.677C28.158 82.063 25.448 80.995 21.78 82.477C20.912 79.932 20.004 77.028 19.208 73.977C19.7036 74.5396 20.3118 74.9919 20.9933 75.3045C21.6748 75.6172 22.4143 75.7832 23.164 75.792C24.2446 75.7657 25.3065 75.5043 26.276 75.026C26.3356 74.9985 26.3892 74.9594 26.4338 74.9112C26.4783 74.8629 26.5129 74.8063 26.5356 74.7446C26.5582 74.6829 26.5685 74.6174 26.5658 74.5518C26.5632 74.4861 26.5476 74.4217 26.52 74.362C24.855 70.762 22.163 69.684 18.52 71.141C17.5365 67.0978 16.9933 62.9601 16.9 58.8C17.3327 59.8835 18.0988 60.8013 19.0875 61.4208C20.0762 62.0403 21.2362 62.3293 22.4 62.246C22.629 62.246 22.863 62.237 23.1 62.22C23.2322 62.2108 23.3553 62.1495 23.4423 62.0496C23.5293 61.9496 23.573 61.8192 23.564 61.687C23.281 57.668 21.085 55.724 17.024 55.852C17.1574 52.9056 18.1846 50.0696 19.969 47.721C19.969 47.716 19.969 47.709 19.979 47.703C20.754 47.526 21.715 47.28 22.898 46.948C22.9312 46.9512 22.9647 46.9512 22.998 46.948C26.23 46.354 28.791 49.092 30.654 52.377C27.085 54.027 26.083 56.809 27.69 60.656C27.7168 60.7205 27.7568 60.7786 27.8074 60.8267C27.8581 60.8747 27.9182 60.9116 27.984 60.935C28.0493 60.9573 28.1184 60.966 28.1872 60.9607C28.2559 60.9554 28.3229 60.9361 28.384 60.904C30.878 59.561 32.174 57.825 32.269 55.723C33.0976 57.7166 33.7817 59.7673 34.316 61.859C34.3417 61.9687 34.4036 62.0665 34.4918 62.1366C34.58 62.2066 34.6893 62.2448 34.802 62.245C34.841 62.2446 34.8798 62.2403 34.918 62.232C35.0466 62.2014 35.1578 62.1211 35.2273 62.0086C35.2968 61.8962 35.319 61.7608 35.289 61.632C34.7022 59.2792 33.9232 56.9784 32.96 54.753C33.8054 55.2652 34.7717 55.5436 35.76 55.56C37.2918 55.4973 38.7521 54.8952 39.883 53.86C39.984 53.7757 40.0478 53.6549 40.0603 53.5238C40.0729 53.3928 40.0332 53.262 39.95 53.16C37.471 50.16 34.65 49.753 31.566 51.945C30.066 49.292 28.099 46.932 25.646 46.145C26.808 45.791 28.1316 45.3724 29.617 44.889C30.7714 46.1277 32.2265 47.0468 33.841 47.557C33.8914 47.5847 33.9468 47.6024 34.004 47.609L34.036 47.618H34.045C34.5835 47.7809 35.1348 47.898 35.693 47.968C41.702 49.587 45.571 54.973 49.668 60.675C54.263 67.075 59.021 73.666 67.241 75.588C72.942 79.5 77.213 85.1 80.333 89.2C81.604 90.9872 83.008 92.676 84.533 94.252C88.501 97.926 93.698 95.826 95.015 95.198C96.5519 96.5297 98.5096 97.2762 100.543 97.306C104.32 97.306 107.318 94.635 108.102 93.866C110.36 94.266 112.088 93.972 113.236 92.982C113.684 92.5686 114.038 92.065 114.277 91.5045C114.516 90.944 114.634 90.3392 114.622 89.73C114.618 89.6536 114.597 89.5791 114.56 89.5121C114.523 89.4452 114.471 89.3877 114.408 89.344C106.358 83.6108 99.4557 76.4172 94.06 68.137C98.226 64.678 101.471 60.2413 103.505 55.223C106.717 46.508 104.676 43.656 103.677 42.842C106.97 35.873 105.33 32.433 104.723 31.512C105.253 30.032 107.209 23.982 104.415 22.338C102.923 21.463 99.885 23.381 94.845 26.555C93.176 27.606 91.31 28.774 89.3 29.973C89.4488 29.1556 89.5078 28.3243 89.476 27.494C89.5045 26.3896 89.3025 25.2913 88.8829 24.2693C88.4633 23.2472 87.8353 22.3239 87.039 21.558C85.7694 20.5059 84.1739 19.9272 82.525 19.921C82.4099 18.3976 81.7979 16.9541 80.783 15.8122C79.7681 14.6703 78.4064 13.8931 76.907 13.6C76.7929 13.5833 76.6765 13.6065 76.5775 13.6657C76.4786 13.7249 76.4031 13.8166 76.364 13.925C71.776 26.669 60.164 34.837 53.481 38.645C50.2937 37.5996 47.3716 35.8741 44.917 33.588C44.2479 33.0013 43.5141 32.4927 42.73 32.072C41.0547 31.0273 39.1183 30.4775 37.144 30.486C31.785 30.486 27.425 34.386 27.379 39.205C16.221 45.865 16.215 46.936 16.215 47.405C16.2162 47.5111 16.2427 47.6153 16.2923 47.709C16.3418 47.8027 16.413 47.8833 16.5 47.944C16.7246 48.098 16.9977 48.1645 17.268 48.131C17.6865 48.1206 18.1035 48.0768 18.515 48C17.078 50.2848 16.2249 52.8879 16.031 55.58C12.408 55.049 10.131 56.759 9.23097 60.674C9.21533 60.7422 9.21415 60.8128 9.2275 60.8814C9.24085 60.9501 9.26844 61.0151 9.30849 61.0724C9.34853 61.1297 9.40015 61.1779 9.46 61.2141C9.51986 61.2502 9.58662 61.2733 9.65597 61.282C10.1249 61.3427 10.5971 61.3741 11.07 61.376C11.9849 61.4359 12.9006 61.2725 13.7384 60.8999C14.5761 60.5273 15.3107 59.9566 15.879 59.237C15.9961 63.3062 16.5353 67.3522 17.488 71.31C13.801 72.06 12.188 74.462 12.755 78.499C12.7716 78.6185 12.8309 78.7279 12.9219 78.8071C13.0128 78.8863 13.1294 78.93 13.25 78.93C13.2894 78.9303 13.3287 78.9256 13.367 78.916C16.085 78.261 17.749 76.923 18.395 74.956C19.129 77.681 19.95 80.288 20.757 82.64C17.1 83.4 15.5 85.8 16.064 89.82C16.0805 89.9405 16.1404 90.0509 16.2324 90.1304C16.3245 90.2099 16.4423 90.2532 16.564 90.252C16.6034 90.252 16.6428 90.2469 16.681 90.237C19.64 89.524 21.365 88.011 21.866 85.745C22.6 87.731 23.273 89.417 23.8 90.688L9.97697 101.511C9.96997 101.516 9.96997 101.525 9.96297 101.531C9.89951 101.587 9.85191 101.659 9.82497 101.739C9.81648 101.76 9.80946 101.781 9.80397 101.802C9.80397 101.818 9.79097 101.832 9.78897 101.849C9.78092 101.925 9.79086 102.001 9.81797 102.072C9.81797 102.072 9.81797 102.08 9.81797 102.084C9.81797 102.088 9.83097 102.096 9.83397 102.105C9.84842 102.145 9.86792 102.183 9.89197 102.218L24.528 120.9C24.6097 121.004 24.7293 121.071 24.8604 121.087C24.9916 121.103 25.1237 121.066 25.228 120.985L56.269 96.669C56.3729 96.5872 56.4402 96.4674 56.456 96.336ZM25.386 74.315C22.695 75.385 20.628 74.654 18.945 72.034C21.894 70.872 23.961 71.6 25.386 74.315ZM28.413 59.741C27.337 56.757 28.129 54.714 30.88 53.37C31.871 56.091 31.08 58.135 28.413 59.741ZM38.848 53.4C36.527 55.112 34.348 54.936 32.071 52.857L32.053 52.823C34.607 50.955 36.786 51.14 38.848 53.4ZM113.618 90.014C113.574 90.862 113.2 91.6593 112.577 92.236C111.639 93.036 110.13 93.242 108.1 92.85C102.133 90.185 95.8 80.514 95.74 80.416C95.7051 80.3591 95.6591 80.3097 95.6048 80.2708C95.5505 80.2319 95.489 80.2042 95.4238 80.1895C95.3587 80.1748 95.2912 80.1733 95.2255 80.185C95.1597 80.1968 95.097 80.2216 95.041 80.258C94.985 80.2945 94.9369 80.3417 94.8995 80.3971C94.862 80.4524 94.8361 80.5147 94.8231 80.5802C94.8101 80.6457 94.8105 80.7132 94.824 80.7786C94.8375 80.844 94.8641 80.906 94.902 80.961C95.159 81.361 101.06 90.361 107.096 93.461C105.575 94.876 100.627 98.693 95.41 94.23C95.401 94.222 95.389 94.223 95.379 94.217C95.369 94.211 95.372 94.207 95.366 94.203C91.447 91.489 86.616 84.748 86.566 84.68C86.4889 84.5721 86.3722 84.4992 86.2414 84.4773C86.1105 84.4555 85.9764 84.4865 85.8685 84.5635C85.7605 84.6406 85.6876 84.7574 85.6658 84.8882C85.6439 85.019 85.6749 85.1531 85.752 85.261C85.942 85.528 90.211 91.482 94.106 94.515C92.468 95.202 88.378 96.455 85.213 93.523C83.731 91.9851 82.3653 90.3392 81.127 88.599C78.28 84.859 74.476 79.888 69.491 76.01C70.7657 76.1865 72.0511 76.2754 73.338 76.276C80.6488 76.1384 87.6908 73.4946 93.286 68.787C98.6944 77.0564 105.588 84.2522 113.618 90.01V90.014ZM77.154 14.676C78.4278 15.0133 79.5531 15.7653 80.352 16.8132C81.151 17.8611 81.5781 19.1453 81.566 20.463C81.566 20.472 81.572 20.48 81.573 20.489C81.5715 20.5103 81.5715 20.5317 81.573 20.553C82.165 23.083 80.061 26.234 80.04 26.266C79.9658 26.3759 79.9382 26.5106 79.9633 26.6408C79.9885 26.7709 80.0642 26.8857 80.174 26.96C80.2564 27.0165 80.3541 27.0465 80.454 27.046C80.5356 27.0461 80.616 27.0262 80.6882 26.988C80.7604 26.9498 80.8221 26.8946 80.868 26.827C80.958 26.693 82.939 23.727 82.647 20.927C84.0151 20.9566 85.3333 21.4463 86.389 22.317C87.0776 22.9951 87.6184 23.8084 87.9772 24.7058C88.3361 25.6032 88.5052 26.5651 88.474 27.531C88.5203 28.5902 88.3984 29.65 88.113 30.671C82.9184 33.7888 77.4189 36.3675 71.7 38.367C66.2633 40.3336 60.352 40.5732 54.774 39.053C61.591 35.042 72.543 26.994 77.154 14.676ZM37.144 31.486C38.9426 31.4788 40.7063 31.9823 42.23 32.938C42.9455 33.3193 43.6163 33.7791 44.23 34.309C46.8014 36.7083 49.8658 38.5171 53.209 39.609C53.2914 39.6747 53.3927 39.7122 53.498 39.716H53.508C59.5542 41.6254 66.0618 41.4848 72.02 39.316C77.8585 37.275 83.4714 34.6384 88.77 31.448L88.788 31.438C91.205 30.02 93.423 28.638 95.378 27.401C99.439 24.843 102.95 22.636 103.907 23.201C105.846 24.341 104.415 29.501 103.697 31.401C96.71 48.481 72.935 52.162 72.697 52.201C72.6313 52.2058 72.5672 52.2234 72.5084 52.2529C72.4495 52.2824 72.397 52.3232 72.354 52.3729C72.2669 52.4735 72.2234 52.6044 72.233 52.737C72.2377 52.8027 72.2553 52.8668 72.2848 52.9256C72.3143 52.9845 72.3551 53.037 72.4049 53.08C72.4546 53.1231 72.5124 53.156 72.5749 53.1768C72.6374 53.1975 72.7033 53.2058 72.769 53.201C72.7934 53.201 72.8178 53.199 72.842 53.195C73.083 53.16 96.555 49.522 104.214 32.695C104.763 34.021 105.35 37.161 102.591 42.795C92.965 59.76 79.71 61.232 79.577 61.245C79.4444 61.2513 79.3197 61.3099 79.2303 61.4081C79.1409 61.5063 79.0942 61.6359 79.1005 61.7685C79.1067 61.9011 79.1654 62.0258 79.2635 62.1152C79.3617 62.2046 79.4914 62.2513 79.624 62.245C79.64 62.2461 79.656 62.2461 79.672 62.245C79.808 62.233 93.309 60.756 103.184 43.757C103.933 44.508 105.429 47.114 102.567 54.882C100.555 59.8389 97.3297 64.2105 93.187 67.595C93.1659 67.602 93.1452 67.61 93.125 67.619C93.0666 67.6573 93.0168 67.7074 92.979 67.766C86.579 73.078 77.825 76.614 68.254 74.796C59.911 73.212 55.12 66.542 50.486 60.096C46.573 54.649 42.861 49.488 37.186 47.409C38.6358 46.9537 39.8618 45.9705 40.621 44.654C40.657 44.5979 40.6814 44.535 40.6928 44.4693C40.7041 44.4035 40.7022 44.3362 40.6872 44.2711C40.6721 44.2061 40.6441 44.1448 40.605 44.0908C40.5658 44.0367 40.5162 43.9911 40.4592 43.9565C40.4021 43.9219 40.3387 43.8991 40.2726 43.8894C40.2066 43.8797 40.1393 43.8834 40.0747 43.9001C40.0101 43.9168 39.9495 43.9463 39.8965 43.9868C39.8435 44.0274 39.7991 44.0781 39.766 44.136C39.2216 45.07 38.4017 45.8128 37.4187 46.2625C36.4356 46.7122 35.3376 46.8469 34.275 46.648L34.242 46.636C32.607 46.1992 31.1549 45.2502 30.0985 43.9281C29.0421 42.6059 28.4371 40.9801 28.372 39.289C28.375 34.982 32.309 31.486 37.144 31.486ZM27.452 40.327C27.6368 41.6726 28.1522 42.9513 28.952 44.049C22.089 46.27 18.578 47.088 17.421 47.136C18.2 46.266 21.154 44.105 27.452 40.327ZM17.44 56.824C20.531 56.824 22.163 58.243 22.525 61.242C19.672 61.308 17.958 59.87 17.314 56.824H17.44ZM10.347 60.345C11.195 57.327 12.995 56.123 15.952 56.582C15.942 56.715 15.928 56.844 15.921 56.982C15.085 59.48 13.3 60.569 10.347 60.345ZM13.681 77.8C13.398 74.641 14.681 72.866 17.681 72.266C17.953 75.148 16.668 76.924 13.681 77.8ZM16.99 89.12C16.708 85.96 17.99 84.185 20.995 83.585C21.263 86.469 19.977 88.245 16.99 89.12ZM40.31 79.025L35.427 93.365C34.9838 93.2939 34.5306 93.3188 34.0979 93.438C33.6652 93.5572 33.2632 93.768 32.919 94.056C32.4145 94.4814 32.0222 95.024 31.7763 95.6363C31.5305 96.2487 31.4387 96.912 31.509 97.568C30.8897 97.3428 30.2245 97.2729 29.5719 97.3646C28.9193 97.4563 28.2992 97.7068 27.766 98.094C27.4173 98.3479 27.1248 98.671 26.9069 99.0433C26.6891 99.4155 26.5505 99.8287 26.5 100.257L11.887 101.29L24.751 91.212L24.764 91.202L31.405 86L40.31 79.025ZM28.367 98.893C28.8758 98.5211 29.4907 98.3227 30.121 98.327C30.7784 98.3313 31.419 98.5361 31.957 98.914C32.0447 98.9742 32.1493 99.0049 32.2556 99.0015C32.3619 98.9982 32.4644 98.961 32.5481 98.8955C32.6319 98.8299 32.6925 98.7393 32.7213 98.6369C32.75 98.5345 32.7454 98.4256 32.708 98.326C32.465 97.7287 32.4157 97.0702 32.567 96.4433C32.7182 95.8165 33.0624 95.2529 33.551 94.832C33.8978 94.5303 34.3335 94.35 34.7921 94.3184C35.2507 94.2868 35.7071 94.4057 36.092 94.657C38.539 96.338 37.742 98.722 36.819 101.482C36.596 102.152 36.365 102.842 36.182 103.533C35.467 103.545 34.742 103.605 34.038 103.662C31.138 103.896 28.632 104.101 27.592 101.341C27.4359 100.904 27.4272 100.429 27.5672 99.9865C27.7071 99.5444 27.9881 99.1603 28.367 98.893ZM28.694 85.636C26 86.705 23.937 85.974 22.255 83.355C25.206 82.192 27.271 82.926 28.694 85.636ZM22.922 85.696C23.8838 86.5992 25.1526 87.1035 26.472 87.107C27.3699 87.0873 28.2559 86.8973 29.083 86.547L24.612 90.047C24.191 89.021 23.6 87.524 22.922 85.7V85.696ZM25.007 119.89L11.256 102.337L26.545 101.256C26.5699 101.397 26.6033 101.537 26.645 101.674C27.618 104.258 29.592 104.786 31.781 104.786C32.544 104.786 33.333 104.722 34.114 104.658C34.895 104.594 35.698 104.53 36.464 104.53C36.498 104.53 36.546 104.53 36.564 104.53C36.6765 104.53 36.7858 104.492 36.8742 104.423C36.9626 104.353 37.0249 104.256 37.051 104.146C37.235 103.373 37.503 102.573 37.761 101.799C38.723 98.919 39.72 95.94 36.634 93.822C36.547 93.768 36.458 93.727 36.369 93.682L41.5 78.631L55.258 96.19L25.007 119.89Z" fill="black"/>
<path d="M56.456 96.336C56.4728 96.2046 56.4369 96.0719 56.356 95.967L41.717 77.285C41.6922 77.2591 41.6647 77.236 41.635 77.216C41.626 77.208 41.624 77.194 41.614 77.187C41.604 77.18 41.601 77.187 41.595 77.181C41.5169 77.1302 41.4261 77.1025 41.333 77.101C41.317 77.101 41.303 77.101 41.288 77.101C41.1889 77.1057 41.0936 77.1406 41.015 77.201L29.864 85.936C29.876 85.8481 29.8639 85.7586 29.829 85.677C28.158 82.063 25.448 80.995 21.78 82.477C20.912 79.932 20.004 77.028 19.208 73.977C19.7036 74.5396 20.3118 74.9919 20.9933 75.3045C21.6748 75.6172 22.4143 75.7832 23.164 75.792C24.2446 75.7657 25.3065 75.5043 26.276 75.026C26.3356 74.9985 26.3892 74.9594 26.4338 74.9112C26.4783 74.8629 26.5129 74.8063 26.5356 74.7446C26.5582 74.6829 26.5685 74.6174 26.5658 74.5518C26.5632 74.4861 26.5476 74.4217 26.52 74.362C24.855 70.762 22.163 69.684 18.52 71.141C17.5365 67.0978 16.9933 62.9601 16.9 58.8C17.3327 59.8835 18.0988 60.8013 19.0875 61.4208C20.0762 62.0403 21.2362 62.3293 22.4 62.246C22.629 62.246 22.863 62.237 23.1 62.22C23.2322 62.2108 23.3553 62.1495 23.4423 62.0496C23.5293 61.9496 23.573 61.8192 23.564 61.687C23.281 57.668 21.085 55.724 17.024 55.852C17.1574 52.9056 18.1846 50.0696 19.969 47.721C19.969 47.716 19.969 47.709 19.979 47.703C20.754 47.526 21.715 47.28 22.898 46.948C22.9312 46.9512 22.9647 46.9512 22.998 46.948C26.23 46.354 28.791 49.092 30.654 52.377C27.085 54.027 26.083 56.809 27.69 60.656C27.7168 60.7205 27.7568 60.7786 27.8074 60.8267C27.8581 60.8747 27.9182 60.9116 27.984 60.935C28.0493 60.9573 28.1184 60.966 28.1872 60.9607C28.2559 60.9554 28.3229 60.9361 28.384 60.904C30.878 59.561 32.174 57.825 32.269 55.723C33.0976 57.7166 33.7817 59.7673 34.316 61.859C34.3417 61.9687 34.4036 62.0665 34.4918 62.1366C34.58 62.2066 34.6893 62.2448 34.802 62.245C34.841 62.2446 34.8798 62.2403 34.918 62.232C35.0466 62.2014 35.1578 62.1211 35.2273 62.0086C35.2968 61.8962 35.319 61.7608 35.289 61.632C34.7022 59.2792 33.9232 56.9784 32.96 54.753C33.8054 55.2652 34.7717 55.5436 35.76 55.56C37.2918 55.4973 38.7521 54.8952 39.883 53.86C39.984 53.7757 40.0478 53.6549 40.0603 53.5238C40.0729 53.3928 40.0332 53.262 39.95 53.16C37.471 50.16 34.65 49.753 31.566 51.945C30.066 49.292 28.099 46.932 25.646 46.145C26.808 45.791 28.1316 45.3724 29.617 44.889C30.7714 46.1277 32.2265 47.0468 33.841 47.557C33.8914 47.5847 33.9468 47.6024 34.004 47.609L34.036 47.618H34.045C34.5835 47.7809 35.1348 47.898 35.693 47.968C41.702 49.587 45.571 54.973 49.668 60.675C54.263 67.075 59.021 73.666 67.241 75.588C72.942 79.5 77.213 85.1 80.333 89.2C81.604 90.9872 83.008 92.676 84.533 94.252C88.501 97.926 93.698 95.826 95.015 95.198C96.5519 96.5297 98.5096 97.2762 100.543 97.306C104.32 97.306 107.318 94.635 108.102 93.866C110.36 94.266 112.088 93.972 113.236 92.982C113.684 92.5686 114.038 92.065 114.277 91.5045C114.516 90.944 114.634 90.3392 114.622 89.73C114.618 89.6536 114.597 89.5791 114.56 89.5121C114.523 89.4452 114.471 89.3877 114.408 89.344C106.358 83.6108 99.4557 76.4172 94.06 68.137C98.226 64.678 101.471 60.2413 103.505 55.223C106.717 46.508 104.676 43.656 103.677 42.842C106.97 35.873 105.33 32.433 104.723 31.512C105.253 30.032 107.209 23.982 104.415 22.338C102.923 21.463 99.885 23.381 94.845 26.555C93.176 27.606 91.31 28.774 89.3 29.973C89.4488 29.1556 89.5078 28.3243 89.476 27.494C89.5045 26.3896 89.3025 25.2913 88.8829 24.2693C88.4633 23.2472 87.8353 22.3239 87.039 21.558C85.7694 20.5059 84.1739 19.9272 82.525 19.921C82.4099 18.3976 81.7979 16.9541 80.783 15.8122C79.7681 14.6703 78.4064 13.8931 76.907 13.6C76.7929 13.5833 76.6765 13.6065 76.5775 13.6657C76.4786 13.7249 76.4031 13.8166 76.364 13.925C71.776 26.669 60.164 34.837 53.481 38.645C50.2937 37.5996 47.3716 35.8741 44.917 33.588C44.2479 33.0013 43.5141 32.4927 42.73 32.072C41.0547 31.0273 39.1183 30.4775 37.144 30.486C31.785 30.486 27.425 34.386 27.379 39.205C16.221 45.865 16.215 46.936 16.215 47.405C16.2162 47.5111 16.2427 47.6153 16.2923 47.709C16.3418 47.8027 16.413 47.8833 16.5 47.944C16.7246 48.098 16.9977 48.1645 17.268 48.131C17.6865 48.1206 18.1035 48.0768 18.515 48C17.078 50.2848 16.2249 52.8879 16.031 55.58C12.408 55.049 10.131 56.759 9.23097 60.674C9.21533 60.7422 9.21415 60.8128 9.2275 60.8814C9.24085 60.9501 9.26844 61.0151 9.30849 61.0724C9.34853 61.1297 9.40015 61.1779 9.46 61.2141C9.51986 61.2502 9.58662 61.2733 9.65597 61.282C10.1249 61.3427 10.5971 61.3741 11.07 61.376C11.9849 61.4359 12.9006 61.2725 13.7384 60.8999C14.5761 60.5273 15.3107 59.9566 15.879 59.237C15.9961 63.3062 16.5353 67.3522 17.488 71.31C13.801 72.06 12.188 74.462 12.755 78.499C12.7716 78.6185 12.8309 78.7279 12.9219 78.8071C13.0128 78.8863 13.1294 78.93 13.25 78.93C13.2894 78.9303 13.3287 78.9256 13.367 78.916C16.085 78.261 17.749 76.923 18.395 74.956C19.129 77.681 19.95 80.288 20.757 82.64C17.1 83.4 15.5 85.8 16.064 89.82C16.0805 89.9405 16.1404 90.0509 16.2324 90.1304C16.3245 90.2099 16.4423 90.2532 16.564 90.252C16.6034 90.252 16.6428 90.2469 16.681 90.237C19.64 89.524 21.365 88.011 21.866 85.745C22.6 87.731 23.273 89.417 23.8 90.688L9.97697 101.511C9.96997 101.516 9.96997 101.525 9.96297 101.531C9.89951 101.587 9.85191 101.659 9.82497 101.739C9.81648 101.76 9.80946 101.781 9.80397 101.802C9.80397 101.818 9.79097 101.832 9.78897 101.849C9.78092 101.925 9.79086 102.001 9.81797 102.072C9.81797 102.072 9.81797 102.08 9.81797 102.084C9.81797 102.088 9.83097 102.096 9.83397 102.105C9.84842 102.145 9.86792 102.183 9.89197 102.218L24.528 120.9C24.6097 121.004 24.7293 121.071 24.8604 121.087C24.9916 121.103 25.1237 121.066 25.228 120.985L56.269 96.669C56.3729 96.5872 56.4402 96.4674 56.456 96.336ZM25.386 74.315C22.695 75.385 20.628 74.654 18.945 72.034C21.894 70.872 23.961 71.6 25.386 74.315ZM28.413 59.741C27.337 56.757 28.129 54.714 30.88 53.37C31.871 56.091 31.08 58.135 28.413 59.741ZM38.848 53.4C36.527 55.112 34.348 54.936 32.071 52.857L32.053 52.823C34.607 50.955 36.786 51.14 38.848 53.4ZM113.618 90.014C113.574 90.862 113.2 91.6593 112.577 92.236C111.639 93.036 110.13 93.242 108.1 92.85C102.133 90.185 95.8 80.514 95.74 80.416C95.7051 80.3591 95.6591 80.3097 95.6048 80.2708C95.5505 80.2319 95.489 80.2042 95.4238 80.1895C95.3587 80.1748 95.2912 80.1733 95.2255 80.185C95.1597 80.1968 95.097 80.2216 95.041 80.258C94.985 80.2945 94.9369 80.3417 94.8995 80.3971C94.862 80.4524 94.8361 80.5147 94.8231 80.5802C94.8101 80.6457 94.8105 80.7132 94.824 80.7786C94.8375 80.844 94.8641 80.906 94.902 80.961C95.159 81.361 101.06 90.361 107.096 93.461C105.575 94.876 100.627 98.693 95.41 94.23C95.401 94.222 95.389 94.223 95.379 94.217C95.369 94.211 95.372 94.207 95.366 94.203C91.447 91.489 86.616 84.748 86.566 84.68C86.4889 84.5721 86.3722 84.4992 86.2414 84.4773C86.1105 84.4555 85.9764 84.4865 85.8685 84.5635C85.7605 84.6406 85.6876 84.7574 85.6658 84.8882C85.6439 85.019 85.6749 85.1531 85.752 85.261C85.942 85.528 90.211 91.482 94.106 94.515C92.468 95.202 88.378 96.455 85.213 93.523C83.731 91.9851 82.3653 90.3392 81.127 88.599C78.28 84.859 74.476 79.888 69.491 76.01C70.7657 76.1865 72.0511 76.2754 73.338 76.276C80.6488 76.1384 87.6908 73.4946 93.286 68.787C98.6944 77.0564 105.588 84.2522 113.618 90.01V90.014ZM77.154 14.676C78.4278 15.0133 79.5531 15.7653 80.352 16.8132C81.151 17.8611 81.5781 19.1453 81.566 20.463C81.566 20.472 81.572 20.48 81.573 20.489C81.5715 20.5103 81.5715 20.5317 81.573 20.553C82.165 23.083 80.061 26.234 80.04 26.266C79.9658 26.3759 79.9382 26.5106 79.9633 26.6408C79.9885 26.7709 80.0642 26.8857 80.174 26.96C80.2564 27.0165 80.3541 27.0465 80.454 27.046C80.5356 27.0461 80.616 27.0262 80.6882 26.988C80.7604 26.9498 80.8221 26.8946 80.868 26.827C80.958 26.693 82.939 23.727 82.647 20.927C84.0151 20.9566 85.3333 21.4463 86.389 22.317C87.0776 22.9951 87.6184 23.8084 87.9772 24.7058C88.3361 25.6032 88.5052 26.5651 88.474 27.531C88.5203 28.5902 88.3984 29.65 88.113 30.671C82.9184 33.7888 77.4189 36.3675 71.7 38.367C66.2633 40.3336 60.352 40.5732 54.774 39.053C61.591 35.042 72.543 26.994 77.154 14.676ZM37.144 31.486C38.9426 31.4788 40.7063 31.9823 42.23 32.938C42.9455 33.3193 43.6163 33.7791 44.23 34.309C46.8014 36.7083 49.8658 38.5171 53.209 39.609C53.2914 39.6747 53.3927 39.7122 53.498 39.716H53.508C59.5542 41.6254 66.0618 41.4848 72.02 39.316C77.8585 37.275 83.4714 34.6384 88.77 31.448L88.788 31.438C91.205 30.02 93.423 28.638 95.378 27.401C99.439 24.843 102.95 22.636 103.907 23.201C105.846 24.341 104.415 29.501 103.697 31.401C96.71 48.481 72.935 52.162 72.697 52.201C72.6313 52.2058 72.5672 52.2234 72.5084 52.2529C72.4495 52.2824 72.397 52.3232 72.354 52.3729C72.2669 52.4735 72.2234 52.6044 72.233 52.737C72.2377 52.8027 72.2553 52.8668 72.2848 52.9256C72.3143 52.9845 72.3551 53.037 72.4049 53.08C72.4546 53.1231 72.5124 53.156 72.5749 53.1768C72.6374 53.1975 72.7033 53.2058 72.769 53.201C72.7934 53.201 72.8178 53.199 72.842 53.195C73.083 53.16 96.555 49.522 104.214 32.695C104.763 34.021 105.35 37.161 102.591 42.795C92.965 59.76 79.71 61.232 79.577 61.245C79.4444 61.2513 79.3197 61.3099 79.2303 61.4081C79.1409 61.5063 79.0942 61.6359 79.1005 61.7685C79.1067 61.9011 79.1654 62.0258 79.2635 62.1152C79.3617 62.2046 79.4914 62.2513 79.624 62.245C79.64 62.2461 79.656 62.2461 79.672 62.245C79.808 62.233 93.309 60.756 103.184 43.757C103.933 44.508 105.429 47.114 102.567 54.882C100.555 59.8389 97.3297 64.2105 93.187 67.595C93.1659 67.602 93.1452 67.61 93.125 67.619C93.0666 67.6573 93.0168 67.7074 92.979 67.766C86.579 73.078 77.825 76.614 68.254 74.796C59.911 73.212 55.12 66.542 50.486 60.096C46.573 54.649 42.861 49.488 37.186 47.409C38.6358 46.9537 39.8618 45.9705 40.621 44.654C40.657 44.5979 40.6814 44.535 40.6928 44.4693C40.7041 44.4035 40.7022 44.3362 40.6872 44.2711C40.6721 44.2061 40.6441 44.1448 40.605 44.0908C40.5658 44.0367 40.5162 43.9911 40.4592 43.9565C40.4021 43.9219 40.3387 43.8991 40.2726 43.8894C40.2066 43.8797 40.1393 43.8834 40.0747 43.9001C40.0101 43.9168 39.9495 43.9463 39.8965 43.9868C39.8435 44.0274 39.7991 44.0781 39.766 44.136C39.2216 45.07 38.4017 45.8128 37.4187 46.2625C36.4356 46.7122 35.3376 46.8469 34.275 46.648L34.242 46.636C32.607 46.1992 31.1549 45.2502 30.0985 43.9281C29.0421 42.6059 28.4371 40.9801 28.372 39.289C28.375 34.982 32.309 31.486 37.144 31.486ZM27.452 40.327C27.6368 41.6726 28.1522 42.9513 28.952 44.049C22.089 46.27 18.578 47.088 17.421 47.136C18.2 46.266 21.154 44.105 27.452 40.327ZM17.44 56.824C20.531 56.824 22.163 58.243 22.525 61.242C19.672 61.308 17.958 59.87 17.314 56.824H17.44ZM10.347 60.345C11.195 57.327 12.995 56.123 15.952 56.582C15.942 56.715 15.928 56.844 15.921 56.982C15.085 59.48 13.3 60.569 10.347 60.345ZM13.681 77.8C13.398 74.641 14.681 72.866 17.681 72.266C17.953 75.148 16.668 76.924 13.681 77.8ZM16.99 89.12C16.708 85.96 17.99 84.185 20.995 83.585C21.263 86.469 19.977 88.245 16.99 89.12ZM40.31 79.025L35.427 93.365C34.9838 93.2939 34.5306 93.3188 34.0979 93.438C33.6652 93.5572 33.2632 93.768 32.919 94.056C32.4145 94.4814 32.0222 95.024 31.7763 95.6363C31.5305 96.2487 31.4387 96.912 31.509 97.568C30.8897 97.3428 30.2245 97.2729 29.5719 97.3646C28.9193 97.4563 28.2992 97.7068 27.766 98.094C27.4173 98.3479 27.1248 98.671 26.9069 99.0433C26.6891 99.4155 26.5505 99.8287 26.5 100.257L11.887 101.29L24.751 91.212L24.764 91.202L31.405 86L40.31 79.025ZM28.367 98.893C28.8758 98.5211 29.4907 98.3227 30.121 98.327C30.7784 98.3313 31.419 98.5361 31.957 98.914C32.0447 98.9742 32.1493 99.0049 32.2556 99.0015C32.3619 98.9982 32.4644 98.961 32.5481 98.8955C32.6319 98.8299 32.6925 98.7393 32.7213 98.6369C32.75 98.5345 32.7454 98.4256 32.708 98.326C32.465 97.7287 32.4157 97.0702 32.567 96.4433C32.7182 95.8165 33.0624 95.2529 33.551 94.832C33.8978 94.5303 34.3335 94.35 34.7921 94.3184C35.2507 94.2868 35.7071 94.4057 36.092 94.657C38.539 96.338 37.742 98.722 36.819 101.482C36.596 102.152 36.365 102.842 36.182 103.533C35.467 103.545 34.742 103.605 34.038 103.662C31.138 103.896 28.632 104.101 27.592 101.341C27.4359 100.904 27.4272 100.429 27.5672 99.9865C27.7071 99.5444 27.9881 99.1603 28.367 98.893ZM28.694 85.636C26 86.705 23.937 85.974 22.255 83.355C25.206 82.192 27.271 82.926 28.694 85.636ZM22.922 85.696C23.8838 86.5992 25.1526 87.1035 26.472 87.107C27.3699 87.0873 28.2559 86.8973 29.083 86.547L24.612 90.047C24.191 89.021 23.6 87.524 22.922 85.7V85.696ZM25.007 119.89L11.256 102.337L26.545 101.256C26.5699 101.397 26.6033 101.537 26.645 101.674C27.618 104.258 29.592 104.786 31.781 104.786C32.544 104.786 33.333 104.722 34.114 104.658C34.895 104.594 35.698 104.53 36.464 104.53C36.498 104.53 36.546 104.53 36.564 104.53C36.6765 104.53 36.7858 104.492 36.8742 104.423C36.9626 104.353 37.0249 104.256 37.051 104.146C37.235 103.373 37.503 102.573 37.761 101.799C38.723 98.919 39.72 95.94 36.634 93.822C36.547 93.768 36.458 93.727 36.369 93.682L41.5 78.631L55.258 96.19L25.007 119.89Z" stroke="black" stroke-width="1.2" mask="url(#path-2-outside-1_38_112)"/>
<path d="M62.717 25.83C62.7583 25.7462 62.7754 25.6525 62.7662 25.5596C62.757 25.4666 62.7219 25.3781 62.665 25.304C62.607 25.229 56.78 17.861 44.894 20.004C43.858 17.65 37.808 5.49001 24.292 7.04801C9.38899 8.77101 7.44899 25.388 7.43199 25.556C7.42453 25.626 7.43192 25.6967 7.45368 25.7637C7.47545 25.8306 7.51109 25.8922 7.55829 25.9444C7.60548 25.9966 7.66317 26.0382 7.72756 26.0666C7.79196 26.0949 7.86162 26.1094 7.93199 26.109H62.272C62.3647 26.1084 62.4555 26.0819 62.5341 26.0326C62.6127 25.9834 62.676 25.9132 62.717 25.83ZM8.50699 25.109C8.97799 22.277 11.8 9.50001 24.407 8.04101C37.125 6.58001 42.889 17.963 43.941 20.324C43.4711 20.5211 43.0538 20.8253 42.7224 21.2123C42.3909 21.5993 42.1545 22.0584 42.032 22.553C42.0151 22.6826 42.0495 22.8137 42.128 22.9181C42.2065 23.0226 42.3228 23.0922 42.452 23.112C42.4768 23.116 42.5019 23.118 42.527 23.118C42.6459 23.1181 42.761 23.0757 42.8516 22.9986C42.9421 22.9214 43.0022 22.8145 43.021 22.697C43.029 22.654 43.221 21.633 44.731 21.057C53.831 19.287 59.231 23.315 61.112 25.109H8.50699Z" fill="#5CD8FF"/>
<path d="M62.717 25.83C62.7583 25.7462 62.7754 25.6525 62.7662 25.5596C62.757 25.4666 62.7219 25.3781 62.665 25.304C62.607 25.229 56.78 17.861 44.894 20.004C43.858 17.65 37.808 5.49001 24.292 7.04801C9.38899 8.77101 7.44899 25.388 7.43199 25.556C7.42453 25.626 7.43192 25.6967 7.45368 25.7637C7.47545 25.8306 7.51109 25.8922 7.55829 25.9444C7.60548 25.9966 7.66317 26.0382 7.72756 26.0666C7.79196 26.0949 7.86162 26.1094 7.93199 26.109H62.272C62.3647 26.1084 62.4555 26.0819 62.5341 26.0326C62.6127 25.9834 62.676 25.9132 62.717 25.83ZM8.50699 25.109C8.97799 22.277 11.8 9.50001 24.407 8.04101C37.125 6.58001 42.889 17.963 43.941 20.324C43.4711 20.5211 43.0538 20.8253 42.7224 21.2123C42.3909 21.5993 42.1545 22.0584 42.032 22.553C42.0151 22.6826 42.0495 22.8137 42.128 22.9181C42.2065 23.0226 42.3228 23.0922 42.452 23.112C42.4768 23.116 42.5019 23.118 42.527 23.118C42.6459 23.1181 42.761 23.0757 42.8516 22.9986C42.9421 22.9214 43.0022 22.8145 43.021 22.697C43.029 22.654 43.221 21.633 44.731 21.057C53.831 19.287 59.231 23.315 61.112 25.109H8.50699Z" fill="black" fill-opacity="0.2"/>
<path d="M8.50699 25.109C8.97799 22.277 11.8 9.50001 24.407 8.04101C37.125 6.58001 42.889 17.963 43.941 20.324C43.4711 20.5211 43.0538 20.8253 42.7224 21.2123C42.3909 21.5993 42.1545 22.0584 42.032 22.553C42.0151 22.6826 42.0495 22.8137 42.128 22.9181C42.2065 23.0226 42.3228 23.0922 42.452 23.112C42.4768 23.116 42.5019 23.118 42.527 23.118C42.6459 23.1181 42.761 23.0757 42.8516 22.9986C42.9421 22.9214 43.0022 22.8145 43.021 22.697C43.029 22.654 43.221 21.633 44.731 21.057C53.831 19.287 59.231 23.315 61.112 25.109H8.50699Z" fill="#5CD8FF"/>
<path d="M8.50699 25.109C8.97799 22.277 11.8 9.50001 24.407 8.04101C37.125 6.58001 42.889 17.963 43.941 20.324C43.4711 20.5211 43.0538 20.8253 42.7224 21.2123C42.3909 21.5993 42.1545 22.0584 42.032 22.553C42.0151 22.6826 42.0495 22.8137 42.128 22.9181C42.2065 23.0226 42.3228 23.0922 42.452 23.112C42.4768 23.116 42.5019 23.118 42.527 23.118C42.6459 23.1181 42.761 23.0757 42.8516 22.9986C42.9421 22.9214 43.0022 22.8145 43.021 22.697C43.029 22.654 43.221 21.633 44.731 21.057C53.831 19.287 59.231 23.315 61.112 25.109H8.50699Z" fill="black" fill-opacity="0.2"/>
<path d="M120.302 119.926C120.279 119.841 117.941 111.558 106.45 113.436C105.198 110.297 102.861 107.711 99.8655 106.148C96.3805 104.422 92.1755 104.364 87.3655 105.976C86.5135 103.849 82.5595 95.3755 74.3575 97.2755C66.1865 99.1755 64.0225 108.709 63.6305 110.909C61.1365 110.854 49.3935 111.103 47.0175 119.919C46.9973 119.993 46.9946 120.07 47.0093 120.146C47.0241 120.221 47.056 120.292 47.1027 120.353C47.1493 120.414 47.2093 120.464 47.2781 120.498C47.3469 120.532 47.4227 120.549 47.4995 120.55H119.82C119.897 120.55 119.973 120.532 120.042 120.498C120.11 120.465 120.17 120.415 120.217 120.355C120.264 120.294 120.296 120.223 120.311 120.148C120.326 120.073 120.324 119.996 120.304 119.922L120.302 119.926ZM48.1735 119.554C51.0495 111.192 63.8845 111.916 64.0185 111.927C64.1453 111.933 64.2698 111.891 64.3677 111.811C64.4655 111.73 64.5297 111.615 64.5475 111.49C64.5615 111.378 66.0605 100.239 74.5825 98.2535C82.1235 96.5015 85.6685 104.349 86.4335 106.329C80.8445 108.622 79.6105 112.958 79.5585 113.147C79.524 113.275 79.5418 113.411 79.608 113.526C79.6742 113.641 79.7834 113.725 79.9115 113.76C80.0396 113.794 80.1761 113.776 80.2911 113.71C80.406 113.644 80.49 113.535 80.5245 113.407C80.5365 113.364 81.7535 109.125 87.2375 107.077C91.9725 105.4 96.0685 105.388 99.4105 107.039C102.289 108.569 104.507 111.099 105.648 114.153C105.686 114.268 105.763 114.366 105.867 114.428C105.971 114.491 106.094 114.513 106.213 114.492C115.38 112.829 118.343 117.746 119.113 119.554H48.1735Z" fill="#5CD8FF"/>
<path d="M120.302 119.926C120.279 119.841 117.941 111.558 106.45 113.436C105.198 110.297 102.861 107.711 99.8655 106.148C96.3805 104.422 92.1755 104.364 87.3655 105.976C86.5135 103.849 82.5595 95.3755 74.3575 97.2755C66.1865 99.1755 64.0225 108.709 63.6305 110.909C61.1365 110.854 49.3935 111.103 47.0175 119.919C46.9973 119.993 46.9946 120.07 47.0093 120.146C47.0241 120.221 47.056 120.292 47.1027 120.353C47.1493 120.414 47.2093 120.464 47.2781 120.498C47.3469 120.532 47.4227 120.549 47.4995 120.55H119.82C119.897 120.55 119.973 120.532 120.042 120.498C120.11 120.465 120.17 120.415 120.217 120.355C120.264 120.294 120.296 120.223 120.311 120.148C120.326 120.073 120.324 119.996 120.304 119.922L120.302 119.926ZM48.1735 119.554C51.0495 111.192 63.8845 111.916 64.0185 111.927C64.1453 111.933 64.2698 111.891 64.3677 111.811C64.4655 111.73 64.5297 111.615 64.5475 111.49C64.5615 111.378 66.0605 100.239 74.5825 98.2535C82.1235 96.5015 85.6685 104.349 86.4335 106.329C80.8445 108.622 79.6105 112.958 79.5585 113.147C79.524 113.275 79.5418 113.411 79.608 113.526C79.6742 113.641 79.7834 113.725 79.9115 113.76C80.0396 113.794 80.1761 113.776 80.2911 113.71C80.406 113.644 80.49 113.535 80.5245 113.407C80.5365 113.364 81.7535 109.125 87.2375 107.077C91.9725 105.4 96.0685 105.388 99.4105 107.039C102.289 108.569 104.507 111.099 105.648 114.153C105.686 114.268 105.763 114.366 105.867 114.428C105.971 114.491 106.094 114.513 106.213 114.492C115.38 112.829 118.343 117.746 119.113 119.554H48.1735Z" fill="black" fill-opacity="0.2"/>
<path d="M48.1735 119.554C51.0495 111.192 63.8845 111.916 64.0185 111.927C64.1453 111.933 64.2698 111.891 64.3677 111.811C64.4655 111.73 64.5297 111.615 64.5475 111.49C64.5615 111.378 66.0605 100.239 74.5825 98.2535C82.1235 96.5015 85.6685 104.349 86.4335 106.329C80.8445 108.622 79.6105 112.958 79.5585 113.147C79.524 113.275 79.5418 113.411 79.608 113.526C79.6742 113.641 79.7834 113.725 79.9115 113.76C80.0396 113.794 80.1761 113.776 80.2911 113.71C80.406 113.644 80.49 113.535 80.5245 113.407C80.5365 113.364 81.7535 109.125 87.2375 107.077C91.9725 105.4 96.0685 105.388 99.4105 107.039C102.289 108.569 104.507 111.099 105.648 114.153C105.686 114.268 105.763 114.366 105.867 114.428C105.971 114.491 106.094 114.513 106.213 114.492C115.38 112.829 118.343 117.746 119.113 119.554H48.1735Z" fill="#5CD8FF"/>
<path d="M48.1735 119.554C51.0495 111.192 63.8845 111.916 64.0185 111.927C64.1453 111.933 64.2698 111.891 64.3677 111.811C64.4655 111.73 64.5297 111.615 64.5475 111.49C64.5615 111.378 66.0605 100.239 74.5825 98.2535C82.1235 96.5015 85.6685 104.349 86.4335 106.329C80.8445 108.622 79.6105 112.958 79.5585 113.147C79.524 113.275 79.5418 113.411 79.608 113.526C79.6742 113.641 79.7834 113.725 79.9115 113.76C80.0396 113.794 80.1761 113.776 80.2911 113.71C80.406 113.644 80.49 113.535 80.5245 113.407C80.5365 113.364 81.7535 109.125 87.2375 107.077C91.9725 105.4 96.0685 105.388 99.4105 107.039C102.289 108.569 104.507 111.099 105.648 114.153C105.686 114.268 105.763 114.366 105.867 114.428C105.971 114.491 106.094 114.513 106.213 114.492C115.38 112.829 118.343 117.746 119.113 119.554H48.1735Z" fill="black" fill-opacity="0.2"/>
<path d="M35.027 38.9C36.0211 38.9 36.827 38.0941 36.827 37.1C36.827 36.1059 36.0211 35.3 35.027 35.3C34.0329 35.3 33.227 36.1059 33.227 37.1C33.227 38.0941 34.0329 38.9 35.027 38.9Z" fill="black" stroke="black" stroke-width="0.6"/>
<path d="M70.1701 36.105L70.171 36.105C70.2726 36.1047 70.3733 36.0854 70.4679 36.0482L70.4679 36.0482L70.4712 36.0468C70.59 35.9984 71.9392 35.4401 73.6024 34.3543C75.2626 33.2704 77.2537 31.6494 78.6389 29.469C78.6966 29.381 78.7365 29.2825 78.7561 29.179C78.7759 29.0745 78.7747 28.9672 78.7525 28.8631C78.7304 28.7591 78.6877 28.6606 78.627 28.5733C78.5663 28.4859 78.4888 28.4116 78.399 28.3546C78.3092 28.2976 78.209 28.259 78.1041 28.2412C77.9993 28.2234 77.8919 28.2267 77.7884 28.2508C77.6848 28.275 77.5871 28.3196 77.501 28.3819C77.4157 28.4437 77.3434 28.5216 77.2884 28.6113C76.055 30.5534 74.2175 32.0376 72.668 33.0427C71.895 33.5441 71.1984 33.9232 70.6927 34.1778C70.4399 34.3051 70.2351 34.4011 70.0926 34.4657C70.0213 34.498 69.9657 34.5224 69.9275 34.5389C69.8924 34.554 69.8731 34.562 69.87 34.5633C69.8696 34.5634 69.8695 34.5635 69.8696 34.5635L69.8696 34.5635L69.8677 34.5642C69.696 34.6342 69.5538 34.7618 69.4657 34.925C69.3776 35.0883 69.349 35.2771 69.3847 35.4591C69.4204 35.6411 69.5183 35.8051 69.6616 35.9229C69.8049 36.0407 69.9846 36.1051 70.1701 36.105Z" fill="black" stroke="black" stroke-width="0.6"/>
</svg>
