<svg width="20" height="20" viewBox="0 0 20 20" fill="none" xmlns="http://www.w3.org/2000/svg">
<g clip-path="url(#clip0_28_73)">
<path d="M3.33331 13.3333C3.33331 14.0667 3.65831 14.725 4.16665 15.1833V16.6667C4.16665 17.125 4.54165 17.5 4.99998 17.5H5.83331C6.29165 17.5 6.66665 17.125 6.66665 16.6667V15.8333H13.3333V16.6667C13.3333 17.125 13.7083 17.5 14.1666 17.5H15C15.4583 17.5 15.8333 17.125 15.8333 16.6667V15.1833C16.3416 14.725 16.6666 14.0667 16.6666 13.3333V5C16.6666 2.08333 13.6833 1.66666 9.99998 1.66666C6.31665 1.66666 3.33331 2.08333 3.33331 5V13.3333ZM6.24998 14.1667C5.55831 14.1667 4.99998 13.6083 4.99998 12.9167C4.99998 12.225 5.55831 11.6667 6.24998 11.6667C6.94165 11.6667 7.49998 12.225 7.49998 12.9167C7.49998 13.6083 6.94165 14.1667 6.24998 14.1667ZM13.75 14.1667C13.0583 14.1667 12.5 13.6083 12.5 12.9167C12.5 12.225 13.0583 11.6667 13.75 11.6667C14.4416 11.6667 15 12.225 15 12.9167C15 13.6083 14.4416 14.1667 13.75 14.1667ZM15 9.16666H4.99998V5H15V9.16666Z" fill="#fff"/>
</g>
<defs>
<clipPath id="clip0_28_73">
<rect width="20" height="20" fill="white"/>
</clipPath>
</defs>
</svg>
