<svg width="24" height="24" viewBox="0 0 24 24" fill="none" xmlns="http://www.w3.org/2000/svg">
<path d="M11.651 21.4999C11.5289 20.8386 11.9163 22 12 22C12.0837 22 12.1564 21.7298 12.2219 21.67C13.3213 20.6655 14.5666 20.2234 15.7592 19.3199C20.0102 16.1009 24.4032 12.7716 22.5736 6.08849C22.2364 4.93016 21.538 4.22708 20.66 3.53607C19.782 2.84506 18.7857 2.46093 17.7219 2.5166C16.5085 2.57104 15.3189 2.75468 14.3115 3.53239C13.304 4.31009 12.5053 5.39405 12.0046 6.66288C11.5044 5.3957 10.7067 4.31307 9.70069 3.53603C8.69468 2.75899 7.52003 2.31818 6.30808 2.26289C5.23925 2.20159 4.38221 2.83763 3.5 3.53235C2.61779 4.22708 1.75929 4.94201 1.42531 6.108C-0.402032 12.7767 3.9932 16.1051 8.24417 19.3241C9.44119 20.2234 10.5517 20.4962 11.651 21.4999ZM2.12961 6.37611C2.41115 5.40339 2.95813 4.56037 3.68969 3.97168C4.42125 3.38298 5.29856 3.07984 6.19193 3.10708H6.29476C7.51726 3.17093 8.69154 3.67275 9.65236 4.54194C10.6132 5.41112 11.3122 6.60393 11.651 7.9525C11.6748 8.03832 11.7218 8.11322 11.7852 8.16638C11.8485 8.21954 11.925 8.2482 12.0035 8.2482C12.0821 8.2482 12.1585 8.21954 12.2219 8.16638C12.2853 8.11322 12.3323 8.03832 12.3561 7.9525C12.6962 6.60263 13.3968 5.40904 14.3594 4.53969C15.3219 3.67035 16.4979 3.16901 17.7219 3.10623H17.8188C18.7093 3.07816 19.5839 3.37912 20.3138 3.96469C21.0437 4.55025 21.59 5.38941 21.8723 6.35829C23.5324 12.4161 19.5589 15.4255 15.3516 18.6114C14.2271 19.4598 13.0631 20.5522 12 21.4999C10.9364 20.5525 9.7814 19.4637 8.65718 18.6121L8.65625 18.6114C4.44893 15.4272 0.474647 12.417 2.12961 6.37611Z" fill="#F66867"/>
<path d="M2.12961 6.37611C2.41115 5.40339 2.95813 4.56037 3.68969 3.97168C4.42125 3.38298 5.29856 3.07984 6.19193 3.10708H6.29476C7.51726 3.17093 8.69154 3.67275 9.65236 4.54194C10.6132 5.41112 11.3122 6.60393 11.651 7.9525C11.6748 8.03832 11.7218 8.11322 11.7852 8.16638C11.8485 8.21954 11.925 8.2482 12.0035 8.2482C12.0821 8.2482 12.1585 8.21954 12.2219 8.16638C12.2853 8.11322 12.3323 8.03832 12.3561 7.9525C12.6962 6.60263 13.3968 5.40904 14.3594 4.53969C15.3219 3.67035 16.4979 3.16901 17.7219 3.10623H17.8188C18.7093 3.07816 19.5839 3.37912 20.3138 3.96469C21.0437 4.55025 21.59 5.38941 21.8723 6.35829C23.5324 12.4161 19.5589 15.4255 15.3516 18.6114C14.2271 19.4598 13.0631 20.5522 12 21.4999C10.9364 20.5525 9.7814 19.4637 8.65718 18.6121L8.65625 18.6114C4.44893 15.4272 0.474647 12.417 2.12961 6.37611Z" fill="#F66867"/>
<path d="M17.452 2C15.109 2 12.997 3.41411 12.049 5.49269C11.089 3.38806 8.99299 2 6.60599 2C3.29999 2 0.609985 4.69594 0.609985 8.00923C0.609985 17.1163 11.451 21.7325 11.913 21.9249C11.962 21.9459 12.015 21.9559 12.066 21.9559C12.117 21.9559 12.17 21.9449 12.217 21.9259C12.329 21.8798 23.391 17.2295 23.391 7.95211C23.391 4.66988 20.727 2 17.452 2ZM12.066 21.1171C10.75 20.5218 1.40999 16.0149 1.40999 8.00923C1.40999 5.13791 3.73999 2.80277 6.60499 2.80277C9.03199 2.80277 11.111 4.45741 11.661 6.82964C11.703 7.01103 11.865 7.14032 12.051 7.14032H12.053C12.24 7.13932 12.401 7.00903 12.442 6.82663C12.961 4.4955 15.068 2.80377 17.453 2.80377C20.286 2.80377 22.591 5.11386 22.591 7.95311C22.59 16.1101 13.374 20.5318 12.066 21.1171Z" fill="black"/>
<path d="M15.979 12.5573H12.4V8.97144C12.4 8.74995 12.22 8.57056 12 8.57056C11.78 8.57056 11.6 8.75095 11.6 8.97144V12.5573H8.02097C7.79997 12.5573 7.62097 12.7377 7.62097 12.9582C7.62097 13.1787 7.80097 13.3591 8.02097 13.3591H11.6V16.946C11.6 17.1675 11.78 17.3469 12 17.3469C12.22 17.3469 12.4 17.1665 12.4 16.946V13.3591H15.978C16.199 13.3591 16.378 13.1787 16.378 12.9582C16.378 12.7377 16.199 12.5573 15.979 12.5573Z" fill="black"/>
</svg>
