<svg width="128" height="128" viewBox="0 0 128 128" fill="none" xmlns="http://www.w3.org/2000/svg">
<path d="M63.6493 41.8799C63.7505 41.9577 63.8761 42 64.0055 42C64.1349 42 64.2604 41.9577 64.3616 41.8799C66.0606 40.574 67.9666 39.3607 69.8097 38.1861C76.3794 34.0014 83.1686 29.6734 80.3411 20.9853C79.8199 19.4795 78.8037 18.1787 77.4468 17.2804C76.09 16.3821 74.4664 15.9352 72.8224 16.0076C70.9471 16.0784 69.1292 16.6513 67.5722 17.6623C66.0153 18.6734 64.7809 20.0825 64.0072 21.732C63.2341 20.0847 62.0013 18.6772 60.4465 17.6671C58.8918 16.6569 57.0764 16.0839 55.2034 16.012C53.5516 15.9323 51.9183 16.3783 50.5549 17.2815C49.1915 18.1846 48.1735 19.4949 47.6573 21.0106C44.8332 29.68 51.6259 34.0069 58.1955 38.1916C60.0455 39.3607 61.9503 40.5751 63.6493 41.8799ZM48.7458 21.3592C49.1809 20.0947 50.0262 18.9987 51.1568 18.2334C52.2874 17.4681 53.6432 17.074 55.0239 17.1094H55.1828C57.0721 17.1925 58.8869 17.8448 60.3718 18.9748C61.8567 20.1047 62.937 21.6553 63.4607 23.4085C63.4974 23.5201 63.57 23.6174 63.668 23.6865C63.7659 23.7557 63.8841 23.7929 64.0055 23.7929C64.1268 23.7929 64.245 23.7557 64.343 23.6865C64.4409 23.6174 64.5135 23.5201 64.5503 23.4085C65.0759 21.6537 66.1587 20.102 67.6463 18.9718C69.1339 17.8417 70.9514 17.19 72.843 17.1083H72.9928C74.3688 17.0719 75.7206 17.4631 76.8486 18.2243C77.9766 18.9856 78.821 20.0765 79.2572 21.336C81.8228 29.2112 75.6819 33.1234 69.1797 37.2651C67.4418 38.368 65.649 39.514 64.006 40.746C62.3624 39.5144 60.5713 38.3731 58.8338 37.266L58.8324 37.2651C52.3302 33.1256 46.1881 29.2123 48.7458 21.3592Z" fill="#F66867"/>
<path d="M48.7458 21.3592C49.1809 20.0947 50.0262 18.9987 51.1568 18.2334C52.2874 17.4681 53.6432 17.074 55.0239 17.1094H55.1828C57.0721 17.1925 58.8869 17.8448 60.3718 18.9748C61.8567 20.1047 62.937 21.6553 63.4607 23.4085C63.4974 23.5201 63.57 23.6174 63.668 23.6865C63.7659 23.7557 63.8841 23.7929 64.0055 23.7929C64.1268 23.7929 64.245 23.7557 64.343 23.6865C64.4409 23.6174 64.5135 23.5201 64.5503 23.4085C65.0759 21.6537 66.1587 20.102 67.6463 18.9718C69.1339 17.8417 70.9514 17.19 72.843 17.1083H72.9928C74.3688 17.0719 75.7206 17.4631 76.8486 18.2243C77.9766 18.9856 78.821 20.0765 79.2572 21.336C81.8228 29.2112 75.6819 33.1234 69.1797 37.2651C67.4418 38.368 65.649 39.514 64.006 40.746C62.3624 39.5144 60.5713 38.3731 58.8338 37.266L58.8324 37.2651C52.3302 33.1256 46.1881 29.2123 48.7458 21.3592Z" fill="#F66867"/>
<mask id="path-2-outside-1_38_70" maskUnits="userSpaceOnUse" x="17.3326" y="9.345" width="93" height="35" fill="black">
<rect fill="white" x="17.3326" y="9.345" width="93" height="35"/>
<path d="M24.271 23.414C25.5097 24.1448 26.8807 24.6236 28.3051 24.8229C29.7295 25.0221 31.1792 24.9379 32.571 24.575C33.6842 25.2626 34.8597 25.8438 36.082 26.311C38.2815 27.2202 40.6314 27.711 43.011 27.758C44.222 27.7623 45.4274 27.5939 46.591 27.258C47.898 32.416 52.984 35.778 57.95 39.058C59.882 40.334 61.88 41.653 63.663 43.072C63.7515 43.1425 63.8613 43.1809 63.9745 43.1809C64.0876 43.1809 64.1974 43.1425 64.286 43.072C66.069 41.653 68.067 40.334 69.999 39.058C74.919 35.809 79.96 32.481 81.322 27.395C82.3242 27.6394 83.3523 27.7619 84.384 27.76C86.7641 27.7132 89.1148 27.2239 91.316 26.317C92.5397 25.8518 93.7161 25.2705 94.829 24.581C96.2207 24.944 97.6704 25.0284 99.0949 24.8291C100.519 24.6299 101.89 24.151 103.129 23.42C110.164 19.196 108.998 10.861 108.986 10.777C108.966 10.6459 108.895 10.5279 108.789 10.449C108.682 10.3702 108.549 10.3369 108.417 10.3565C108.286 10.3761 108.168 10.4471 108.089 10.5537C108.011 10.6603 107.977 10.7939 107.997 10.925C108.009 11.002 109.067 18.689 102.615 22.562C100.606 23.7502 98.2409 24.1874 95.94 23.796C98.922 21.456 99.214 19.021 99.098 17.712C98.9891 16.653 98.5992 15.6424 97.9688 14.7846C97.3383 13.9268 96.4901 13.2531 95.512 12.833C94.7318 12.4678 93.8652 12.3275 93.0096 12.4278C92.1541 12.5281 91.3435 12.8652 90.669 13.401C90.061 13.9098 89.5907 14.5631 89.301 15.301C88.9279 16.1111 88.7359 16.9927 88.7384 17.8846C88.7408 18.7764 88.9376 19.657 89.315 20.465C90.2214 22.1855 91.7362 23.5067 93.564 24.171C92.7219 24.6369 91.8485 25.0435 90.95 25.388C87.9909 26.6984 84.6977 27.0569 81.526 26.414C81.8259 24.424 81.6455 22.3911 81 20.485C80.4662 18.8661 79.4159 17.4671 78.0103 16.5026C76.6047 15.5382 74.9215 15.0616 73.219 15.146C71.2365 15.2236 69.3166 15.8612 67.6816 16.985C66.0467 18.1089 64.7636 19.6729 63.981 21.496C63.2003 19.6747 61.9199 18.1118 60.2878 16.988C58.6558 15.8642 56.7389 15.2256 54.759 15.146C53.0526 15.0679 51.3674 15.549 49.9595 16.5163C48.5516 17.4836 47.498 18.8841 46.959 20.505C46.3311 22.3563 46.1411 24.3279 46.404 26.265C43.528 27.127 40.188 26.838 36.458 25.38C35.5603 25.033 34.6871 24.6261 33.844 24.162C35.6715 23.4978 37.186 22.1765 38.092 20.456C38.4692 19.6482 38.666 18.7679 38.6688 17.8763C38.6716 16.9847 38.4802 16.1032 38.108 15.293C37.8166 14.555 37.3449 13.9017 36.736 13.393C36.0597 12.8569 35.2473 12.5201 34.3901 12.4207C33.5329 12.3212 32.665 12.463 31.884 12.83C30.9059 13.2509 30.058 13.9255 29.428 14.784C28.7981 15.6425 28.409 16.6537 28.301 17.713C28.188 19.022 28.482 21.454 31.465 23.79C29.1649 24.179 26.8014 23.7415 24.793 22.555C18.333 18.683 19.392 11 19.4 10.919C19.4097 10.8541 19.4065 10.7879 19.3906 10.7241C19.3748 10.6604 19.3465 10.6005 19.3074 10.5477C19.2684 10.4949 19.2193 10.4503 19.1631 10.4165C19.1068 10.3826 19.0444 10.3602 18.9795 10.3505C18.9145 10.3408 18.8483 10.344 18.7846 10.3598C18.7209 10.3757 18.6609 10.404 18.6081 10.443C18.5553 10.4821 18.5107 10.5311 18.4769 10.5874C18.4431 10.6437 18.4207 10.7061 18.411 10.771C18.4 10.855 17.236 19.19 24.271 23.414ZM90.223 20.022C89.9088 19.3406 89.7466 18.5991 89.7478 17.8487C89.7491 17.0984 89.9136 16.3574 90.23 15.677C90.4562 15.096 90.8236 14.5805 91.299 14.177C91.9253 13.6726 92.7058 13.3984 93.51 13.4C94.0659 13.4041 94.6152 13.5218 95.124 13.746C95.937 14.0934 96.6424 14.6517 97.1672 15.3633C97.692 16.0748 98.0172 16.9136 98.109 17.793C98.29 19.832 97.068 21.848 94.665 23.493C93.7272 23.2475 92.8494 22.813 92.0856 22.2161C91.3217 21.6193 90.6879 20.8726 90.223 20.022ZM47.899 20.822C48.3612 19.4293 49.2593 18.2222 50.4604 17.3793C51.6616 16.5363 53.102 16.1022 54.569 16.141H54.737C56.7371 16.2313 58.6586 16.9465 60.231 18.1861C61.8033 19.4257 62.9473 21.1272 63.502 23.051C63.534 23.1522 63.5974 23.2405 63.683 23.3032C63.7685 23.366 63.8719 23.3999 63.978 23.4C64.0841 23.3999 64.1874 23.366 64.2729 23.3032C64.3585 23.2405 64.4219 23.1522 64.454 23.051C65.0115 21.1257 66.1584 19.4235 67.7335 18.1839C69.3085 16.9442 71.2326 16.2294 73.235 16.14C74.7236 16.0675 76.1952 16.4835 77.4255 17.3248C78.6558 18.1661 79.5774 19.3865 80.05 20.8C82.761 29.424 76.295 33.693 69.45 38.212C67.61 39.427 65.712 40.681 63.977 42.034C62.241 40.681 60.343 39.427 58.503 38.212C51.661 33.7 45.2 29.429 47.9 20.825L47.899 20.822ZM29.291 17.8C29.3819 16.9203 29.7063 16.0809 30.2306 15.3686C30.7549 14.6564 31.46 14.0972 32.273 13.749C32.7858 13.5228 33.3395 13.404 33.9 13.4C34.704 13.3985 35.4842 13.6724 36.111 14.176C36.5876 14.5789 36.9561 15.0945 37.183 15.676C37.4989 16.3563 37.6631 17.0972 37.6643 17.8472C37.6655 18.5973 37.5037 19.3387 37.19 20.02C36.7244 20.8699 36.0902 21.6159 35.3263 22.212C34.5623 22.8082 33.6846 23.242 32.747 23.487C30.337 21.852 29.113 19.838 29.291 17.8Z"/>
</mask>
<path d="M24.271 23.414C25.5097 24.1448 26.8807 24.6236 28.3051 24.8229C29.7295 25.0221 31.1792 24.9379 32.571 24.575C33.6842 25.2626 34.8597 25.8438 36.082 26.311C38.2815 27.2202 40.6314 27.711 43.011 27.758C44.222 27.7623 45.4274 27.5939 46.591 27.258C47.898 32.416 52.984 35.778 57.95 39.058C59.882 40.334 61.88 41.653 63.663 43.072C63.7515 43.1425 63.8613 43.1809 63.9745 43.1809C64.0876 43.1809 64.1974 43.1425 64.286 43.072C66.069 41.653 68.067 40.334 69.999 39.058C74.919 35.809 79.96 32.481 81.322 27.395C82.3242 27.6394 83.3523 27.7619 84.384 27.76C86.7641 27.7132 89.1148 27.2239 91.316 26.317C92.5397 25.8518 93.7161 25.2705 94.829 24.581C96.2207 24.944 97.6704 25.0284 99.0949 24.8291C100.519 24.6299 101.89 24.151 103.129 23.42C110.164 19.196 108.998 10.861 108.986 10.777C108.966 10.6459 108.895 10.5279 108.789 10.449C108.682 10.3702 108.549 10.3369 108.417 10.3565C108.286 10.3761 108.168 10.4471 108.089 10.5537C108.011 10.6603 107.977 10.7939 107.997 10.925C108.009 11.002 109.067 18.689 102.615 22.562C100.606 23.7502 98.2409 24.1874 95.94 23.796C98.922 21.456 99.214 19.021 99.098 17.712C98.9891 16.653 98.5992 15.6424 97.9688 14.7846C97.3383 13.9268 96.4901 13.2531 95.512 12.833C94.7318 12.4678 93.8652 12.3275 93.0096 12.4278C92.1541 12.5281 91.3435 12.8652 90.669 13.401C90.061 13.9098 89.5907 14.5631 89.301 15.301C88.9279 16.1111 88.7359 16.9927 88.7384 17.8846C88.7408 18.7764 88.9376 19.657 89.315 20.465C90.2214 22.1855 91.7362 23.5067 93.564 24.171C92.7219 24.6369 91.8485 25.0435 90.95 25.388C87.9909 26.6984 84.6977 27.0569 81.526 26.414C81.8259 24.424 81.6455 22.3911 81 20.485C80.4662 18.8661 79.4159 17.4671 78.0103 16.5026C76.6047 15.5382 74.9215 15.0616 73.219 15.146C71.2365 15.2236 69.3166 15.8612 67.6816 16.985C66.0467 18.1089 64.7636 19.6729 63.981 21.496C63.2003 19.6747 61.9199 18.1118 60.2878 16.988C58.6558 15.8642 56.7389 15.2256 54.759 15.146C53.0526 15.0679 51.3674 15.549 49.9595 16.5163C48.5516 17.4836 47.498 18.8841 46.959 20.505C46.3311 22.3563 46.1411 24.3279 46.404 26.265C43.528 27.127 40.188 26.838 36.458 25.38C35.5603 25.033 34.6871 24.6261 33.844 24.162C35.6715 23.4978 37.186 22.1765 38.092 20.456C38.4692 19.6482 38.666 18.7679 38.6688 17.8763C38.6716 16.9847 38.4802 16.1032 38.108 15.293C37.8166 14.555 37.3449 13.9017 36.736 13.393C36.0597 12.8569 35.2473 12.5201 34.3901 12.4207C33.5329 12.3212 32.665 12.463 31.884 12.83C30.9059 13.2509 30.058 13.9255 29.428 14.784C28.7981 15.6425 28.409 16.6537 28.301 17.713C28.188 19.022 28.482 21.454 31.465 23.79C29.1649 24.179 26.8014 23.7415 24.793 22.555C18.333 18.683 19.392 11 19.4 10.919C19.4097 10.8541 19.4065 10.7879 19.3906 10.7241C19.3748 10.6604 19.3465 10.6005 19.3074 10.5477C19.2684 10.4949 19.2193 10.4503 19.1631 10.4165C19.1068 10.3826 19.0444 10.3602 18.9795 10.3505C18.9145 10.3408 18.8483 10.344 18.7846 10.3598C18.7209 10.3757 18.6609 10.404 18.6081 10.443C18.5553 10.4821 18.5107 10.5311 18.4769 10.5874C18.4431 10.6437 18.4207 10.7061 18.411 10.771C18.4 10.855 17.236 19.19 24.271 23.414ZM90.223 20.022C89.9088 19.3406 89.7466 18.5991 89.7478 17.8487C89.7491 17.0984 89.9136 16.3574 90.23 15.677C90.4562 15.096 90.8236 14.5805 91.299 14.177C91.9253 13.6726 92.7058 13.3984 93.51 13.4C94.0659 13.4041 94.6152 13.5218 95.124 13.746C95.937 14.0934 96.6424 14.6517 97.1672 15.3633C97.692 16.0748 98.0172 16.9136 98.109 17.793C98.29 19.832 97.068 21.848 94.665 23.493C93.7272 23.2475 92.8494 22.813 92.0856 22.2161C91.3217 21.6193 90.6879 20.8726 90.223 20.022ZM47.899 20.822C48.3612 19.4293 49.2593 18.2222 50.4604 17.3793C51.6616 16.5363 53.102 16.1022 54.569 16.141H54.737C56.7371 16.2313 58.6586 16.9465 60.231 18.1861C61.8033 19.4257 62.9473 21.1272 63.502 23.051C63.534 23.1522 63.5974 23.2405 63.683 23.3032C63.7685 23.366 63.8719 23.3999 63.978 23.4C64.0841 23.3999 64.1874 23.366 64.2729 23.3032C64.3585 23.2405 64.4219 23.1522 64.454 23.051C65.0115 21.1257 66.1584 19.4235 67.7335 18.1839C69.3085 16.9442 71.2326 16.2294 73.235 16.14C74.7236 16.0675 76.1952 16.4835 77.4255 17.3248C78.6558 18.1661 79.5774 19.3865 80.05 20.8C82.761 29.424 76.295 33.693 69.45 38.212C67.61 39.427 65.712 40.681 63.977 42.034C62.241 40.681 60.343 39.427 58.503 38.212C51.661 33.7 45.2 29.429 47.9 20.825L47.899 20.822ZM29.291 17.8C29.3819 16.9203 29.7063 16.0809 30.2306 15.3686C30.7549 14.6564 31.46 14.0972 32.273 13.749C32.7858 13.5228 33.3395 13.404 33.9 13.4C34.704 13.3985 35.4842 13.6724 36.111 14.176C36.5876 14.5789 36.9561 15.0945 37.183 15.676C37.4989 16.3563 37.6631 17.0972 37.6643 17.8472C37.6655 18.5973 37.5037 19.3387 37.19 20.02C36.7244 20.8699 36.0902 21.6159 35.3263 22.212C34.5623 22.8082 33.6846 23.242 32.747 23.487C30.337 21.852 29.113 19.838 29.291 17.8Z" fill="black"/>
<path d="M24.271 23.414C25.5097 24.1448 26.8807 24.6236 28.3051 24.8229C29.7295 25.0221 31.1792 24.9379 32.571 24.575C33.6842 25.2626 34.8597 25.8438 36.082 26.311C38.2815 27.2202 40.6314 27.711 43.011 27.758C44.222 27.7623 45.4274 27.5939 46.591 27.258C47.898 32.416 52.984 35.778 57.95 39.058C59.882 40.334 61.88 41.653 63.663 43.072C63.7515 43.1425 63.8613 43.1809 63.9745 43.1809C64.0876 43.1809 64.1974 43.1425 64.286 43.072C66.069 41.653 68.067 40.334 69.999 39.058C74.919 35.809 79.96 32.481 81.322 27.395C82.3242 27.6394 83.3523 27.7619 84.384 27.76C86.7641 27.7132 89.1148 27.2239 91.316 26.317C92.5397 25.8518 93.7161 25.2705 94.829 24.581C96.2207 24.944 97.6704 25.0284 99.0949 24.8291C100.519 24.6299 101.89 24.151 103.129 23.42C110.164 19.196 108.998 10.861 108.986 10.777C108.966 10.6459 108.895 10.5279 108.789 10.449C108.682 10.3702 108.549 10.3369 108.417 10.3565C108.286 10.3761 108.168 10.4471 108.089 10.5537C108.011 10.6603 107.977 10.7939 107.997 10.925C108.009 11.002 109.067 18.689 102.615 22.562C100.606 23.7502 98.2409 24.1874 95.94 23.796C98.922 21.456 99.214 19.021 99.098 17.712C98.9891 16.653 98.5992 15.6424 97.9688 14.7846C97.3383 13.9268 96.4901 13.2531 95.512 12.833C94.7318 12.4678 93.8652 12.3275 93.0096 12.4278C92.1541 12.5281 91.3435 12.8652 90.669 13.401C90.061 13.9098 89.5907 14.5631 89.301 15.301C88.9279 16.1111 88.7359 16.9927 88.7384 17.8846C88.7408 18.7764 88.9376 19.657 89.315 20.465C90.2214 22.1855 91.7362 23.5067 93.564 24.171C92.7219 24.6369 91.8485 25.0435 90.95 25.388C87.9909 26.6984 84.6977 27.0569 81.526 26.414C81.8259 24.424 81.6455 22.3911 81 20.485C80.4662 18.8661 79.4159 17.4671 78.0103 16.5026C76.6047 15.5382 74.9215 15.0616 73.219 15.146C71.2365 15.2236 69.3166 15.8612 67.6816 16.985C66.0467 18.1089 64.7636 19.6729 63.981 21.496C63.2003 19.6747 61.9199 18.1118 60.2878 16.988C58.6558 15.8642 56.7389 15.2256 54.759 15.146C53.0526 15.0679 51.3674 15.549 49.9595 16.5163C48.5516 17.4836 47.498 18.8841 46.959 20.505C46.3311 22.3563 46.1411 24.3279 46.404 26.265C43.528 27.127 40.188 26.838 36.458 25.38C35.5603 25.033 34.6871 24.6261 33.844 24.162C35.6715 23.4978 37.186 22.1765 38.092 20.456C38.4692 19.6482 38.666 18.7679 38.6688 17.8763C38.6716 16.9847 38.4802 16.1032 38.108 15.293C37.8166 14.555 37.3449 13.9017 36.736 13.393C36.0597 12.8569 35.2473 12.5201 34.3901 12.4207C33.5329 12.3212 32.665 12.463 31.884 12.83C30.9059 13.2509 30.058 13.9255 29.428 14.784C28.7981 15.6425 28.409 16.6537 28.301 17.713C28.188 19.022 28.482 21.454 31.465 23.79C29.1649 24.179 26.8014 23.7415 24.793 22.555C18.333 18.683 19.392 11 19.4 10.919C19.4097 10.8541 19.4065 10.7879 19.3906 10.7241C19.3748 10.6604 19.3465 10.6005 19.3074 10.5477C19.2684 10.4949 19.2193 10.4503 19.1631 10.4165C19.1068 10.3826 19.0444 10.3602 18.9795 10.3505C18.9145 10.3408 18.8483 10.344 18.7846 10.3598C18.7209 10.3757 18.6609 10.404 18.6081 10.443C18.5553 10.4821 18.5107 10.5311 18.4769 10.5874C18.4431 10.6437 18.4207 10.7061 18.411 10.771C18.4 10.855 17.236 19.19 24.271 23.414ZM90.223 20.022C89.9088 19.3406 89.7466 18.5991 89.7478 17.8487C89.7491 17.0984 89.9136 16.3574 90.23 15.677C90.4562 15.096 90.8236 14.5805 91.299 14.177C91.9253 13.6726 92.7058 13.3984 93.51 13.4C94.0659 13.4041 94.6152 13.5218 95.124 13.746C95.937 14.0934 96.6424 14.6517 97.1672 15.3633C97.692 16.0748 98.0172 16.9136 98.109 17.793C98.29 19.832 97.068 21.848 94.665 23.493C93.7272 23.2475 92.8494 22.813 92.0856 22.2161C91.3217 21.6193 90.6879 20.8726 90.223 20.022ZM47.899 20.822C48.3612 19.4293 49.2593 18.2222 50.4604 17.3793C51.6616 16.5363 53.102 16.1022 54.569 16.141H54.737C56.7371 16.2313 58.6586 16.9465 60.231 18.1861C61.8033 19.4257 62.9473 21.1272 63.502 23.051C63.534 23.1522 63.5974 23.2405 63.683 23.3032C63.7685 23.366 63.8719 23.3999 63.978 23.4C64.0841 23.3999 64.1874 23.366 64.2729 23.3032C64.3585 23.2405 64.4219 23.1522 64.454 23.051C65.0115 21.1257 66.1584 19.4235 67.7335 18.1839C69.3085 16.9442 71.2326 16.2294 73.235 16.14C74.7236 16.0675 76.1952 16.4835 77.4255 17.3248C78.6558 18.1661 79.5774 19.3865 80.05 20.8C82.761 29.424 76.295 33.693 69.45 38.212C67.61 39.427 65.712 40.681 63.977 42.034C62.241 40.681 60.343 39.427 58.503 38.212C51.661 33.7 45.2 29.429 47.9 20.825L47.899 20.822ZM29.291 17.8C29.3819 16.9203 29.7063 16.0809 30.2306 15.3686C30.7549 14.6564 31.46 14.0972 32.273 13.749C32.7858 13.5228 33.3395 13.404 33.9 13.4C34.704 13.3985 35.4842 13.6724 36.111 14.176C36.5876 14.5789 36.9561 15.0945 37.183 15.676C37.4989 16.3563 37.6631 17.0972 37.6643 17.8472C37.6655 18.5973 37.5037 19.3387 37.19 20.02C36.7244 20.8699 36.0902 21.6159 35.3263 22.212C34.5623 22.8082 33.6846 23.242 32.747 23.487C30.337 21.852 29.113 19.838 29.291 17.8Z" stroke="black" stroke-width="0.6" mask="url(#path-2-outside-1_38_70)"/>
<mask id="path-3-outside-2_38_70" maskUnits="userSpaceOnUse" x="6.22076" y="31.232" width="116" height="87" fill="black">
<rect fill="white" x="6.22076" y="31.232" width="116" height="87"/>
<path d="M9.63462 83.132C9.68112 82.4735 9.87064 81.8332 10.19 81.2554C10.5093 80.6777 10.9508 80.1766 11.4836 79.787C13.0962 78.7609 14.9124 78.0973 16.8066 77.842C19.4396 77.381 23.0706 76.726 26.3496 76.134L26.3996 76.125C26.4284 76.0701 26.4674 76.0212 26.5146 75.981C27.2452 75.4179 28.0966 75.0321 29.0016 74.854V72.174C26.0196 71.209 22.7466 69.551 21.5646 66.756C21.2968 66.006 21.0849 65.2373 20.9306 64.456C20.0972 64.1351 19.35 63.6247 18.7479 62.9652C18.1458 62.3057 17.7054 61.5151 17.4616 60.656C17.1991 59.9674 17.0993 59.2274 17.1699 58.4938C17.2405 57.7603 17.4796 57.0529 17.8686 56.427C17.9656 56.3043 18.0723 56.1896 18.1876 56.084C17.382 53.4688 17.0388 50.7331 17.1736 48C17.2721 44.7358 18.3076 41.5688 20.1566 38.877C23.2236 34.468 28.0666 32.232 34.5516 32.232C50.5786 32.232 54.8456 44.65 54.8876 44.776C54.9123 44.8511 54.9188 44.931 54.9066 45.009C54.8944 45.0871 54.8639 45.1612 54.8176 45.2252C54.7712 45.2893 54.7103 45.3414 54.6399 45.3773C54.5696 45.4132 54.4917 45.432 54.4126 45.432H53.6266C54.0953 47.3692 54.1423 49.3845 53.7645 51.3415C53.3866 53.2985 52.5928 55.1515 51.4366 56.775C52.0016 57.9901 52.0666 59.3785 51.6176 60.641C51.3743 61.5017 50.9336 62.2938 50.3306 62.9543C49.7275 63.6148 48.9787 64.1256 48.1436 64.446C47.9874 65.237 47.7731 66.0154 47.5026 66.775C46.3256 69.555 43.0536 71.209 40.0716 72.175V74.53C40.9348 74.6406 41.7441 75.0106 42.3926 75.591C42.5531 75.7374 42.6707 75.9248 42.7326 76.133C46.0146 76.733 49.6406 77.381 52.2786 77.843C53.8057 78.0804 55.2869 78.5526 56.6696 79.243L57.6156 70.79L57.6726 70.43C60.2786 53.904 68.4496 46.871 75.0266 43.88L74.5516 43.08C74.5105 43.0105 74.4868 42.932 74.4826 42.8513C74.4784 42.7706 74.4938 42.6901 74.5275 42.6167C74.5612 42.5432 74.6122 42.4791 74.6762 42.4297C74.7401 42.3803 74.8151 42.3471 74.8946 42.333L78.3946 41.712L79.4146 38.952C79.4394 38.8849 79.4783 38.8239 79.5287 38.7731C79.5791 38.7223 79.6398 38.6829 79.7068 38.6576C79.7737 38.6323 79.8453 38.6216 79.9167 38.6264C79.9881 38.6311 80.0576 38.6511 80.1206 38.685L82.9686 40.213L86.5686 37.486C86.6552 37.4211 86.7604 37.386 86.8686 37.386C86.9768 37.386 87.0821 37.4211 87.1686 37.486L90.7826 40.213L93.6196 38.685C93.6825 38.651 93.7519 38.631 93.8232 38.6261C93.8945 38.6212 93.966 38.6317 94.0329 38.6568C94.0998 38.6819 94.1606 38.7211 94.2111 38.7717C94.2616 38.8222 94.3006 38.8831 94.3256 38.95L95.3556 41.712L98.8556 42.333C98.9352 42.3472 99.0102 42.3805 99.0742 42.43C99.1381 42.4795 99.1891 42.5438 99.2227 42.6173C99.2563 42.6909 99.2716 42.7715 99.2672 42.8523C99.2629 42.933 99.239 43.0115 99.1976 43.081L98.6976 43.912C105.261 46.926 113.383 53.971 115.977 70.434L121.218 117.026C121.226 117.096 121.218 117.167 121.197 117.235C121.175 117.302 121.14 117.364 121.093 117.416C121.045 117.469 120.987 117.511 120.923 117.539C120.858 117.568 120.788 117.582 120.718 117.582H62.0466C61.9731 117.627 61.889 117.653 61.8026 117.655H7.28262C7.21327 117.655 7.14463 117.641 7.08105 117.613C7.01748 117.586 6.96037 117.545 6.91335 117.494C6.86632 117.443 6.83041 117.383 6.80791 117.317C6.7854 117.252 6.77679 117.182 6.78262 117.113L9.63462 83.132ZM21.7776 86.452C21.0825 88.5753 21.2289 90.8845 22.1866 92.903C24.8181 98.4434 28.492 103.425 33.0076 107.576C33.2207 107.559 33.4265 107.491 33.607 107.377C33.7876 107.262 33.9375 107.106 34.0436 106.92V103.47L28.7166 83.407C27.6901 81.8072 26.951 80.0402 26.5326 78.186C24.6296 79.861 23.0306 82.629 21.7776 86.452ZM42.6276 78.252C42.2715 80.1254 41.4947 81.8936 40.3556 83.423L35.0436 103.471V106.924C35.1485 107.108 35.2966 107.263 35.4753 107.377C35.6539 107.491 35.8576 107.559 36.0686 107.576C40.5873 103.427 44.2616 98.4433 46.8896 92.9C47.8475 90.8808 47.9936 88.5708 47.2976 86.447C46.0526 82.667 44.4826 79.921 42.6276 78.252ZM37.2656 81.472C37.2656 81.489 37.2656 81.507 37.2656 81.524C37.2492 81.5957 37.2168 81.6627 37.171 81.7202C37.1251 81.7777 37.0669 81.8241 37.0006 81.856L38.7016 85.74L39.3256 83.386C38.5816 82.737 37.8886 82.101 37.2656 81.472ZM33.4056 77.884C32.8708 78.8409 32.652 79.9423 32.7806 81.031C33.9453 81.3195 35.1629 81.3195 36.3276 81.031C36.4559 79.942 36.235 78.8403 35.6966 77.885L33.4056 77.884ZM29.7466 83.384L30.3806 85.775L32.1076 81.85C32.0423 81.8182 31.9851 81.7721 31.94 81.7152C31.895 81.6582 31.8634 81.5919 31.8476 81.521C31.8426 81.496 31.8476 81.47 31.8396 81.444C31.2276 82.06 30.5326 82.7 29.7466 83.386V83.384ZM38.2966 87.284L36.0116 82.1C35.5275 82.1916 35.0363 82.2405 34.5436 82.246C34.0556 82.241 33.569 82.1925 33.0896 82.101L30.7896 87.324L34.5406 101.453L38.2966 87.284ZM29.3066 82.439C30.1692 81.6906 30.9929 80.8985 31.7746 80.066C31.8425 79.0304 32.1506 78.0248 32.6746 77.129C32.7122 77.0692 32.762 77.0181 32.8208 76.979C32.8796 76.9398 32.946 76.9136 33.0156 76.902C32.2291 76.3765 31.3723 75.9648 30.4706 75.679C29.3528 75.6552 28.2555 75.9818 27.3326 76.613C27.5252 78.6839 28.1995 80.6812 29.3016 82.445L29.3066 82.439ZM18.4196 60.352C18.775 61.5835 19.6014 62.6254 20.7196 63.252C20.4018 61.0518 20.249 58.831 20.2626 56.608C20.083 56.5257 19.8872 56.4846 19.6896 56.4877C19.492 56.4909 19.2976 56.5381 19.1206 56.626C19.1068 56.6358 19.0924 56.6448 19.0776 56.653C18.9162 56.7555 18.7743 56.8858 18.6586 57.038C18.377 57.5397 18.2095 58.0974 18.1682 58.6713C18.1269 59.2452 18.2127 59.8211 18.4196 60.358V60.352ZM52.5586 45.307L51.2176 44.771C51.0944 44.7218 50.9958 44.6257 50.9435 44.5038C50.8912 44.3819 50.8894 44.2442 50.9386 44.121C50.9878 43.9978 51.0839 43.8992 51.2058 43.8469C51.3277 43.7946 51.4654 43.7928 51.5886 43.842L53.0706 44.435H53.6706C52.5626 41.946 47.7406 33.235 34.5506 33.235C29.0886 33.235 24.8506 34.905 21.9566 38.199C19.6516 40.9094 18.3094 44.307 18.1396 47.861C18.1645 47.9267 18.1747 47.997 18.1696 48.067C18.0546 50.6054 18.3587 53.1455 19.0696 55.585C19.4597 55.4774 19.8712 55.4747 20.2626 55.577C20.2776 54.757 20.3056 54.224 20.3106 54.144C20.3156 54.055 20.3443 53.9689 20.3937 53.8947C20.4431 53.8205 20.5114 53.7609 20.5916 53.722C22.4071 52.8003 23.976 51.4578 25.1674 49.8067C26.3588 48.1556 27.1382 46.2435 27.4406 44.23C27.4553 44.1295 27.5003 44.0358 27.5696 43.9615C27.6389 43.8871 27.7292 43.8357 27.8285 43.814C27.9277 43.7922 28.0313 43.8013 28.1253 43.8399C28.2192 43.8785 28.2993 43.9448 28.3546 44.03C32.1046 49.803 39.5546 53.406 48.2736 53.668C48.3076 53.6717 48.3412 53.6791 48.3736 53.69C48.418 53.6835 48.4632 53.6835 48.5076 53.69C49.0904 53.8126 49.6909 53.8262 50.2786 53.73C50.4071 53.6992 50.5425 53.7205 50.6553 53.7892C50.768 53.8579 50.8491 53.9685 50.8806 54.0967C50.9122 54.225 50.8917 54.3605 50.8237 54.4737C50.7557 54.5869 50.6457 54.6686 50.5176 54.701C50.2056 54.7657 49.8873 54.7956 49.5686 54.79C49.3058 54.7864 49.0434 54.768 48.7826 54.735C48.7906 54.962 48.7986 55.235 48.8046 55.574C49.14 55.4822 49.4924 55.4718 49.8326 55.5437C50.1728 55.6155 50.491 55.7675 50.7606 55.987C51.8141 54.4424 52.5204 52.6879 52.8308 50.8442C53.1412 49.0005 53.0483 47.1114 52.5586 45.307ZM50.6636 60.349C50.8711 59.8155 50.9569 59.2424 50.9148 58.6716C50.8728 58.1007 50.704 57.5464 50.4206 57.049C50.2487 56.7986 49.9933 56.6177 49.7001 56.5385C49.4069 56.4593 49.0952 56.4872 48.8206 56.617C48.8336 58.8403 48.6805 61.0615 48.3626 63.262C49.4838 62.6324 50.3108 61.5854 50.6636 60.349ZM46.5736 66.41C47.9596 62.664 47.8456 56.388 47.7836 54.655C39.4266 54.291 32.2286 50.93 28.2006 45.555C27.7478 47.4477 26.8987 49.2229 25.7093 50.7632C24.5199 52.3036 23.0173 53.5742 21.3006 54.491C21.1621 57.656 21.3447 60.8268 21.8456 63.955C21.857 63.9904 21.8644 64.027 21.8676 64.064C22.0154 64.8551 22.2257 65.6332 22.4966 66.391C23.5776 68.946 26.7966 70.465 29.6606 71.34C29.6772 71.3441 29.6936 71.3491 29.7096 71.355C30.7306 71.665 31.7096 71.894 32.5206 72.055C33.8529 72.323 35.2253 72.323 36.5576 72.055C37.3706 71.893 38.3446 71.664 39.3636 71.355C39.3838 71.3472 39.4045 71.3408 39.4256 71.336C42.2896 70.461 45.5016 68.947 46.5736 66.41ZM36.7536 73.035C35.2919 73.3283 33.7864 73.3283 32.3246 73.035C31.6386 72.898 30.8436 72.713 30.0036 72.476V74.721C30.1656 74.71 30.3216 74.685 30.4886 74.685C30.5539 74.6815 30.6194 74.6882 30.6826 74.705C32.085 75.1481 33.3935 75.8461 34.5426 76.764C35.6717 75.8535 36.9603 75.1611 38.3426 74.722C38.5771 74.6304 38.8219 74.5679 39.0716 74.536V72.477C38.2336 72.713 37.4386 72.9 36.7536 73.035ZM41.7536 76.366C41.3462 75.99 40.8472 75.7275 40.3066 75.6046C39.7659 75.4818 39.2025 75.503 38.6726 75.666C37.7503 75.9503 36.8744 76.3677 36.0726 76.905C36.1449 76.9149 36.2142 76.9406 36.2755 76.9802C36.3368 77.0197 36.3887 77.0722 36.4276 77.134C36.9623 78.0375 37.2746 79.0551 37.3386 80.103C38.0526 80.866 38.8746 81.66 39.8016 82.472C41.0959 80.712 41.7821 78.5785 41.7566 76.394L41.7536 76.366ZM58.6616 70.587L57.6016 80.019C57.6072 80.0848 57.5998 80.1511 57.5796 80.214L53.5016 116.582H61.5256C61.5336 116.582 61.5396 116.57 61.5476 116.566C63.4194 109.846 64.724 102.982 65.4476 96.044C66.6866 84.018 71.9476 83.644 76.2306 83.344C79.9956 83.081 82.8606 82.306 82.6716 75.389C81.0444 74.8931 79.5594 74.0154 78.3403 72.8291C77.1213 71.6427 76.2035 70.1821 75.6636 68.569C75.3539 68.5503 75.0462 68.5064 74.7436 68.438C74.9826 69.1661 75.3051 69.8641 75.7046 70.518C79.0926 76.024 76.4166 79.843 76.3046 80.002C76.2588 80.0654 76.1987 80.1171 76.1292 80.1531C76.0598 80.189 75.9828 80.2082 75.9046 80.209C75.8127 80.2091 75.7225 80.1838 75.644 80.1359C75.5655 80.0881 75.5017 80.0195 75.4596 79.9378C75.4175 79.856 75.3988 79.7642 75.4055 79.6725C75.4122 79.5808 75.4441 79.4928 75.4976 79.418C75.5976 79.279 77.8846 75.956 74.8616 71.042C74.2847 70.105 73.85 69.0876 73.5716 68.023C72.4837 67.4819 71.6126 66.5864 71.1016 65.484C70.2746 63.753 70.3016 61.71 71.1596 60.625C71.2901 60.4615 71.4398 60.3145 71.6056 60.187C71.0546 56.949 70.9936 52.442 73.5946 48.735C74.3438 47.6895 75.251 46.7668 76.2836 46L75.5436 44.752C69.1766 47.614 61.2126 54.412 58.6616 70.587ZM99.3326 49.31C97.2076 46.282 93.4826 44.31 88.2616 43.438C87.3421 43.2865 86.4041 43.2865 85.4846 43.438C80.2636 44.306 76.5386 46.282 74.4146 49.31C72.0716 52.649 72.0706 56.748 72.5516 59.776C73.0694 59.7117 73.5945 59.8036 74.0596 60.04C74.0946 59.947 74.1286 59.856 74.1596 59.785C74.1596 59.746 74.1596 59.711 74.1546 59.673C74.1527 59.5545 74.193 59.4391 74.2683 59.3475C74.3436 59.2559 74.449 59.1941 74.5656 59.173C80.0956 58.173 83.9716 54.801 86.4156 48.857C86.4594 48.7722 86.5257 48.7011 86.6072 48.6515C86.6886 48.6019 86.7822 48.5756 86.8776 48.5756C86.973 48.5756 87.0666 48.6019 87.1481 48.6515C87.2296 48.7011 87.2958 48.7722 87.3396 48.857C89.7836 54.801 93.6596 58.176 99.1896 59.173C99.2046 59.173 99.2176 59.185 99.2326 59.189C99.259 59.1967 99.2847 59.2064 99.3096 59.218C99.3399 59.2326 99.3687 59.25 99.3956 59.27C99.4173 59.2857 99.4377 59.3031 99.4566 59.322C99.4817 59.3493 99.5038 59.3791 99.5226 59.411C99.5316 59.426 99.5456 59.437 99.5536 59.453C99.5726 59.493 99.6616 59.695 99.7786 60.006C100.22 59.7984 100.712 59.7214 101.197 59.784C101.676 56.752 101.677 52.651 99.3326 49.31ZM74.3646 62.892C74.1186 64.3633 74.145 65.8673 74.4426 67.329C74.7214 67.4236 75.0088 67.4906 75.3006 67.529C74.8364 66.018 74.5229 64.4648 74.3646 62.892ZM73.7476 60.992C72.6196 60.408 72.1236 61.018 71.9476 61.245C71.6394 61.8342 71.4829 62.4909 71.4923 63.1558C71.5018 63.8207 71.6768 64.4728 72.0016 65.053C72.3044 65.6935 72.7489 66.2567 73.3016 66.7C73.0517 64.7873 73.2036 62.8426 73.7476 60.992ZM101.802 61.245C101.612 60.9824 101.326 60.8052 101.006 60.7518C100.686 60.6985 100.359 60.7733 100.094 60.96C100.634 62.7884 100.794 64.7085 100.562 66.601C101.054 66.1765 101.454 65.6545 101.735 65.068C102.063 64.4865 102.241 63.8325 102.252 63.165C102.264 62.4975 102.109 61.8376 101.802 61.245ZM99.4236 62.515C99.275 64.2175 98.9482 65.8997 98.4486 67.534C98.7797 67.4882 99.1045 67.4047 99.4166 67.285C99.7279 65.7104 99.7299 64.0903 99.4226 62.515H99.4236ZM97.2806 67.963C97.2867 67.9352 97.2954 67.9081 97.3066 67.882C98.1367 65.3614 98.5689 62.7267 98.5876 60.073C93.2546 58.986 89.4116 55.779 86.8756 50.294C84.3396 55.779 80.4966 58.986 75.1636 60.073C75.1821 62.7299 75.6153 65.3677 76.4476 67.891C76.454 67.9076 76.4593 67.9247 76.4636 67.942C78.1786 72.642 81.5896 74.922 86.8636 75.005C92.1476 74.922 95.5626 72.649 97.2806 67.963ZM86.8676 76.005C85.7915 75.9921 84.7194 75.8708 83.6676 75.643C83.7736 83.156 80.0956 84.078 76.2496 84.343C71.9926 84.643 67.5906 84.952 66.4376 96.143C66.0156 100.273 65.3876 104.109 64.7516 107.35L73.1046 112.316C73.6957 110.4 74.5603 108.579 75.6716 106.91C74.0336 103.91 73.2536 99.87 73.2216 94.244C73.2146 93.098 73.2376 91.863 73.2916 90.469C73.2956 90.3624 73.3335 90.2599 73.3999 90.1764C73.4663 90.0929 73.5577 90.0329 73.6606 90.005C78.8606 88.599 83.1866 88.94 86.8716 91.046C90.5576 88.94 94.8836 88.601 100.083 90.005C100.186 90.0327 100.277 90.0927 100.344 90.1762C100.41 90.2597 100.449 90.3623 100.453 90.469C100.506 91.863 100.529 93.098 100.523 94.244C100.49 99.871 99.7096 103.909 98.0726 106.91C99.1901 108.588 100.058 110.42 100.65 112.348L109.105 107.937C108.43 104.578 107.75 100.524 107.305 96.143C106.162 84.953 101.755 84.643 97.4466 84.343C93.6466 84.077 89.9686 83.153 90.0746 75.643C89.0201 75.871 87.9464 75.9923 86.8676 76.005ZM72.0406 116.5C72.2686 115.359 72.5246 114.3 72.8096 113.31L64.5456 108.397C63.7386 112.344 62.9556 115.269 62.6076 116.497L72.0406 116.5ZM97.3016 107.571C94.0417 109.121 90.4823 109.94 86.8726 109.971C83.2629 109.94 79.7036 109.121 76.4436 107.571C74.7369 110.293 73.5848 113.325 73.0536 116.494H100.694C100.163 113.325 99.0099 110.292 97.3016 107.571ZM99.5126 92.488C99.5026 91.973 99.4896 91.443 99.4696 90.88C94.5846 89.628 90.5456 90.013 87.1316 92.057C87.054 92.1035 86.9651 92.1281 86.8746 92.1281C86.7841 92.1281 86.6953 92.1035 86.6176 92.057C83.2046 90.014 79.1646 89.628 74.2796 90.88C74.2606 91.443 74.2466 91.972 74.2376 92.487C74.2376 92.629 74.2376 92.765 74.2376 92.904C74.2376 93.123 74.2376 93.331 74.2376 93.542C77.8606 92.357 83.6206 91.486 86.8836 96.21C87.6984 95.0377 88.7981 94.0921 90.0792 93.4623C91.3604 92.8325 92.7808 92.5392 94.2066 92.61C96.019 92.6444 97.815 92.9598 99.5306 93.545C99.5306 93.334 99.5306 93.126 99.5306 92.907C99.5156 92.766 99.5146 92.63 99.5126 92.488ZM87.3076 97.4C87.2637 97.476 87.2006 97.5391 87.1246 97.583C87.0486 97.6269 86.9624 97.65 86.8746 97.65C86.7869 97.65 86.7006 97.6269 86.6246 97.583C86.5486 97.5391 86.4855 97.476 86.4416 97.4C83.5416 92.368 77.6896 93.414 74.2326 94.6C74.2956 99.945 75.0586 103.761 76.6276 106.558C79.812 108.14 83.3194 108.963 86.8751 108.963C90.4308 108.963 93.9382 108.14 97.1226 106.558C98.6906 103.758 99.4536 99.945 99.5176 94.6C96.0606 93.411 90.2086 92.365 87.3076 97.4ZM109.317 108.959L100.946 113.326C101.229 114.31 101.483 115.362 101.709 116.495H111.138C110.808 115.323 110.082 112.62 109.317 108.959ZM94.9016 42.647C94.816 42.6318 94.7359 42.5946 94.6691 42.539C94.6023 42.4834 94.5511 42.4114 94.5206 42.33L93.5906 39.837L90.9766 41.246C90.8922 41.2914 90.7965 41.3116 90.701 41.3041C90.6054 41.2967 90.514 41.2619 90.4376 41.204L86.8696 38.511L83.3156 41.2C83.2393 41.2579 83.1478 41.2927 83.0523 41.3001C82.9567 41.3076 82.861 41.2874 82.7766 41.242L80.1526 39.833L79.2326 42.324C79.2023 42.4059 79.1511 42.4784 79.0841 42.5344C79.0171 42.5904 78.9366 42.6278 78.8506 42.643L75.7816 43.187L77.1016 45.414C79.6083 43.8686 82.4083 42.86 85.3246 42.452C86.351 42.2823 87.3983 42.2823 88.4246 42.452C91.3413 42.8599 94.1417 43.8684 96.6486 45.414L97.9736 43.191L94.9016 42.647ZM115.057 70.953L115.002 70.59C112.463 54.474 104.547 47.665 98.1926 44.782L97.4636 46C98.4959 46.767 99.4024 47.6901 100.151 48.736C102.751 52.443 102.691 56.949 102.139 60.188C102.305 60.3152 102.455 60.4623 102.586 60.626C103.448 61.718 103.469 63.769 102.636 65.502C102.146 66.5522 101.328 67.4153 100.307 67.962C100.029 69.0492 99.5894 70.0883 99.0016 71.044C95.9786 75.958 98.2666 79.281 98.3656 79.42C98.4431 79.5277 98.4746 79.6617 98.4532 79.7926C98.4318 79.9235 98.3593 80.0405 98.2516 80.118C98.1439 80.1954 98.0099 80.2269 97.879 80.2056C97.7481 80.1842 97.6311 80.1117 97.5536 80.004C97.4386 79.845 94.7626 76.026 98.1536 70.52C98.5569 69.8601 98.8818 69.1553 99.1216 68.42C98.7843 68.5021 98.4402 68.5533 98.0936 68.573C97.5531 70.1859 96.6349 71.6462 95.4155 72.8321C94.1961 74.0181 92.7109 74.8955 91.0836 75.391C90.8946 82.308 93.7606 83.084 97.5706 83.351C101.807 83.651 107.079 84.018 108.308 96.045C109.031 102.988 110.335 109.858 112.208 116.583H120.162L115.057 70.953ZM17.1746 116.653V93.7C17.1746 93.5674 17.2273 93.4402 17.3211 93.3464C17.4148 93.2527 17.542 93.2 17.6746 93.2C17.8072 93.2 17.9344 93.2527 18.0282 93.3464C18.1219 93.4402 18.1746 93.5674 18.1746 93.7V116.659H50.9016V93.7C50.9016 93.5674 50.9543 93.4402 51.0481 93.3464C51.1418 93.2527 51.269 93.2 51.4016 93.2C51.5342 93.2 51.6614 93.2527 51.7552 93.3464C51.8489 93.4402 51.9016 93.5674 51.9016 93.7V116.659H52.4826L56.5496 80.322C55.1679 79.5628 53.6615 79.0568 52.1016 78.828C49.5546 78.381 46.0866 77.763 42.8946 77.18C45.0576 78.933 46.8586 81.933 48.2426 86.138C49.0184 88.5038 48.8566 91.077 47.7906 93.327C45.0735 99.0584 41.2624 104.204 36.5716 108.473C36.4792 108.558 36.3582 108.605 36.2326 108.605H36.1766C35.5642 108.562 34.9858 108.307 34.5406 107.884C34.0928 108.307 33.5127 108.561 32.8986 108.605C32.88 108.606 32.8613 108.606 32.8426 108.605C32.7169 108.605 32.5959 108.557 32.5036 108.472C27.8139 104.201 24.0015 99.0566 21.2796 93.327C20.2146 91.0771 20.0528 88.5045 20.8276 86.139C22.2016 81.949 24.0046 78.95 26.1826 77.181C22.9936 77.756 19.5226 78.381 16.9826 78.828C15.2362 79.0632 13.5599 79.668 12.0656 80.602C11.6513 80.9077 11.3086 81.3 11.0613 81.7516C10.814 82.2032 10.6681 82.7033 10.6336 83.217L7.83362 116.655L17.1746 116.653Z"/>
</mask>
<path d="M9.63462 83.132C9.68112 82.4735 9.87064 81.8332 10.19 81.2554C10.5093 80.6777 10.9508 80.1766 11.4836 79.787C13.0962 78.7609 14.9124 78.0973 16.8066 77.842C19.4396 77.381 23.0706 76.726 26.3496 76.134L26.3996 76.125C26.4284 76.0701 26.4674 76.0212 26.5146 75.981C27.2452 75.4179 28.0966 75.0321 29.0016 74.854V72.174C26.0196 71.209 22.7466 69.551 21.5646 66.756C21.2968 66.006 21.0849 65.2373 20.9306 64.456C20.0972 64.1351 19.35 63.6247 18.7479 62.9652C18.1458 62.3057 17.7054 61.5151 17.4616 60.656C17.1991 59.9674 17.0993 59.2274 17.1699 58.4938C17.2405 57.7603 17.4796 57.0529 17.8686 56.427C17.9656 56.3043 18.0723 56.1896 18.1876 56.084C17.382 53.4688 17.0388 50.7331 17.1736 48C17.2721 44.7358 18.3076 41.5688 20.1566 38.877C23.2236 34.468 28.0666 32.232 34.5516 32.232C50.5786 32.232 54.8456 44.65 54.8876 44.776C54.9123 44.8511 54.9188 44.931 54.9066 45.009C54.8944 45.0871 54.8639 45.1612 54.8176 45.2252C54.7712 45.2893 54.7103 45.3414 54.6399 45.3773C54.5696 45.4132 54.4917 45.432 54.4126 45.432H53.6266C54.0953 47.3692 54.1423 49.3845 53.7645 51.3415C53.3866 53.2985 52.5928 55.1515 51.4366 56.775C52.0016 57.9901 52.0666 59.3785 51.6176 60.641C51.3743 61.5017 50.9336 62.2938 50.3306 62.9543C49.7275 63.6148 48.9787 64.1256 48.1436 64.446C47.9874 65.237 47.7731 66.0154 47.5026 66.775C46.3256 69.555 43.0536 71.209 40.0716 72.175V74.53C40.9348 74.6406 41.7441 75.0106 42.3926 75.591C42.5531 75.7374 42.6707 75.9248 42.7326 76.133C46.0146 76.733 49.6406 77.381 52.2786 77.843C53.8057 78.0804 55.2869 78.5526 56.6696 79.243L57.6156 70.79L57.6726 70.43C60.2786 53.904 68.4496 46.871 75.0266 43.88L74.5516 43.08C74.5105 43.0105 74.4868 42.932 74.4826 42.8513C74.4784 42.7706 74.4938 42.6901 74.5275 42.6167C74.5612 42.5432 74.6122 42.4791 74.6762 42.4297C74.7401 42.3803 74.8151 42.3471 74.8946 42.333L78.3946 41.712L79.4146 38.952C79.4394 38.8849 79.4783 38.8239 79.5287 38.7731C79.5791 38.7223 79.6398 38.6829 79.7068 38.6576C79.7737 38.6323 79.8453 38.6216 79.9167 38.6264C79.9881 38.6311 80.0576 38.6511 80.1206 38.685L82.9686 40.213L86.5686 37.486C86.6552 37.4211 86.7604 37.386 86.8686 37.386C86.9768 37.386 87.0821 37.4211 87.1686 37.486L90.7826 40.213L93.6196 38.685C93.6825 38.651 93.7519 38.631 93.8232 38.6261C93.8945 38.6212 93.966 38.6317 94.0329 38.6568C94.0998 38.6819 94.1606 38.7211 94.2111 38.7717C94.2616 38.8222 94.3006 38.8831 94.3256 38.95L95.3556 41.712L98.8556 42.333C98.9352 42.3472 99.0102 42.3805 99.0742 42.43C99.1381 42.4795 99.1891 42.5438 99.2227 42.6173C99.2563 42.6909 99.2716 42.7715 99.2672 42.8523C99.2629 42.933 99.239 43.0115 99.1976 43.081L98.6976 43.912C105.261 46.926 113.383 53.971 115.977 70.434L121.218 117.026C121.226 117.096 121.218 117.167 121.197 117.235C121.175 117.302 121.14 117.364 121.093 117.416C121.045 117.469 120.987 117.511 120.923 117.539C120.858 117.568 120.788 117.582 120.718 117.582H62.0466C61.9731 117.627 61.889 117.653 61.8026 117.655H7.28262C7.21327 117.655 7.14463 117.641 7.08105 117.613C7.01748 117.586 6.96037 117.545 6.91335 117.494C6.86632 117.443 6.83041 117.383 6.80791 117.317C6.7854 117.252 6.77679 117.182 6.78262 117.113L9.63462 83.132ZM21.7776 86.452C21.0825 88.5753 21.2289 90.8845 22.1866 92.903C24.8181 98.4434 28.492 103.425 33.0076 107.576C33.2207 107.559 33.4265 107.491 33.607 107.377C33.7876 107.262 33.9375 107.106 34.0436 106.92V103.47L28.7166 83.407C27.6901 81.8072 26.951 80.0402 26.5326 78.186C24.6296 79.861 23.0306 82.629 21.7776 86.452ZM42.6276 78.252C42.2715 80.1254 41.4947 81.8936 40.3556 83.423L35.0436 103.471V106.924C35.1485 107.108 35.2966 107.263 35.4753 107.377C35.6539 107.491 35.8576 107.559 36.0686 107.576C40.5873 103.427 44.2616 98.4433 46.8896 92.9C47.8475 90.8808 47.9936 88.5708 47.2976 86.447C46.0526 82.667 44.4826 79.921 42.6276 78.252ZM37.2656 81.472C37.2656 81.489 37.2656 81.507 37.2656 81.524C37.2492 81.5957 37.2168 81.6627 37.171 81.7202C37.1251 81.7777 37.0669 81.8241 37.0006 81.856L38.7016 85.74L39.3256 83.386C38.5816 82.737 37.8886 82.101 37.2656 81.472ZM33.4056 77.884C32.8708 78.8409 32.652 79.9423 32.7806 81.031C33.9453 81.3195 35.1629 81.3195 36.3276 81.031C36.4559 79.942 36.235 78.8403 35.6966 77.885L33.4056 77.884ZM29.7466 83.384L30.3806 85.775L32.1076 81.85C32.0423 81.8182 31.9851 81.7721 31.94 81.7152C31.895 81.6582 31.8634 81.5919 31.8476 81.521C31.8426 81.496 31.8476 81.47 31.8396 81.444C31.2276 82.06 30.5326 82.7 29.7466 83.386V83.384ZM38.2966 87.284L36.0116 82.1C35.5275 82.1916 35.0363 82.2405 34.5436 82.246C34.0556 82.241 33.569 82.1925 33.0896 82.101L30.7896 87.324L34.5406 101.453L38.2966 87.284ZM29.3066 82.439C30.1692 81.6906 30.9929 80.8985 31.7746 80.066C31.8425 79.0304 32.1506 78.0248 32.6746 77.129C32.7122 77.0692 32.762 77.0181 32.8208 76.979C32.8796 76.9398 32.946 76.9136 33.0156 76.902C32.2291 76.3765 31.3723 75.9648 30.4706 75.679C29.3528 75.6552 28.2555 75.9818 27.3326 76.613C27.5252 78.6839 28.1995 80.6812 29.3016 82.445L29.3066 82.439ZM18.4196 60.352C18.775 61.5835 19.6014 62.6254 20.7196 63.252C20.4018 61.0518 20.249 58.831 20.2626 56.608C20.083 56.5257 19.8872 56.4846 19.6896 56.4877C19.492 56.4909 19.2976 56.5381 19.1206 56.626C19.1068 56.6358 19.0924 56.6448 19.0776 56.653C18.9162 56.7555 18.7743 56.8858 18.6586 57.038C18.377 57.5397 18.2095 58.0974 18.1682 58.6713C18.1269 59.2452 18.2127 59.8211 18.4196 60.358V60.352ZM52.5586 45.307L51.2176 44.771C51.0944 44.7218 50.9958 44.6257 50.9435 44.5038C50.8912 44.3819 50.8894 44.2442 50.9386 44.121C50.9878 43.9978 51.0839 43.8992 51.2058 43.8469C51.3277 43.7946 51.4654 43.7928 51.5886 43.842L53.0706 44.435H53.6706C52.5626 41.946 47.7406 33.235 34.5506 33.235C29.0886 33.235 24.8506 34.905 21.9566 38.199C19.6516 40.9094 18.3094 44.307 18.1396 47.861C18.1645 47.9267 18.1747 47.997 18.1696 48.067C18.0546 50.6054 18.3587 53.1455 19.0696 55.585C19.4597 55.4774 19.8712 55.4747 20.2626 55.577C20.2776 54.757 20.3056 54.224 20.3106 54.144C20.3156 54.055 20.3443 53.9689 20.3937 53.8947C20.4431 53.8205 20.5114 53.7609 20.5916 53.722C22.4071 52.8003 23.976 51.4578 25.1674 49.8067C26.3588 48.1556 27.1382 46.2435 27.4406 44.23C27.4553 44.1295 27.5003 44.0358 27.5696 43.9615C27.6389 43.8871 27.7292 43.8357 27.8285 43.814C27.9277 43.7922 28.0313 43.8013 28.1253 43.8399C28.2192 43.8785 28.2993 43.9448 28.3546 44.03C32.1046 49.803 39.5546 53.406 48.2736 53.668C48.3076 53.6717 48.3412 53.6791 48.3736 53.69C48.418 53.6835 48.4632 53.6835 48.5076 53.69C49.0904 53.8126 49.6909 53.8262 50.2786 53.73C50.4071 53.6992 50.5425 53.7205 50.6553 53.7892C50.768 53.8579 50.8491 53.9685 50.8806 54.0967C50.9122 54.225 50.8917 54.3605 50.8237 54.4737C50.7557 54.5869 50.6457 54.6686 50.5176 54.701C50.2056 54.7657 49.8873 54.7956 49.5686 54.79C49.3058 54.7864 49.0434 54.768 48.7826 54.735C48.7906 54.962 48.7986 55.235 48.8046 55.574C49.14 55.4822 49.4924 55.4718 49.8326 55.5437C50.1728 55.6155 50.491 55.7675 50.7606 55.987C51.8141 54.4424 52.5204 52.6879 52.8308 50.8442C53.1412 49.0005 53.0483 47.1114 52.5586 45.307ZM50.6636 60.349C50.8711 59.8155 50.9569 59.2424 50.9148 58.6716C50.8728 58.1007 50.704 57.5464 50.4206 57.049C50.2487 56.7986 49.9933 56.6177 49.7001 56.5385C49.4069 56.4593 49.0952 56.4872 48.8206 56.617C48.8336 58.8403 48.6805 61.0615 48.3626 63.262C49.4838 62.6324 50.3108 61.5854 50.6636 60.349ZM46.5736 66.41C47.9596 62.664 47.8456 56.388 47.7836 54.655C39.4266 54.291 32.2286 50.93 28.2006 45.555C27.7478 47.4477 26.8987 49.2229 25.7093 50.7632C24.5199 52.3036 23.0173 53.5742 21.3006 54.491C21.1621 57.656 21.3447 60.8268 21.8456 63.955C21.857 63.9904 21.8644 64.027 21.8676 64.064C22.0154 64.8551 22.2257 65.6332 22.4966 66.391C23.5776 68.946 26.7966 70.465 29.6606 71.34C29.6772 71.3441 29.6936 71.3491 29.7096 71.355C30.7306 71.665 31.7096 71.894 32.5206 72.055C33.8529 72.323 35.2253 72.323 36.5576 72.055C37.3706 71.893 38.3446 71.664 39.3636 71.355C39.3838 71.3472 39.4045 71.3408 39.4256 71.336C42.2896 70.461 45.5016 68.947 46.5736 66.41ZM36.7536 73.035C35.2919 73.3283 33.7864 73.3283 32.3246 73.035C31.6386 72.898 30.8436 72.713 30.0036 72.476V74.721C30.1656 74.71 30.3216 74.685 30.4886 74.685C30.5539 74.6815 30.6194 74.6882 30.6826 74.705C32.085 75.1481 33.3935 75.8461 34.5426 76.764C35.6717 75.8535 36.9603 75.1611 38.3426 74.722C38.5771 74.6304 38.8219 74.5679 39.0716 74.536V72.477C38.2336 72.713 37.4386 72.9 36.7536 73.035ZM41.7536 76.366C41.3462 75.99 40.8472 75.7275 40.3066 75.6046C39.7659 75.4818 39.2025 75.503 38.6726 75.666C37.7503 75.9503 36.8744 76.3677 36.0726 76.905C36.1449 76.9149 36.2142 76.9406 36.2755 76.9802C36.3368 77.0197 36.3887 77.0722 36.4276 77.134C36.9623 78.0375 37.2746 79.0551 37.3386 80.103C38.0526 80.866 38.8746 81.66 39.8016 82.472C41.0959 80.712 41.7821 78.5785 41.7566 76.394L41.7536 76.366ZM58.6616 70.587L57.6016 80.019C57.6072 80.0848 57.5998 80.1511 57.5796 80.214L53.5016 116.582H61.5256C61.5336 116.582 61.5396 116.57 61.5476 116.566C63.4194 109.846 64.724 102.982 65.4476 96.044C66.6866 84.018 71.9476 83.644 76.2306 83.344C79.9956 83.081 82.8606 82.306 82.6716 75.389C81.0444 74.8931 79.5594 74.0154 78.3403 72.8291C77.1213 71.6427 76.2035 70.1821 75.6636 68.569C75.3539 68.5503 75.0462 68.5064 74.7436 68.438C74.9826 69.1661 75.3051 69.8641 75.7046 70.518C79.0926 76.024 76.4166 79.843 76.3046 80.002C76.2588 80.0654 76.1987 80.1171 76.1292 80.1531C76.0598 80.189 75.9828 80.2082 75.9046 80.209C75.8127 80.2091 75.7225 80.1838 75.644 80.1359C75.5655 80.0881 75.5017 80.0195 75.4596 79.9378C75.4175 79.856 75.3988 79.7642 75.4055 79.6725C75.4122 79.5808 75.4441 79.4928 75.4976 79.418C75.5976 79.279 77.8846 75.956 74.8616 71.042C74.2847 70.105 73.85 69.0876 73.5716 68.023C72.4837 67.4819 71.6126 66.5864 71.1016 65.484C70.2746 63.753 70.3016 61.71 71.1596 60.625C71.2901 60.4615 71.4398 60.3145 71.6056 60.187C71.0546 56.949 70.9936 52.442 73.5946 48.735C74.3438 47.6895 75.251 46.7668 76.2836 46L75.5436 44.752C69.1766 47.614 61.2126 54.412 58.6616 70.587ZM99.3326 49.31C97.2076 46.282 93.4826 44.31 88.2616 43.438C87.3421 43.2865 86.4041 43.2865 85.4846 43.438C80.2636 44.306 76.5386 46.282 74.4146 49.31C72.0716 52.649 72.0706 56.748 72.5516 59.776C73.0694 59.7117 73.5945 59.8036 74.0596 60.04C74.0946 59.947 74.1286 59.856 74.1596 59.785C74.1596 59.746 74.1596 59.711 74.1546 59.673C74.1527 59.5545 74.193 59.4391 74.2683 59.3475C74.3436 59.2559 74.449 59.1941 74.5656 59.173C80.0956 58.173 83.9716 54.801 86.4156 48.857C86.4594 48.7722 86.5257 48.7011 86.6072 48.6515C86.6886 48.6019 86.7822 48.5756 86.8776 48.5756C86.973 48.5756 87.0666 48.6019 87.1481 48.6515C87.2296 48.7011 87.2958 48.7722 87.3396 48.857C89.7836 54.801 93.6596 58.176 99.1896 59.173C99.2046 59.173 99.2176 59.185 99.2326 59.189C99.259 59.1967 99.2847 59.2064 99.3096 59.218C99.3399 59.2326 99.3687 59.25 99.3956 59.27C99.4173 59.2857 99.4377 59.3031 99.4566 59.322C99.4817 59.3493 99.5038 59.3791 99.5226 59.411C99.5316 59.426 99.5456 59.437 99.5536 59.453C99.5726 59.493 99.6616 59.695 99.7786 60.006C100.22 59.7984 100.712 59.7214 101.197 59.784C101.676 56.752 101.677 52.651 99.3326 49.31ZM74.3646 62.892C74.1186 64.3633 74.145 65.8673 74.4426 67.329C74.7214 67.4236 75.0088 67.4906 75.3006 67.529C74.8364 66.018 74.5229 64.4648 74.3646 62.892ZM73.7476 60.992C72.6196 60.408 72.1236 61.018 71.9476 61.245C71.6394 61.8342 71.4829 62.4909 71.4923 63.1558C71.5018 63.8207 71.6768 64.4728 72.0016 65.053C72.3044 65.6935 72.7489 66.2567 73.3016 66.7C73.0517 64.7873 73.2036 62.8426 73.7476 60.992ZM101.802 61.245C101.612 60.9824 101.326 60.8052 101.006 60.7518C100.686 60.6985 100.359 60.7733 100.094 60.96C100.634 62.7884 100.794 64.7085 100.562 66.601C101.054 66.1765 101.454 65.6545 101.735 65.068C102.063 64.4865 102.241 63.8325 102.252 63.165C102.264 62.4975 102.109 61.8376 101.802 61.245ZM99.4236 62.515C99.275 64.2175 98.9482 65.8997 98.4486 67.534C98.7797 67.4882 99.1045 67.4047 99.4166 67.285C99.7279 65.7104 99.7299 64.0903 99.4226 62.515H99.4236ZM97.2806 67.963C97.2867 67.9352 97.2954 67.9081 97.3066 67.882C98.1367 65.3614 98.5689 62.7267 98.5876 60.073C93.2546 58.986 89.4116 55.779 86.8756 50.294C84.3396 55.779 80.4966 58.986 75.1636 60.073C75.1821 62.7299 75.6153 65.3677 76.4476 67.891C76.454 67.9076 76.4593 67.9247 76.4636 67.942C78.1786 72.642 81.5896 74.922 86.8636 75.005C92.1476 74.922 95.5626 72.649 97.2806 67.963ZM86.8676 76.005C85.7915 75.9921 84.7194 75.8708 83.6676 75.643C83.7736 83.156 80.0956 84.078 76.2496 84.343C71.9926 84.643 67.5906 84.952 66.4376 96.143C66.0156 100.273 65.3876 104.109 64.7516 107.35L73.1046 112.316C73.6957 110.4 74.5603 108.579 75.6716 106.91C74.0336 103.91 73.2536 99.87 73.2216 94.244C73.2146 93.098 73.2376 91.863 73.2916 90.469C73.2956 90.3624 73.3335 90.2599 73.3999 90.1764C73.4663 90.0929 73.5577 90.0329 73.6606 90.005C78.8606 88.599 83.1866 88.94 86.8716 91.046C90.5576 88.94 94.8836 88.601 100.083 90.005C100.186 90.0327 100.277 90.0927 100.344 90.1762C100.41 90.2597 100.449 90.3623 100.453 90.469C100.506 91.863 100.529 93.098 100.523 94.244C100.49 99.871 99.7096 103.909 98.0726 106.91C99.1901 108.588 100.058 110.42 100.65 112.348L109.105 107.937C108.43 104.578 107.75 100.524 107.305 96.143C106.162 84.953 101.755 84.643 97.4466 84.343C93.6466 84.077 89.9686 83.153 90.0746 75.643C89.0201 75.871 87.9464 75.9923 86.8676 76.005ZM72.0406 116.5C72.2686 115.359 72.5246 114.3 72.8096 113.31L64.5456 108.397C63.7386 112.344 62.9556 115.269 62.6076 116.497L72.0406 116.5ZM97.3016 107.571C94.0417 109.121 90.4823 109.94 86.8726 109.971C83.2629 109.94 79.7036 109.121 76.4436 107.571C74.7369 110.293 73.5848 113.325 73.0536 116.494H100.694C100.163 113.325 99.0099 110.292 97.3016 107.571ZM99.5126 92.488C99.5026 91.973 99.4896 91.443 99.4696 90.88C94.5846 89.628 90.5456 90.013 87.1316 92.057C87.054 92.1035 86.9651 92.1281 86.8746 92.1281C86.7841 92.1281 86.6953 92.1035 86.6176 92.057C83.2046 90.014 79.1646 89.628 74.2796 90.88C74.2606 91.443 74.2466 91.972 74.2376 92.487C74.2376 92.629 74.2376 92.765 74.2376 92.904C74.2376 93.123 74.2376 93.331 74.2376 93.542C77.8606 92.357 83.6206 91.486 86.8836 96.21C87.6984 95.0377 88.7981 94.0921 90.0792 93.4623C91.3604 92.8325 92.7808 92.5392 94.2066 92.61C96.019 92.6444 97.815 92.9598 99.5306 93.545C99.5306 93.334 99.5306 93.126 99.5306 92.907C99.5156 92.766 99.5146 92.63 99.5126 92.488ZM87.3076 97.4C87.2637 97.476 87.2006 97.5391 87.1246 97.583C87.0486 97.6269 86.9624 97.65 86.8746 97.65C86.7869 97.65 86.7006 97.6269 86.6246 97.583C86.5486 97.5391 86.4855 97.476 86.4416 97.4C83.5416 92.368 77.6896 93.414 74.2326 94.6C74.2956 99.945 75.0586 103.761 76.6276 106.558C79.812 108.14 83.3194 108.963 86.8751 108.963C90.4308 108.963 93.9382 108.14 97.1226 106.558C98.6906 103.758 99.4536 99.945 99.5176 94.6C96.0606 93.411 90.2086 92.365 87.3076 97.4ZM109.317 108.959L100.946 113.326C101.229 114.31 101.483 115.362 101.709 116.495H111.138C110.808 115.323 110.082 112.62 109.317 108.959ZM94.9016 42.647C94.816 42.6318 94.7359 42.5946 94.6691 42.539C94.6023 42.4834 94.5511 42.4114 94.5206 42.33L93.5906 39.837L90.9766 41.246C90.8922 41.2914 90.7965 41.3116 90.701 41.3041C90.6054 41.2967 90.514 41.2619 90.4376 41.204L86.8696 38.511L83.3156 41.2C83.2393 41.2579 83.1478 41.2927 83.0523 41.3001C82.9567 41.3076 82.861 41.2874 82.7766 41.242L80.1526 39.833L79.2326 42.324C79.2023 42.4059 79.1511 42.4784 79.0841 42.5344C79.0171 42.5904 78.9366 42.6278 78.8506 42.643L75.7816 43.187L77.1016 45.414C79.6083 43.8686 82.4083 42.86 85.3246 42.452C86.351 42.2823 87.3983 42.2823 88.4246 42.452C91.3413 42.8599 94.1417 43.8684 96.6486 45.414L97.9736 43.191L94.9016 42.647ZM115.057 70.953L115.002 70.59C112.463 54.474 104.547 47.665 98.1926 44.782L97.4636 46C98.4959 46.767 99.4024 47.6901 100.151 48.736C102.751 52.443 102.691 56.949 102.139 60.188C102.305 60.3152 102.455 60.4623 102.586 60.626C103.448 61.718 103.469 63.769 102.636 65.502C102.146 66.5522 101.328 67.4153 100.307 67.962C100.029 69.0492 99.5894 70.0883 99.0016 71.044C95.9786 75.958 98.2666 79.281 98.3656 79.42C98.4431 79.5277 98.4746 79.6617 98.4532 79.7926C98.4318 79.9235 98.3593 80.0405 98.2516 80.118C98.1439 80.1954 98.0099 80.2269 97.879 80.2056C97.7481 80.1842 97.6311 80.1117 97.5536 80.004C97.4386 79.845 94.7626 76.026 98.1536 70.52C98.5569 69.8601 98.8818 69.1553 99.1216 68.42C98.7843 68.5021 98.4402 68.5533 98.0936 68.573C97.5531 70.1859 96.6349 71.6462 95.4155 72.8321C94.1961 74.0181 92.7109 74.8955 91.0836 75.391C90.8946 82.308 93.7606 83.084 97.5706 83.351C101.807 83.651 107.079 84.018 108.308 96.045C109.031 102.988 110.335 109.858 112.208 116.583H120.162L115.057 70.953ZM17.1746 116.653V93.7C17.1746 93.5674 17.2273 93.4402 17.3211 93.3464C17.4148 93.2527 17.542 93.2 17.6746 93.2C17.8072 93.2 17.9344 93.2527 18.0282 93.3464C18.1219 93.4402 18.1746 93.5674 18.1746 93.7V116.659H50.9016V93.7C50.9016 93.5674 50.9543 93.4402 51.0481 93.3464C51.1418 93.2527 51.269 93.2 51.4016 93.2C51.5342 93.2 51.6614 93.2527 51.7552 93.3464C51.8489 93.4402 51.9016 93.5674 51.9016 93.7V116.659H52.4826L56.5496 80.322C55.1679 79.5628 53.6615 79.0568 52.1016 78.828C49.5546 78.381 46.0866 77.763 42.8946 77.18C45.0576 78.933 46.8586 81.933 48.2426 86.138C49.0184 88.5038 48.8566 91.077 47.7906 93.327C45.0735 99.0584 41.2624 104.204 36.5716 108.473C36.4792 108.558 36.3582 108.605 36.2326 108.605H36.1766C35.5642 108.562 34.9858 108.307 34.5406 107.884C34.0928 108.307 33.5127 108.561 32.8986 108.605C32.88 108.606 32.8613 108.606 32.8426 108.605C32.7169 108.605 32.5959 108.557 32.5036 108.472C27.8139 104.201 24.0015 99.0566 21.2796 93.327C20.2146 91.0771 20.0528 88.5045 20.8276 86.139C22.2016 81.949 24.0046 78.95 26.1826 77.181C22.9936 77.756 19.5226 78.381 16.9826 78.828C15.2362 79.0632 13.5599 79.668 12.0656 80.602C11.6513 80.9077 11.3086 81.3 11.0613 81.7516C10.814 82.2032 10.6681 82.7033 10.6336 83.217L7.83362 116.655L17.1746 116.653Z" fill="black"/>
<path d="M9.63462 83.132C9.68112 82.4735 9.87064 81.8332 10.19 81.2554C10.5093 80.6777 10.9508 80.1766 11.4836 79.787C13.0962 78.7609 14.9124 78.0973 16.8066 77.842C19.4396 77.381 23.0706 76.726 26.3496 76.134L26.3996 76.125C26.4284 76.0701 26.4674 76.0212 26.5146 75.981C27.2452 75.4179 28.0966 75.0321 29.0016 74.854V72.174C26.0196 71.209 22.7466 69.551 21.5646 66.756C21.2968 66.006 21.0849 65.2373 20.9306 64.456C20.0972 64.1351 19.35 63.6247 18.7479 62.9652C18.1458 62.3057 17.7054 61.5151 17.4616 60.656C17.1991 59.9674 17.0993 59.2274 17.1699 58.4938C17.2405 57.7603 17.4796 57.0529 17.8686 56.427C17.9656 56.3043 18.0723 56.1896 18.1876 56.084C17.382 53.4688 17.0388 50.7331 17.1736 48C17.2721 44.7358 18.3076 41.5688 20.1566 38.877C23.2236 34.468 28.0666 32.232 34.5516 32.232C50.5786 32.232 54.8456 44.65 54.8876 44.776C54.9123 44.8511 54.9188 44.931 54.9066 45.009C54.8944 45.0871 54.8639 45.1612 54.8176 45.2252C54.7712 45.2893 54.7103 45.3414 54.6399 45.3773C54.5696 45.4132 54.4917 45.432 54.4126 45.432H53.6266C54.0953 47.3692 54.1423 49.3845 53.7645 51.3415C53.3866 53.2985 52.5928 55.1515 51.4366 56.775C52.0016 57.9901 52.0666 59.3785 51.6176 60.641C51.3743 61.5017 50.9336 62.2938 50.3306 62.9543C49.7275 63.6148 48.9787 64.1256 48.1436 64.446C47.9874 65.237 47.7731 66.0154 47.5026 66.775C46.3256 69.555 43.0536 71.209 40.0716 72.175V74.53C40.9348 74.6406 41.7441 75.0106 42.3926 75.591C42.5531 75.7374 42.6707 75.9248 42.7326 76.133C46.0146 76.733 49.6406 77.381 52.2786 77.843C53.8057 78.0804 55.2869 78.5526 56.6696 79.243L57.6156 70.79L57.6726 70.43C60.2786 53.904 68.4496 46.871 75.0266 43.88L74.5516 43.08C74.5105 43.0105 74.4868 42.932 74.4826 42.8513C74.4784 42.7706 74.4938 42.6901 74.5275 42.6167C74.5612 42.5432 74.6122 42.4791 74.6762 42.4297C74.7401 42.3803 74.8151 42.3471 74.8946 42.333L78.3946 41.712L79.4146 38.952C79.4394 38.8849 79.4783 38.8239 79.5287 38.7731C79.5791 38.7223 79.6398 38.6829 79.7068 38.6576C79.7737 38.6323 79.8453 38.6216 79.9167 38.6264C79.9881 38.6311 80.0576 38.6511 80.1206 38.685L82.9686 40.213L86.5686 37.486C86.6552 37.4211 86.7604 37.386 86.8686 37.386C86.9768 37.386 87.0821 37.4211 87.1686 37.486L90.7826 40.213L93.6196 38.685C93.6825 38.651 93.7519 38.631 93.8232 38.6261C93.8945 38.6212 93.966 38.6317 94.0329 38.6568C94.0998 38.6819 94.1606 38.7211 94.2111 38.7717C94.2616 38.8222 94.3006 38.8831 94.3256 38.95L95.3556 41.712L98.8556 42.333C98.9352 42.3472 99.0102 42.3805 99.0742 42.43C99.1381 42.4795 99.1891 42.5438 99.2227 42.6173C99.2563 42.6909 99.2716 42.7715 99.2672 42.8523C99.2629 42.933 99.239 43.0115 99.1976 43.081L98.6976 43.912C105.261 46.926 113.383 53.971 115.977 70.434L121.218 117.026C121.226 117.096 121.218 117.167 121.197 117.235C121.175 117.302 121.14 117.364 121.093 117.416C121.045 117.469 120.987 117.511 120.923 117.539C120.858 117.568 120.788 117.582 120.718 117.582H62.0466C61.9731 117.627 61.889 117.653 61.8026 117.655H7.28262C7.21327 117.655 7.14463 117.641 7.08105 117.613C7.01748 117.586 6.96037 117.545 6.91335 117.494C6.86632 117.443 6.83041 117.383 6.80791 117.317C6.7854 117.252 6.77679 117.182 6.78262 117.113L9.63462 83.132ZM21.7776 86.452C21.0825 88.5753 21.2289 90.8845 22.1866 92.903C24.8181 98.4434 28.492 103.425 33.0076 107.576C33.2207 107.559 33.4265 107.491 33.607 107.377C33.7876 107.262 33.9375 107.106 34.0436 106.92V103.47L28.7166 83.407C27.6901 81.8072 26.951 80.0402 26.5326 78.186C24.6296 79.861 23.0306 82.629 21.7776 86.452ZM42.6276 78.252C42.2715 80.1254 41.4947 81.8936 40.3556 83.423L35.0436 103.471V106.924C35.1485 107.108 35.2966 107.263 35.4753 107.377C35.6539 107.491 35.8576 107.559 36.0686 107.576C40.5873 103.427 44.2616 98.4433 46.8896 92.9C47.8475 90.8808 47.9936 88.5708 47.2976 86.447C46.0526 82.667 44.4826 79.921 42.6276 78.252ZM37.2656 81.472C37.2656 81.489 37.2656 81.507 37.2656 81.524C37.2492 81.5957 37.2168 81.6627 37.171 81.7202C37.1251 81.7777 37.0669 81.8241 37.0006 81.856L38.7016 85.74L39.3256 83.386C38.5816 82.737 37.8886 82.101 37.2656 81.472ZM33.4056 77.884C32.8708 78.8409 32.652 79.9423 32.7806 81.031C33.9453 81.3195 35.1629 81.3195 36.3276 81.031C36.4559 79.942 36.235 78.8403 35.6966 77.885L33.4056 77.884ZM29.7466 83.384L30.3806 85.775L32.1076 81.85C32.0423 81.8182 31.9851 81.7721 31.94 81.7152C31.895 81.6582 31.8634 81.5919 31.8476 81.521C31.8426 81.496 31.8476 81.47 31.8396 81.444C31.2276 82.06 30.5326 82.7 29.7466 83.386V83.384ZM38.2966 87.284L36.0116 82.1C35.5275 82.1916 35.0363 82.2405 34.5436 82.246C34.0556 82.241 33.569 82.1925 33.0896 82.101L30.7896 87.324L34.5406 101.453L38.2966 87.284ZM29.3066 82.439C30.1692 81.6906 30.9929 80.8985 31.7746 80.066C31.8425 79.0304 32.1506 78.0248 32.6746 77.129C32.7122 77.0692 32.762 77.0181 32.8208 76.979C32.8796 76.9398 32.946 76.9136 33.0156 76.902C32.2291 76.3765 31.3723 75.9648 30.4706 75.679C29.3528 75.6552 28.2555 75.9818 27.3326 76.613C27.5252 78.6839 28.1995 80.6812 29.3016 82.445L29.3066 82.439ZM18.4196 60.352C18.775 61.5835 19.6014 62.6254 20.7196 63.252C20.4018 61.0518 20.249 58.831 20.2626 56.608C20.083 56.5257 19.8872 56.4846 19.6896 56.4877C19.492 56.4909 19.2976 56.5381 19.1206 56.626C19.1068 56.6358 19.0924 56.6448 19.0776 56.653C18.9162 56.7555 18.7743 56.8858 18.6586 57.038C18.377 57.5397 18.2095 58.0974 18.1682 58.6713C18.1269 59.2452 18.2127 59.8211 18.4196 60.358V60.352ZM52.5586 45.307L51.2176 44.771C51.0944 44.7218 50.9958 44.6257 50.9435 44.5038C50.8912 44.3819 50.8894 44.2442 50.9386 44.121C50.9878 43.9978 51.0839 43.8992 51.2058 43.8469C51.3277 43.7946 51.4654 43.7928 51.5886 43.842L53.0706 44.435H53.6706C52.5626 41.946 47.7406 33.235 34.5506 33.235C29.0886 33.235 24.8506 34.905 21.9566 38.199C19.6516 40.9094 18.3094 44.307 18.1396 47.861C18.1645 47.9267 18.1747 47.997 18.1696 48.067C18.0546 50.6054 18.3587 53.1455 19.0696 55.585C19.4597 55.4774 19.8712 55.4747 20.2626 55.577C20.2776 54.757 20.3056 54.224 20.3106 54.144C20.3156 54.055 20.3443 53.9689 20.3937 53.8947C20.4431 53.8205 20.5114 53.7609 20.5916 53.722C22.4071 52.8003 23.976 51.4578 25.1674 49.8067C26.3588 48.1556 27.1382 46.2435 27.4406 44.23C27.4553 44.1295 27.5003 44.0358 27.5696 43.9615C27.6389 43.8871 27.7292 43.8357 27.8285 43.814C27.9277 43.7922 28.0313 43.8013 28.1253 43.8399C28.2192 43.8785 28.2993 43.9448 28.3546 44.03C32.1046 49.803 39.5546 53.406 48.2736 53.668C48.3076 53.6717 48.3412 53.6791 48.3736 53.69C48.418 53.6835 48.4632 53.6835 48.5076 53.69C49.0904 53.8126 49.6909 53.8262 50.2786 53.73C50.4071 53.6992 50.5425 53.7205 50.6553 53.7892C50.768 53.8579 50.8491 53.9685 50.8806 54.0967C50.9122 54.225 50.8917 54.3605 50.8237 54.4737C50.7557 54.5869 50.6457 54.6686 50.5176 54.701C50.2056 54.7657 49.8873 54.7956 49.5686 54.79C49.3058 54.7864 49.0434 54.768 48.7826 54.735C48.7906 54.962 48.7986 55.235 48.8046 55.574C49.14 55.4822 49.4924 55.4718 49.8326 55.5437C50.1728 55.6155 50.491 55.7675 50.7606 55.987C51.8141 54.4424 52.5204 52.6879 52.8308 50.8442C53.1412 49.0005 53.0483 47.1114 52.5586 45.307ZM50.6636 60.349C50.8711 59.8155 50.9569 59.2424 50.9148 58.6716C50.8728 58.1007 50.704 57.5464 50.4206 57.049C50.2487 56.7986 49.9933 56.6177 49.7001 56.5385C49.4069 56.4593 49.0952 56.4872 48.8206 56.617C48.8336 58.8403 48.6805 61.0615 48.3626 63.262C49.4838 62.6324 50.3108 61.5854 50.6636 60.349ZM46.5736 66.41C47.9596 62.664 47.8456 56.388 47.7836 54.655C39.4266 54.291 32.2286 50.93 28.2006 45.555C27.7478 47.4477 26.8987 49.2229 25.7093 50.7632C24.5199 52.3036 23.0173 53.5742 21.3006 54.491C21.1621 57.656 21.3447 60.8268 21.8456 63.955C21.857 63.9904 21.8644 64.027 21.8676 64.064C22.0154 64.8551 22.2257 65.6332 22.4966 66.391C23.5776 68.946 26.7966 70.465 29.6606 71.34C29.6772 71.3441 29.6936 71.3491 29.7096 71.355C30.7306 71.665 31.7096 71.894 32.5206 72.055C33.8529 72.323 35.2253 72.323 36.5576 72.055C37.3706 71.893 38.3446 71.664 39.3636 71.355C39.3838 71.3472 39.4045 71.3408 39.4256 71.336C42.2896 70.461 45.5016 68.947 46.5736 66.41ZM36.7536 73.035C35.2919 73.3283 33.7864 73.3283 32.3246 73.035C31.6386 72.898 30.8436 72.713 30.0036 72.476V74.721C30.1656 74.71 30.3216 74.685 30.4886 74.685C30.5539 74.6815 30.6194 74.6882 30.6826 74.705C32.085 75.1481 33.3935 75.8461 34.5426 76.764C35.6717 75.8535 36.9603 75.1611 38.3426 74.722C38.5771 74.6304 38.8219 74.5679 39.0716 74.536V72.477C38.2336 72.713 37.4386 72.9 36.7536 73.035ZM41.7536 76.366C41.3462 75.99 40.8472 75.7275 40.3066 75.6046C39.7659 75.4818 39.2025 75.503 38.6726 75.666C37.7503 75.9503 36.8744 76.3677 36.0726 76.905C36.1449 76.9149 36.2142 76.9406 36.2755 76.9802C36.3368 77.0197 36.3887 77.0722 36.4276 77.134C36.9623 78.0375 37.2746 79.0551 37.3386 80.103C38.0526 80.866 38.8746 81.66 39.8016 82.472C41.0959 80.712 41.7821 78.5785 41.7566 76.394L41.7536 76.366ZM58.6616 70.587L57.6016 80.019C57.6072 80.0848 57.5998 80.1511 57.5796 80.214L53.5016 116.582H61.5256C61.5336 116.582 61.5396 116.57 61.5476 116.566C63.4194 109.846 64.724 102.982 65.4476 96.044C66.6866 84.018 71.9476 83.644 76.2306 83.344C79.9956 83.081 82.8606 82.306 82.6716 75.389C81.0444 74.8931 79.5594 74.0154 78.3403 72.8291C77.1213 71.6427 76.2035 70.1821 75.6636 68.569C75.3539 68.5503 75.0462 68.5064 74.7436 68.438C74.9826 69.1661 75.3051 69.8641 75.7046 70.518C79.0926 76.024 76.4166 79.843 76.3046 80.002C76.2588 80.0654 76.1987 80.1171 76.1292 80.1531C76.0598 80.189 75.9828 80.2082 75.9046 80.209C75.8127 80.2091 75.7225 80.1838 75.644 80.1359C75.5655 80.0881 75.5017 80.0195 75.4596 79.9378C75.4175 79.856 75.3988 79.7642 75.4055 79.6725C75.4122 79.5808 75.4441 79.4928 75.4976 79.418C75.5976 79.279 77.8846 75.956 74.8616 71.042C74.2847 70.105 73.85 69.0876 73.5716 68.023C72.4837 67.4819 71.6126 66.5864 71.1016 65.484C70.2746 63.753 70.3016 61.71 71.1596 60.625C71.2901 60.4615 71.4398 60.3145 71.6056 60.187C71.0546 56.949 70.9936 52.442 73.5946 48.735C74.3438 47.6895 75.251 46.7668 76.2836 46L75.5436 44.752C69.1766 47.614 61.2126 54.412 58.6616 70.587ZM99.3326 49.31C97.2076 46.282 93.4826 44.31 88.2616 43.438C87.3421 43.2865 86.4041 43.2865 85.4846 43.438C80.2636 44.306 76.5386 46.282 74.4146 49.31C72.0716 52.649 72.0706 56.748 72.5516 59.776C73.0694 59.7117 73.5945 59.8036 74.0596 60.04C74.0946 59.947 74.1286 59.856 74.1596 59.785C74.1596 59.746 74.1596 59.711 74.1546 59.673C74.1527 59.5545 74.193 59.4391 74.2683 59.3475C74.3436 59.2559 74.449 59.1941 74.5656 59.173C80.0956 58.173 83.9716 54.801 86.4156 48.857C86.4594 48.7722 86.5257 48.7011 86.6072 48.6515C86.6886 48.6019 86.7822 48.5756 86.8776 48.5756C86.973 48.5756 87.0666 48.6019 87.1481 48.6515C87.2296 48.7011 87.2958 48.7722 87.3396 48.857C89.7836 54.801 93.6596 58.176 99.1896 59.173C99.2046 59.173 99.2176 59.185 99.2326 59.189C99.259 59.1967 99.2847 59.2064 99.3096 59.218C99.3399 59.2326 99.3687 59.25 99.3956 59.27C99.4173 59.2857 99.4377 59.3031 99.4566 59.322C99.4817 59.3493 99.5038 59.3791 99.5226 59.411C99.5316 59.426 99.5456 59.437 99.5536 59.453C99.5726 59.493 99.6616 59.695 99.7786 60.006C100.22 59.7984 100.712 59.7214 101.197 59.784C101.676 56.752 101.677 52.651 99.3326 49.31ZM74.3646 62.892C74.1186 64.3633 74.145 65.8673 74.4426 67.329C74.7214 67.4236 75.0088 67.4906 75.3006 67.529C74.8364 66.018 74.5229 64.4648 74.3646 62.892ZM73.7476 60.992C72.6196 60.408 72.1236 61.018 71.9476 61.245C71.6394 61.8342 71.4829 62.4909 71.4923 63.1558C71.5018 63.8207 71.6768 64.4728 72.0016 65.053C72.3044 65.6935 72.7489 66.2567 73.3016 66.7C73.0517 64.7873 73.2036 62.8426 73.7476 60.992ZM101.802 61.245C101.612 60.9824 101.326 60.8052 101.006 60.7518C100.686 60.6985 100.359 60.7733 100.094 60.96C100.634 62.7884 100.794 64.7085 100.562 66.601C101.054 66.1765 101.454 65.6545 101.735 65.068C102.063 64.4865 102.241 63.8325 102.252 63.165C102.264 62.4975 102.109 61.8376 101.802 61.245ZM99.4236 62.515C99.275 64.2175 98.9482 65.8997 98.4486 67.534C98.7797 67.4882 99.1045 67.4047 99.4166 67.285C99.7279 65.7104 99.7299 64.0903 99.4226 62.515H99.4236ZM97.2806 67.963C97.2867 67.9352 97.2954 67.9081 97.3066 67.882C98.1367 65.3614 98.5689 62.7267 98.5876 60.073C93.2546 58.986 89.4116 55.779 86.8756 50.294C84.3396 55.779 80.4966 58.986 75.1636 60.073C75.1821 62.7299 75.6153 65.3677 76.4476 67.891C76.454 67.9076 76.4593 67.9247 76.4636 67.942C78.1786 72.642 81.5896 74.922 86.8636 75.005C92.1476 74.922 95.5626 72.649 97.2806 67.963ZM86.8676 76.005C85.7915 75.9921 84.7194 75.8708 83.6676 75.643C83.7736 83.156 80.0956 84.078 76.2496 84.343C71.9926 84.643 67.5906 84.952 66.4376 96.143C66.0156 100.273 65.3876 104.109 64.7516 107.35L73.1046 112.316C73.6957 110.4 74.5603 108.579 75.6716 106.91C74.0336 103.91 73.2536 99.87 73.2216 94.244C73.2146 93.098 73.2376 91.863 73.2916 90.469C73.2956 90.3624 73.3335 90.2599 73.3999 90.1764C73.4663 90.0929 73.5577 90.0329 73.6606 90.005C78.8606 88.599 83.1866 88.94 86.8716 91.046C90.5576 88.94 94.8836 88.601 100.083 90.005C100.186 90.0327 100.277 90.0927 100.344 90.1762C100.41 90.2597 100.449 90.3623 100.453 90.469C100.506 91.863 100.529 93.098 100.523 94.244C100.49 99.871 99.7096 103.909 98.0726 106.91C99.1901 108.588 100.058 110.42 100.65 112.348L109.105 107.937C108.43 104.578 107.75 100.524 107.305 96.143C106.162 84.953 101.755 84.643 97.4466 84.343C93.6466 84.077 89.9686 83.153 90.0746 75.643C89.0201 75.871 87.9464 75.9923 86.8676 76.005ZM72.0406 116.5C72.2686 115.359 72.5246 114.3 72.8096 113.31L64.5456 108.397C63.7386 112.344 62.9556 115.269 62.6076 116.497L72.0406 116.5ZM97.3016 107.571C94.0417 109.121 90.4823 109.94 86.8726 109.971C83.2629 109.94 79.7036 109.121 76.4436 107.571C74.7369 110.293 73.5848 113.325 73.0536 116.494H100.694C100.163 113.325 99.0099 110.292 97.3016 107.571ZM99.5126 92.488C99.5026 91.973 99.4896 91.443 99.4696 90.88C94.5846 89.628 90.5456 90.013 87.1316 92.057C87.054 92.1035 86.9651 92.1281 86.8746 92.1281C86.7841 92.1281 86.6953 92.1035 86.6176 92.057C83.2046 90.014 79.1646 89.628 74.2796 90.88C74.2606 91.443 74.2466 91.972 74.2376 92.487C74.2376 92.629 74.2376 92.765 74.2376 92.904C74.2376 93.123 74.2376 93.331 74.2376 93.542C77.8606 92.357 83.6206 91.486 86.8836 96.21C87.6984 95.0377 88.7981 94.0921 90.0792 93.4623C91.3604 92.8325 92.7808 92.5392 94.2066 92.61C96.019 92.6444 97.815 92.9598 99.5306 93.545C99.5306 93.334 99.5306 93.126 99.5306 92.907C99.5156 92.766 99.5146 92.63 99.5126 92.488ZM87.3076 97.4C87.2637 97.476 87.2006 97.5391 87.1246 97.583C87.0486 97.6269 86.9624 97.65 86.8746 97.65C86.7869 97.65 86.7006 97.6269 86.6246 97.583C86.5486 97.5391 86.4855 97.476 86.4416 97.4C83.5416 92.368 77.6896 93.414 74.2326 94.6C74.2956 99.945 75.0586 103.761 76.6276 106.558C79.812 108.14 83.3194 108.963 86.8751 108.963C90.4308 108.963 93.9382 108.14 97.1226 106.558C98.6906 103.758 99.4536 99.945 99.5176 94.6C96.0606 93.411 90.2086 92.365 87.3076 97.4ZM109.317 108.959L100.946 113.326C101.229 114.31 101.483 115.362 101.709 116.495H111.138C110.808 115.323 110.082 112.62 109.317 108.959ZM94.9016 42.647C94.816 42.6318 94.7359 42.5946 94.6691 42.539C94.6023 42.4834 94.5511 42.4114 94.5206 42.33L93.5906 39.837L90.9766 41.246C90.8922 41.2914 90.7965 41.3116 90.701 41.3041C90.6054 41.2967 90.514 41.2619 90.4376 41.204L86.8696 38.511L83.3156 41.2C83.2393 41.2579 83.1478 41.2927 83.0523 41.3001C82.9567 41.3076 82.861 41.2874 82.7766 41.242L80.1526 39.833L79.2326 42.324C79.2023 42.4059 79.1511 42.4784 79.0841 42.5344C79.0171 42.5904 78.9366 42.6278 78.8506 42.643L75.7816 43.187L77.1016 45.414C79.6083 43.8686 82.4083 42.86 85.3246 42.452C86.351 42.2823 87.3983 42.2823 88.4246 42.452C91.3413 42.8599 94.1417 43.8684 96.6486 45.414L97.9736 43.191L94.9016 42.647ZM115.057 70.953L115.002 70.59C112.463 54.474 104.547 47.665 98.1926 44.782L97.4636 46C98.4959 46.767 99.4024 47.6901 100.151 48.736C102.751 52.443 102.691 56.949 102.139 60.188C102.305 60.3152 102.455 60.4623 102.586 60.626C103.448 61.718 103.469 63.769 102.636 65.502C102.146 66.5522 101.328 67.4153 100.307 67.962C100.029 69.0492 99.5894 70.0883 99.0016 71.044C95.9786 75.958 98.2666 79.281 98.3656 79.42C98.4431 79.5277 98.4746 79.6617 98.4532 79.7926C98.4318 79.9235 98.3593 80.0405 98.2516 80.118C98.1439 80.1954 98.0099 80.2269 97.879 80.2056C97.7481 80.1842 97.6311 80.1117 97.5536 80.004C97.4386 79.845 94.7626 76.026 98.1536 70.52C98.5569 69.8601 98.8818 69.1553 99.1216 68.42C98.7843 68.5021 98.4402 68.5533 98.0936 68.573C97.5531 70.1859 96.6349 71.6462 95.4155 72.8321C94.1961 74.0181 92.7109 74.8955 91.0836 75.391C90.8946 82.308 93.7606 83.084 97.5706 83.351C101.807 83.651 107.079 84.018 108.308 96.045C109.031 102.988 110.335 109.858 112.208 116.583H120.162L115.057 70.953ZM17.1746 116.653V93.7C17.1746 93.5674 17.2273 93.4402 17.3211 93.3464C17.4148 93.2527 17.542 93.2 17.6746 93.2C17.8072 93.2 17.9344 93.2527 18.0282 93.3464C18.1219 93.4402 18.1746 93.5674 18.1746 93.7V116.659H50.9016V93.7C50.9016 93.5674 50.9543 93.4402 51.0481 93.3464C51.1418 93.2527 51.269 93.2 51.4016 93.2C51.5342 93.2 51.6614 93.2527 51.7552 93.3464C51.8489 93.4402 51.9016 93.5674 51.9016 93.7V116.659H52.4826L56.5496 80.322C55.1679 79.5628 53.6615 79.0568 52.1016 78.828C49.5546 78.381 46.0866 77.763 42.8946 77.18C45.0576 78.933 46.8586 81.933 48.2426 86.138C49.0184 88.5038 48.8566 91.077 47.7906 93.327C45.0735 99.0584 41.2624 104.204 36.5716 108.473C36.4792 108.558 36.3582 108.605 36.2326 108.605H36.1766C35.5642 108.562 34.9858 108.307 34.5406 107.884C34.0928 108.307 33.5127 108.561 32.8986 108.605C32.88 108.606 32.8613 108.606 32.8426 108.605C32.7169 108.605 32.5959 108.557 32.5036 108.472C27.8139 104.201 24.0015 99.0566 21.2796 93.327C20.2146 91.0771 20.0528 88.5045 20.8276 86.139C22.2016 81.949 24.0046 78.95 26.1826 77.181C22.9936 77.756 19.5226 78.381 16.9826 78.828C15.2362 79.0632 13.5599 79.668 12.0656 80.602C11.6513 80.9077 11.3086 81.3 11.0613 81.7516C10.814 82.2032 10.6681 82.7033 10.6336 83.217L7.83362 116.655L17.1746 116.653Z" stroke="black" stroke-width="0.6" mask="url(#path-3-outside-2_38_70)"/>
<path d="M30.7056 62.8349L30.7057 62.8348L30.7069 62.8398C30.9252 63.6925 31.4211 64.4484 32.1164 64.9881C32.8117 65.5278 33.6669 65.8208 34.5471 65.8208C35.4273 65.8208 36.2825 65.5278 36.9778 64.9881C37.6731 64.4484 38.169 63.6925 38.3873 62.8398L38.3872 62.8398L38.3887 62.8349C38.4126 62.7529 38.4525 62.6765 38.506 62.61C38.5596 62.5435 38.6256 62.4881 38.7006 62.4472C38.7755 62.4062 38.8577 62.3803 38.9426 62.3711C39.0274 62.362 39.1133 62.3696 39.1952 62.3935C39.2772 62.4175 39.3536 62.4574 39.4201 62.5109C39.4867 62.5644 39.542 62.6305 39.583 62.7054C39.6239 62.7803 39.6498 62.8626 39.659 62.9475C39.668 63.0306 39.6609 63.1148 39.638 63.1952C39.381 64.3406 38.7314 65.3602 37.8017 66.077C36.8722 66.7937 35.7214 67.1626 34.5487 67.1201C33.3753 67.1636 32.2237 66.795 31.2935 66.0783C30.3631 65.3613 29.7131 64.3413 29.4562 63.1952C29.4334 63.1147 29.4262 63.0306 29.4353 62.9475C29.4445 62.8626 29.4703 62.7803 29.5113 62.7054C29.5522 62.6305 29.6076 62.5644 29.6741 62.5109C29.7406 62.4574 29.817 62.4175 29.899 62.3935C29.9809 62.3696 30.0668 62.362 30.1517 62.3711C30.2365 62.3803 30.3188 62.4062 30.3937 62.4472C30.4686 62.4881 30.5347 62.5435 30.5882 62.61C30.6417 62.6765 30.6816 62.7529 30.7056 62.8349Z" fill="black" stroke="black" stroke-width="0.3"/>
<path d="M38.7866 55.992C38.7866 55.4895 38.9177 55.0276 39.1371 54.6868C39.3554 54.3477 39.6747 54.111 40.0496 54.111C40.4246 54.111 40.7436 54.3478 40.9617 54.6869C41.1808 55.0277 41.3116 55.4896 41.3116 55.992C41.3116 56.4945 41.1805 56.9561 40.9612 57.2967C40.7431 57.6356 40.424 57.872 40.0496 57.872C39.6752 57.872 39.3559 57.6353 39.1375 57.2964C38.918 56.9557 38.7866 56.4941 38.7866 55.992Z" fill="black" stroke="black" stroke-width="0.3"/>
<path d="M29.0486 57.872C28.6733 57.872 28.3541 57.6353 28.1362 57.2962C27.9172 56.9555 27.7866 56.4939 27.7866 55.992C27.7866 55.49 27.9178 55.0282 28.137 54.6873C28.355 54.3481 28.6741 54.111 29.0486 54.111C29.4231 54.111 29.7422 54.3478 29.9603 54.6869C30.1795 55.0277 30.3106 55.4895 30.3106 55.992C30.3106 56.4944 30.1801 56.956 29.9611 57.2966C29.7431 57.6357 29.424 57.872 29.0486 57.872Z" fill="black" stroke="black" stroke-width="0.3"/>
<path d="M34.5486 61.866C34.0315 61.866 33.5355 61.6606 33.1698 61.2949C32.8041 60.9292 32.5986 60.4332 32.5986 59.916C32.5986 59.7436 32.6671 59.5783 32.789 59.4564C32.9109 59.3345 33.0762 59.266 33.2486 59.266C33.421 59.266 33.5864 59.3345 33.7083 59.4564C33.8302 59.5783 33.8986 59.7436 33.8986 59.916C33.8986 60.0014 33.9154 60.0859 33.9481 60.1648C33.9808 60.2436 34.0287 60.3153 34.089 60.3756C34.1494 60.436 34.221 60.4839 34.2999 60.5165C34.3787 60.5492 34.4633 60.566 34.5486 60.566C34.634 60.566 34.7185 60.5492 34.7974 60.5165C34.8762 60.4839 34.9479 60.436 35.0083 60.3756C35.0686 60.3153 35.1165 60.2436 35.1492 60.1648C35.1818 60.0859 35.1986 60.0014 35.1986 59.916C35.1986 59.7436 35.2671 59.5783 35.389 59.4564C35.5109 59.3345 35.6762 59.266 35.8486 59.266C36.021 59.266 36.1864 59.3345 36.3083 59.4564C36.4302 59.5783 36.4986 59.7436 36.4986 59.916C36.4986 60.4332 36.2932 60.9292 35.9275 61.2949C35.5618 61.6606 35.0658 61.866 34.5486 61.866Z" fill="black" stroke="black" stroke-width="0.3"/>
<path d="M91.8646 61.922C91.5175 61.922 91.2241 61.7044 91.0247 61.3944C90.8244 61.0829 90.7056 60.6613 90.7056 60.202C90.7056 59.7427 90.8244 59.3213 91.0247 59.0101C91.2242 58.7002 91.5176 58.483 91.8646 58.483C92.2117 58.483 92.5051 58.7006 92.7045 59.0105C92.9048 59.3218 93.0236 59.7432 93.0236 60.202C93.0236 60.6609 92.9045 61.0825 92.7041 61.394C92.5047 61.704 92.2113 61.922 91.8646 61.922Z" fill="black" stroke="black" stroke-width="0.3"/>
<path d="M81.8856 61.922C81.5389 61.922 81.2455 61.7043 81.0461 61.3944C80.8456 61.083 80.7266 60.6613 80.7266 60.202C80.7266 59.7426 80.8456 59.3212 81.0461 59.01C81.2456 58.7003 81.539 58.483 81.8856 58.483C82.2322 58.483 82.5256 58.7006 82.7251 59.0104C82.9255 59.3217 83.0446 59.7431 83.0446 60.202C83.0446 60.6609 82.9255 61.0825 82.7251 61.394C82.5257 61.704 82.2323 61.922 81.8856 61.922Z" fill="black" stroke="black" stroke-width="0.3"/>
<path d="M85.0106 63.9312V63.931C85.0106 63.7586 85.0791 63.5933 85.201 63.4714C85.3229 63.3495 85.4882 63.281 85.6606 63.281C85.833 63.281 85.9983 63.3495 86.1202 63.4714C86.2414 63.5925 86.3098 63.7566 86.3106 63.9279C86.3167 64.0754 86.3795 64.215 86.4858 64.3174C86.5928 64.4205 86.7356 64.4781 86.8841 64.4781C87.0326 64.4781 87.1754 64.4205 87.2824 64.3174C87.3888 64.215 87.4515 64.0754 87.4576 63.9279C87.4584 63.7566 87.5268 63.5925 87.648 63.4714C87.7699 63.3495 87.9352 63.281 88.1076 63.281C88.28 63.281 88.4453 63.3495 88.5672 63.4714C88.6891 63.5933 88.7576 63.7586 88.7576 63.931L88.7576 63.9312C88.757 64.4279 88.5594 64.9041 88.208 65.2552C87.8567 65.6063 87.3804 65.8037 86.8837 65.804L86.8834 65.804C86.3869 65.8034 85.9109 65.6059 85.5598 65.2548C85.2087 64.9037 85.0112 64.4277 85.0106 63.9312Z" fill="black" stroke="black" stroke-width="0.3"/>
<path d="M84.7388 68.204L84.7389 68.204L84.7399 68.2085C84.8701 68.7753 85.1653 69.2747 85.5756 69.6297C85.9857 69.9844 86.4874 70.1749 87.0016 70.1749C87.5157 70.1749 88.0175 69.9844 88.4275 69.6297C88.8379 69.2747 89.1331 68.7753 89.2632 68.2085L89.2632 68.2085L89.2644 68.204C89.28 68.1443 89.3063 68.0878 89.3424 68.0379C89.3784 67.9879 89.4237 67.9453 89.4763 67.9132C89.5289 67.8812 89.5876 67.8604 89.6489 67.853C89.7102 67.8456 89.7721 67.8518 89.8308 67.871C89.8895 67.8901 89.9431 67.9215 89.9889 67.9627C90.0348 68.0037 90.072 68.0536 90.0991 68.109C90.1263 68.1643 90.1431 68.2244 90.1491 68.2859C90.155 68.3458 90.1504 68.4065 90.1357 68.4648C89.9788 69.2431 89.582 69.939 89.0103 70.4303C88.4388 70.9212 87.7287 71.1764 87.0026 71.1477C86.2761 71.177 85.5654 70.9222 84.9935 70.4311C84.4214 69.9398 84.0243 69.2435 83.8675 68.4648C83.8527 68.4065 83.8482 68.3458 83.8541 68.2859C83.86 68.2244 83.8769 68.1643 83.904 68.109C83.9312 68.0536 83.9684 68.0037 84.0142 67.9627L84.1141 68.0741L84.0142 67.9627C84.0601 67.9216 84.1137 67.8901 84.1723 67.871C84.231 67.8518 84.293 67.8456 84.3543 67.853C84.4156 67.8604 84.4742 67.8812 84.5269 67.9132C84.5794 67.9453 84.6247 67.9879 84.6608 68.0379C84.6968 68.0878 84.7231 68.1443 84.7388 68.204Z" fill="black" stroke="black" stroke-width="0.3"/>
</svg>
