<svg width="20" height="20" viewBox="0 0 20 20" fill="none" xmlns="http://www.w3.org/2000/svg">
<mask id="mask0_28_57" style="mask-type:luminance" maskUnits="userSpaceOnUse" x="0" y="0" width="20" height="20">
<path d="M0 0H20V20H0V0Z" fill="white"/>
</mask>
<g mask="url(#mask0_28_57)">
<path d="M3.79785 3.90706H16.011V6.74859H3.79785V3.90706Z" fill="url(#paint0_linear_28_57)"/>
<path fill-rule="evenodd" clip-rule="evenodd" d="M13.0535 3.90706H16.0109V6.74028H14.2052V6.74099L14.1896 6.74026C12.7 6.74026 11.4749 7.77725 11.3276 9.10613L11.3235 9.17766C11.3199 11.5283 11.3164 13.8789 11.3126 16.2295H8.57922V9.17766L8.61018 8.69441C8.85594 6.45897 10.54 4.61632 12.794 3.9687L13.0535 3.90706Z" fill="url(#paint1_linear_28_57)"/>
</g>
<defs>
<linearGradient id="paint0_linear_28_57" x1="3.79785" y1="5.32782" x2="16.011" y2="5.32782" gradientUnits="userSpaceOnUse">
<stop stop-color="#F645B9"/>
<stop offset="0.61" stop-color="#783BFF"/>
<stop offset="1" stop-color="#783BFF"/>
</linearGradient>
<linearGradient id="paint1_linear_28_57" x1="16.8642" y1="4.62301" x2="7.72597" y2="15.5135" gradientUnits="userSpaceOnUse">
<stop stop-color="#33E6AF"/>
<stop offset="0.85" stop-color="#0264FF"/>
<stop offset="1" stop-color="#0264FF"/>
</linearGradient>
</defs>
</svg>
