<svg width="1356" height="1130" viewBox="0 0 1356 1130" fill="none" xmlns="http://www.w3.org/2000/svg">
<rect x="130" y="220" width="1100" height="40" rx="20" fill="#C9B7AB"/>
<rect x="130" y="886" width="1100" height="40" rx="20" fill="#C9B7AB"/>
<rect x="700" y="72" width="543" height="40" rx="20" transform="rotate(90 700 72)" fill="#C9B7AB"/>
<rect x="702.823" y="585.805" width="485.868" height="40" rx="20" transform="rotate(104.005 702.823 585.805)" fill="#C9B7AB"/>
<rect x="305" y="72" width="981" height="40" rx="20" transform="rotate(90 305 72)" fill="#C9B7AB"/>
<rect x="1095" y="72" width="981" height="40" rx="20" transform="rotate(90 1095 72)" fill="#C9B7AB"/>
<rect x="267.5" y="864.5" width="210" height="77" rx="38.5" fill="white" stroke="#5C6F38" stroke-width="5"/>
<circle cx="305" cy="904" r="32" fill="#5C6F38"/>
<path d="M306.059 920.45L300.009 918.7L308.709 893.95H294.459L293.659 888.7H313.959L315.859 891.3L306.059 920.45Z" fill="white"/>
<path d="M346.764 889.784H366.384V893.564H346.764V889.784ZM356.592 894.608C361.38 894.608 364.764 897.092 364.764 900.764C364.764 904.436 361.38 906.884 356.592 906.884C351.768 906.884 348.384 904.436 348.384 900.764C348.384 897.092 351.768 894.608 356.592 894.608ZM356.592 898.208C354.432 898.208 352.992 899.072 352.992 900.764C352.992 902.42 354.432 903.284 356.592 903.284C358.716 903.284 360.192 902.42 360.192 900.764C360.192 899.072 358.716 898.208 356.592 898.208ZM368.22 886.868H373.008V907.784H368.22V886.868ZM371.676 895.472H377.436V899.36H371.676V895.472ZM350.76 909.152H373.008V920.204H368.22V912.968H350.76V909.152ZM354.18 886.688H358.968V891.944H354.18V886.688ZM379.417 902.528H409.585V906.344H379.417V902.528ZM392.125 897.524H396.877V904.004H392.125V897.524ZM383.053 896.012H406.165V899.792H383.053V896.012ZM383.053 888.308H405.985V892.052H387.805V898.424H383.053V888.308ZM394.393 908C401.593 908 405.949 910.196 405.949 914.12C405.949 918.044 401.593 920.24 394.393 920.24C387.193 920.24 382.801 918.044 382.801 914.12C382.801 910.196 387.193 908 394.393 908ZM394.393 911.6C389.929 911.6 387.661 912.428 387.661 914.12C387.661 915.848 389.929 916.604 394.393 916.604C398.857 916.604 401.125 915.848 401.125 914.12C401.125 912.428 398.857 911.6 394.393 911.6ZM426.759 891.332H436.623V895.184H426.759V891.332ZM426.759 898.568H436.623V902.42H426.759V898.568ZM417.183 908.108H439.899V920.204H435.111V911.888H417.183V908.108ZM435.111 886.868H439.899V906.596H435.111V886.868ZM421.215 888.596C426.183 888.596 429.999 892.052 429.999 896.84C429.999 901.664 426.183 905.12 421.215 905.12C416.211 905.12 412.395 901.664 412.395 896.84C412.395 892.052 416.211 888.596 421.215 888.596ZM421.215 892.664C418.767 892.664 416.967 894.212 416.967 896.84C416.967 899.504 418.767 901.052 421.215 901.052C423.627 901.052 425.463 899.504 425.463 896.84C425.463 894.212 423.627 892.664 421.215 892.664Z" fill="#5C4639"/>
<rect x="804.5" y="867.5" width="274" height="77" rx="38.5" fill="white" stroke="#5C6F38" stroke-width="5"/>
<rect x="1052.5" y="867.5" width="180" height="77" rx="38.5" fill="white" stroke="#F9AF43" stroke-width="5"/>
<circle cx="842" cy="907" r="32" fill="#5C6F38"/>
<path d="M843.059 923.45L837.009 921.7L845.709 896.95H831.459L830.659 891.7H850.959L852.859 894.3L843.059 923.45Z" fill="white"/>
<path d="M905.103 888.868H909.891V908.164H905.103V888.868ZM908.559 896.644H914.319V900.568H908.559V896.644ZM895.563 891.028H900.711C900.711 899.992 895.167 906.22 885.339 908.956L883.395 905.14C891.423 902.944 895.563 898.588 895.563 893.44V891.028ZM884.979 891.028H898.479V894.88H884.979V891.028ZM899.091 908.596C905.823 908.596 910.251 911.224 910.251 915.4C910.251 919.612 905.823 922.24 899.091 922.24C892.359 922.24 887.859 919.612 887.859 915.4C887.859 911.224 892.359 908.596 899.091 908.596ZM899.091 912.304C895.023 912.304 892.611 913.384 892.611 915.4C892.611 917.452 895.023 918.532 899.091 918.532C903.159 918.532 905.571 917.452 905.571 915.4C905.571 913.384 903.159 912.304 899.091 912.304ZM937.72 888.868H942.508V907.66H937.72V888.868ZM941.212 895.888H946.936V899.776H941.212V895.888ZM920.8 909.172H942.508V921.844H920.8V909.172ZM937.828 912.916H925.516V918.064H937.828V912.916ZM917.596 890.452H922.384V904.096H917.596V890.452ZM917.596 902.044H920.404C924.94 902.044 929.872 901.72 935.128 900.712L935.668 904.564C930.232 905.68 925.12 905.968 920.404 905.968H917.596V902.044ZM952.337 890.812H973.253V894.592H952.337V890.812ZM948.917 904.996H979.049V908.848H948.917V904.996ZM961.409 907.696H966.233V922.24H961.409V907.696ZM970.805 890.812H975.521V893.764C975.521 897.364 975.521 901.396 974.225 907.3L969.509 906.76C970.805 901.18 970.805 897.22 970.805 893.764V890.812ZM988.987 894.7H992.839V895.924C992.839 901.72 989.887 906.94 983.515 908.776L981.283 905.032C986.647 903.52 988.987 899.704 988.987 895.924V894.7ZM989.887 894.7H993.775V895.924C993.775 899.344 996.151 902.836 1001.51 904.24L999.355 907.948C992.947 906.256 989.887 901.396 989.887 895.924V894.7ZM982.435 892.324H1000.33V896.068H982.435V892.324ZM988.987 888.76H993.775V893.8H988.987V888.76ZM999.391 897.76H1005.76V901.612H999.391V897.76ZM1004.61 888.868H1009.4V908.992H1004.61V888.868ZM998.095 909.568C1005.15 909.568 1009.51 911.872 1009.51 915.868C1009.51 919.864 1005.15 922.204 998.095 922.204C991.039 922.204 986.683 919.864 986.683 915.868C986.683 911.872 991.039 909.568 998.095 909.568ZM998.095 913.204C993.739 913.204 991.471 914.068 991.471 915.868C991.471 917.668 993.739 918.568 998.095 918.568C1002.49 918.568 1004.75 917.668 1004.75 915.868C1004.75 914.068 1002.49 913.204 998.095 913.204ZM1028.88 893.332H1038.74V897.184H1028.88V893.332ZM1028.88 900.568H1038.74V904.42H1028.88V900.568ZM1019.3 910.108H1042.02V922.204H1037.23V913.888H1019.3V910.108ZM1037.23 888.868H1042.02V908.596H1037.23V888.868ZM1023.33 890.596C1028.3 890.596 1032.12 894.052 1032.12 898.84C1032.12 903.664 1028.3 907.12 1023.33 907.12C1018.33 907.12 1014.51 903.664 1014.51 898.84C1014.51 894.052 1018.33 890.596 1023.33 890.596ZM1023.33 894.664C1020.88 894.664 1019.08 896.212 1019.08 898.84C1019.08 901.504 1020.88 903.052 1023.33 903.052C1025.74 903.052 1027.58 901.504 1027.58 898.84C1027.58 896.212 1025.74 894.664 1023.33 894.664Z" fill="#5C4639"/>
<path d="M1091.02 888.84H1095.23V890.388C1095.23 896.796 1090.19 902.232 1081.44 903.528L1079.57 899.676C1087.24 898.668 1091.02 894.312 1091.02 890.388V888.84ZM1091.92 888.84H1096.1V890.388C1096.1 894.276 1099.91 898.668 1107.54 899.676L1105.71 903.528C1096.96 902.232 1091.92 896.796 1091.92 890.388V888.84ZM1091.06 909H1095.81V921.204H1091.06V909ZM1078.49 905.976H1108.62V909.864H1078.49V905.976ZM1133.97 887.904H1138.79V911.844H1133.97V887.904ZM1116.58 916.812H1139.62V920.628H1116.58V916.812ZM1116.58 909.432H1121.37V918.36H1116.58V909.432ZM1120.65 889.992C1125.76 889.992 1129.68 893.52 1129.68 898.452C1129.68 903.348 1125.76 906.912 1120.65 906.912C1115.54 906.912 1111.58 903.348 1111.58 898.452C1111.58 893.52 1115.54 889.992 1120.65 889.992ZM1120.65 894.132C1118.16 894.132 1116.26 895.716 1116.26 898.452C1116.26 901.152 1118.16 902.736 1120.65 902.736C1123.1 902.736 1125 901.152 1125 898.452C1125 895.716 1123.1 894.132 1120.65 894.132ZM1143.69 904.932H1173.86V908.712H1143.69V904.932ZM1156.76 906.948H1161.58V913.968H1156.76V906.948ZM1147.18 916.812H1170.55V920.628H1147.18V916.812ZM1147.18 911.448H1151.93V918.432H1147.18V911.448ZM1147.54 888.912H1152.26V892.332H1165.25V888.912H1170.01V902.628H1147.54V888.912ZM1152.26 895.932V898.884H1165.25V895.932H1152.26ZM1197.8 887.868H1202.62V907.092H1197.8V887.868ZM1201.22 895.752H1206.98V899.64H1201.22V895.752ZM1191.68 907.704C1198.52 907.704 1202.95 910.26 1202.95 914.472C1202.95 918.72 1198.52 921.24 1191.68 921.24C1184.8 921.24 1180.38 918.72 1180.38 914.472C1180.38 910.26 1184.8 907.704 1191.68 907.704ZM1191.68 911.52C1187.43 911.52 1185.09 912.456 1185.09 914.472C1185.09 916.452 1187.43 917.424 1191.68 917.424C1195.89 917.424 1198.23 916.452 1198.23 914.472C1198.23 912.456 1195.89 911.52 1191.68 911.52ZM1177.46 901.548H1180.23C1187.58 901.548 1191.21 901.368 1195.21 900.504L1195.68 904.32C1191.61 905.22 1187.76 905.364 1180.23 905.364H1177.46V901.548ZM1177.46 890.1H1192.36V893.916H1182.21V904.14H1177.46V890.1Z" fill="#F9AF43"/>
<circle cx="464" cy="827" r="25" fill="#5C6F38"/>
<path d="M458.676 835H454.806V822.34L451.386 823.66L449.916 820.75L456.096 818.02H458.676V835ZM460.94 826.45C460.94 824.73 461.3 823.21 462.02 821.89C462.74 820.57 463.73 819.53 464.99 818.77C466.25 818.01 467.69 817.63 469.31 817.63C470.93 817.63 472.36 818.01 473.6 818.77C474.86 819.53 475.84 820.57 476.54 821.89C477.26 823.19 477.62 824.68 477.62 826.36C477.62 828.1 477.26 829.65 476.54 831.01C475.84 832.37 474.86 833.44 473.6 834.22C472.34 835 470.9 835.39 469.28 835.39C467.66 835.39 466.22 835.01 464.96 834.25C463.72 833.47 462.74 832.41 462.02 831.07C461.3 829.71 460.94 828.17 460.94 826.45ZM464.51 826.36C464.51 827.46 464.72 828.44 465.14 829.3C465.56 830.16 466.13 830.84 466.85 831.34C467.57 831.82 468.4 832.06 469.34 832.06C470.26 832.06 471.08 831.82 471.8 831.34C472.52 830.84 473.08 830.18 473.48 829.36C473.9 828.52 474.11 827.57 474.11 826.51C474.11 825.43 473.9 824.47 473.48 823.63C473.08 822.79 472.51 822.13 471.77 821.65C471.05 821.17 470.22 820.93 469.28 820.93C468.36 820.93 467.54 821.17 466.82 821.65C466.12 822.13 465.56 822.77 465.14 823.57C464.72 824.37 464.51 825.3 464.51 826.36Z" fill="white"/>
<path d="M389.912 827.02H393.902V831.04H389.912V827.02ZM379.412 824.68H404.432V827.59H379.412V824.68ZM389.912 812.86H393.872V816.22H389.912V812.86ZM389.672 816.4H393.182V816.94C393.182 820.93 389.132 823.57 381.452 823.99L380.342 821.02C387.122 820.75 389.672 818.86 389.672 816.94V816.4ZM390.602 816.4H394.112V816.94C394.112 818.86 396.662 820.75 403.412 821.02L402.302 823.99C394.652 823.57 390.602 820.93 390.602 816.94V816.4ZM381.752 815.05H402.062V817.96H381.752V815.05ZM382.232 829.27H401.432V836.14H386.192V838.78H382.262V833.47H397.502V832.15H382.232V829.27ZM382.262 837.58H402.152V840.49H382.262V837.58ZM409.33 814.51H426.76V817.66H409.33V814.51ZM406.48 826.33H431.59V829.54H406.48V826.33ZM416.89 828.58H420.91V840.7H416.89V828.58ZM424.72 814.51H428.65V816.97C428.65 819.97 428.65 823.33 427.57 828.25L423.64 827.8C424.72 823.15 424.72 819.85 424.72 816.97V814.51Z" fill="#5C6F38"/>
<circle cx="1009" cy="830" r="25" fill="#F9AF43"/>
<path d="M1008.69 820.63C1010.09 820.63 1011.25 820.87 1012.17 821.35C1013.11 821.83 1013.81 822.47 1014.27 823.27C1014.75 824.05 1014.99 824.91 1014.99 825.85C1014.99 826.45 1014.87 827.02 1014.63 827.56C1014.39 828.1 1014.09 828.57 1013.73 828.97C1013.37 829.35 1012.98 829.63 1012.56 829.81C1012.94 829.89 1013.34 830.14 1013.76 830.56C1014.2 830.96 1014.57 831.49 1014.87 832.15C1015.19 832.79 1015.35 833.53 1015.35 834.37C1015.35 835.47 1015.06 836.47 1014.48 837.37C1013.9 838.27 1013.08 838.98 1012.02 839.5C1010.96 840.02 1009.71 840.28 1008.27 840.28C1007.17 840.28 1006.03 840.08 1004.85 839.68C1003.69 839.3 1002.65 838.87 1001.73 838.39L1003.71 835.78C1004.51 836.26 1005.26 836.61 1005.96 836.83C1006.66 837.03 1007.45 837.13 1008.33 837.13C1008.93 837.13 1009.49 837.03 1010.01 836.83C1010.53 836.61 1010.95 836.29 1011.27 835.87C1011.61 835.45 1011.78 834.96 1011.78 834.4C1011.78 833.48 1011.42 832.75 1010.7 832.21C1010 831.67 1008.86 831.4 1007.28 831.4H1006.02L1005.48 828.37H1007.46C1008.68 828.37 1009.64 828.15 1010.34 827.71C1011.06 827.25 1011.42 826.65 1011.42 825.91C1011.42 825.51 1011.3 825.15 1011.06 824.83C1010.84 824.49 1010.52 824.23 1010.1 824.05C1009.68 823.87 1009.18 823.78 1008.6 823.78C1007.7 823.78 1006.86 823.95 1006.08 824.29C1005.32 824.63 1004.67 824.98 1004.13 825.34L1002.3 822.73C1003.28 822.09 1004.29 821.58 1005.33 821.2C1006.37 820.82 1007.49 820.63 1008.69 820.63Z" fill="white"/>
<path d="M934.912 830.02H938.902V834.04H934.912V830.02ZM924.412 827.68H949.432V830.59H924.412V827.68ZM934.912 815.86H938.872V819.22H934.912V815.86ZM934.672 819.4H938.182V819.94C938.182 823.93 934.132 826.57 926.452 826.99L925.342 824.02C932.122 823.75 934.672 821.86 934.672 819.94V819.4ZM935.602 819.4H939.112V819.94C939.112 821.86 941.662 823.75 948.412 824.02L947.302 826.99C939.652 826.57 935.602 823.93 935.602 819.94V819.4ZM926.752 818.05H947.062V820.96H926.752V818.05ZM927.232 832.27H946.432V839.14H931.192V841.78H927.262V836.47H942.502V835.15H927.232V832.27ZM927.262 840.58H947.152V843.49H927.262V840.58ZM954.33 817.51H971.76V820.66H954.33V817.51ZM951.48 829.33H976.59V832.54H951.48V829.33ZM961.89 831.58H965.91V843.7H961.89V831.58ZM969.72 817.51H973.65V819.97C973.65 822.97 973.65 826.33 972.57 831.25L968.64 830.8C969.72 826.15 969.72 822.85 969.72 819.97V817.51Z" fill="#F9AF43"/>
<path d="M269.289 28C266.543 28 263.066 27.9875 262 25.5C260.93 23.0165 262.933 19.5797 264.866 17.6522L280.729 1.82609C281.339 1.21739 282 0.760874 282.712 0.456526C283.424 0.152179 284.187 0 285 0C285.814 0 286.576 0.152179 287.288 0.456526C288 0.760874 288.661 1.21739 289.271 1.82609L305.135 17.6522C307.067 19.5797 309.07 23.0165 308 25.5C306.934 27.9875 303.457 28 300.711 28H269.289Z" fill="#5C4639"/>
<path d="M232.285 51.94H257.425V55.12H232.285V51.94ZM242.875 47.77H246.835V53.17H242.875V47.77ZM235.315 46.51H254.575V49.66H235.315V46.51ZM235.315 40.09H254.425V43.21H239.275V48.52H235.315V40.09ZM244.765 56.5C250.765 56.5 254.395 58.33 254.395 61.6C254.395 64.87 250.765 66.7 244.765 66.7C238.765 66.7 235.105 64.87 235.105 61.6C235.105 58.33 238.765 56.5 244.765 56.5ZM244.765 59.5C241.045 59.5 239.155 60.19 239.155 61.6C239.155 63.04 241.045 63.67 244.765 63.67C248.485 63.67 250.375 63.04 250.375 61.6C250.375 60.19 248.485 59.5 244.765 59.5ZM260.432 42.34H283.352V45.52H260.432V42.34ZM259.382 60.67H284.522V63.88H259.382V60.67ZM269.912 57.01H273.872V61.93H269.912V57.01ZM271.862 46.72C277.652 46.72 281.282 48.73 281.282 52.15C281.282 55.57 277.652 57.58 271.862 57.58C266.072 57.58 262.442 55.57 262.442 52.15C262.442 48.73 266.072 46.72 271.862 46.72ZM271.862 49.81C268.382 49.81 266.522 50.56 266.522 52.15C266.522 53.74 268.382 54.46 271.862 54.46C275.342 54.46 277.202 53.74 277.202 52.15C277.202 50.56 275.342 49.81 271.862 49.81ZM269.912 39.19H273.872V44.32H269.912V39.19ZM306.52 38.89H310.3V66.67H306.52V38.89ZM302.8 49.57H307.42V52.78H302.8V49.57ZM300.31 39.37H304V65.35H300.31V39.37ZM287.23 57.13H289.18C292.6 57.13 295.45 57.01 298.75 56.41L299.05 59.65C295.69 60.31 292.75 60.4 289.18 60.4H287.23V57.13ZM287.23 42.1H297.49V45.31H291.19V58.69H287.23V42.1ZM316.008 41.23H333.588V44.44H316.008V41.23ZM313.578 60.1H338.688V63.34H313.578V60.1ZM318.828 51.34H322.788V61.12H318.828V51.34ZM332.418 41.23H336.438V43.96C336.438 47.32 336.438 51.16 335.448 56.8L331.488 56.41C332.418 51.13 332.418 47.23 332.418 43.96V41.23ZM325.698 51.34H329.628V61.12H325.698V51.34Z" fill="#5C4639"/>
<path d="M304.01 1102C306.755 1102 310.233 1102.01 311.299 1104.5C312.368 1106.98 310.365 1110.42 308.433 1112.35L292.569 1128.17C291.959 1128.78 291.298 1129.24 290.586 1129.54C289.875 1129.85 289.112 1130 288.298 1130C287.485 1130 286.722 1129.85 286.01 1129.54C285.299 1129.24 284.638 1128.78 284.027 1128.17L268.164 1112.35C266.232 1110.42 264.229 1106.98 265.299 1104.5C266.364 1102.01 269.842 1102 272.587 1102L304.01 1102Z" fill="#5C4639"/>
<path d="M257.604 1065.61H265.824V1068.82H257.604V1065.61ZM257.604 1071.64H265.824V1074.85H257.604V1071.64ZM249.624 1079.59H268.554V1089.67H264.564V1082.74H249.624V1079.59ZM264.564 1061.89H268.554V1078.33H264.564V1061.89ZM252.984 1063.33C257.124 1063.33 260.304 1066.21 260.304 1070.2C260.304 1074.22 257.124 1077.1 252.984 1077.1C248.814 1077.1 245.634 1074.22 245.634 1070.2C245.634 1066.21 248.814 1063.33 252.984 1063.33ZM252.984 1066.72C250.944 1066.72 249.444 1068.01 249.444 1070.2C249.444 1072.42 250.944 1073.71 252.984 1073.71C254.994 1073.71 256.524 1072.42 256.524 1070.2C256.524 1068.01 254.994 1066.72 252.984 1066.72ZM278.641 1063.33H281.911V1065.64C281.911 1071.16 279.481 1075.99 274.141 1077.85L272.041 1074.7C276.691 1073.14 278.641 1069.42 278.641 1065.64V1063.33ZM279.451 1063.33H282.661V1065.55C282.661 1069.03 284.521 1072.51 288.901 1073.95L286.831 1077.07C281.791 1075.3 279.451 1070.77 279.451 1065.55V1063.33ZM290.281 1061.89H294.271V1077.94H290.281V1061.89ZM293.161 1068.16H297.961V1071.43H293.161V1068.16ZM276.211 1079.05H294.271V1089.37H276.211V1079.05ZM290.371 1082.17H280.141V1086.22H290.371V1082.17ZM311.799 1065.61H320.019V1068.82H311.799V1065.61ZM311.799 1071.64H320.019V1074.85H311.799V1071.64ZM303.819 1079.59H322.749V1089.67H318.759V1082.74H303.819V1079.59ZM318.759 1061.89H322.749V1078.33H318.759V1061.89ZM307.179 1063.33C311.319 1063.33 314.499 1066.21 314.499 1070.2C314.499 1074.22 311.319 1077.1 307.179 1077.1C303.009 1077.1 299.829 1074.22 299.829 1070.2C299.829 1066.21 303.009 1063.33 307.179 1063.33ZM307.179 1066.72C305.139 1066.72 303.639 1068.01 303.639 1070.2C303.639 1072.42 305.139 1073.71 307.179 1073.71C309.189 1073.71 310.719 1072.42 310.719 1070.2C310.719 1068.01 309.189 1066.72 307.179 1066.72Z" fill="#5C4639"/>
<path d="M1094.01 1102C1096.76 1102 1100.23 1102.01 1101.3 1104.5C1102.37 1106.98 1100.37 1110.42 1098.43 1112.35L1082.57 1128.17C1081.96 1128.78 1081.3 1129.24 1080.59 1129.54C1079.87 1129.85 1079.11 1130 1078.3 1130C1077.48 1130 1076.72 1129.85 1076.01 1129.54C1075.3 1129.24 1074.64 1128.78 1074.03 1128.17L1058.16 1112.35C1056.23 1110.42 1054.23 1106.98 1055.3 1104.5C1056.36 1102.01 1059.84 1102 1062.59 1102L1094.01 1102Z" fill="#5C4639"/>
<path d="M1049.49 1067.8H1055.94V1071.01H1049.49V1067.8ZM1041.66 1063.6H1044.87V1066.6C1044.87 1072.27 1042.5 1077.1 1037.25 1079.02L1035.15 1075.9C1039.74 1074.37 1041.66 1070.53 1041.66 1066.6V1063.6ZM1042.53 1063.6H1045.71V1066.63C1045.71 1070.2 1047.54 1073.77 1051.92 1075.27L1049.79 1078.33C1044.81 1076.53 1042.53 1071.88 1042.53 1066.63V1063.6ZM1054.56 1061.92H1058.55V1082.41H1054.56V1061.92ZM1040.16 1086.01H1059.15V1089.19H1040.16V1086.01ZM1040.16 1080.34H1044.18V1087.78H1040.16V1080.34ZM1062.4 1076.32H1087.57V1079.41H1062.4V1076.32ZM1065.49 1062.58H1084.51V1070.05H1069.48V1073.08H1065.52V1067.23H1080.58V1065.61H1065.49V1062.58ZM1065.52 1071.7H1085.05V1074.73H1065.52V1071.7ZM1074.91 1080.82C1081.09 1080.82 1084.66 1082.38 1084.66 1085.29C1084.66 1088.17 1081.09 1089.73 1074.91 1089.73C1068.7 1089.73 1065.16 1088.17 1065.16 1085.29C1065.16 1082.38 1068.7 1080.82 1074.91 1080.82ZM1074.91 1083.7C1070.98 1083.7 1069.21 1084.18 1069.21 1085.29C1069.21 1086.34 1070.98 1086.82 1074.91 1086.82C1078.84 1086.82 1080.61 1086.34 1080.61 1085.29C1080.61 1084.18 1078.84 1083.7 1074.91 1083.7ZM1101.8 1065.61H1110.02V1068.82H1101.8V1065.61ZM1101.8 1071.64H1110.02V1074.85H1101.8V1071.64ZM1093.82 1079.59H1112.75V1089.67H1108.76V1082.74H1093.82V1079.59ZM1108.76 1061.89H1112.75V1078.33H1108.76V1061.89ZM1097.18 1063.33C1101.32 1063.33 1104.5 1066.21 1104.5 1070.2C1104.5 1074.22 1101.32 1077.1 1097.18 1077.1C1093.01 1077.1 1089.83 1074.22 1089.83 1070.2C1089.83 1066.21 1093.01 1063.33 1097.18 1063.33ZM1097.18 1066.72C1095.14 1066.72 1093.64 1068.01 1093.64 1070.2C1093.64 1072.42 1095.14 1073.71 1097.18 1073.71C1099.19 1073.71 1100.72 1072.42 1100.72 1070.2C1100.72 1068.01 1099.19 1066.72 1097.18 1066.72Z" fill="#5C4639"/>
<path d="M664.289 28C661.543 28 658.066 27.9875 657 25.5C655.93 23.0165 657.933 19.5797 659.866 17.6522L675.729 1.82609C676.339 1.21739 677 0.760874 677.712 0.456526C678.424 0.152179 679.187 0 680 0C680.814 0 681.576 0.152179 682.288 0.456526C683 0.760874 683.661 1.21739 684.271 1.82609L700.135 17.6522C702.067 19.5797 704.07 23.0165 703 25.5C701.934 27.9875 698.457 28 695.711 28H664.289Z" fill="#5C4639"/>
<path d="M633.705 40.33H637.035V42.82C637.035 48.4 634.545 53.29 629.085 55.12L627.015 51.91C631.755 50.38 633.705 46.63 633.705 42.82V40.33ZM634.545 40.33H637.755V42.64C637.755 46.33 639.555 49.75 643.965 51.16L641.895 54.28C636.765 52.51 634.545 48.04 634.545 42.64V40.33ZM646.515 38.89H650.505V55.15H646.515V38.89ZM641.085 55.87C646.965 55.87 650.595 57.88 650.595 61.27C650.595 64.69 646.965 66.67 641.085 66.67C635.205 66.67 631.575 64.69 631.575 61.27C631.575 57.88 635.205 55.87 641.085 55.87ZM641.085 58.96C637.485 58.96 635.565 59.71 635.565 61.27C635.565 62.83 637.485 63.61 641.085 63.61C644.715 63.61 646.635 62.83 646.635 61.27C646.635 59.71 644.715 58.96 641.085 58.96ZM641.445 43.93H647.085V47.17H641.445V43.93ZM664.822 39.7H668.332V40.99C668.332 46.33 664.132 50.86 656.842 51.94L655.282 48.73C661.672 47.89 664.822 44.26 664.822 40.99V39.7ZM665.572 39.7H669.052V40.99C669.052 44.23 672.232 47.89 678.592 48.73L677.062 51.94C669.772 50.86 665.572 46.33 665.572 40.99V39.7ZM664.852 56.5H668.812V66.67H664.852V56.5ZM654.382 53.98H679.492V57.22H654.382V53.98ZM701.52 38.89H705.3V66.67H701.52V38.89ZM697.8 49.57H702.42V52.78H697.8V49.57ZM695.31 39.37H699V65.35H695.31V39.37ZM682.23 57.13H684.18C687.6 57.13 690.45 57.01 693.75 56.41L694.05 59.65C690.69 60.31 687.75 60.4 684.18 60.4H682.23V57.13ZM682.23 42.1H692.49V45.31H686.19V58.69H682.23V42.1ZM711.008 41.23H728.588V44.44H711.008V41.23ZM708.578 60.1H733.688V63.34H708.578V60.1ZM713.828 51.34H717.788V61.12H713.828V51.34ZM727.418 41.23H731.438V43.96C731.438 47.32 731.438 51.16 730.448 56.8L726.488 56.41C727.418 51.13 727.418 47.23 727.418 43.96V41.23ZM720.698 51.34H724.628V61.12H720.698V51.34Z" fill="#5C4639"/>
<path d="M1059.29 28C1056.54 28 1053.07 27.9875 1052 25.5C1050.93 23.0165 1052.93 19.5797 1054.87 17.6522L1070.73 1.82609C1071.34 1.21739 1072 0.760874 1072.71 0.456526C1073.42 0.152179 1074.19 0 1075 0C1075.81 0 1076.58 0.152179 1077.29 0.456526C1078 0.760874 1078.66 1.21739 1079.27 1.82609L1095.13 17.6522C1097.07 19.5797 1099.07 23.0165 1098 25.5C1096.93 27.9875 1093.46 28 1090.71 28H1059.29Z" fill="#5C4639"/>
<path d="M1043.04 40.15C1047.33 40.15 1050.54 42.91 1050.54 46.72C1050.54 50.62 1047.33 53.35 1043.04 53.35C1038.75 53.35 1035.54 50.62 1035.54 46.72C1035.54 42.91 1038.75 40.15 1043.04 40.15ZM1043.04 43.45C1040.94 43.45 1039.41 44.65 1039.41 46.72C1039.41 48.82 1040.94 50.05 1043.04 50.05C1045.14 50.05 1046.67 48.82 1046.67 46.72C1046.67 44.65 1045.14 43.45 1043.04 43.45ZM1053.18 38.89H1057.17V53.95H1053.18V38.89ZM1056.06 44.71H1060.86V47.95H1056.06V44.71ZM1039.02 55.15H1042.98V57.7H1053.21V55.15H1057.17V66.37H1039.02V55.15ZM1042.98 60.76V63.19H1053.21V60.76H1042.98ZM1065.28 40.51H1082.71V43.66H1065.28V40.51ZM1062.43 52.33H1087.54V55.54H1062.43V52.33ZM1072.84 54.58H1076.86V66.7H1072.84V54.58ZM1080.67 40.51H1084.6V42.97C1084.6 45.97 1084.6 49.33 1083.52 54.25L1079.59 53.8C1080.67 49.15 1080.67 45.85 1080.67 42.97V40.51ZM1104.56 45.61H1109.84V48.85H1104.56V45.61ZM1108.76 38.89H1112.75V55.39H1108.76V38.89ZM1103.33 55.99C1109.21 55.99 1112.84 58 1112.84 61.36C1112.84 64.75 1109.21 66.7 1103.33 66.7C1097.45 66.7 1093.82 64.75 1093.82 61.36C1093.82 58 1097.45 55.99 1103.33 55.99ZM1103.33 59.02C1099.73 59.02 1097.81 59.77 1097.81 61.36C1097.81 62.92 1099.73 63.67 1103.33 63.67C1106.96 63.67 1108.88 62.92 1108.88 61.36C1108.88 59.77 1106.96 59.02 1103.33 59.02ZM1095.92 41.68H1099.16V43.42C1099.16 48.73 1096.7 53.59 1091.39 55.39L1089.35 52.24C1093.94 50.68 1095.92 46.99 1095.92 43.42V41.68ZM1096.76 41.68H1099.97V43.42C1099.97 46.69 1101.86 50.08 1106.24 51.55L1104.29 54.7C1099.13 52.99 1096.76 48.37 1096.76 43.42V41.68ZM1090.43 40.57H1105.37V43.75H1090.43V40.57Z" fill="#5C4639"/>
<path d="M1307 224.588C1307 221.842 1307.01 218.364 1309.5 217.299C1311.98 216.229 1315.42 218.232 1317.35 220.164L1333.17 236.028C1333.78 236.638 1334.24 237.299 1334.54 238.011C1334.85 238.723 1335 239.485 1335 240.299C1335 241.112 1334.85 241.875 1334.54 242.587C1334.24 243.299 1333.78 243.96 1333.17 244.57L1317.35 260.433C1315.42 262.366 1311.98 264.368 1309.5 263.299C1307.01 262.233 1307 258.755 1307 256.01L1307 224.588Z" fill="#5C4639"/>
<path d="M1250.65 211.52H1258.87V214.7H1250.65V211.52ZM1250.65 217.67H1258.87V220.88H1250.65V217.67ZM1246.03 209.36C1250.17 209.36 1253.35 212.24 1253.35 216.17C1253.35 220.1 1250.17 222.98 1246.03 222.98C1241.86 222.98 1238.68 220.1 1238.68 216.17C1238.68 212.24 1241.86 209.36 1246.03 209.36ZM1246.03 212.75C1243.99 212.75 1242.49 213.98 1242.49 216.17C1242.49 218.33 1243.99 219.62 1246.03 219.62C1248.07 219.62 1249.57 218.33 1249.57 216.17C1249.57 213.98 1248.07 212.75 1246.03 212.75ZM1257.61 207.89H1261.6V224.15H1257.61V207.89ZM1252.18 224.72C1258.03 224.72 1261.69 226.76 1261.69 230.21C1261.69 233.66 1258.03 235.67 1252.18 235.67C1246.33 235.67 1242.67 233.66 1242.67 230.21C1242.67 226.76 1246.33 224.72 1252.18 224.72ZM1252.18 227.81C1248.55 227.81 1246.6 228.59 1246.6 230.21C1246.6 231.83 1248.55 232.61 1252.18 232.61C1255.84 232.61 1257.76 231.83 1257.76 230.21C1257.76 228.59 1255.84 227.81 1252.18 227.81ZM1265.48 220.94H1290.62V224.12H1265.48V220.94ZM1276.07 216.77H1280.03V222.17H1276.07V216.77ZM1268.51 215.51H1287.77V218.66H1268.51V215.51ZM1268.51 209.09H1287.62V212.21H1272.47V217.52H1268.51V209.09ZM1277.96 225.5C1283.96 225.5 1287.59 227.33 1287.59 230.6C1287.59 233.87 1283.96 235.7 1277.96 235.7C1271.96 235.7 1268.3 233.87 1268.3 230.6C1268.3 227.33 1271.96 225.5 1277.96 225.5ZM1277.96 228.5C1274.24 228.5 1272.35 229.19 1272.35 230.6C1272.35 232.04 1274.24 232.67 1277.96 232.67C1281.68 232.67 1283.57 232.04 1283.57 230.6C1283.57 229.19 1281.68 228.5 1277.96 228.5ZM1258.42 242.89H1262.2V270.67H1258.42V242.89ZM1254.7 253.57H1259.32V256.78H1254.7V253.57ZM1252.21 243.37H1255.9V269.35H1252.21V243.37ZM1239.13 261.13H1241.08C1244.5 261.13 1247.35 261.01 1250.65 260.41L1250.95 263.65C1247.59 264.31 1244.65 264.4 1241.08 264.4H1239.13V261.13ZM1239.13 246.1H1249.39V249.31H1243.09V262.69H1239.13V246.1ZM1267.91 245.23H1285.49V248.44H1267.91V245.23ZM1265.48 264.1H1290.59V267.34H1265.48V264.1ZM1270.73 255.34H1274.69V265.12H1270.73V255.34ZM1284.32 245.23H1288.34V247.96C1288.34 251.32 1288.34 255.16 1287.35 260.8L1283.39 260.41C1284.32 255.13 1284.32 251.23 1284.32 247.96V245.23ZM1277.6 255.34H1281.53V265.12H1277.6V255.34Z" fill="#5C4639"/>
<path d="M1328 888.588C1328 885.842 1328.01 882.364 1330.5 881.299C1332.98 880.229 1336.42 882.232 1338.35 884.164L1354.17 900.028C1354.78 900.638 1355.24 901.299 1355.54 902.011C1355.85 902.723 1356 903.485 1356 904.299C1356 905.112 1355.85 905.875 1355.54 906.587C1355.24 907.299 1354.78 907.96 1354.17 908.57L1338.35 924.433C1336.42 926.366 1332.98 928.368 1330.5 927.299C1328.01 926.233 1328 922.755 1328 920.01L1328 888.588Z" fill="#5C4639"/>
<path d="M1247.54 894.75H1250.75V895.77C1250.75 900.6 1248.29 904.95 1242.98 906.48L1241.12 903.36C1245.59 902.1 1247.54 898.92 1247.54 895.77V894.75ZM1248.29 894.75H1251.53V895.77C1251.53 898.62 1253.51 901.53 1257.98 902.7L1256.18 905.79C1250.84 904.38 1248.29 900.33 1248.29 895.77V894.75ZM1242.08 892.77H1256.99V895.89H1242.08V892.77ZM1247.54 889.8H1251.53V894H1247.54V889.8ZM1256.21 897.3H1261.52V900.51H1256.21V897.3ZM1260.56 889.89H1264.55V906.66H1260.56V889.89ZM1255.13 907.14C1261.01 907.14 1264.64 909.06 1264.64 912.39C1264.64 915.72 1261.01 917.67 1255.13 917.67C1249.25 917.67 1245.62 915.72 1245.62 912.39C1245.62 909.06 1249.25 907.14 1255.13 907.14ZM1255.13 910.17C1251.5 910.17 1249.61 910.89 1249.61 912.39C1249.61 913.89 1251.5 914.64 1255.13 914.64C1258.79 914.64 1260.68 913.89 1260.68 912.39C1260.68 910.89 1258.79 910.17 1255.13 910.17ZM1286.28 889.89H1290.27V905.46H1286.28V889.89ZM1289.16 896.13H1293.96V899.37H1289.16V896.13ZM1269.45 901.29H1271.76C1277.79 901.29 1280.79 901.14 1284.12 900.45L1284.51 903.6C1281.12 904.35 1277.94 904.5 1271.76 904.5H1269.45V901.29ZM1269.45 891.6H1281.78V894.78H1273.41V903.15H1269.45V891.6ZM1272.21 906.66H1290.27V917.37H1272.21V906.66ZM1286.37 909.81H1276.14V914.22H1286.37V909.81ZM1307.8 893.61H1316.02V896.82H1307.8V893.61ZM1307.8 899.64H1316.02V902.85H1307.8V899.64ZM1299.82 907.59H1318.75V917.67H1314.76V910.74H1299.82V907.59ZM1314.76 889.89H1318.75V906.33H1314.76V889.89ZM1303.18 891.33C1307.32 891.33 1310.5 894.21 1310.5 898.2C1310.5 902.22 1307.32 905.1 1303.18 905.1C1299.01 905.1 1295.83 902.22 1295.83 898.2C1295.83 894.21 1299.01 891.33 1303.18 891.33ZM1303.18 894.72C1301.14 894.72 1299.64 896.01 1299.64 898.2C1299.64 900.42 1301.14 901.71 1303.18 901.71C1305.19 901.71 1306.72 900.42 1306.72 898.2C1306.72 896.01 1305.19 894.72 1303.18 894.72Z" fill="#5C4639"/>
<path d="M707.695 659.28H710.355V673.38H707.695V659.28ZM705.275 663.86H708.695V665.98H705.275V663.86ZM705.275 667.84H708.695V669.94H705.275V667.84ZM694.915 661.2H705.075V663.28H694.915V661.2ZM700.115 663.94C702.635 663.94 704.455 665.44 704.455 667.58C704.455 669.72 702.635 671.22 700.115 671.22C697.595 671.22 695.775 669.72 695.775 667.58C695.775 665.44 697.595 663.94 700.115 663.94ZM700.115 665.98C699.035 665.98 698.275 666.56 698.275 667.58C698.275 668.62 699.035 669.18 700.115 669.18C701.195 669.18 701.955 668.62 701.955 667.58C701.955 666.56 701.195 665.98 700.115 665.98ZM698.795 659.22H701.455V662.48H698.795V659.22ZM698.095 675.34H710.755V677.46H698.095V675.34ZM698.095 672.22H700.775V676.32H698.095V672.22ZM726.133 659.26H728.653V677.78H726.133V659.26ZM723.653 666.38H726.733V668.52H723.653V666.38ZM721.993 659.58H724.453V676.9H721.993V659.58ZM713.273 671.42H714.573C716.853 671.42 718.753 671.34 720.953 670.94L721.153 673.1C718.913 673.54 716.953 673.6 714.573 673.6H713.273V671.42ZM713.273 661.4H720.113V663.54H715.913V672.46H713.273V661.4ZM737.692 669.68H740.352V673.9H737.692V669.68ZM739.032 660.2C742.992 660.2 745.952 662.22 745.952 665.3C745.952 668.42 742.992 670.42 739.032 670.42C735.072 670.42 732.112 668.42 732.112 665.3C732.112 662.22 735.072 660.2 739.032 660.2ZM739.032 662.3C736.492 662.3 734.732 663.42 734.732 665.3C734.732 667.22 736.492 668.32 739.032 668.32C741.572 668.32 743.332 667.22 743.332 665.3C743.332 663.42 741.572 662.3 739.032 662.3ZM730.672 673.48H747.432V675.64H730.672V673.48ZM753.77 659.8C756.59 659.8 758.71 661.56 758.71 664.04C758.71 666.5 756.59 668.26 753.77 668.26C750.95 668.26 748.83 666.5 748.83 664.04C748.83 661.56 750.95 659.8 753.77 659.8ZM753.77 661.96C752.41 661.96 751.39 662.72 751.39 664.04C751.39 665.36 752.41 666.12 753.77 666.12C755.13 666.12 756.13 665.36 756.13 664.04C756.13 662.72 755.13 661.96 753.77 661.96ZM761.27 659.26H763.95V668.52H761.27V659.26ZM751.59 669.28H763.95V674.36H754.23V676.6H751.63V672.44H761.31V671.34H751.59V669.28ZM751.63 675.52H764.41V677.58H751.63V675.52ZM767.088 660.46H769.588V662.98H771.948V660.46H774.428V669.3H767.088V660.46ZM769.588 665.02V667.2H771.948V665.02H769.588ZM779.708 659.28H782.228V670.48H779.708V659.28ZM777.488 663.72H780.428V665.88H777.488V663.72ZM775.788 659.62H778.268V669.98H775.788V659.62ZM775.948 670.78C779.828 670.78 782.328 672.08 782.328 674.3C782.328 676.48 779.828 677.8 775.948 677.8C772.048 677.8 769.588 676.48 769.588 674.3C769.588 672.08 772.048 670.78 775.948 670.78ZM775.948 672.8C773.568 672.8 772.228 673.3 772.228 674.3C772.228 675.3 773.568 675.78 775.948 675.78C778.328 675.78 779.648 675.3 779.648 674.3C779.648 673.3 778.328 672.8 775.948 672.8ZM786.247 660.88H797.907V663H786.247V660.88ZM784.367 673.42H801.107V675.6H784.367V673.42ZM796.787 660.88H799.407V663.02C799.407 665.72 799.407 668.28 798.547 672.32L795.927 672.08C796.787 668.34 796.787 665.64 796.787 663.02V660.88ZM797.347 665.96V667.92L786.027 668.48L785.707 666.34L797.347 665.96Z" fill="#5C4639"/>
<path d="M28 259.01C28 261.755 27.9875 265.233 25.5 266.299C23.0165 267.368 19.5797 265.365 17.6522 263.433L1.82609 247.569C1.21739 246.959 0.760874 246.298 0.456527 245.586C0.152179 244.875 2.68134e-07 244.112 2.77835e-07 243.298C2.87536e-07 242.485 0.152179 241.722 0.456527 241.01C0.760874 240.299 1.21739 239.638 1.82609 239.027L17.6522 223.164C19.5797 221.232 23.0165 219.229 25.5 220.299C27.9875 221.364 28 224.842 28 227.587L28 259.01Z" fill="#5C4639"/>
<path d="M58.3835 226.92H62.4035V247.17H58.3835V226.92ZM43.8935 251.01H63.0935V254.19H43.8935V251.01ZM43.8935 245.22H47.8835V252.66H43.8935V245.22ZM45.8135 228.42H49.1135V231.12C49.1135 236.55 46.6235 241.56 41.2235 243.45L39.2135 240.27C43.8635 238.68 45.8135 234.81 45.8135 231.12V228.42ZM46.6235 228.42H49.8935V231.12C49.8935 234.75 51.7835 238.32 56.3435 239.79L54.3035 242.97C49.0535 241.2 46.6235 236.49 46.6235 231.12V228.42ZM72.6412 229.02H75.8812V233.07C75.8812 239.94 73.4812 246.39 68.2312 248.97L65.8312 245.76C70.5112 243.57 72.6412 238.23 72.6412 233.07V229.02ZM73.4512 229.02H76.6312V233.07C76.6312 238.05 78.6112 243.12 83.0512 245.28L80.6512 248.46C75.6412 245.91 73.4512 239.73 73.4512 233.07V229.02ZM84.1612 226.89H88.1812V254.67H84.1612V226.89ZM87.2812 237.57H92.2012V240.9H87.2812V237.57ZM105.799 230.61H114.019V233.82H105.799V230.61ZM105.799 236.64H114.019V239.85H105.799V236.64ZM97.8188 244.59H116.749V254.67H112.759V247.74H97.8188V244.59ZM112.759 226.89H116.749V243.33H112.759V226.89ZM101.179 228.33C105.319 228.33 108.499 231.21 108.499 235.2C108.499 239.22 105.319 242.1 101.179 242.1C97.0088 242.1 93.8288 239.22 93.8288 235.2C93.8288 231.21 97.0088 228.33 101.179 228.33ZM101.179 231.72C99.1388 231.72 97.6388 233.01 97.6388 235.2C97.6388 237.42 99.1388 238.71 101.179 238.71C103.189 238.71 104.719 237.42 104.719 235.2C104.719 233.01 103.189 231.72 101.179 231.72Z" fill="#5C4639"/>
<path d="M28 925.01C28 927.755 27.9875 931.233 25.5 932.299C23.0165 933.368 19.5797 931.365 17.6522 929.433L1.82609 913.569C1.21739 912.959 0.760874 912.298 0.456527 911.586C0.152179 910.875 2.68134e-07 910.112 2.77835e-07 909.298C2.87536e-07 908.485 0.152179 907.722 0.456527 907.01C0.760874 906.299 1.21739 905.638 1.82609 905.027L17.6522 889.164C19.5797 887.232 23.0165 885.229 25.5 886.299C27.9875 887.364 28 890.842 28 893.587L28 925.01Z" fill="#5C4639"/>
<path d="M42.4535 900.33H61.6235V903.48H42.4535V900.33ZM42.4535 893.64H46.4135V901.59H42.4535V893.64ZM39.3335 906.81H64.4735V909.99H39.3335V906.81ZM49.9235 902.22H53.8835V907.77H49.9235V902.22ZM42.2735 917.01H61.8635V920.19H42.2735V917.01ZM42.2735 911.7H46.2335V918.63H42.2735V911.7ZM85.6612 892.92H89.6512V914.07H85.6612V892.92ZM82.0312 899.79H87.1612V902.97H82.0312V899.79ZM82.0312 905.76H87.1612V908.91H82.0312V905.76ZM66.4912 895.8H81.7312V898.92H66.4912V895.8ZM74.2912 899.91C78.0712 899.91 80.8012 902.16 80.8012 905.37C80.8012 908.58 78.0712 910.83 74.2912 910.83C70.5112 910.83 67.7812 908.58 67.7812 905.37C67.7812 902.16 70.5112 899.91 74.2912 899.91ZM74.2912 902.97C72.6712 902.97 71.5312 903.84 71.5312 905.37C71.5312 906.93 72.6712 907.77 74.2912 907.77C75.9112 907.77 77.0512 906.93 77.0512 905.37C77.0512 903.84 75.9112 902.97 74.2912 902.97ZM72.3112 892.83H76.3012V897.72H72.3112V892.83ZM71.2612 917.01H90.2512V920.19H71.2612V917.01ZM71.2612 912.33H75.2812V918.48H71.2612V912.33ZM105.799 896.61H114.019V899.82H105.799V896.61ZM105.799 902.64H114.019V905.85H105.799V902.64ZM97.8188 910.59H116.749V920.67H112.759V913.74H97.8188V910.59ZM112.759 892.89H116.749V909.33H112.759V892.89ZM101.179 894.33C105.319 894.33 108.499 897.21 108.499 901.2C108.499 905.22 105.319 908.1 101.179 908.1C97.0088 908.1 93.8288 905.22 93.8288 901.2C93.8288 897.21 97.0088 894.33 101.179 894.33ZM101.179 897.72C99.1388 897.72 97.6388 899.01 97.6388 901.2C97.6388 903.42 99.1388 904.71 101.179 904.71C103.189 904.71 104.719 903.42 104.719 901.2C104.719 899.01 103.189 897.72 101.179 897.72Z" fill="#5C4639"/>
<rect x="733" y="615" width="30" height="30" fill="#5C4639"/>
<rect x="414" y="240" width="321" height="304" rx="10" fill="#5C4639"/>
<rect x="433.5" y="259.5" width="281" height="266" rx="9.5" stroke="white"/>
<path d="M474.943 367.84C472.543 367.84 467.743 368.68 467.743 365.14C467.743 362.32 467.803 359.62 467.563 356.8C466.783 356.68 465.163 355.72 465.163 354.88C465.163 354.28 465.943 354.22 466.363 354.28C469.423 354.52 472.423 354.7 475.483 354.7C479.383 354.7 483.223 354.58 487.123 354.28C487.363 351.82 487.303 349.42 487.423 346.96L471.523 347.62C470.203 347.68 465.883 347.38 465.883 345.4C465.883 344.8 466.723 344.74 467.143 344.8C468.343 344.92 469.663 345.16 470.863 345.16C475.783 345.16 481.843 345.46 486.703 344.62C487.423 344.5 488.503 344.14 489.223 344.14C490.183 344.14 490.543 345.16 490.543 345.94C490.543 348.52 490.363 351.16 490.243 353.74C490.903 353.74 491.503 354.16 491.503 354.88C491.503 356.38 489.583 356.56 488.443 356.62C482.563 357.04 476.503 357.04 470.623 357.04C470.863 359.56 470.863 362.26 470.623 364.78C470.743 365.26 472.003 365.5 472.363 365.5C478.183 365.5 484.183 365.38 489.943 364.84C490.783 364.78 491.623 364.48 492.463 364.48C493.123 364.48 493.723 364.66 493.723 365.44C493.723 367.84 477.463 367.84 474.943 367.84ZM452.323 340.42C452.323 340.12 452.563 339.76 452.743 339.52C458.083 336.34 461.743 328.72 461.743 322.66C461.743 321.64 461.263 318.4 462.823 318.4C464.803 318.4 464.923 320.32 464.923 321.76C464.923 323.74 464.743 325.78 464.263 327.7C466.723 331.78 469.363 335.38 473.743 337.48C474.403 337.78 475.123 338.26 475.363 338.98C475.243 339.58 474.403 339.7 473.923 339.7C469.483 339.7 465.283 334.54 463.123 331.18C461.743 334.3 456.823 341.08 453.043 341.08C452.683 341.08 452.323 340.9 452.323 340.42ZM468.943 328.06C468.943 327.58 469.483 327.34 469.903 327.34C470.923 327.34 471.883 327.7 472.903 327.7C475.063 327.7 477.283 327.34 479.443 327.04L479.263 321.76C479.143 318.52 475.243 318.52 475.243 317.08C475.243 316.54 475.903 316.18 476.383 316.18C479.563 316.18 482.503 318.82 482.503 321.94C482.503 325.36 482.623 328.78 482.623 332.14C482.623 333.58 482.623 341.8 480.763 341.8C479.623 341.8 479.563 337 479.563 336.28C479.563 334 479.623 331.78 479.563 329.5C477.463 329.8 475.303 330.16 473.203 330.16C471.763 330.16 469.483 329.56 468.943 328.06ZM485.323 315.16C485.323 314.44 486.163 314.2 486.703 314.2C490.003 314.2 492.583 317.32 492.583 320.38L492.643 328.36C492.643 330.28 492.823 341.74 490.603 341.74C489.463 341.74 489.403 336.94 489.403 336.22C489.403 330.7 489.763 325.3 489.343 319.78C489.103 316.36 485.323 316.72 485.323 315.16ZM509.414 344.74C508.454 344.74 506.714 344.56 506.714 343.3C506.714 339.82 506.954 336.52 506.714 333.04C505.814 332.92 503.294 332.02 503.294 330.88C503.294 330.28 504.134 330.22 504.554 330.28C506.954 330.52 509.234 330.7 511.634 330.7C514.934 330.7 518.174 330.4 521.474 330.16C521.714 327.46 521.654 324.76 521.774 322.06L509.054 322.84C507.794 322.9 503.414 322.54 503.414 320.62C503.414 320.02 504.254 319.96 504.674 320.02C505.874 320.14 507.194 320.38 508.394 320.38C512.354 320.38 517.154 320.38 521.054 319.72C521.774 319.6 522.854 319.24 523.574 319.24C524.594 319.24 524.954 320.26 524.954 321.1C524.954 323.86 524.774 326.8 524.594 329.56C525.314 329.56 525.854 330.04 525.854 330.76C525.854 333.22 511.934 333.1 509.654 333.1C509.774 336.16 509.774 339.16 509.654 342.22C516.134 341.68 522.614 340.66 528.974 339.34C529.334 339.28 529.754 339.16 530.174 339.16C530.474 339.16 531.014 339.28 531.014 339.7C531.014 342.04 511.814 344.74 509.414 344.74ZM515.174 350.02C515.174 349.36 515.714 349.18 516.254 349.18C519.854 349.18 520.514 352.72 520.694 355.48C526.154 355.48 531.614 355.36 537.074 355V352.06C537.074 348.88 534.854 349.54 534.854 348.04C534.854 347.38 535.274 347.02 535.934 347.02C539.414 347.02 540.134 350.38 540.134 353.08C540.134 356.68 539.714 360.28 539.414 363.88C540.194 363.7 542.114 363.34 542.114 364.6C542.114 367.06 528.434 366.82 526.214 366.82C523.634 366.82 517.934 367.84 517.934 364.18C517.934 360.88 518.174 357.76 517.634 354.46C517.094 350.92 515.174 351.46 515.174 350.02ZM520.874 363.64C520.874 364.42 522.134 364.48 522.614 364.48C527.234 364.48 531.854 364.36 536.474 364.18C536.654 361.9 536.834 359.62 536.954 357.34C531.614 357.64 526.214 357.7 520.874 357.94C520.994 359.86 520.874 361.72 520.874 363.64ZM526.754 330.1C526.754 329.44 527.534 329.38 528.014 329.38C528.914 329.38 529.874 329.74 530.774 329.74C533.294 329.74 535.874 329.32 538.334 329.02C538.334 325.96 538.274 322.84 538.034 319.78C537.794 316.36 534.074 316.72 534.074 315.16C534.074 314.5 534.854 314.2 535.394 314.2C538.754 314.2 541.334 317.32 541.334 320.38C541.334 324.76 541.514 329.08 541.514 333.4C541.514 335.08 541.574 346.06 539.534 346.06C538.334 346.06 538.274 341.26 538.274 340.48V338.2L538.394 333.7V331.48C535.994 331.78 533.474 332.2 531.014 332.2C529.994 332.2 526.754 331.48 526.754 330.1ZM590.385 351.94C589.245 351.94 589.185 347.14 589.185 346.42V343.3L589.365 337.18V334.06C586.845 334.36 584.325 334.42 581.805 334.48C581.865 338.2 581.925 341.86 581.745 345.58C581.685 346.36 581.025 350.86 580.005 350.86C578.805 350.86 578.745 346.06 578.745 345.28C578.745 337.54 579.165 329.44 578.445 321.76C578.145 318.34 574.485 318.58 574.485 317.08C574.485 316.48 575.205 316.18 575.745 316.18C578.805 316.18 581.685 318.94 581.685 321.88C581.685 325.3 581.745 328.66 581.805 332.02C584.325 331.96 586.845 331.78 589.365 331.6C589.365 327.7 589.485 323.68 589.125 319.78C588.825 316.3 585.105 316.72 585.105 315.16C585.105 314.5 585.885 314.2 586.425 314.2C589.725 314.2 592.365 317.26 592.365 320.32L592.425 333.46C592.425 337.84 592.545 342.34 592.245 346.72C592.185 347.5 591.465 351.94 590.385 351.94ZM553.365 334.66C553.365 328.84 556.305 326.02 561.405 324.1C562.305 323.74 563.145 322.12 563.925 322.12C564.885 322.12 565.125 322.96 565.125 323.8C565.125 324.16 565.065 324.88 564.705 325.12C570.045 326.44 572.925 329.62 572.925 335.2C572.925 340.96 568.725 344.08 563.265 344.08C557.685 344.08 553.365 340.36 553.365 334.66ZM556.425 334.78C556.425 338.86 559.245 341.32 563.205 341.32C567.765 341.32 569.865 338.74 569.865 334.3C569.865 327.88 564.645 329.08 562.545 326.56C558.165 328.18 556.425 329.98 556.425 334.78ZM564.165 350.5C564.165 349.78 564.465 349.36 565.245 349.36C570.285 349.36 569.925 356.74 569.925 360.1C569.925 362.02 568.905 364.48 571.485 364.48C577.125 364.48 582.885 364.54 588.525 364.06C589.365 364 590.205 363.7 591.045 363.7C591.645 363.7 592.365 363.82 592.365 364.6C592.365 367.12 577.425 366.82 575.145 366.82C572.565 366.82 566.865 367.84 566.865 364.18C566.865 360.94 567.165 357.76 566.625 354.52C566.385 353.32 566.145 352.24 565.065 351.58C564.705 351.34 564.165 351.04 564.165 350.5ZM639.015 365.68C637.815 365.68 637.755 360.88 637.755 360.1C637.755 352.84 638.235 345.52 638.235 338.2C635.535 338.68 632.655 339.16 629.895 339.16C629.175 339.16 628.455 339.1 627.795 338.86C627.615 345.1 622.695 348.88 616.695 348.88C610.515 348.88 605.295 344.92 605.295 338.44C605.295 331.84 608.955 328.3 614.655 325.96C615.675 325.54 616.455 323.62 617.415 323.62C618.315 323.62 618.675 324.58 618.675 325.36C618.675 325.84 618.555 326.56 618.135 326.86C623.355 327.4 627.015 331.36 627.675 336.46C628.275 336.58 628.875 336.7 629.475 336.7C632.355 336.7 635.415 336.16 638.235 335.74C638.235 330.52 638.415 325 637.935 319.78C637.635 316.3 633.975 316.72 633.975 315.16C633.975 314.62 634.635 314.2 635.115 314.2C636.735 314.2 638.955 315.58 640.095 316.66C641.235 317.74 641.235 319.24 641.235 320.68C641.175 328.3 641.295 335.92 641.295 343.6C641.295 349.18 641.235 354.82 640.815 360.4C640.755 361.18 640.095 365.68 639.015 365.68ZM608.235 338.56C608.235 343.24 612.135 346.12 616.575 346.12C621.915 346.12 624.915 343.06 624.915 337.78C624.915 329.62 618.075 330.76 616.395 328.18C611.055 329.86 608.235 332.74 608.235 338.56ZM652.366 344.14C652.006 344.14 651.706 343.96 651.706 343.54C651.706 342.82 661.126 335.86 661.126 323.86C661.126 322.9 660.646 319.54 662.206 319.54C664.186 319.54 664.486 321.52 664.486 323.02C664.486 325.36 664.246 327.76 663.706 330.04C666.286 334.36 669.046 338.02 673.606 340.36C674.146 340.66 674.866 341.14 674.926 341.8C674.806 342.46 673.966 342.58 673.426 342.58C668.806 342.58 664.666 337.18 662.506 333.64C661.186 336.82 656.086 344.14 652.366 344.14ZM664.786 350.44C664.786 349.48 665.206 349.3 666.166 349.3C670.846 349.3 670.606 357.46 670.606 360.64C670.606 362.5 669.646 364.48 672.226 364.48C676.966 364.48 681.646 364.36 686.386 364.18C686.986 359.98 687.346 355.6 687.346 351.34L675.646 351.82C674.326 351.88 670.006 351.58 670.006 349.66C670.006 349.24 670.486 349.06 670.846 349.06C672.226 349.06 673.606 349.36 674.986 349.36C678.526 349.36 683.146 349.66 686.626 349C687.046 348.94 688.786 348.46 689.146 348.46C690.106 348.46 690.466 349.54 690.466 350.32C690.466 354.76 689.926 359.38 689.506 363.76C690.226 363.64 691.726 363.46 691.726 364.6C691.726 367.06 678.046 366.82 675.826 366.82C673.246 366.82 667.546 367.84 667.546 364.18C667.546 360.88 667.606 357.76 667.246 354.46C666.886 351.1 664.786 351.7 664.786 350.44ZM668.506 329.8C668.506 329.38 669.046 329.14 669.406 329.14C670.426 329.14 671.446 329.44 672.526 329.44C674.686 329.44 676.906 329.14 679.066 328.84L678.826 321.76C678.706 318.52 674.806 318.52 674.806 317.08C674.806 316.36 675.706 316.18 676.246 316.18C679.426 316.18 682.066 319.12 682.066 322.12V325.3L682.186 331.78V334.96C682.186 336.52 682.366 346.06 680.326 346.06C679.186 346.06 679.126 341.26 679.126 340.48C679.126 337.42 679.186 334.36 679.126 331.3C677.026 331.6 674.866 331.9 672.766 331.9C671.326 331.9 669.046 331.3 668.506 329.8ZM684.886 315.16C684.886 314.5 685.666 314.2 686.206 314.2C689.506 314.2 692.146 317.26 692.146 320.38L692.206 330.58C692.206 332.62 692.506 346.24 690.166 346.24C689.026 346.24 688.966 341.38 688.966 340.66C688.966 333.7 689.506 326.74 688.906 319.78C688.606 316.3 684.886 316.72 684.886 315.16Z" fill="#B59F94"/>
<path d="M519.688 398.392V401.128L519.796 406.6V409.336C519.796 410.416 519.976 418.228 518.608 418.228C517.888 418.228 517.852 415.348 517.852 414.88V412.972L517.924 409.084V407.176C515.8 407.5 513.604 407.752 511.48 407.752C510.652 407.752 509.248 407.356 508.924 406.492C508.96 406.096 509.428 406.06 509.716 406.06C510.256 406.06 510.832 406.276 511.372 406.276C513.532 406.276 515.764 405.988 517.924 405.7C517.888 403.18 517.924 400.588 517.708 398.068C517.528 395.98 515.332 396.268 515.332 395.296C515.332 394.936 515.764 394.72 516.088 394.72C518.068 394.72 519.688 396.52 519.688 398.392ZM496.504 414.916C496.54 414.52 496.828 414.268 497.116 414.052C501.796 410.776 506.62 405.988 508.204 400.3L501.472 400.804C500.716 400.876 498.088 400.624 498.088 399.508C498.088 399.148 498.628 399.112 498.844 399.148C501.688 399.364 505.144 399.4 507.988 398.896C508.24 398.86 509.32 398.572 509.5 398.572C510.004 398.572 510.328 399.076 510.328 399.508C510.328 403.972 500.68 415.132 496.828 415.132C496.684 415.132 496.54 415.06 496.504 414.916ZM503.74 416.5C503.74 416.068 503.92 415.816 504.388 415.816C507.34 415.816 507.16 420.1 507.16 422.116C507.16 423.304 506.512 424.888 508.132 424.888C511.516 424.888 514.972 424.924 518.356 424.636C518.86 424.6 519.364 424.42 519.868 424.42C520.264 424.42 520.624 424.492 520.624 424.96C520.624 426.472 511.696 426.292 510.328 426.292C508.78 426.292 505.36 426.904 505.36 424.708C505.36 422.728 505.432 420.892 505.216 418.912C505 416.896 503.74 417.256 503.74 416.5ZM525.483 411.028C525.123 411.028 525.051 410.956 525.051 410.596C525.051 410.38 526.671 409.084 526.923 408.832C529.803 406.06 531.891 402.676 531.891 398.572C531.891 398.068 531.675 396.376 532.467 396.376C533.547 396.376 533.943 397.312 533.943 398.212C533.943 399.688 533.763 401.128 533.331 402.532C534.915 405.16 537.543 407.608 540.567 408.328C540.927 408.4 541.539 408.544 541.539 409.048C541.539 409.696 540.315 409.768 539.847 409.768C537.147 409.768 533.943 406.528 532.539 404.404C531.531 406.456 527.931 411.028 525.483 411.028ZM531.711 419.308C531.711 418.948 532.179 418.912 532.431 418.948C534.267 419.128 536.067 419.236 537.903 419.236C540.243 419.236 542.583 419.164 544.887 418.984C545.031 417.544 544.995 416.14 545.067 414.7L535.527 415.096C534.771 415.132 532.179 414.916 532.179 413.764C532.179 413.404 532.647 413.368 532.899 413.404C533.619 413.476 534.447 413.62 535.167 413.62C538.083 413.62 541.827 413.836 544.635 413.296C544.887 413.26 545.931 412.972 546.147 412.972C546.759 412.972 546.975 413.62 546.975 414.088C546.975 415.6 546.867 417.184 546.759 418.66C547.191 418.66 547.515 418.912 547.515 419.344C547.515 420.244 546.399 420.316 545.715 420.352C542.187 420.604 538.551 420.64 535.023 420.64C535.167 422.116 535.167 423.592 535.023 425.068C535.095 425.356 535.815 425.5 536.031 425.5C539.523 425.5 543.123 425.428 546.579 425.104C547.083 425.068 547.587 424.888 548.091 424.888C548.487 424.888 548.847 424.996 548.847 425.464C548.847 426.904 539.091 426.904 537.579 426.904C536.139 426.904 533.259 427.372 533.259 425.284C533.259 423.664 533.331 422.116 533.151 420.496C532.719 420.352 531.711 419.848 531.711 419.308ZM537.615 402.82C537.615 402.424 538.083 402.388 538.371 402.388C538.947 402.388 539.523 402.604 540.135 402.604C542.043 402.604 544.023 402.316 545.931 402.1C545.895 400.768 545.859 399.4 545.751 398.068C545.607 396.016 543.375 396.196 543.375 395.296C543.375 394.9 543.843 394.72 544.167 394.72C546.219 394.72 547.731 396.556 547.731 398.428C547.731 400.408 547.803 402.388 547.803 404.332C547.803 405.376 547.839 411.748 546.615 411.748C545.895 411.748 545.859 408.868 545.859 408.4V407.176L545.931 404.8V403.576C544.059 403.864 542.079 404.08 540.171 404.08C539.559 404.08 537.615 403.648 537.615 402.82ZM557.394 420.136C556.458 420.136 555.09 419.956 554.694 418.912C554.694 418.588 555.198 418.552 555.414 418.552C558.15 418.732 560.634 418.516 563.334 418.228C563.442 416.968 563.442 415.744 563.442 414.484C560.886 414.268 558.402 412.504 558.402 409.732C558.402 406.78 560.382 404.944 563.046 404.116C563.55 403.972 564.09 403.396 564.414 403.396C564.486 403.396 564.558 403.432 564.63 403.468C564.774 403.648 564.918 403.936 564.918 404.152C564.918 404.332 564.882 404.476 564.774 404.62C567.222 404.656 569.526 407.068 569.526 409.48C569.526 411.964 567.834 413.8 565.458 414.34C565.494 415.564 565.458 416.752 565.422 417.976L572.226 417.184C572.73 417.112 573.234 416.824 573.738 416.824C574.134 416.824 574.53 417.004 574.53 417.472C574.53 418.408 573.45 418.516 572.73 418.588C567.762 419.128 562.362 420.136 557.394 420.136ZM555.882 401.344C555.882 400.984 556.386 400.948 556.638 400.984C558.006 401.2 559.122 401.344 560.49 401.344C563.082 401.344 565.818 401.452 568.374 401.164C568.986 401.092 569.562 400.768 570.174 400.768C570.606 400.768 570.93 401.056 570.93 401.488C570.93 402.388 569.742 402.46 569.094 402.496C565.818 402.748 562.47 402.748 559.194 402.748C558.402 402.748 555.882 402.532 555.882 401.344ZM559.446 397.672C559.446 397.42 559.554 397.132 559.842 397.132C560.346 397.132 562.902 398.176 564.774 398.176C565.638 398.176 566.466 397.924 567.294 397.924C567.69 397.924 568.014 398.248 568.014 398.644C568.014 399.58 564.954 399.544 564.27 399.544C563.046 399.544 559.446 399.544 559.446 397.672ZM560.13 409.732C560.13 411.892 561.966 413.044 563.982 413.044C566.322 413.044 567.762 411.82 567.762 409.408C567.762 406.024 564.63 406.78 563.874 405.412C561.678 406.276 560.13 407.104 560.13 409.732ZM573.918 395.296C573.918 394.972 574.314 394.72 574.602 394.72C576.618 394.72 578.274 396.412 578.274 398.356V402.064L578.346 409.48V413.188C578.346 416.032 578.31 418.912 578.094 421.756C578.058 422.224 577.662 424.888 577.014 424.888C576.294 424.888 576.258 422.044 576.258 421.576C576.258 417.904 576.51 414.232 576.51 410.596C576.51 406.492 576.69 402.136 576.294 398.068C576.114 395.944 573.918 396.232 573.918 395.296ZM607.144 398.428V400.372L607.216 404.296V406.24H607.72C608.944 406.24 610.132 405.808 611.32 405.808C611.968 405.808 612.652 406.096 612.652 406.852C612.652 407.716 608.872 407.68 608.188 407.68L607.252 407.644C607.252 410.092 607.288 412.612 607.144 415.06C607.108 415.528 606.676 418.228 606.028 418.228C605.344 418.228 605.308 415.312 605.308 414.88C605.308 409.3 605.632 403.648 605.164 398.068C604.984 395.98 602.788 396.268 602.788 395.296C602.788 394.9 603.256 394.72 603.58 394.72C605.56 394.72 607.144 396.592 607.144 398.428ZM583.492 411.856C583.492 411.64 583.744 411.496 583.96 411.496C585.364 411.496 586.768 411.856 588.172 411.856C589 411.856 589.792 411.82 590.584 411.784V409.48C590.584 408.472 590.62 407.464 590.512 406.456C590.296 404.404 589.108 404.656 589.108 403.864C589.108 403.468 589.36 403.288 589.72 403.288C592.312 403.288 592.492 405.772 592.492 407.68L592.456 411.676C595.408 411.496 598.432 411.424 601.384 411.064C601.888 410.992 602.392 410.74 602.896 410.74C603.292 410.74 603.652 410.992 603.652 411.424C603.652 412.324 602.104 412.432 601.492 412.504C596.884 412.936 592.204 413.26 587.56 413.26C586.696 413.26 583.492 413.26 583.492 411.856ZM585.472 398.176C585.472 397.816 585.976 397.78 586.228 397.816C586.948 397.888 587.74 398.032 588.46 398.032C591.016 398.032 594.364 398.176 596.848 397.708C597.1 397.672 598.144 397.384 598.36 397.384C598.936 397.384 599.152 397.996 599.152 398.464C599.152 400.12 598.9 408.436 597.136 408.436C596.668 408.436 596.632 407.32 596.632 407.032C596.632 404.692 597.136 401.632 597.244 399.112L588.856 399.508C588.064 399.544 585.472 399.364 585.472 398.176ZM590.764 417.22C590.764 416.824 591.016 416.644 591.376 416.644C593.968 416.644 594.076 419.596 594.076 421.396C594.076 422.296 593.572 424.888 594.688 424.888C598.252 424.888 601.924 424.924 605.488 424.636C605.992 424.6 606.496 424.42 607 424.42C607.396 424.42 607.756 424.492 607.756 424.96C607.756 426.508 598.576 426.292 597.208 426.292C595.66 426.292 592.24 426.94 592.24 424.708C592.24 423.052 592.384 421.396 592.204 419.74C591.988 417.76 590.764 418.048 590.764 417.22ZM621.845 419.38C621.845 417.544 632.681 410.128 632.681 404.476C632.681 401.776 630.917 400.336 628.289 400.336C624.509 400.336 623.933 405.484 622.925 405.484C622.349 405.484 622.277 405.052 622.277 404.548C622.277 401.632 625.589 398.86 628.397 398.86C631.925 398.86 634.481 400.804 634.481 404.476C634.481 411.064 624.005 418.084 624.005 419.164C624.005 419.344 624.509 419.38 624.833 419.38C627.713 419.38 630.665 419.452 633.545 419.164C634.265 419.092 634.985 418.876 635.741 418.876C636.173 418.876 636.533 419.128 636.533 419.596C636.533 420.964 628.181 420.928 626.741 420.928C625.337 420.928 621.845 421.432 621.845 419.38ZM641.522 421.504C641.126 421.396 640.91 420.352 640.874 418.336C640.838 416.356 640.838 413.8 640.91 410.74L640.946 409.372V408.256C640.982 406.924 640.982 405.772 640.874 404.8C640.766 403.684 640.478 403.36 639.938 403.036C639.614 402.784 639.47 402.676 639.47 402.28C639.47 401.956 639.722 401.776 640.19 401.776C642.602 401.776 642.854 404.62 642.674 408.472L642.638 409.48H644.258C645.266 409.444 646.31 409.444 647.39 409.408C648.434 409.372 649.406 409.3 650.234 409.192C650.414 409.156 650.702 409.12 651.098 409.012C651.602 408.832 652.034 408.76 652.43 408.76C652.862 408.76 653.186 409.012 653.186 409.444C653.186 410.272 652.61 410.38 651.458 410.488C650.126 410.632 648.074 410.74 645.302 410.848L642.638 410.956C642.638 414.088 642.638 416.464 642.602 418.048C642.602 419.2 642.314 421.504 641.63 421.504H641.522ZM639.074 399.868C639.074 399.544 639.47 399.472 639.794 399.508C641.594 399.688 643.286 399.796 644.87 399.796C647.678 399.796 649.946 399.688 651.638 399.508C651.89 399.472 652.178 399.4 652.466 399.328C652.718 399.256 652.97 399.22 653.15 399.22C653.618 399.22 653.942 399.472 653.942 399.904C653.942 400.66 653.15 400.876 652.106 400.912C649.658 401.092 646.454 401.2 642.458 401.2C640.982 401.2 639.074 400.912 639.074 399.868ZM484.784 467.256C483.992 467.256 482.984 467.04 482.984 466.068C482.984 464.412 483.2 462.684 483.2 460.992C483.2 459.588 483.2 458.148 483.056 456.744C482.84 454.584 481.616 455.016 481.616 454.116C481.616 453.792 481.868 453.576 482.228 453.576C485.504 453.576 484.928 458.724 484.928 460.92C484.928 462.576 484.892 464.196 484.82 465.852C488.42 465.312 492.02 464.412 495.512 463.476C496.232 463.296 497.744 462.504 498.356 462.504C498.5 462.504 498.752 462.576 498.752 462.756C498.752 463.692 496.88 464.592 496.124 464.808C493.82 465.42 486.8 467.256 484.784 467.256ZM480.248 451.344C480.248 450.984 480.752 450.948 481.004 450.984C482.3 451.092 483.56 451.236 484.856 451.236C487.52 451.236 490.184 450.984 492.812 450.768C493.532 450.696 494.288 450.444 495.008 450.444C495.404 450.444 495.764 450.696 495.764 451.128C495.764 452.028 494.612 452.136 493.928 452.172C490.508 452.424 487.052 452.676 483.632 452.676C482.84 452.676 480.248 452.568 480.248 451.344ZM499.292 445.296C499.292 444.972 499.652 444.72 499.976 444.72C500.948 444.72 502.28 445.512 502.964 446.196C503.648 446.844 503.648 447.708 503.648 448.608C503.612 453.18 503.684 457.752 503.684 462.36C503.684 465.708 503.648 469.092 503.396 472.44C503.36 472.908 502.928 475.608 502.316 475.608C501.596 475.608 501.56 472.728 501.56 472.26C501.56 468.012 501.848 463.764 501.848 459.48C501.848 455.772 502.028 451.776 501.668 448.068C501.452 445.98 499.292 446.268 499.292 445.296ZM539.187 475.608C538.467 475.608 538.431 472.728 538.431 472.26C538.431 468.012 538.719 463.764 538.719 459.48C538.719 455.7 538.791 451.848 538.539 448.068C538.395 446.016 536.163 446.268 536.163 445.296C536.163 444.9 536.595 444.72 536.919 444.72C538.935 444.72 540.519 446.52 540.519 448.428V458.724H541.275C542.535 458.724 543.759 458.292 544.947 458.292C545.631 458.292 546.243 458.616 546.243 459.372C546.243 460.2 542.391 460.164 541.743 460.164L540.519 460.128C540.555 464.232 540.555 468.336 540.267 472.44C540.231 472.908 539.799 475.608 539.187 475.608ZM519.999 459.264C519.999 455.304 522.195 453.18 525.615 451.776C526.227 451.524 526.695 450.372 527.271 450.372C527.811 450.372 528.027 450.948 528.027 451.416C528.027 451.704 527.955 452.136 527.703 452.316C531.483 452.712 533.535 455.7 533.535 459.3C533.535 463.152 530.547 465.528 526.839 465.528C523.131 465.528 519.999 463.152 519.999 459.264ZM521.763 459.336C521.763 462.144 524.103 463.872 526.767 463.872C529.971 463.872 531.771 462.036 531.771 458.868C531.771 453.972 527.667 454.656 526.659 453.108C523.455 454.116 521.763 455.844 521.763 459.336ZM555.781 465.528C552.073 465.528 548.977 463.116 548.977 459.264C548.977 455.34 551.101 453.144 554.557 451.776C555.349 451.452 555.529 450.372 556.213 450.372C556.789 450.372 556.969 450.948 556.969 451.452C556.969 451.704 556.933 452.136 556.681 452.316C560.425 452.784 562.513 455.664 562.513 459.3C562.513 463.152 559.489 465.528 555.781 465.528ZM550.741 459.336C550.741 462.144 553.045 463.872 555.709 463.872C558.481 463.872 560.713 462.288 560.713 459.336C560.713 453.612 556.753 454.836 555.601 453.108C552.433 454.224 550.741 455.808 550.741 459.336ZM566.581 445.296C566.581 444.972 566.977 444.72 567.265 444.72C568.237 444.72 569.605 445.512 570.289 446.196C570.937 446.844 570.937 447.78 570.937 448.608C570.901 453.792 571.045 458.976 571.045 464.196C571.045 466.932 571.009 469.704 570.793 472.44C570.757 472.908 570.361 475.608 569.713 475.608C569.029 475.608 568.993 472.728 568.993 472.26C568.993 468.768 569.209 465.276 569.209 461.82C569.209 457.32 569.389 452.532 568.993 448.068C568.813 445.98 566.581 446.232 566.581 445.296ZM585.084 461.388C583.932 461.388 576.516 461.892 576.516 459.984C576.516 459.624 577.02 459.588 577.272 459.624C580.188 459.948 582.96 459.984 585.876 459.984H588.972L589.008 458.76L588.972 457.464C586.092 457.248 583.608 455.664 583.608 452.496C583.608 449.22 585.732 448.032 588.468 447.06C589.08 446.844 589.404 446.304 589.98 446.088L590.448 446.232C590.592 446.412 590.736 446.7 590.736 446.952C590.736 447.204 590.7 447.528 590.484 447.672C592.968 447.924 595.452 449.544 595.452 452.28C595.452 455.196 593.94 456.96 591.06 457.392C591.096 458.256 591.06 459.12 591.06 459.984C594.192 459.912 597.54 460.092 600.636 459.696C601.14 459.624 601.644 459.372 602.148 459.372C602.544 459.372 602.94 459.624 602.94 460.056C602.94 460.992 601.788 461.028 601.104 461.1C595.848 461.604 590.376 461.388 585.084 461.388ZM582.096 469.74C582.096 469.38 582.564 469.344 582.816 469.38C584.688 469.56 586.488 469.668 588.36 469.668C590.772 469.668 593.22 469.596 595.632 469.416C595.776 468.156 595.74 466.932 595.776 465.672L585.912 465.924C585.12 465.96 582.528 465.816 582.528 464.628C582.528 464.268 583.032 464.232 583.284 464.268C585.228 464.412 593.58 464.592 595.38 464.268C595.632 464.232 596.712 463.944 596.892 463.944C597.468 463.944 597.684 464.556 597.684 465.024C597.684 466.356 597.576 467.76 597.468 469.056C597.9 469.056 598.26 469.344 598.26 469.776C598.26 470.676 597.072 470.748 596.424 470.784C592.788 471.072 589.044 471.072 585.372 471.072C585.48 472.404 585.48 473.736 585.372 475.068C585.444 475.356 586.2 475.5 586.416 475.5C590.016 475.5 593.724 475.464 597.288 475.104C597.792 475.068 598.296 474.888 598.8 474.888C599.196 474.888 599.592 474.96 599.592 475.464C599.592 476.904 589.548 476.904 587.964 476.904C586.524 476.904 583.644 477.408 583.644 475.284C583.644 473.808 583.716 472.404 583.536 470.928C583.104 470.82 582.096 470.28 582.096 469.74ZM585.372 452.568C585.372 455.016 587.46 455.844 589.584 455.844C591.96 455.844 593.688 455.052 593.688 452.424C593.688 449.076 590.232 449.904 589.44 448.392C587.1 449.292 585.372 449.688 585.372 452.568ZM610.036 467.688C609.604 467.688 608.092 467.364 608.092 466.788C608.092 464.232 608.308 461.784 608.164 459.228C607.624 459.156 606.112 458.616 606.112 457.932C606.112 457.572 606.616 457.536 606.868 457.572C608.344 457.716 609.748 457.824 611.188 457.824C613.384 457.824 615.58 457.644 617.74 457.5C617.848 455.664 617.812 453.864 617.884 452.028L609.568 452.46C608.812 452.496 606.184 452.316 606.184 451.164C606.184 450.804 606.688 450.732 606.94 450.768C607.66 450.84 608.452 450.984 609.172 450.984C611.692 450.984 615.04 451.092 617.488 450.624C617.74 450.588 618.784 450.3 619 450.3C619.576 450.3 619.792 450.912 619.792 451.38C619.792 453.288 619.684 455.268 619.576 457.14C620.008 457.14 620.368 457.428 620.368 457.86C620.368 459.372 611.404 459.264 609.964 459.264C610.072 461.604 610.036 463.872 609.928 466.212C613.528 465.924 617.38 464.772 620.872 463.836C621.664 463.62 622.996 462.828 623.68 462.828C623.824 462.828 624.112 462.9 624.112 463.116C624.112 464.052 622.24 464.988 621.484 465.168C619.108 465.78 612.088 467.688 610.036 467.688ZM623.608 445.296C623.608 444.9 624.04 444.72 624.364 444.72C626.38 444.72 627.964 446.52 627.964 448.428V458.724H628.72C629.98 458.724 631.204 458.292 632.392 458.292C633.076 458.292 633.688 458.616 633.688 459.372C633.688 460.2 629.836 460.164 629.188 460.164L627.964 460.128C628 464.232 628 468.336 627.712 472.44C627.676 472.908 627.244 475.608 626.632 475.608C625.912 475.608 625.876 472.728 625.876 472.26C625.876 468.012 626.164 463.764 626.164 459.48C626.164 455.7 626.236 451.848 625.984 448.068C625.84 446.016 623.608 446.268 623.608 445.296ZM650.868 463.584C649.752 463.584 642.516 464.052 642.516 462.144C642.516 461.784 643.056 461.748 643.272 461.784C646.116 462.144 648.852 462.18 651.732 462.18H654.72C654.756 461.424 654.792 460.632 654.792 459.876C652.488 459.732 650.364 458.616 650.364 456.06C650.364 453.36 652.236 452.496 654.54 451.848C654.756 451.776 655.62 451.416 655.728 451.416C655.908 451.416 656.052 451.488 656.16 451.56L656.34 452.064C658.5 452.244 660.516 453.576 660.516 455.916C660.516 458.328 658.752 459.552 656.52 459.804C656.556 460.596 656.52 461.388 656.52 462.18C659.832 462.144 663.36 462.288 666.636 461.856C667.14 461.784 667.644 461.532 668.148 461.532C668.58 461.532 668.94 461.784 668.94 462.252C668.94 463.152 667.752 463.188 667.104 463.26C661.812 463.8 656.232 463.584 650.868 463.584ZM647.592 449.256C647.592 448.896 648.096 448.86 648.312 448.896C648.96 449.004 649.86 449.256 650.508 449.256C653.568 449.256 656.772 449.364 659.832 449.076C660.444 449.004 661.02 448.68 661.632 448.68C662.028 448.68 662.388 448.932 662.388 449.364C662.388 450.264 661.236 450.372 660.552 450.408C657.384 450.66 654.108 450.66 650.904 450.66C650.112 450.66 647.592 450.408 647.592 449.256ZM648.096 470.568C648.096 470.316 648.384 470.208 648.564 470.208C650.364 470.208 652.164 470.46 653.964 470.46C656.196 470.46 658.428 470.352 660.66 470.244C660.768 469.272 660.804 468.3 660.84 467.328L651.912 467.616C651.12 467.652 648.528 467.508 648.528 466.284C648.528 466.032 648.816 465.924 649.032 465.924C649.86 465.924 650.688 466.14 651.516 466.14C654.288 466.14 657.708 466.392 660.408 465.924C660.84 465.852 661.488 465.636 661.92 465.636C662.532 465.636 662.748 466.248 662.748 466.752C662.748 467.76 662.64 468.876 662.532 469.884C662.928 469.884 663.288 470.136 663.288 470.568C663.288 471.468 662.172 471.576 661.488 471.612C658.14 471.864 654.72 471.864 651.372 471.864C651.48 472.944 651.48 473.988 651.372 475.068C651.444 475.356 652.2 475.5 652.416 475.5C655.728 475.5 659.148 475.428 662.46 475.104C662.964 475.068 663.468 474.888 663.972 474.888C664.368 474.888 664.764 474.96 664.764 475.464C664.764 476.868 655.44 476.904 653.928 476.904C652.524 476.904 649.644 477.408 649.644 475.284C649.644 474.06 649.68 472.944 649.536 471.72C649.068 471.612 648.096 471.072 648.096 470.568ZM650.904 445.872C650.904 445.62 651.012 445.332 651.3 445.332C651.84 445.332 654.18 446.376 655.908 446.376C656.736 446.376 657.564 446.16 658.392 446.16C658.788 446.16 659.112 446.448 659.112 446.844C659.112 447.78 656.232 447.744 655.548 447.744C654.324 447.744 650.904 447.744 650.904 445.872ZM651.984 456.06C651.984 458.004 653.82 458.544 655.44 458.544C657.42 458.544 658.86 458.04 658.86 455.808C658.86 453.108 655.98 453.828 655.44 453C653.712 453.576 651.984 453.9 651.984 456.06Z" fill="white"/>
<g clip-path="url(#clip0_73_48)">
<ellipse cx="606" cy="640.5" rx="22" ry="6.5" fill="#5C4639" fill-opacity="0.51"/>
<path d="M606 561C590.52 561 578 573.52 578 589C578 595.96 580 602.48 583.64 608.36C587.44 614.52 592.44 619.8 596.28 625.96C598.16 628.96 599.52 631.76 600.96 635C602 637.2 602.84 641 606 641C609.16 641 610 637.2 611 635C612.48 631.76 613.8 628.96 615.68 625.96C619.52 619.84 624.52 614.56 628.32 608.36C632 602.48 634 595.96 634 589C634 573.52 621.48 561 606 561ZM606 600C600.48 600 596 595.52 596 590C596 584.48 600.48 580 606 580C611.52 580 616 584.48 616 590C616 595.52 611.52 600 606 600Z" fill="#5C4639"/>
</g>
<line x1="502" y1="821" x2="567" y2="821" stroke="#3398B6" stroke-width="4"/>
<path d="M565.056 820.532C564.797 821.606 565.458 822.686 566.532 822.944C567.606 823.203 568.686 822.542 568.944 821.468L565.056 820.532ZM607.706 657.956C607.129 657.014 605.898 656.718 604.956 657.294L589.603 666.689C588.661 667.266 588.364 668.497 588.941 669.439C589.517 670.381 590.748 670.678 591.691 670.101L605.338 661.75L613.689 675.397C614.266 676.339 615.497 676.636 616.439 676.059C617.381 675.483 617.678 674.252 617.101 673.309L607.706 657.956ZM568.944 821.468L607.944 659.468L604.056 658.532L565.056 820.532L568.944 821.468Z" fill="#3398B6"/>
<path d="M526.719 736.656L523.815 735.816L527.991 723.936H521.151L520.767 721.416H530.511L531.423 722.664L526.719 736.656ZM532.355 726.288H552.467V728.808H532.355V726.288ZM541.067 727.632H544.283V732.312H541.067V727.632ZM534.683 734.208H550.259V736.752H534.683V734.208ZM534.683 730.632H537.851V735.288H534.683V730.632ZM534.923 715.608H538.067V717.888H546.731V715.608H549.899V724.752H534.923V715.608ZM538.067 720.288V722.256H546.731V720.288H538.067ZM507.116 761.024L504.74 761.936C504.116 761.104 503.572 760.224 503.108 759.296C502.66 758.368 502.308 757.4 502.052 756.392C501.812 755.384 501.692 754.352 501.692 753.296C501.692 752.256 501.812 751.256 502.052 750.296C502.292 749.32 502.636 748.368 503.084 747.44C503.548 746.496 504.1 745.56 504.74 744.632L507.14 745.52C506.82 746 506.5 746.56 506.18 747.2C505.876 747.824 505.596 748.496 505.34 749.216C505.084 749.92 504.884 750.624 504.74 751.328C504.612 752.016 504.548 752.664 504.548 753.272C504.548 753.896 504.612 754.568 504.74 755.288C504.884 756.008 505.076 756.728 505.316 757.448C505.572 758.168 505.852 758.84 506.156 759.464C506.476 760.088 506.796 760.608 507.116 761.024ZM520.312 757.04L520 759.584H517.792V762.656H514.648V759.584H508L507.592 757.016L515.464 747.296H517.792V757.04H520.312ZM514.648 752.288L510.952 757.04H514.648V752.288ZM524.673 756.056H521.913L522.345 747.416H531.105L530.793 749.936H524.985L524.841 752.792C525.097 752.664 525.377 752.576 525.681 752.528C525.985 752.464 526.297 752.432 526.617 752.432C527.817 752.432 528.809 752.664 529.593 753.128C530.377 753.592 530.969 754.208 531.369 754.976C531.769 755.744 531.969 756.576 531.969 757.472C531.969 758.512 531.729 759.44 531.249 760.256C530.769 761.056 530.089 761.68 529.209 762.128C528.329 762.592 527.281 762.824 526.065 762.824C525.473 762.824 524.865 762.752 524.241 762.608C523.617 762.48 523.017 762.296 522.441 762.056C521.881 761.832 521.361 761.584 520.881 761.312L522.417 759.128C523.057 759.496 523.657 759.768 524.217 759.944C524.777 760.12 525.417 760.208 526.137 760.208C526.985 760.208 527.697 759.968 528.273 759.488C528.849 758.992 529.137 758.32 529.137 757.472C529.137 756.688 528.905 756.072 528.441 755.624C527.993 755.16 527.425 754.928 526.737 754.928C526.177 754.928 525.721 755.056 525.369 755.312C525.017 755.568 524.785 755.816 524.673 756.056ZM532.663 754.16C532.663 752.784 532.951 751.568 533.527 750.512C534.103 749.456 534.895 748.624 535.903 748.016C536.911 747.408 538.063 747.104 539.359 747.104C540.655 747.104 541.799 747.408 542.791 748.016C543.799 748.624 544.583 749.456 545.143 750.512C545.719 751.552 546.007 752.744 546.007 754.088C546.007 755.48 545.719 756.72 545.143 757.808C544.583 758.896 543.799 759.752 542.791 760.376C541.783 761 540.631 761.312 539.335 761.312C538.039 761.312 536.887 761.008 535.879 760.4C534.887 759.776 534.103 758.928 533.527 757.856C532.951 756.768 532.663 755.536 532.663 754.16ZM535.519 754.088C535.519 754.968 535.687 755.752 536.023 756.44C536.359 757.128 536.815 757.672 537.391 758.072C537.967 758.456 538.631 758.648 539.383 758.648C540.119 758.648 540.775 758.456 541.351 758.072C541.927 757.672 542.375 757.144 542.695 756.488C543.031 755.816 543.199 755.056 543.199 754.208C543.199 753.344 543.031 752.576 542.695 751.904C542.375 751.232 541.919 750.704 541.327 750.32C540.751 749.936 540.087 749.744 539.335 749.744C538.599 749.744 537.943 749.936 537.367 750.32C536.807 750.704 536.359 751.216 536.023 751.856C535.687 752.496 535.519 753.24 535.519 754.088ZM550.557 761H547.437V749.36H549.477L550.005 750.584C550.501 750.248 551.005 749.96 551.517 749.72C552.029 749.464 552.525 749.28 553.005 749.168C553.485 749.04 553.901 748.976 554.253 748.976C555.181 748.976 555.917 749.144 556.461 749.48C557.005 749.816 557.397 750.304 557.637 750.944C557.877 751.568 557.997 752.328 557.997 753.224V761H554.877V753.848C554.877 753.336 554.829 752.92 554.733 752.6C554.637 752.264 554.485 752.008 554.277 751.832C554.069 751.656 553.789 751.568 553.437 751.568C553.069 751.568 552.717 751.64 552.381 751.784C552.045 751.928 551.725 752.112 551.421 752.336C551.117 752.56 550.829 752.768 550.557 752.96V761ZM557.973 752.96L557.421 750.584C557.917 750.248 558.421 749.96 558.933 749.72C559.445 749.464 559.933 749.28 560.397 749.168C560.877 749.04 561.301 748.976 561.669 748.976C562.597 748.976 563.333 749.144 563.877 749.48C564.421 749.816 564.813 750.304 565.053 750.944C565.293 751.568 565.413 752.328 565.413 753.224V761H562.293V753.848C562.293 753.336 562.237 752.92 562.125 752.6C562.029 752.264 561.877 752.008 561.669 751.832C561.477 751.656 561.205 751.568 560.853 751.568C560.485 751.568 560.133 751.64 559.797 751.784C559.461 751.928 559.141 752.112 558.837 752.336C558.533 752.56 558.245 752.768 557.973 752.96ZM566.892 745.568L569.292 744.632C569.9 745.464 570.436 746.352 570.9 747.296C571.364 748.224 571.716 749.192 571.956 750.2C572.196 751.208 572.316 752.24 572.316 753.296C572.316 754.32 572.196 755.32 571.956 756.296C571.716 757.256 571.364 758.208 570.9 759.152C570.436 760.08 569.892 761.008 569.268 761.936L566.868 761.048C567.204 760.568 567.524 760.016 567.828 759.392C568.148 758.752 568.42 758.08 568.644 757.376C568.884 756.656 569.068 755.944 569.196 755.24C569.34 754.536 569.412 753.888 569.412 753.296C569.412 752.688 569.34 752.024 569.196 751.304C569.068 750.584 568.884 749.864 568.644 749.144C568.42 748.408 568.156 747.728 567.852 747.104C567.548 746.48 567.228 745.968 566.892 745.568Z" fill="#3398B6"/>
<defs>
<clipPath id="clip0_73_48">
<rect width="96" height="96" fill="white" transform="translate(558 551)"/>
</clipPath>
</defs>
</svg>
